<svg width="80" height="65" viewBox="0 0 80 65" fill="none" xmlns="http://www.w3.org/2000/svg">
<g clip-path="url(#clip0_3165_880)">
<path d="M66.7574 25.8503C49.1156 15.6462 30.8844 15.6462 13.2426 25.8503C4.39909 30.9297 0 36.0998 0 41.2698C0 46.4399 4.39909 51.61 13.2426 56.7347C30.8844 66.9388 49.1156 66.9388 66.7574 56.7347C75.6009 51.6553 80 46.4852 80 41.2698C80 36.0544 75.6009 30.9297 66.7574 25.8503Z" fill="#949494"/>
<path d="M66.7574 49.0249C49.1156 59.229 30.8844 59.229 13.2426 49.0249C4.39909 43.9455 0 38.7755 0 33.5601V41.2698C0 46.4399 4.39909 51.6099 13.2426 56.7347C30.8844 66.9387 49.1156 66.9387 66.7574 56.7347C75.6009 51.6553 80 46.4852 80 41.2698V33.5601C80 38.7755 75.6009 43.9455 66.7574 49.0249Z" fill="url(#paint0_linear_3165_880)"/>
<path d="M66.7574 18.1404C49.1156 7.93628 30.8844 7.93628 13.2426 18.1404C4.39909 23.2197 0 28.3898 0 33.5599C0 38.7299 4.39909 43.9 13.2426 49.0247C30.8844 59.2288 49.1156 59.2288 66.7574 49.0247C75.6009 43.9454 80 38.7299 80 33.5599C80 28.3898 75.6009 23.2197 66.7574 18.1404Z" fill="#FFDB32"/>
<path d="M56.4179 29.6144V27.3468V13.1064L48.2546 24.9432L46.9395 26.8026L56.4179 29.6144Z" fill="#E6EAEB"/>
<path d="M55.3286 0.0905269L61.4965 3.67329L61.5418 3.71864C61.9046 3.99075 62.1314 4.39892 62.1314 4.85243V7.34676V22.7663V25.2606C62.086 25.8955 61.9046 26.5304 61.5418 27.0747C61.2243 27.6642 60.7708 28.1631 60.1813 28.5259L30.9296 45.3513C30.5214 45.6234 30.0225 45.6688 29.569 45.4874L29.5237 45.442L23.3559 41.9046L23.3105 41.8592L23.2652 41.8139L23.1745 41.7232L23.1291 41.6778L23.0838 41.6325L23.0384 41.5418L22.993 41.4964L22.9477 41.4057L22.9023 41.315V41.2697V41.179V41.0883V40.9976V40.9069V40.8162V38.3672V20.408V20.2719V20.1812V20.0452V19.9545V19.8184L22.9477 19.6824L22.993 19.5463L23.0384 19.4103L23.0838 19.2742L23.1291 19.1381L23.1745 19.0021L23.2198 18.866L23.2652 18.73L23.3105 18.6393L23.3559 18.5486L23.4012 18.4579L23.4919 18.3218L23.5826 18.1858L23.6733 18.0951L23.764 18.0044L23.8547 17.9137L23.9454 17.823L24.0361 17.7322L24.1268 17.6415L24.2175 17.5508L24.3082 17.4601L24.3989 17.3694L24.4896 17.2787L24.6257 17.188L24.7164 17.0973L24.8071 17.0066L24.8978 16.9613L54.1495 0.0905269L54.2402 0.0451754L54.3309 -0.000176037L54.4216 -0.0455275L54.5123 -0.090879L54.603 -0.13623H54.6937H54.7844H54.8751H55.0565H55.1472H55.2379H55.3286H55.4194L55.3286 0.0905269Z" fill="#E6EAEB"/>
<path d="M28.9803 23.9456L22.8125 20.4082V22.8572L28.9803 26.4399V23.9456Z" fill="#C0392B"/>
<path d="M61.4973 3.67347L55.3295 0.0907029L55.2388 0.0453515H55.1481L55.1027 0H55.012H54.9213H54.8306H54.7399H54.6946L54.5585 0.0453515H54.5132L54.3771 0.0907029L54.2864 0.136054L54.1957 0.181406L54.105 0.226757L54.0143 0.272109L24.7626 17.1429L24.6719 17.1882L24.5812 17.2789L24.4905 17.3243L24.3998 17.415L24.2637 17.5057L24.173 17.5964L24.0823 17.6871L24.037 17.7324L23.9463 17.8685L23.8556 17.9592L23.7649 18.0499L23.6742 18.1406L23.5835 18.2766L23.5381 18.3673L23.4474 18.5034L23.4021 18.5941L23.3567 18.6848L23.266 18.8209L23.2207 18.9116L23.1753 19.0476L23.13 19.1383L23.0846 19.2744L23.0393 19.3651L22.9939 19.5011L22.9486 19.5918V19.7279L22.9032 19.8186V19.9546L22.8579 20.0454V20.1814L22.8125 20.2721V20.4082L28.9803 23.9456L29.0257 23.8549V23.7188V23.6281L29.071 23.4921V23.4014L29.1164 23.2653V23.1746L29.1617 23.0385L29.2071 22.9478L29.2524 22.8118L29.2978 22.7211L29.3431 22.585L29.3885 22.4943L29.4338 22.3583L29.5245 22.2676L29.5699 22.1769L29.6152 22.0408L29.7059 21.9501L29.7966 21.8141L29.842 21.7234L29.9327 21.6327L30.0234 21.4966L30.1141 21.4059L30.2048 21.3152L30.2955 21.2245L30.3408 21.1338L30.4769 21.0431L30.5676 20.9977L30.6583 20.907L30.749 20.8163L30.8397 20.771L30.9304 20.6803L60.1821 3.80952L60.2728 3.76417L60.3635 3.71882L60.4542 3.67347L60.5449 3.62812H60.681L60.7263 3.58277H60.8624H60.9531H60.9984H61.0891H61.1798H61.2706H61.3613L61.4066 3.62812L61.4973 3.67347Z" fill="#BDBDBD"/>
<path d="M28.9803 26.4397L22.8125 22.8569V38.3218V40.7708V40.8615L22.8579 40.9522V41.0882L22.9032 41.1789V41.2243L22.9486 41.315V41.4057L22.9939 41.4964L23.0393 41.5417L23.0846 41.6324L23.13 41.6778L23.1753 41.7231L23.2207 41.7685L23.266 41.8592H23.3567L29.5245 45.442L29.4338 45.3966L29.3885 45.3513L29.3431 45.3059L29.2978 45.2606L29.2524 45.1699L29.2071 45.1245L29.1617 45.0338L29.1164 44.9885V44.8977L29.071 44.807V44.7163L29.0257 44.6256V44.5349V44.4442L28.9803 44.3535V41.8592V26.4397Z" fill="#9C9C9C"/>
<path d="M61.5428 27.0294C61.8603 26.4851 62.087 25.8502 62.1324 25.2153L51.883 22.1768L47.0757 29.1609C46.6675 29.7505 46.1687 30.2493 45.5791 30.6121C45.1256 30.8842 44.5814 31.0203 44.0825 30.8842L39.2753 29.4783L28.9805 44.3536C28.9805 44.8071 29.1619 45.2607 29.57 45.4874C30.0236 45.6688 30.5224 45.6235 30.9306 45.3514L60.1823 28.4806C60.7265 28.1178 61.2254 27.6189 61.5428 27.0294Z" fill="#E6EAEB"/>
<path d="M28.9805 26.4399V41.8594V44.3538L39.2753 29.4785L37.824 29.0703L28.9805 26.4399Z" fill="#E6EAEB"/>
<path d="M60.1823 3.80935L30.9306 20.7255C30.341 21.0883 29.8875 21.5871 29.57 22.1767C29.2526 22.7209 29.0258 23.3558 28.9805 23.9908V26.4851L44.0372 30.9295C44.536 31.0656 45.0802 30.9295 45.5338 30.6574C46.1233 30.2946 46.6222 29.7957 47.0304 29.2062L62.1324 7.30142V4.80708C62.1324 4.35357 61.951 3.90005 61.5428 3.6733C61.0893 3.49189 60.5904 3.53724 60.1823 3.80935Z" fill="#E6EAEB"/>
<path d="M62.1324 7.30146V4.80713L46.5315 27.3922C46.2594 27.8003 45.9419 28.1178 45.5338 28.3445C45.2616 28.5713 44.8988 28.6167 44.5814 28.5713L28.9805 23.9455V26.4398L44.0372 30.8842C44.536 31.0203 45.0802 30.8842 45.5338 30.6121C46.1233 30.2493 46.6222 29.7504 47.0304 29.1609L62.1324 7.30146Z" fill="#E74C3C"/>
<path d="M29.4338 22.4036L23.266 18.8662L23.2207 18.9116L23.1753 19.0476L23.13 19.1383L23.0846 19.2744L23.0393 19.3651L22.9939 19.5011L22.9486 19.5918V19.7279L22.9032 19.8186V19.9546L22.8579 20.0454V20.1814L22.8125 20.2721V20.4082L28.9803 23.9456L29.0257 23.8549V23.7188V23.6281L29.071 23.4921V23.4014L29.1164 23.2653V23.1746L29.1617 23.0385L29.2071 22.9478L29.2524 22.8118L29.2978 22.7211L29.3431 22.585L29.3885 22.4943L29.4338 22.4036Z" fill="#9C9C9C"/>
<path d="M59.9096 2.7208L57.1885 1.17885L56.8711 1.04279L56.5536 0.997441L56.1908 0.906738H55.828H55.4652H55.1024L54.6942 0.95209L54.3314 1.04279L53.9232 1.1335L53.5151 1.26955L53.0615 1.4056L52.6534 1.58701L52.1999 1.81377L51.7917 2.04053L51.3382 2.31263L50.93 2.63009L50.4765 2.9022L50.0683 3.26501L49.6602 3.58248L49.252 3.94529L48.8439 4.35345L48.481 4.71626L48.0729 5.16978L47.7101 5.57794L47.3473 6.03145L47.0298 6.48497L46.667 6.93848L46.3495 7.43735L46.0321 7.93622L45.76 8.43508L45.4878 8.93395L45.2157 9.43281L44.9436 9.93168L44.7169 10.4759L44.4901 11.0201L44.3087 11.519L44.0819 12.0632L43.9459 12.6074L43.7645 13.1516L43.6284 13.6505L43.5377 14.1947L43.447 14.7389L43.3563 15.2378L43.311 15.782L43.2656 16.3262V16.8251V17.324L43.311 17.8228L43.3563 18.2764L43.447 18.6845L43.5377 19.138L43.6284 19.5008L43.7645 19.909L43.9459 20.2718L44.0819 20.5893L44.3087 20.9067L44.4901 21.2242L44.7169 21.4963L44.9436 21.7231L45.2157 21.9498L47.8915 23.4918L47.6647 23.265L47.3926 23.0383L47.2112 22.7661L46.9844 22.4487L46.803 22.1766L46.6216 21.8138L46.4856 21.451L46.3495 21.0881L46.2135 20.68L46.1228 20.2718L46.0321 19.8183L45.9867 19.3648L45.9414 18.8659V18.3671V17.8682L45.9867 17.324L46.0321 16.8251L46.1228 16.2809L46.2135 15.782L46.3495 15.2378L46.4856 14.6936L46.6216 14.1494L46.803 13.6052L46.9844 13.1063L47.2112 12.5621L47.3926 12.0178L47.6647 11.519L47.8915 10.9748L48.1636 10.4759L48.4357 9.97703L48.7532 9.47817L49.0706 8.9793L49.3881 8.52579L49.7055 8.02692L50.0683 7.57341L50.4312 7.16524L50.794 6.71173L51.1568 6.30356L51.5649 5.8954L51.9278 5.53259L52.3359 5.16978L52.7441 4.80697L53.1976 4.4895L53.6058 4.17204L54.0593 3.85458L54.4674 3.62783L54.921 3.35572L55.3291 3.17431L55.7826 2.94755L56.1908 2.8115L56.599 2.67545L57.0071 2.58474L57.4153 2.49404L57.7781 2.44869H58.1863H58.5491L58.9119 2.49404L59.2293 2.53939L59.5922 2.63009L59.9096 2.7208Z" fill="#298C52"/>
<path d="M54.4675 23.3105C59.184 20.5895 62.9936 14.0135 62.9936 8.57131C62.9936 3.12913 59.184 0.906913 54.4675 3.628C49.7509 6.34909 45.9414 12.9704 45.9414 18.4126C45.9414 23.8548 49.7963 26.0316 54.4675 23.3105Z" fill="#27AE60"/>
<path d="M55.6011 5.98633V19.6371L53.3789 20.907V9.52374V7.25617L55.6011 5.98633Z" fill="#E6E6E6"/>
<path d="M60.3637 8.75244L48.5723 15.5552V18.1402L58.4135 12.4713L60.3637 11.3375V8.75244Z" fill="#E6E6E6"/>
</g>
<defs>
<linearGradient id="paint0_linear_3165_880" x1="0" y1="48.9801" x2="79.9909" y2="48.9801" gradientUnits="userSpaceOnUse">
<stop stop-color="#FFED44"/>
<stop offset="0.07" stop-color="#FFF047"/>
<stop offset="0.3" stop-color="#FFF24A"/>
<stop offset="0.55" stop-color="#FFE23A"/>
<stop offset="0.74" stop-color="#FFDC34"/>
<stop offset="1" stop-color="#F9B519"/>
</linearGradient>
<clipPath id="clip0_3165_880">
<rect width="80" height="64.3991" fill="white"/>
</clipPath>
</defs>
</svg>
