<svg width="80" height="70" viewBox="0 0 80 70" fill="none" xmlns="http://www.w3.org/2000/svg">
<g clip-path="url(#clip0_3165_929)">
<path d="M66.7281 31.3361C49.0323 21.1979 30.7834 21.1979 13.2719 31.3361C4.42396 36.3131 0 41.4744 0 46.6356C0 51.7969 4.42396 56.9582 13.2719 62.1195C30.9677 72.2578 49.2166 72.2578 66.7281 62.1195C75.576 56.9582 80 51.7969 80 46.6356C80 41.4744 75.576 36.3131 66.7281 31.3361Z" fill="#949494"/>
<path d="M66.7281 54.3779C49.0323 64.5162 30.7834 64.5162 13.2719 54.3779C4.42396 49.2166 0 44.0553 0 38.894V46.636C0 51.7973 4.42396 56.9586 13.2719 62.1198C30.9677 72.2581 49.2166 72.4424 66.7281 62.1198C75.576 57.1429 80 51.9816 80 46.8203V39.0784C80 44.2397 75.576 49.401 66.7281 54.3779Z" fill="url(#paint0_linear_3165_929)"/>
<path d="M66.7281 23.5944C49.0323 13.4561 30.7834 13.2718 13.2719 23.5944C4.42396 28.5713 0 33.7326 0 38.8939C0 44.0552 4.42396 49.2165 13.2719 54.3778C30.9677 64.516 49.2166 64.7003 66.7281 54.3778C75.576 49.4008 80 44.2395 80 39.0782C80 33.9169 75.576 28.7556 66.7281 23.5944Z" fill="#FFDB32"/>
<mask id="mask0_3165_929" style="mask-type:luminance" maskUnits="userSpaceOnUse" x="0" y="15" width="80" height="48">
<path d="M66.7281 23.5944C49.0323 13.4561 30.7834 13.2718 13.2719 23.5944C4.42396 28.5713 0 33.7326 0 38.8939C0 44.0552 4.42396 49.2165 13.2719 54.3778C30.9677 64.516 49.2166 64.7003 66.7281 54.3778C75.576 49.4008 80 44.2395 80 39.0782C80 33.9169 75.576 28.7556 66.7281 23.5944Z" fill="white"/>
</mask>
<g mask="url(#mask0_3165_929)">
<path opacity="0.03" d="M96.9579 25.9907L92.9026 23.5944V26.728V22.4884C92.7183 19.5391 91.2436 16.9584 88.663 15.2994L84.239 12.7188C83.5017 11.2441 82.3957 9.95382 80.921 9.03216L66.3588 0.552896C65.6215 -9.91713e-05 64.5155 -0.184431 63.5938 0.368564L61.0132 1.84322C60.2759 2.39621 59.7229 3.31787 59.9072 4.42386V5.34552L53.6399 9.03216C52.7183 9.58515 52.3496 10.6911 52.3496 11.7971V29.493C52.5339 32.4423 54.0086 35.0229 56.5892 36.6819L77.7874 49.0322C78.7091 49.5852 79.815 49.7695 80.7367 49.4008L91.6123 43.1335C92.5339 42.5805 92.9026 41.4746 92.9026 40.3686V38.7096L95.6676 37.0506L96.9579 36.3133C97.3266 36.1289 97.5109 35.9446 97.5109 35.5759V26.728C97.5109 26.3593 97.1422 26.175 96.9579 25.9907Z" fill="#FEFDF9"/>
<path opacity="0.06" d="M95.8517 25.9904L91.7964 23.5941V26.7278V22.4881C91.6121 19.5388 90.1374 16.9582 87.5568 15.2992L83.3171 12.7186C82.5798 11.2439 81.4738 9.95358 80.1835 9.03192L65.6213 0.368326C64.884 -0.184669 63.778 -0.369001 62.8563 0.183994L60.0913 1.84298C59.354 2.39598 58.9853 3.31763 58.9853 4.23929V5.34528L52.7181 9.03192C51.7964 9.58491 51.4277 10.6909 51.4277 11.7969V29.4927C51.6121 32.4421 53.0867 35.0227 55.6674 36.6817L76.8655 49.0319C77.7872 49.5849 78.8932 49.7692 79.8148 49.4006L90.6904 43.1333C91.6121 42.5803 91.9807 41.4743 91.9807 40.3683V38.7093L94.7457 37.0503L96.036 36.313C96.4047 36.1287 96.589 35.9444 96.589 35.5757V26.7278C96.4047 26.3591 96.2204 26.1748 95.8517 25.9904Z" fill="#FEFAF4"/>
<path opacity="0.09" d="M94.9306 25.9907L90.8753 23.5944V26.728V22.4884C90.6909 19.5391 89.2163 16.9584 86.6356 15.2994L82.396 12.7188C81.6587 11.2441 80.5527 9.95382 79.2624 9.03216L64.5158 0.552896C63.7785 -9.91713e-05 62.6725 -0.184431 61.7508 0.368564L58.9859 1.84322C58.2485 2.39621 57.6955 3.31787 57.8799 4.42386V5.34552L51.6126 9.03216C50.6909 9.58515 50.3223 10.6911 50.3223 11.7971V29.493C50.5066 32.4423 51.9813 35.0229 54.5619 36.6819L75.7601 49.0322C76.6817 49.5852 77.7877 49.7695 78.7094 49.4008L89.5849 43.1335C90.5066 42.5805 90.8753 41.4746 90.8753 40.3686V38.7096L93.6402 37.0506L94.9306 36.3133C95.2992 36.1289 95.4836 35.9446 95.4836 35.5759V26.9123C95.4836 26.3593 95.2992 26.175 94.9306 25.9907Z" fill="#FDF8EE"/>
<path opacity="0.12" d="M93.8244 25.9904L89.7691 23.5941V26.7278V22.4881C89.5847 19.5388 88.1101 16.9582 85.5294 15.2992L81.1055 12.7186C80.3681 11.2439 79.2621 9.95358 77.9718 9.03192L63.4096 0.368326C62.6723 -0.184669 61.5663 -0.369001 60.6446 0.183994L58.064 1.84298C57.3267 2.39598 56.7737 3.31763 56.958 4.42363V5.34528L50.6907 9.03192C49.7691 9.58491 49.4004 10.6909 49.4004 11.7969V29.4927C49.5847 32.4421 51.0594 35.0227 53.4557 36.6817L74.6538 49.0319C75.5755 49.5849 76.6815 49.7692 77.6032 49.4006L88.4787 43.1333C89.4004 42.5803 89.7691 41.4743 89.7691 40.3683V38.7093L92.534 37.0503L93.8244 36.313C94.193 36.1287 94.3773 35.9444 94.3773 35.5757V26.9121C94.3773 26.3591 94.193 26.1748 93.8244 25.9904Z" fill="#FCF6E9"/>
<path opacity="0.15" d="M92.9025 25.9904L88.8472 23.5941V26.7278V22.4881C88.6628 19.5388 87.1882 16.9582 84.6076 15.2992L80.1836 12.7186C79.4463 11.2439 78.3403 9.95358 77.0499 9.03192L62.4877 0.368326C61.7504 -0.184669 60.6444 -0.369001 59.7228 0.183994L57.1421 1.84298C56.4048 2.39598 55.8518 3.31763 56.0361 4.42363V5.34528L49.7688 9.03192C48.8472 9.58492 48.4785 10.6909 48.4785 11.7969V29.4927C48.6628 32.4421 50.1375 35.0227 52.7181 36.6817L73.732 48.8476C74.6536 49.4006 75.7596 49.5849 76.6813 49.2163L87.5569 42.949C88.4785 42.396 88.8472 41.29 88.8472 40.184V38.525L91.6122 36.866L92.9025 36.1287C93.2711 35.9444 93.4555 35.76 93.4555 35.3914V26.7278C93.4555 26.3591 93.2711 26.1748 92.9025 25.9904Z" fill="#FCF3E3"/>
<path opacity="0.18" d="M91.797 25.9904L87.7417 23.5941V26.7278V22.4881C87.5574 19.5388 86.0827 16.9582 83.5021 15.2992L79.2624 12.7186C78.5251 11.2439 77.4191 9.95358 76.1288 9.03192L61.5666 0.368326C60.8293 -0.184669 59.7233 -0.369001 58.8016 0.183994L56.0366 1.84298C55.2993 2.39598 54.7463 3.31763 54.9306 4.42363V5.34528L48.6634 9.03192C47.7417 9.58491 47.373 10.6909 47.373 11.7969V29.4927C47.5574 32.4421 49.032 35.0227 51.6127 36.6817L72.8108 49.0319C73.7325 49.5849 74.8385 49.7692 75.7601 49.4006L86.82 43.1333C87.7417 42.5803 88.1104 41.4743 88.1104 40.3683V38.7093L90.8753 37.0503L92.1657 36.313C92.5343 36.1287 92.7187 35.9444 92.7187 35.5757V26.9121C92.5343 26.3591 92.1657 26.1748 91.797 25.9904Z" fill="#FBF1DD"/>
<path opacity="0.21" d="M90.8751 25.9904L86.8198 23.5941V26.7278V22.4881C86.6355 19.5388 85.1608 16.9582 82.5802 15.2992L78.1562 12.7186C77.4189 11.2439 76.3129 9.95358 75.0226 9.03192L60.4604 0.368326C59.7231 -0.184669 58.6171 -0.369001 57.6954 0.183994L55.1148 1.84298C54.3774 2.39598 53.8244 3.31763 54.0088 4.42363V5.34528L47.7415 9.03192C46.8198 9.58492 46.4512 10.6909 46.4512 11.7969V29.4927C46.6355 32.4421 48.1102 35.0227 50.6908 36.6817L71.889 48.8476C72.8106 49.4006 73.9166 49.5849 74.8383 49.2163L85.7138 42.949C86.6355 42.396 87.0042 41.29 87.0042 40.184V38.525L89.7691 36.866L91.0595 36.1287C91.4281 35.9444 91.6125 35.76 91.6125 35.3914V26.7278C91.4281 26.3591 91.2438 26.1748 90.8751 25.9904Z" fill="#FAEFD8"/>
<path opacity="0.24" d="M89.954 25.9904L85.8987 23.5941V26.7278V22.4881C85.7144 19.5388 84.2397 16.9582 81.6591 15.2992L77.2351 12.7186C76.4978 11.2439 75.3918 9.95358 74.1015 9.03192L59.5392 0.368326C58.8019 -0.184669 57.6959 -0.369001 56.7743 0.183994L54.0093 1.84298C53.272 2.39598 52.719 3.31763 52.9033 4.42363V5.34528L46.636 9.03192C45.7144 9.58491 45.3457 10.6909 45.3457 11.7969V29.4927C45.53 32.4421 47.0047 35.0227 49.5853 36.6817L70.7835 49.0319C71.7052 49.5849 72.8111 49.7692 73.7328 49.4006L84.6084 43.1333C85.53 42.5803 85.8987 41.4743 85.8987 40.3683V38.7093L88.6637 37.0503L89.954 36.313C90.3227 36.1287 90.507 35.9444 90.507 35.5757V26.9121C90.3227 26.3591 90.1383 26.1748 89.954 25.9904Z" fill="#F9EDD2"/>
<path opacity="0.27" d="M88.8485 25.9904L84.7932 23.5941V26.7278V22.4881C84.6089 19.5388 83.1342 16.9582 80.5536 15.2992L76.1296 12.7186C75.3923 11.2439 74.2863 9.95358 72.996 9.03192L58.4338 0.368326C57.6965 -0.184669 56.5905 -0.369001 55.6688 0.183994L53.0882 1.84298C52.3508 2.39598 51.7978 3.31763 51.9822 4.42363V5.34528L45.7149 9.03192C44.6089 9.58492 44.2402 10.6909 44.2402 11.6126V29.3084C44.4246 32.2577 45.8992 34.8384 48.4799 36.4974L69.678 48.8476C70.5997 49.4006 71.7057 49.5849 72.6273 49.2163L83.5029 42.949C84.4246 42.396 84.9776 41.29 84.7932 40.184V38.525L87.5582 36.866L88.8485 36.1287C89.2172 35.9444 89.4015 35.76 89.4015 35.3914V26.7278C89.4015 26.3591 89.2172 26.1748 88.8485 25.9904Z" fill="#F9EACD"/>
<path opacity="0.3" d="M87.9267 25.9904L83.8714 23.5941V26.7278V22.4881C83.687 19.5388 82.2124 16.9582 79.6317 15.2992L75.2078 12.7186C74.4704 11.2439 73.3644 9.95358 72.0741 9.03192L57.5119 0.368326C56.7746 -0.184669 55.6686 -0.369001 54.7469 0.183994L51.982 1.84298C51.2446 2.39598 50.6916 3.31763 50.876 4.42363V5.34528L44.6087 9.03192C43.687 9.58491 43.3184 10.6909 43.3184 11.7969V29.4927C43.5027 32.4421 44.9773 35.0227 47.558 36.6817L68.7561 49.0319C69.6778 49.5849 70.7838 49.7692 71.7055 49.4006L82.581 43.1333C83.5027 42.5803 83.8714 41.4743 83.8714 40.3683V38.7093L86.6363 37.0503L87.9267 36.313C88.2953 36.1287 88.4797 35.9444 88.4797 35.5757V26.7278C88.2953 26.3591 88.111 26.1748 87.9267 25.9904Z" fill="#F8E8C7"/>
<path opacity="0.33" d="M86.8192 25.9904L82.7639 23.5941V26.7278V22.4881C82.5796 19.5388 81.1049 16.9582 78.5243 15.2992L74.1003 12.7186C73.363 11.2439 72.257 9.95358 70.9667 9.03192L56.4045 0.368326C55.6672 -0.184669 54.5612 -0.369001 53.6395 0.183994L51.0589 1.84298C50.1372 2.39598 49.7685 3.31763 49.7685 4.23929V5.34528L43.5013 9.03192C42.5796 9.58491 42.2109 10.6909 42.2109 11.7969V29.4927C42.3953 32.4421 43.8699 35.0227 46.4506 36.6817L67.6487 49.0319C68.5704 49.5849 69.6764 49.7692 70.598 49.4006L81.4736 43.1333C82.3953 42.5803 82.7639 41.4743 82.7639 40.3683V38.7093L85.5289 37.0503L86.8192 36.313C87.1879 36.1287 87.3722 35.9444 87.3722 35.5757V26.7278C87.3722 26.3591 87.1879 26.1748 86.8192 25.9904Z" fill="#F7E6C1"/>
<path opacity="0.36" d="M85.8974 25.9907L81.8421 23.5944V26.728V22.4884C81.6577 19.5391 80.1831 16.9584 77.6024 15.2994L73.1785 12.7188C72.4411 11.2441 71.3351 9.95382 70.0448 9.03216L55.4826 0.552896C54.7453 -9.91713e-05 53.6393 -0.184431 52.7176 0.368564L49.9527 1.84322C49.2153 2.39621 48.6623 3.31787 48.8467 4.42386V5.34552L42.5794 9.03216C41.6577 9.58515 41.2891 10.6911 41.2891 11.7971V29.493C41.4734 32.4423 42.9481 35.0229 45.5287 36.6819L66.7269 49.0322C67.6485 49.5852 68.7545 49.7695 69.6762 49.4008L80.5517 43.1335C81.4734 42.5805 81.8421 41.4746 81.8421 40.3686V38.7096L84.607 37.0506L85.8974 36.3133C86.266 36.1289 86.4504 35.9446 86.4504 35.5759V26.728C86.4504 26.3593 86.0817 26.175 85.8974 25.9907Z" fill="#F7E3BC"/>
<path opacity="0.39" d="M84.7931 25.9904L80.7378 23.5941V26.7278V22.4881C80.5535 19.5388 79.0788 16.9582 76.4982 15.2992L72.0742 12.7186C71.3369 11.2439 70.2309 9.95358 68.9406 9.03192L54.3784 0.368326C53.641 -0.184669 52.535 -0.369001 51.6134 0.183994L49.0327 1.84298C48.2954 2.39598 47.7424 3.31763 47.9267 4.42363V5.34528L41.6595 9.03192C40.7378 9.58491 40.3691 10.6909 40.3691 11.7969V29.4927C40.5535 32.4421 42.0281 35.0227 44.6088 36.6817L65.8069 49.0319C66.7286 49.5849 67.8346 49.7692 68.7562 49.4006L79.6318 43.1333C80.5535 42.5803 80.9221 41.4743 80.9221 40.3683V38.7093L83.6871 37.0503L84.9774 36.313C85.3461 36.1287 85.5304 35.9444 85.5304 35.5757V26.7278C85.3461 26.3591 85.1618 26.1748 84.7931 25.9904Z" fill="#F6E1B6"/>
<path opacity="0.42" d="M83.87 25.9907L79.8147 23.5944V26.728V22.4884C79.6304 19.5391 78.1557 16.9584 75.5751 15.2994L71.3355 12.7188C70.5981 11.2441 69.4921 9.95382 68.2018 9.03216L53.4553 0.552896C52.5336 -9.91713e-05 51.4276 -0.184431 50.506 0.368564L47.9253 1.84322C47.188 2.39621 46.635 3.31787 46.8193 4.42386V5.34552L40.552 9.03216C39.6304 9.58515 39.2617 10.6911 39.2617 11.7971V29.493C39.4461 32.4423 40.9207 35.0229 43.5014 36.6819L64.6995 49.0322C65.6212 49.5852 66.7272 49.7695 67.6488 49.4008L78.5244 43.1335C79.446 42.5805 79.8147 41.4746 79.8147 40.3686V38.7096L82.5797 37.0506L83.87 36.3133C84.2387 36.1289 84.423 35.9446 84.423 35.5759V26.9123C84.423 26.3593 84.2387 26.175 83.87 25.9907Z" fill="#F5DFB1"/>
<path opacity="0.45" d="M82.7638 25.9904L78.7085 23.5941V26.7278V22.4881C78.5242 19.5388 77.0495 16.9582 74.4689 15.2992L70.0449 12.7186C69.3076 11.2439 68.2016 9.95358 66.9113 9.03192L52.3491 0.368326C51.6117 -0.184669 50.5057 -0.369001 49.5841 0.183994L47.0034 1.84298C46.2661 2.39598 45.7131 3.31763 45.8974 4.42363V5.34528L39.6302 9.03192C38.7085 9.58491 38.3398 10.6909 38.3398 11.7969V29.4927C38.5242 32.4421 39.9988 35.0227 42.5795 36.6817L63.7776 49.0319C64.6993 49.5849 65.8053 49.7692 66.7269 49.4006L77.6025 43.1333C78.5242 42.5803 78.8928 41.4743 78.8928 40.3683V38.7093L81.6578 37.0503L82.9481 36.313C83.3168 36.1287 83.5011 35.9444 83.5011 35.5757V26.9121C83.3168 26.3591 83.1325 26.1748 82.7638 25.9904Z" fill="#F5DCAB"/>
<path opacity="0.48" d="M81.8427 25.9904L77.7874 23.5941V26.7278V22.4881C77.603 19.5388 76.1284 16.9582 73.5477 15.2992L69.1238 12.7186C68.3864 11.2439 67.2805 9.95358 65.9901 9.03192L51.4279 0.368326C50.6906 -0.184669 49.5846 -0.369001 48.6629 0.183994L45.898 1.84298C45.1606 2.39598 44.6076 3.31763 44.792 4.42363V5.34528L38.5247 9.03192C37.603 9.58492 37.2344 10.6909 37.2344 11.7969V29.4927C37.4187 32.4421 38.8934 35.0227 41.474 36.6817L62.6722 48.8476C63.5938 49.4006 64.6998 49.5849 65.6215 49.2163L76.497 42.949C77.4187 42.396 77.7874 41.29 77.7874 40.184V38.525L80.5523 36.866L81.8427 36.1287C82.2113 35.9444 82.3957 35.76 82.3957 35.3914V26.7278C82.3957 26.3591 82.2113 26.1748 81.8427 25.9904Z" fill="#F4DAA5"/>
<path opacity="0.52" d="M80.7365 25.9904L76.6812 23.5941V26.7278V22.4881C76.4968 19.5388 75.0222 16.9582 72.4415 15.2992L68.2019 12.7186C67.4646 11.2439 66.3586 9.95358 65.0683 9.03192L50.506 0.368326C49.7687 -0.184669 48.6627 -0.369001 47.7411 0.183994L44.9761 1.84298C44.2388 2.39598 43.6858 3.31763 43.8701 4.42363V5.34528L37.6028 9.03192C36.6812 9.58491 36.3125 10.6909 36.3125 11.7969V29.4927C36.4968 32.4421 37.9715 35.0227 40.5521 36.6817L61.7503 49.0319C62.6719 49.5849 63.7779 49.7692 64.6996 49.4006L75.5752 43.1333C76.4968 42.5803 76.8655 41.4743 76.8655 40.3683V38.7093L79.6305 37.0503L80.9208 36.313C81.2895 36.1287 81.4738 35.9444 81.4738 35.5757V26.7278C81.2895 26.3591 81.1051 26.1748 80.7365 25.9904Z" fill="#F3D8A0"/>
<path opacity="0.55" d="M79.8153 25.9904L75.76 23.5941V26.7278V22.4881C75.5757 19.5388 74.101 16.9582 71.5204 15.2992L67.0964 12.7186C66.3591 11.2439 65.2531 9.95358 63.9628 9.03192L49.4006 0.368326C48.6632 -0.184669 47.5573 -0.369001 46.6356 0.183994L43.8706 1.84298C43.1333 2.39598 42.5803 3.31763 42.7646 4.42363V5.34528L36.4974 9.03192C35.5757 9.58491 35.207 10.6909 35.207 11.7969V29.4927C35.3914 32.4421 36.866 35.0227 39.4467 36.6817L60.6448 49.0319C61.5665 49.5849 62.6725 49.7692 63.5941 49.4006L74.4697 43.1333C75.3914 42.5803 75.76 41.4743 75.76 40.3683V38.7093L78.525 37.0503L79.8153 36.313C80.184 36.1287 80.3683 35.9444 80.3683 35.5757V26.7278C80.3683 26.3591 80.184 26.1748 79.8153 25.9904Z" fill="#F2D69A"/>
<path opacity="0.58" d="M78.7091 25.9904L74.6538 23.5941V26.7278V22.4881C74.4695 19.5388 72.9948 16.9582 70.4142 15.2992L65.9902 12.7186C65.2529 11.2439 64.1469 9.95358 62.8566 9.03192L48.2944 0.368326C47.557 -0.184669 46.4511 -0.369001 45.5294 0.183994L42.9487 1.84298C42.2114 2.39598 41.6584 3.31763 41.8428 4.42363V5.34528L35.5755 9.03192C34.6538 9.58491 34.2852 10.6909 34.2852 11.7969V29.4927C34.4695 32.4421 35.9441 35.0227 38.5248 36.6817L59.7229 49.0319C60.6446 49.5849 61.7506 49.7692 62.6723 49.4006L73.5478 43.1333C74.4695 42.5803 74.8381 41.4743 74.8381 40.3683V38.7093L77.6031 37.0503L78.8934 36.313C79.2621 36.1287 79.4464 35.9444 79.4464 35.5757V26.9121C79.2621 26.3591 79.0778 26.1748 78.7091 25.9904Z" fill="#F2D394"/>
<path opacity="0.61" d="M77.788 25.9904L73.7327 23.5941V26.7278V22.4881C73.5484 19.5388 72.0737 16.9582 69.4931 15.2992L65.0691 12.7186C64.3318 11.2439 63.2258 9.95358 61.9354 9.03192L47.3732 0.368326C46.6359 -0.184669 45.5299 -0.369001 44.6083 0.183994L42.0276 1.84298C41.2903 2.39598 40.7373 3.31763 40.9216 4.42363V5.34528L34.6543 9.03192C33.5483 9.58492 33.1797 10.6909 33.1797 11.6126V29.3084C33.364 32.2577 34.8387 34.8384 37.4193 36.4974L58.6175 48.8476C59.5391 49.4006 60.6451 49.5849 61.5668 49.2163L72.4424 42.949C73.364 42.396 73.917 41.29 73.7327 40.184V38.525L76.4977 36.866L77.788 36.1287C78.1566 35.9444 78.341 35.76 78.341 35.3914V26.7278C78.341 26.3591 78.1566 26.1748 77.788 25.9904Z" fill="#F1D18F"/>
<path opacity="0.64" d="M76.8661 25.9904L72.8108 23.5941V26.7278V22.4881C72.6265 19.5388 71.1518 16.9582 68.5712 15.2992L64.1472 12.7186C63.4099 11.2439 62.3039 9.95358 61.0136 9.03192L46.4514 0.368326C45.714 -0.184669 44.608 -0.369001 43.6864 0.183994L40.9214 1.84298C40.1841 2.39598 39.6311 3.31763 39.8154 4.42363V5.34528L33.5481 9.03192C32.6265 9.58491 32.2578 10.6909 32.2578 11.7969V29.4927C32.4421 32.4421 33.9168 35.0227 36.4974 36.6817L57.6956 49.0319C58.6173 49.5849 59.7233 49.7692 60.6449 49.4006L71.5205 43.1333C72.4421 42.5803 72.8108 41.4743 72.8108 40.3683V38.7093L75.5758 37.0503L76.8661 36.313C77.2348 36.1287 77.4191 35.9444 77.4191 35.5757V26.7278C77.2348 26.3591 77.0504 26.1748 76.8661 25.9904Z" fill="#F0CF89"/>
<path opacity="0.67" d="M75.7606 25.9904L71.7053 23.5941V26.7278V22.4881C71.521 19.5388 70.0464 16.9582 67.4657 15.2992L63.0417 12.7186C62.3044 11.2439 61.1984 9.95358 59.9081 9.03192L45.3459 0.368326C44.6086 -0.184669 43.5026 -0.369001 42.5809 0.183994L40.0003 1.84298C39.0786 2.39598 38.7099 3.31763 38.7099 4.23929V5.34528L32.4427 9.03192C31.521 9.58492 31.1523 10.6909 31.1523 11.7969V29.4927C31.3367 32.4421 32.8113 35.0227 35.392 36.6817L56.7745 48.8476C57.6961 49.4006 58.8021 49.5849 59.7238 49.2163L70.5993 42.949C71.521 42.396 71.8897 41.29 71.8897 40.184V38.525L74.6546 36.866L75.945 36.1287C76.3136 35.9444 76.498 35.76 76.498 35.3914V26.7278C76.3136 26.3591 76.1293 26.1748 75.7606 25.9904Z" fill="#F0CC84"/>
<path opacity="0.7" d="M74.6532 25.9907L70.5979 23.5944V26.728V22.4884C70.4136 19.5391 68.9389 16.9584 66.3583 15.2994L61.9343 12.7188C61.197 11.2441 60.091 9.95382 58.8007 9.03216L44.0541 0.552896C43.3168 -9.91713e-05 42.2108 -0.184431 41.2892 0.368564L38.8929 1.84322C38.1555 2.39621 37.6025 3.31787 37.7869 4.42386V5.34552L31.3352 9.03216C30.4136 9.58515 30.0449 10.6911 30.0449 11.7971V29.493C30.2293 32.4423 31.7039 35.0229 34.2846 36.6819L55.4827 49.0322C56.4044 49.5852 57.5104 49.7695 58.432 49.4008L69.3076 43.1335C70.2293 42.5805 70.5979 41.4746 70.5979 40.3686V38.7096L73.3629 37.0506L74.6532 36.3133C75.0219 36.1289 75.2062 35.9446 75.2062 35.5759V26.9123C75.2062 26.3593 75.0219 26.175 74.6532 25.9907Z" fill="#EFCA7E"/>
<path opacity="0.73" d="M73.7326 25.9904L69.6773 23.5941V26.7278V22.4881C69.4929 19.5388 68.0183 16.9582 65.4376 15.2992L61.0137 12.7186C60.2763 11.2439 59.1703 9.95358 57.88 9.03192L43.1335 0.368326C42.3962 -0.184669 41.2902 -0.369001 40.3685 0.183994L37.9722 1.84298C37.2349 2.39598 36.6819 3.31763 36.8662 4.42363V5.34528L30.5989 9.03192C29.6773 9.58491 29.3086 10.6909 29.3086 11.7969V29.4927C29.4929 32.4421 30.9676 35.0227 33.5482 36.6817L54.7464 49.0319C55.668 49.5849 56.774 49.7692 57.6957 49.4006L68.5713 43.1333C69.4929 42.5803 69.8616 41.4743 69.8616 40.3683V38.7093L72.6266 37.0503L73.9169 36.313C74.2856 36.1287 74.4699 35.9444 74.4699 35.5757V26.7278C74.2856 26.3591 74.1012 26.1748 73.7326 25.9904Z" fill="#EEC878"/>
<path opacity="0.76" d="M72.8114 25.9907L68.7561 23.5944V26.728V22.4884C68.5718 19.5391 67.0971 16.9584 64.5165 15.2994L60.0925 12.7188C59.3552 11.2441 58.2492 9.95382 56.9589 9.03216L42.3967 0.552896C41.6593 -9.91713e-05 40.5534 -0.184431 39.6317 0.368564L36.8667 1.84322C36.1294 2.39621 35.5764 3.31787 35.7607 4.42386V5.34552L29.4934 9.03216C28.5718 9.58515 28.2031 10.6911 28.2031 11.7971V29.493C28.3875 32.4423 29.8621 35.0229 32.4428 36.6819L53.6409 49.0322C54.5626 49.5852 55.6686 49.7695 56.5902 49.4008L67.4658 43.1335C68.3875 42.5805 68.7561 41.4746 68.7561 40.3686V38.7096L71.5211 37.0506L72.8114 36.3133C73.1801 36.1289 73.3644 35.9446 73.3644 35.5759V26.9123C73.3644 26.3593 72.9958 26.175 72.8114 25.9907Z" fill="#EEC573"/>
<path opacity="0.79" d="M71.7052 25.9904L67.6499 23.5941V26.7278V22.4881C67.4656 19.5388 65.9909 16.9582 63.4103 15.2992L58.9863 12.7186C58.249 11.2439 57.143 9.95358 55.8527 9.03192L41.2905 0.368326C40.5531 -0.184669 39.4471 -0.369001 38.5255 0.183994L35.9448 1.84298C35.2075 2.39598 34.6545 3.31763 34.8389 4.42363V5.34528L28.5716 9.03192C27.6499 9.58491 27.2812 10.6909 27.2812 11.7969V29.4927C27.4656 32.4421 28.9402 35.0227 31.5209 36.6817L52.719 49.0319C53.6407 49.5849 54.7467 49.7692 55.6683 49.4006L66.5439 43.1333C67.4656 42.5803 67.8342 41.4743 67.8342 40.3683V38.7093L70.5992 37.0503L71.8895 36.313C72.2582 36.1287 72.4425 35.9444 72.4425 35.5757V26.9121C72.2582 26.3591 72.0739 26.1748 71.7052 25.9904Z" fill="#EDC36D"/>
<path opacity="0.82" d="M70.7821 25.9904L66.7268 23.5941V26.7278V22.4881C66.5425 19.5388 65.0678 16.9582 62.4872 15.2992L58.0632 12.7186C57.3259 11.2439 56.2199 9.95358 54.9296 9.03192L40.183 0.368326C39.4457 -0.184669 38.3397 -0.369001 37.4181 0.183994L34.8374 1.84298C34.1001 2.39598 33.5471 3.31763 33.7314 4.42363V5.34528L27.4642 9.03192C26.5425 9.58492 26.1738 10.6909 26.1738 11.7969V29.4927C26.3582 32.4421 27.8328 35.0227 30.4135 36.6817L51.6116 48.8476C52.5333 49.4006 53.6393 49.5849 54.5609 49.2163L65.4365 42.949C66.3582 42.396 66.7268 41.29 66.7268 40.184V38.525L69.4918 36.866L70.7821 36.1287C71.1508 35.9444 71.3351 35.76 71.3351 35.3914V26.7278C71.3351 26.3591 70.9665 26.1748 70.7821 25.9904Z" fill="#ECC168"/>
<path opacity="0.85" d="M69.6779 25.9904L65.6226 23.5941V26.7278V22.4881C65.4382 19.5388 63.9636 16.9582 61.3829 15.2992L57.1433 12.7186C56.406 11.2439 55.3 9.95358 54.0097 9.03192L39.2631 0.368326C38.5258 -0.184669 37.4198 -0.369001 36.4981 0.183994L33.9175 1.84298C33.1802 2.39598 32.6272 3.31763 32.8115 4.42363V5.34528L26.5442 9.03192C25.6226 9.58491 25.2539 10.6909 25.2539 11.7969V29.4927C25.4382 32.4421 26.9129 35.0227 29.4935 36.6817L50.6917 49.0319C51.6134 49.5849 52.7193 49.7692 53.641 49.4006L64.5166 43.1333C65.4382 42.5803 65.8069 41.4743 65.8069 40.3683V38.7093L68.5719 37.0503L69.8622 36.313C70.2309 36.1287 70.4152 35.9444 70.4152 35.5757V26.7278C70.2309 26.3591 70.0465 26.1748 69.6779 25.9904Z" fill="#EBBF62"/>
<path opacity="0.88" d="M68.7548 25.9904L64.6995 23.5941V26.7278V22.4881C64.5151 19.5388 63.0405 16.9582 60.4598 15.2992L56.0359 12.7186C55.2986 11.2439 54.1926 9.95358 52.9022 9.03192L38.34 0.368326C37.6027 -0.184669 36.4967 -0.369001 35.5751 0.183994L32.8101 1.84298C32.0727 2.39598 31.5198 3.31763 31.7041 4.42363V5.34528L25.4368 9.03192C24.5151 9.58491 24.1465 10.6909 24.1465 11.7969V29.4927C24.3308 32.4421 25.8055 35.0227 28.3861 36.6817L49.5843 49.0319C50.5059 49.5849 51.6119 49.7692 52.5336 49.4006L63.4092 43.1333C64.3308 42.5803 64.6995 41.4743 64.5151 40.3683V38.7093L67.2801 37.0503L68.5704 36.313C68.9391 36.1287 69.1234 35.9444 69.1234 35.5757V26.9121C69.1234 26.5434 68.9391 26.1748 68.7548 25.9904Z" fill="#EBBC5C"/>
<path opacity="0.91" d="M67.6486 25.9904L63.5933 23.5941V26.7278V22.4881C63.4089 19.5388 61.9343 16.9582 59.3536 15.2992L54.9297 12.7186C54.1923 11.2439 53.0864 9.95358 51.796 9.03192L37.0495 0.368326C36.3122 -0.184669 35.2062 -0.369001 34.2845 0.183994L31.8882 1.84298C31.1509 2.39598 30.5979 3.31763 30.7822 4.42363V5.34528L24.5149 9.03192C23.5933 9.58491 23.2246 10.6909 23.2246 11.7969V29.4927C23.4089 32.4421 24.8836 35.0227 27.4642 36.6817L48.6624 49.0319C49.5841 49.5849 50.69 49.7692 51.6117 49.4006L62.4873 43.1333C63.4089 42.5803 63.7776 41.4743 63.7776 40.3683V38.7093L66.5426 37.0503L67.8329 36.313C68.2016 36.1287 68.3859 35.9444 68.3859 35.5757V26.9121C68.2016 26.3591 68.0172 26.1748 67.6486 25.9904Z" fill="#EABA57"/>
<path opacity="0.94" d="M66.7274 25.9904L62.6721 23.5941V26.7278V22.4881C62.4878 19.5388 61.0132 16.9582 58.4325 15.2992L54.0085 12.7186C53.2712 11.2439 52.1652 9.95358 50.8749 9.03192L36.3127 0.368326C35.5754 -0.184669 34.4694 -0.369001 33.5477 0.183994L30.7827 1.84298C30.0454 2.39598 29.4924 3.31763 29.6767 4.42363V5.34528L23.4095 9.03192C22.4878 9.58492 22.1191 10.6909 22.1191 11.6126V29.3084C22.3035 32.2577 23.7781 34.8384 26.3588 36.4974L47.5569 48.8476C48.4786 49.4006 49.5846 49.5849 50.5062 49.2163L61.3818 42.949C62.3035 42.396 62.6721 41.29 62.6721 40.184V38.525L65.4371 36.866L66.7274 36.1287C67.0961 35.9444 67.2804 35.76 67.2804 35.3914V26.7278C67.2804 26.3591 66.9118 26.1748 66.7274 25.9904Z" fill="#E9B851"/>
<path opacity="0.97" d="M65.6212 25.9904L61.5659 23.5941V26.7278V22.4881C61.3816 19.5388 59.9069 16.9582 57.3263 15.2992L52.9023 12.7186C52.165 11.2439 51.059 9.95358 49.7687 9.03192L35.2065 0.368326C34.4692 -0.184669 33.3632 -0.369001 32.4415 0.183994L29.8609 1.84298C29.1235 2.39598 28.5705 3.31763 28.7549 4.42363V5.34528L22.4876 9.03192C21.5659 9.58491 21.1973 10.6909 21.1973 11.7969V29.4927C21.3816 32.4421 22.8563 35.0227 25.4369 36.6817L46.6351 49.0319C47.5567 49.5849 48.6627 49.7692 49.5844 49.4006L60.4599 43.1333C61.3816 42.5803 61.7503 41.4743 61.7503 40.3683V38.7093L64.5152 37.0503L65.8056 36.313C66.1742 36.1287 66.3586 35.9444 66.3586 35.5757V26.7278C66.1742 26.3591 65.9899 26.1748 65.6212 25.9904Z" fill="#E9B54C"/>
<path d="M64.7001 25.9904L60.6448 23.5941V26.7278V22.4881C60.4605 19.5388 58.9858 16.9582 56.4052 15.2992L51.9812 12.7186C51.2439 11.2439 50.1379 9.95358 48.8476 9.03192L34.101 0.368326C33.1794 -0.184669 32.0734 -0.369001 31.1517 0.183994L28.7554 1.84298C28.0181 2.39598 27.6494 3.31763 27.6494 4.23929V5.34528L21.3821 9.03192C20.4605 9.58491 20.0918 10.6909 20.0918 11.7969V29.4927C20.2761 32.4421 21.7508 35.0227 24.3314 36.6817L45.5296 49.0319C46.4512 49.5849 47.5572 49.7692 48.4789 49.4006L59.3545 43.1333C60.2761 42.5803 60.6448 41.4743 60.6448 40.3683V38.7093L63.4098 37.0503L64.7001 36.313C65.0688 36.1287 65.2531 35.9444 65.2531 35.5757V26.7278C65.2531 26.3591 64.8844 26.1748 64.7001 25.9904Z" fill="#E8B346"/>
</g>
<path d="M56.4059 15.2994L35.2077 2.94914C34.286 2.39614 33.18 2.21181 32.2584 2.58047L21.3828 8.84775C22.3045 8.47909 23.4105 8.47909 24.3321 9.21642L45.5303 21.5666C48.1109 23.2256 49.5856 25.8063 49.7699 28.7556V46.4514C49.9542 47.5574 49.4012 48.4791 48.4796 49.2164L59.3552 42.9491C60.2768 42.3961 60.6455 41.2901 60.6455 40.1842V22.4883C60.4612 19.539 58.9865 16.9584 56.4059 15.2994Z" fill="url(#paint1_linear_3165_929)"/>
<path d="M24.148 36.6817C21.7517 35.0227 20.0927 32.4421 19.9084 29.4928V11.6126C19.724 10.5066 20.277 9.58495 21.1987 8.84763C22.1203 8.47896 23.2263 8.47896 24.148 9.21629L45.3462 21.5665C47.9268 23.2255 49.4015 25.8061 49.5858 28.7555V46.4513C49.7701 47.7416 49.0328 49.2163 47.5581 49.4006C46.8208 49.5849 46.0835 49.4006 45.3462 48.8476L24.148 36.6817Z" fill="#612E00"/>
<path d="M22.8577 29.4932V30.9678C22.8577 30.9678 22.8577 30.9678 22.8577 31.1522V31.3365C22.8577 31.7052 23.042 32.0738 23.2263 32.4425L23.4107 32.6268L23.595 32.8111L23.2263 33.3641V33.1798L23.042 32.9955L22.8577 32.6268C22.6733 32.4425 22.6734 32.0738 22.489 31.8895C22.3047 31.5208 22.3047 31.3365 22.3047 30.9678V30.7835V30.5992V29.1245L22.8577 29.4932Z" fill="#F7F7F7"/>
<path d="M22.8572 24.5159V28.2025L21.9355 27.8339V23.9629L22.8572 24.5159Z" fill="#F7F7F7"/>
<path d="M22.8572 19.5391V23.41L21.9355 22.857V19.1704L22.8572 19.5391Z" fill="#F7F7F7"/>
<path d="M22.8572 14.7464V18.433L21.9355 18.0643V14.1934L22.8572 14.7464Z" fill="#F7F7F7"/>
<path d="M24.3311 12.5342H23.9625C23.7781 12.5342 23.7781 12.5342 23.5938 12.5342C23.4095 12.5342 23.4095 12.5342 23.2251 12.7186C23.0408 12.7186 23.0408 12.9029 23.0408 13.0872C23.0408 13.2716 23.0408 13.2716 22.8565 13.4559V13.6402V14.0089L22.1191 13.4559V12.7186C22.1191 12.7186 22.1191 12.5342 22.1191 12.3499C22.1191 12.1656 22.1191 11.9812 22.1191 11.7969C22.1191 11.6126 22.3035 11.4282 22.4878 11.2439C22.6721 11.0596 22.8565 11.0596 23.0408 11.0596C23.2251 11.0596 23.4095 11.0596 23.5938 11.0596L23.9625 11.2439L24.1468 11.4282H24.3311V12.5342Z" fill="#F7F7F7"/>
<path d="M28.5711 14.931L25.4375 13.0877V12.166L28.5711 14.0093V14.931Z" fill="#F7F7F7"/>
<path d="M32.8102 17.327L29.4922 15.4837V14.562L32.8102 16.4053V17.327Z" fill="#F7F7F7"/>
<path d="M37.0516 19.9078L33.918 18.0645V16.9585L37.0516 18.8018V19.9078Z" fill="#F7F7F7"/>
<path d="M41.2906 22.304L37.9727 20.4607V19.5391L41.2906 21.3824V22.304Z" fill="#F7F7F7"/>
<path d="M45.5309 24.7005L42.2129 22.8572V21.9355L45.5309 23.7789V24.7005Z" fill="#F7F7F7"/>
<path d="M47.0042 28.7557V27.2811V27.0967V26.9124C47.0042 26.5438 46.8198 26.1751 46.6355 25.8064L46.4512 25.6221V25.4378L46.8198 24.8848L47.0042 25.0691L47.1885 25.2534L47.3728 25.6221C47.5572 25.8064 47.5572 26.1751 47.7415 26.3594C47.9258 26.7281 47.9258 26.9124 47.9258 27.2811V27.6497V27.8341V29.3087L47.0042 28.7557Z" fill="#F7F7F7"/>
<path d="M47.0039 33.7328V29.8618L47.7412 30.4148V34.1014L47.0039 33.7328Z" fill="#F7F7F7"/>
<path d="M47.0039 38.525V34.8384L47.7412 35.207V39.078L47.0039 38.525Z" fill="#F7F7F7"/>
<path d="M47.0039 43.5023V39.6313L47.7412 40.1843V43.871L47.0039 43.5023Z" fill="#F7F7F7"/>
<path d="M45.3457 45.7144H45.53H45.7144C45.8987 45.7144 45.8987 45.7144 46.083 45.7144C46.2674 45.7144 46.2674 45.7144 46.4517 45.5301C46.636 45.5301 46.636 45.3457 46.636 45.1614C46.636 44.9771 46.636 44.9771 46.636 44.7927V44.6084V44.4241V44.2397L47.5577 44.7927V45.1614C47.5577 45.1614 47.5577 45.3457 47.5577 45.5301C47.5577 45.7144 47.5577 45.8987 47.3734 46.0831C47.3734 46.2674 47.189 46.4517 47.0047 46.6361C46.8204 46.8204 46.636 46.8204 46.4517 46.8204C46.2674 46.8204 46.083 46.8204 45.8987 46.8204H45.7144H45.53H45.3457V45.7144Z" fill="#F7F7F7"/>
<path d="M41.1055 43.3179L44.4234 45.1612V46.0828L41.1055 44.2395V43.3179Z" fill="#F7F7F7"/>
<path d="M36.8672 40.7373L40.1852 42.5806V43.6866L36.8672 41.8433V40.7373Z" fill="#F7F7F7"/>
<path d="M32.8105 38.3408L35.9442 40.1841V41.2901L32.8105 39.2625V38.3408Z" fill="#F7F7F7"/>
<path d="M28.3867 35.9448L31.7047 37.7881V38.7098L28.3867 36.8665V35.9448Z" fill="#F7F7F7"/>
<path d="M24.1484 33.3638L27.4664 35.2071V36.3131L24.1484 34.4698V33.3638Z" fill="#F7F7F7"/>
<path d="M43.3177 38.3409C42.5803 37.7879 42.0273 37.0506 42.0273 35.9446V30.2303C42.0273 29.3086 42.5803 29.1243 43.3177 29.493L50.1379 33.3639C50.8753 33.9169 51.4283 34.6542 51.4283 35.7602V41.4745C51.4283 42.3962 50.8753 42.5805 50.1379 42.2119L43.3177 38.3409Z" fill="#D61181"/>
<path d="M44.0547 34.2858C44.0547 33.1798 44.792 32.6268 45.898 33.1798C47.004 33.9172 47.7413 35.0232 47.7413 36.3135C47.7413 37.4195 47.004 37.9725 45.898 37.4195C44.792 36.8665 44.0547 35.5761 44.0547 34.2858Z" fill="#F7F7F7"/>
<path d="M64.7012 27.4654L63.4108 28.2027L52.5353 34.47L51.2449 35.2073C50.3233 35.576 49.4016 35.576 48.6643 35.2073L41.844 31.3363C41.4753 31.152 41.291 30.9677 41.291 30.599V39.2626C41.291 39.6313 41.4753 39.8156 41.844 39.9999L48.6643 43.8709C49.5859 44.2395 50.5076 44.2395 51.2449 43.8709L52.5353 43.1336L63.4108 36.8663L64.7012 36.1289C65.0698 35.9446 65.2542 35.7603 65.2542 35.3916V26.728C65.2542 27.0967 64.8855 27.4654 64.7012 27.4654Z" fill="url(#paint2_linear_3165_929)"/>
<path d="M64.6999 25.9906L60.6446 23.5942V26.7279L49.7691 32.9952L42.9488 29.1242L41.6585 29.8615C41.2898 30.0459 41.1055 30.4145 41.1055 30.9675C41.1055 31.1518 41.2898 31.3362 41.6585 31.5205L48.4787 35.3915C49.4004 35.7601 50.3221 35.7601 51.0594 35.3915L52.3497 34.6541L63.2253 28.3869L64.5156 27.6495C64.8843 27.4652 65.0686 27.0965 65.0686 26.5435C65.0686 26.3592 64.8843 26.1749 64.6999 25.9906Z" fill="#EF5619"/>
<path d="M44.9764 34.8388C44.6077 34.6545 44.0547 34.4701 43.6861 34.6545L42.5801 35.2075C42.9487 35.0231 43.5017 35.0231 43.8704 35.3918C44.9764 36.1291 45.7137 37.2351 45.7137 38.5254C45.7137 39.0784 45.5294 39.4471 45.1607 39.6314L46.2667 39.0784C46.6354 38.8941 46.8197 38.3411 46.8197 37.9725C46.8197 36.8665 46.0824 35.5761 44.9764 34.8388Z" fill="white"/>
<path d="M42.0284 36.6819C41.8441 36.1289 42.2128 35.5759 42.7657 35.3916C43.1344 35.3916 43.5031 35.3916 43.8717 35.7603C44.9777 36.4976 45.7151 37.6036 45.7151 38.8939C45.8994 39.4469 45.5307 39.9999 44.9777 40.1842C44.6091 40.1842 44.2404 40.1842 43.8717 39.8156C42.7657 39.0782 42.2128 37.7879 42.0284 36.6819Z" fill="#F0F0F0"/>
<path d="M30.0467 7.74179C30.5997 8.11045 31.5214 8.29479 32.2587 7.92612C32.8117 7.55746 33.1803 6.82013 33.1803 6.0828L44.6089 12.7187C44.9776 14.7464 46.0836 16.774 47.7426 18.0644V18.986L50.1389 20.4607V17.327C49.9545 14.5621 48.4799 11.9814 46.2679 10.5068L31.5214 2.02751C30.784 1.47451 29.678 1.29018 28.7564 1.84317C28.0191 2.39617 27.6504 3.31783 27.6504 4.23949V7.1888L30.0467 8.66345V7.74179Z" fill="#B1D400"/>
<path d="M44.7934 12.5344L33.1805 5.89844C33.1805 6.63576 32.8119 7.37309 32.2589 7.74175C31.5215 8.11042 30.7842 8.11042 30.0469 7.55742V8.47908L47.7427 18.8017V18.0643C46.0837 16.774 44.9777 14.7464 44.7934 12.5344Z" fill="#DCE000"/>
<path d="M37.6037 13.0877C37.4194 12.719 37.7881 12.166 38.1567 12.166C38.341 12.166 38.7097 12.166 38.894 12.3503C39.6314 12.9033 40.1844 13.6407 40.1844 14.5623L37.6037 13.0877Z" fill="#B1D400"/>
<path d="M47.5576 15.4839C47.189 15.1153 46.8203 14.7466 46.8203 14.1936C46.8203 14.0093 47.0046 13.6406 47.189 13.6406C47.3733 13.6406 47.5576 13.6406 47.5576 13.825C47.9263 14.1936 48.295 14.5623 48.295 15.1153C48.295 15.2996 48.1106 15.6683 47.9263 15.6683C47.742 15.4839 47.742 15.4839 47.5576 15.4839Z" fill="#DCE000"/>
<path d="M30.4151 5.34557C30.0464 4.97691 29.6777 4.60825 29.6777 4.05525C29.6777 3.87092 29.8621 3.68659 29.8621 3.68659C30.0464 3.50226 30.2307 3.50226 30.4151 3.68659C30.7837 4.05525 31.1524 4.42392 31.1524 4.97691C31.1524 5.16124 30.9681 5.52991 30.7837 5.52991C30.5994 5.52991 30.4151 5.52991 30.4151 5.34557Z" fill="#DCE000"/>
<path d="M48.848 9.03216L34.1015 0.552896C33.1798 -9.91713e-05 32.0738 -0.184431 31.1522 0.368564L28.7559 1.84322C29.6775 1.47456 30.7835 1.47456 31.5208 2.02755L46.2674 10.5068C48.6637 11.9815 50.1383 14.5621 50.1383 17.3271V20.2764L52.719 18.8017V15.8524C52.719 13.0875 51.2443 10.5068 48.848 9.03216Z" fill="url(#paint3_linear_3165_929)"/>
</g>
<defs>
<linearGradient id="paint0_linear_3165_929" x1="0" y1="54.3527" x2="80" y2="54.3527" gradientUnits="userSpaceOnUse">
<stop stop-color="#FFED44"/>
<stop offset="0.07" stop-color="#FFF047"/>
<stop offset="0.3" stop-color="#FFF24A"/>
<stop offset="0.55" stop-color="#FFE23A"/>
<stop offset="0.74" stop-color="#FFDC34"/>
<stop offset="1" stop-color="#F9B519"/>
</linearGradient>
<linearGradient id="paint1_linear_3165_929" x1="33.5627" y1="1.89384" x2="57.7655" y2="43.8109" gradientUnits="userSpaceOnUse">
<stop stop-color="#734000"/>
<stop offset="0.1" stop-color="#784300"/>
<stop offset="0.3" stop-color="#7B4500"/>
<stop offset="0.4" stop-color="#6E3800"/>
<stop offset="0.63" stop-color="#521E00"/>
<stop offset="0.84" stop-color="#410E00"/>
<stop offset="1" stop-color="#3B0800"/>
</linearGradient>
<linearGradient id="paint2_linear_3165_929" x1="41.1067" y1="35.5863" x2="65.2726" y2="35.5863" gradientUnits="userSpaceOnUse">
<stop stop-color="#FF682B"/>
<stop offset="0.07" stop-color="#FF6B2E"/>
<stop offset="0.3" stop-color="#FF6D31"/>
<stop offset="0.55" stop-color="#F65D21"/>
<stop offset="0.74" stop-color="#F3571B"/>
<stop offset="1" stop-color="#C93000"/>
</linearGradient>
<linearGradient id="paint3_linear_3165_929" x1="28.8296" y1="10.126" x2="52.848" y2="10.126" gradientUnits="userSpaceOnUse">
<stop stop-color="#99C900"/>
<stop offset="0.03" stop-color="#99C900"/>
<stop offset="0.3" stop-color="#99C900"/>
<stop offset="0.41" stop-color="#8AC500"/>
<stop offset="0.55" stop-color="#81C300"/>
<stop offset="0.74" stop-color="#7EC200"/>
<stop offset="1" stop-color="#7EC200"/>
</linearGradient>
<clipPath id="clip0_3165_929">
<rect width="80" height="69.8617" fill="white"/>
</clipPath>
</defs>
</svg>
