<svg width="81" height="73" viewBox="0 0 81 73" fill="none" xmlns="http://www.w3.org/2000/svg">
<g clip-path="url(#clip0_3165_2711)">
<path d="M67.2574 33.7878C49.6156 23.5837 31.3844 23.5837 13.7426 33.7878C4.89909 38.9125 0.5 44.0826 0.5 49.2527C0.5 54.4227 4.89909 59.5928 13.7426 64.7175C31.3844 74.9216 49.6156 74.9216 67.2574 64.7175C76.1009 59.6382 80.5 54.4227 80.5 49.2527C80.5 44.0826 76.1009 38.9125 67.2574 33.7878Z" fill="#949494"/>
<path d="M67.2574 57.0078C49.6156 67.2119 31.3844 67.2119 13.7426 57.0078C4.89909 51.8831 0.5 46.713 0.5 41.543V49.2527C0.5 54.4228 4.89909 59.5929 13.7426 64.7176C31.3844 74.9217 49.6156 74.9217 67.2574 64.7176C76.1009 59.6382 80.5 54.4228 80.5 49.2527V41.543C80.5 46.713 76.1009 51.8831 67.2574 57.0078Z" fill="url(#paint0_linear_3165_2711)"/>
<path d="M67.2574 26.0784C49.6156 15.8743 31.3844 15.8743 13.7426 26.0784C4.89909 31.2031 0.5 36.3731 0.5 41.5432C0.5 46.7133 4.89909 51.8833 13.7426 57.0081C31.3844 67.2121 49.6156 67.2121 67.2574 57.0081C76.1009 51.9287 80.5 46.7133 80.5 41.5432C80.5 36.3731 76.1009 31.2031 67.2574 26.0784Z" fill="#FFDB32"/>
<mask id="mask0_3165_2711" style="mask-type:luminance" maskUnits="userSpaceOnUse" x="0" y="18" width="81" height="47">
<path d="M67.2574 26.0784C49.6156 15.8743 31.3844 15.8743 13.7426 26.0784C4.89909 31.2031 0.5 36.3731 0.5 41.5432C0.5 46.7133 4.89909 51.8833 13.7426 57.0081C31.3844 67.2121 49.6156 67.2121 67.2574 57.0081C76.1009 51.9287 80.5 46.7133 80.5 41.5432C80.5 36.3731 76.1009 31.2031 67.2574 26.0784Z" fill="white"/>
</mask>
<g mask="url(#mask0_3165_2711)">
<path opacity="0.03" d="M90.6585 20.2279L88.2549 18.8673L79.502 13.788L76.8716 12.2914V12.0193C76.8263 11.4297 76.4635 10.8855 75.9193 10.6587C75.7832 10.568 75.6018 10.5227 75.4657 10.432V7.71089C75.4204 6.44104 76.146 5.26191 77.2798 4.71769C78.5496 4.17347 80.1823 4.80839 81.7696 6.35034C84.8988 9.47959 88.3909 9.34354 90.4317 7.75624C92.4272 6.25964 92.9261 3.4932 91.6109 1.36168C91.112 0.500001 90.0236 0.182541 89.1619 0.681407C88.3002 1.18027 87.9827 2.26871 88.4816 3.13039C89.0712 4.12812 88.4816 4.71769 88.2095 4.94445C87.3932 5.57937 85.8512 5.44331 84.2186 3.85601C81.6789 1.18027 78.595 0.318595 75.9193 1.40703C73.4703 2.49547 71.883 4.9898 71.883 7.66553V9.38889L63.1301 4.35488C61.6335 3.4932 60.273 3.4025 59.2753 3.99206L52.8353 7.71089C51.8376 8.30045 51.248 9.52494 51.248 11.2483V26.8946C51.248 30.3866 53.697 34.6043 56.6902 36.373L81.8149 50.8855L84.2186 52.246C85.7152 53.1077 87.0757 53.1984 88.0734 52.6088C88.3456 52.4728 88.527 52.2914 88.7537 52.0646C88.5723 52.2914 88.3456 52.4728 88.0734 52.6088L94.5134 48.89C95.5111 48.3005 96.1007 47.076 96.1007 45.3526V29.661C96.1007 26.2143 93.6517 21.9512 90.6585 20.2279Z" fill="#FDFCF9"/>
<path opacity="0.06" d="M89.617 20.2281L87.2134 18.8676L78.5059 13.7882L75.8755 12.2916V12.0195C75.8302 11.4299 75.4674 10.8857 74.9232 10.659C74.7871 10.5683 74.6057 10.5229 74.4696 10.4322V7.71111C74.4243 6.44127 75.1499 5.26213 76.2837 4.71791C77.5535 4.1737 79.1862 4.80862 80.7735 6.35057C83.9027 9.47982 87.3948 9.34376 89.4356 7.75646C91.4311 6.25986 91.93 3.49342 90.6148 1.36191C90.0705 0.545579 88.9821 0.318822 88.1204 0.863039C87.3495 1.36191 87.0774 2.31429 87.4855 3.13061C88.0751 4.12835 87.4855 4.71791 87.2134 4.94467C86.3971 5.57959 84.8551 5.44354 83.2225 3.85624C80.6374 1.1805 77.5989 0.318822 74.9232 1.40726C72.4742 2.49569 70.8869 4.99002 70.8869 7.66576V9.38912L62.134 4.3551C60.6374 3.49342 59.2769 3.40272 58.2792 3.99229L51.8393 7.71111C50.8415 8.30068 50.252 9.52517 50.252 11.2485V26.8948C50.252 30.3868 52.7009 34.6045 55.6941 36.3732L80.8188 50.8857L83.2225 52.2463C84.7191 53.1079 86.0796 53.1986 87.0773 52.6091C87.3495 52.473 87.5309 52.2916 87.7576 52.0648C87.5762 52.2916 87.3495 52.473 87.0773 52.6091L93.5173 48.8902C94.515 48.3007 95.1046 47.0762 95.1046 45.3528V29.6612C95.1046 26.2145 92.6556 21.9515 89.617 20.2281Z" fill="#FBF9F3"/>
<path opacity="0.09" d="M88.619 20.2279L86.2154 18.8673L77.4625 13.788L74.8775 12.2914V12.0193C74.8321 11.4297 74.4693 10.8855 73.9251 10.6587C73.7891 10.568 73.6076 10.5227 73.4716 10.432V7.71089C73.4262 6.44104 74.1519 5.26191 75.2857 4.71769C76.5555 4.17347 78.1881 4.80839 79.7755 6.35034C82.9047 9.47959 86.3968 9.34354 88.4376 7.75624C90.433 6.25964 90.9319 3.4932 89.6621 1.36168C89.1632 0.500001 88.0748 0.182541 87.2131 0.681407C86.3514 1.18027 86.034 2.26871 86.5328 3.13039C87.1224 4.12812 86.5328 4.71769 86.2607 4.94445C85.4444 5.57937 83.9024 5.44331 82.2698 3.85601C79.6394 1.18027 76.5555 0.318595 73.8798 1.40703C71.3854 2.54082 69.8435 4.9898 69.8435 7.71089V9.43424L61.136 4.35488C59.6394 3.4932 58.2788 3.4025 57.2811 3.99206L50.8412 7.66553C49.8435 8.2551 49.2539 9.47959 49.2539 11.2029V26.8492C49.2539 30.3413 51.7029 34.559 54.6961 36.3277L79.8208 50.8401L82.2244 52.2007C83.721 53.0624 85.0816 53.1531 86.0793 52.5635C86.3514 52.4274 86.5328 52.246 86.7596 52.0193C86.5782 52.246 86.3514 52.4274 86.0793 52.5635L92.5192 48.8447C93.5169 48.2551 94.1065 47.0306 94.1065 45.3073V29.661C94.1065 26.2143 91.6575 21.9512 88.619 20.2279Z" fill="#F9F6ED"/>
<path opacity="0.12" d="M87.6214 20.2279L85.2177 18.8673L76.4649 13.788L73.8345 12.2914V12.0193C73.7892 11.4297 73.4264 10.8855 72.8821 10.6587C72.7461 10.568 72.5647 10.5227 72.4286 10.432V7.71089C72.3833 6.44104 73.1089 5.26191 74.2427 4.71769C75.5125 4.17347 77.1452 4.80839 78.7325 6.35034C81.8617 9.47959 85.3538 9.34354 87.3946 7.75624C89.3901 6.25964 89.8889 3.4932 88.5737 1.36168C88.0749 0.500001 86.9864 0.182541 86.1248 0.681407C85.2631 1.18027 84.9456 2.26871 85.4445 3.13039C86.0341 4.12812 85.4445 4.71769 85.1724 4.94445C84.3561 5.57937 82.8141 5.44331 81.1815 3.85601C78.5511 1.18027 75.4672 0.318595 72.7914 1.40703C70.3425 2.49547 68.7552 4.9898 68.7552 7.66553V9.38889L60.093 4.35488C58.5964 3.4932 57.2359 3.4025 56.2382 3.99206L49.7982 7.71089C48.8005 8.30045 48.2109 9.52494 48.2109 11.2483V26.8946C48.2109 30.3866 50.6599 34.6043 53.6531 36.373L78.7778 50.8855L81.1815 52.246C82.6781 53.1077 84.0386 53.1984 85.0363 52.6088C85.3084 52.4728 85.4898 52.2914 85.7166 52.0646C85.5352 52.2914 85.3084 52.4728 85.0363 52.6088L91.4762 48.89C92.474 48.3005 93.0635 47.076 93.0635 45.3526V29.661C93.0635 26.2143 90.6146 21.9512 87.6214 20.2279Z" fill="#F8F3E8"/>
<path opacity="0.15" d="M86.6233 20.2279L84.2197 18.8673L75.4669 13.788L72.8365 12.2914V12.0193C72.7911 11.4297 72.4283 10.8855 71.8841 10.6587C71.748 10.568 71.5666 10.5227 71.4306 10.432V7.71089C71.3852 6.44104 72.1108 5.26191 73.2446 4.71769C74.5145 4.17347 76.1471 4.80839 77.7344 6.35034C80.8637 9.47959 84.3557 9.34354 86.3966 7.75624C88.392 6.25964 88.8909 3.4932 87.6211 1.36168C87.1222 0.500001 86.0338 0.182541 85.1721 0.681407C84.3104 1.18027 83.9929 2.26871 84.4918 3.13039C85.0814 4.12812 84.4918 4.71769 84.2197 4.94445C83.4034 5.57937 81.8614 5.44331 80.2288 3.85601C77.553 1.18027 74.5145 0.318595 71.8387 1.40703C69.3898 2.49547 67.8025 4.9898 67.8025 7.66553V9.38889L59.095 4.35488C57.5984 3.4932 56.2378 3.4025 55.2401 3.99206L48.8002 7.71089C47.8025 8.30045 47.2129 9.52494 47.2129 11.2483V26.8946C47.2129 30.3866 49.6619 34.6043 52.6551 36.373L77.7798 50.8855L80.1834 52.246C81.68 53.1077 83.0406 53.1984 84.0383 52.6088C84.3104 52.4728 84.4918 52.2914 84.7186 52.0646C84.5372 52.2914 84.3104 52.4728 84.0383 52.6088L90.4782 48.89C91.4759 48.3005 92.0655 47.076 92.0655 45.3526V29.661C92.0655 26.2143 89.6165 21.9512 86.6233 20.2279Z" fill="#F6EFE2"/>
<path opacity="0.18" d="M85.5799 20.2279L83.1763 18.8673L74.4235 13.788L71.7931 12.2914V12.0193C71.7477 11.4297 71.3849 10.8855 70.8407 10.6587C70.7046 10.568 70.5232 10.5227 70.3872 10.432V7.71089C70.3418 6.44104 71.0675 5.26191 72.2012 4.71769C73.4711 4.17347 75.1037 4.80839 76.691 6.35034C79.8203 9.47959 83.3124 9.34354 85.3532 7.75624C87.3486 6.25964 87.8928 3.4932 86.5777 1.36168C86.0788 0.500001 84.9904 0.182541 84.1287 0.681407C83.267 1.18027 82.9495 2.26871 83.4484 3.13039C84.038 4.12812 83.4484 4.71769 83.1763 4.94445C82.36 5.57937 80.818 5.44331 79.1854 3.85601C76.5096 1.18027 73.4257 0.318595 70.75 1.40703C68.301 2.49547 66.7137 4.9898 66.7137 7.66553V9.38889L58.0969 4.35488C56.6003 3.4932 55.2398 3.4025 54.2421 3.99206L47.8021 7.71089C46.8044 8.30045 46.2148 9.52494 46.2148 11.2483V26.8946C46.2148 30.3866 48.6638 34.6043 51.657 36.373L76.7817 50.8855L79.1854 52.246C80.682 53.1077 82.0425 53.1984 83.0402 52.6088C83.3123 52.4728 83.4938 52.2914 83.7205 52.0646C83.5391 52.2914 83.3123 52.4728 83.0402 52.6088L89.4801 48.89C90.4779 48.3005 91.0675 47.076 91.0675 45.3526V29.661C91.0675 26.2143 88.6185 21.9512 85.5799 20.2279Z" fill="#F4ECDC"/>
<path opacity="0.21" d="M84.5819 20.2279L82.1783 18.8673L73.4254 13.788L70.795 12.2914V12.0193C70.7497 11.4297 70.3869 10.8855 69.8426 10.6587C69.7066 10.568 69.5252 10.5227 69.3891 10.432V7.71089C69.3438 6.44104 70.0694 5.26191 71.2032 4.71769C72.473 4.17347 74.1057 4.80839 75.693 6.35034C78.8222 9.47959 82.3143 9.34354 84.3551 7.75624C86.3506 6.25964 86.8495 3.4932 85.5343 1.36168C85.0354 0.500001 83.947 0.182541 83.0853 0.681407C82.2236 1.18027 81.9061 2.26871 82.405 3.13039C82.9946 4.12812 82.405 4.71769 82.1329 4.94445C81.3166 5.57937 79.7746 5.44331 78.142 3.85601C75.6023 1.18027 72.5637 0.318595 69.888 1.40703C67.439 2.49547 65.8517 4.9898 65.8517 7.66553V9.38889L57.0989 4.35488C55.6023 3.4932 54.2417 3.4025 53.244 3.99206L46.8041 7.71089C45.8064 8.30045 45.2168 9.52494 45.2168 11.2483V26.8946C45.2168 30.3866 47.6658 34.6043 50.659 36.373L75.7837 50.8855L78.1873 52.246C79.6839 53.1077 81.0445 53.1984 82.0422 52.6088C82.3143 52.4728 82.4957 52.2914 82.7225 52.0646C82.5411 52.2914 82.3143 52.4728 82.0422 52.6088L88.4821 48.89C89.4798 48.3005 90.0694 47.076 90.0694 45.3526V29.661C90.0694 26.2143 87.6204 21.9512 84.5819 20.2279Z" fill="#F2E9D6"/>
<path opacity="0.24" d="M83.5838 20.2279L81.1802 18.8673L72.4274 13.788L69.797 12.2914V12.0193C69.7516 11.4297 69.3888 10.8855 68.8446 10.6587C68.7085 10.568 68.5271 10.5227 68.3911 10.432V7.71089C68.3457 6.44104 69.0714 5.26191 70.2051 4.71769C71.475 4.17347 73.1076 4.80839 74.6949 6.35034C77.8242 9.47959 81.3163 9.34354 83.3571 7.75624C85.3525 6.25964 85.8514 3.4932 84.5816 1.36168C84.0827 0.500001 82.9943 0.182541 82.1326 0.681407C81.2709 1.18027 80.9534 2.26871 81.4523 3.13039C82.0419 4.12812 81.4523 4.71769 81.1802 4.94445C80.3639 5.57937 78.8219 5.44331 77.1893 3.85601C74.5135 1.18027 71.475 0.318595 68.7993 1.40703C66.3503 2.49547 64.763 4.9898 64.763 7.66553V9.38889L56.1008 4.35488C54.6042 3.4932 53.2437 3.4025 52.246 3.99206L45.8061 7.71089C44.8083 8.30045 44.2188 9.52494 44.2188 11.2483V26.8946C44.2188 30.3866 46.6677 34.6043 49.6609 36.373L74.7856 50.8855L77.1893 52.246C78.6859 53.1077 80.0464 53.1984 81.0442 52.6088C81.3163 52.4728 81.4977 52.2914 81.7244 52.0646C81.543 52.2914 81.3163 52.4728 81.0442 52.6088L87.4841 48.89C88.4818 48.3005 89.0714 47.076 89.0714 45.3526V29.661C89.026 26.2143 86.577 21.9512 83.5838 20.2279Z" fill="#F0E6D0"/>
<path opacity="0.27" d="M82.5862 20.2279L80.1826 18.8673L71.4298 13.788L68.7994 12.2914V12.0193C68.754 11.4297 68.3912 10.8855 67.847 10.6587C67.7109 10.568 67.5295 10.5227 67.3935 10.432V7.71089C67.3481 6.44104 68.0737 5.26191 69.2075 4.71769C70.4774 4.17347 72.11 4.80839 73.6973 6.35034C76.8266 9.47959 80.3186 9.34354 82.3595 7.75624C84.3549 6.25964 84.8538 3.4932 83.5386 1.36168C83.0397 0.500001 81.9513 0.182541 81.0896 0.681407C80.2279 1.18027 79.9105 2.26871 80.4093 3.13039C80.9989 4.12812 80.4093 4.71769 80.1372 4.94445C79.3209 5.57937 77.779 5.44331 76.1463 3.81066C73.5159 1.13492 70.432 0.273244 67.7563 1.36168C65.3073 2.45011 63.72 4.94445 63.72 7.62018V9.34354L55.0579 4.35488C53.5613 3.4932 52.2007 3.4025 51.203 3.99206L44.7631 7.71089C43.7654 8.30045 43.1758 9.52494 43.1758 11.2483V26.8946C43.1758 30.3866 45.6248 34.6043 48.618 36.373L73.7427 50.8855L76.1463 52.246C77.6429 53.1077 79.0035 53.1984 80.0012 52.6088C80.2733 52.4728 80.4547 52.2914 80.6815 52.0646C80.5001 52.2914 80.2733 52.4728 80.0012 52.6088L86.4411 48.89C87.4388 48.3005 88.0284 47.076 88.0284 45.3526V29.661C88.0284 26.2143 85.5794 21.9512 82.5862 20.2279Z" fill="#EEE3CA"/>
<path opacity="0.3" d="M81.5882 20.2279L79.1845 18.8673L70.4317 13.788L67.8013 12.2914V12.0193C67.756 11.4297 67.3932 10.8855 66.8489 10.6587C66.7129 10.568 66.5315 10.5227 66.3954 10.432V7.71089C66.3501 6.44104 67.0757 5.26191 68.2095 4.71769C69.4793 4.17347 71.112 4.80839 72.6993 6.35034C75.8285 9.47959 79.3206 9.34354 81.3614 7.75624C83.3569 6.25964 83.8557 3.4932 82.5405 1.36168C82.0417 0.500001 80.9532 0.182541 80.0916 0.681407C79.2299 1.18027 78.9124 2.26871 79.4113 3.13039C80.0009 4.12812 79.4113 4.71769 79.1392 4.94445C78.3229 5.57937 76.7809 5.44331 75.1483 3.85601C72.6086 1.18027 69.5247 0.318595 66.8489 1.40703C64.4 2.49547 62.8127 4.9898 62.8127 7.66553V9.38889L54.0598 4.35488C52.5632 3.4932 51.2027 3.4025 50.2049 3.99206L43.765 7.71089C42.7673 8.30045 42.1777 9.52494 42.1777 11.2483V26.8946C42.1777 30.3866 44.6267 34.6043 47.6199 36.373L72.7446 50.8855L75.1483 52.246C76.6449 53.1077 78.0054 53.1984 79.0031 52.6088C79.2752 52.4728 79.4567 52.2914 79.6834 52.0646C79.502 52.2914 79.2752 52.4728 79.0031 52.6088L85.443 48.89C86.4408 48.3005 87.0303 47.076 87.0303 45.3526V29.661C87.0303 26.2143 84.5814 21.9512 81.5882 20.2279Z" fill="#EDE0C5"/>
<path opacity="0.33" d="M80.5467 20.2281L78.1431 18.8676L69.4356 13.7882L66.8052 12.2916V12.0195C66.7599 11.4299 66.3971 10.8857 65.8528 10.659C65.7168 10.5683 65.5354 10.5229 65.3993 10.4322V7.71111C65.354 6.44127 66.0796 5.26213 67.2134 4.71791C68.4832 4.1737 70.1159 4.80862 71.7032 6.35057C74.8324 9.47982 78.3245 9.34376 80.3653 7.75646C82.3608 6.25986 82.8596 3.49342 81.5445 1.36191C81.0002 0.545579 79.9118 0.318822 79.0501 0.863039C78.2791 1.36191 78.007 2.31429 78.4152 3.13061C79.0048 4.12835 78.4152 4.71791 78.1431 4.94467C77.3268 5.57959 75.7848 5.44354 74.1522 3.85624C71.5671 1.1805 68.5286 0.318822 65.8528 1.40726C63.4039 2.49569 61.8166 4.99002 61.8166 7.66576V9.38912L53.0637 4.3551C51.5671 3.49342 50.2066 3.40272 49.2089 3.99229L42.7689 7.71111C41.7712 8.30068 41.1816 9.52517 41.1816 11.2485V26.8948C41.1816 30.3868 43.6306 34.6045 46.6238 36.3732L71.7485 50.8857L74.1522 52.2463C75.6488 53.1079 77.0093 53.1986 78.007 52.6091C78.2791 52.473 78.4605 52.2916 78.6873 52.0648C78.5059 52.2916 78.2791 52.473 78.007 52.6091L84.4469 48.8902C85.4447 48.3007 86.0343 47.0762 86.0343 45.3528V29.6612C86.0343 26.2145 83.5853 21.9515 80.5467 20.2281Z" fill="#EBDDBF"/>
<path opacity="0.36" d="M79.5487 20.2279L77.145 18.8673L68.3922 13.788L65.8072 12.2914V12.0193C65.7618 11.4297 65.399 10.8855 64.8548 10.6587C64.7187 10.568 64.5373 10.5227 64.4013 10.432V7.71089C64.3559 6.44104 65.0816 5.26191 66.2153 4.71769C67.4852 4.17347 69.1178 4.80839 70.7051 6.35034C73.8344 9.47959 77.3264 9.34354 79.3673 7.75624C81.3627 6.25964 81.8616 3.4932 80.5464 1.36168C80.0475 0.500001 78.9591 0.182541 78.0974 0.681407C77.2358 1.18027 76.9183 2.26871 77.4172 3.13039C78.0067 4.12812 77.4172 4.71769 77.145 4.94445C76.3287 5.57937 74.7868 5.44331 73.1541 3.85601C70.4784 1.18027 67.4398 0.318595 64.7641 1.40703C62.3151 2.54082 60.7278 4.9898 60.7732 7.71089V9.43424L52.0657 4.35488C50.5691 3.4932 49.2085 3.4025 48.2108 3.99206L41.7709 7.66553C40.7732 8.2551 40.1836 9.47959 40.1836 11.2029V26.8492C40.1836 30.3413 42.6326 34.559 45.6258 36.3277L70.7505 50.8401L73.1541 52.2007C74.6507 53.0624 76.0113 53.1531 77.009 52.5635C77.2811 52.4274 77.4625 52.246 77.6893 52.0193C77.5079 52.246 77.2811 52.4274 77.009 52.5635L83.4489 48.8447C84.4466 48.2551 85.0362 47.0306 85.0362 45.3073V29.661C85.0362 26.2143 82.5419 21.9512 79.5487 20.2279Z" fill="#E9DAB9"/>
<path opacity="0.39" d="M78.5511 20.2279L76.1474 18.8673L67.3946 13.788L64.7642 12.2914V12.0193C64.7189 11.4297 64.356 10.8855 63.8118 10.6587C63.6758 10.568 63.4944 10.5227 63.3583 10.432V7.71089C63.313 6.44104 64.0386 5.26191 65.1724 4.71769C66.4422 4.17347 68.0749 4.80839 69.6622 6.35034C72.7914 9.47959 76.2835 9.34354 78.3243 7.75624C80.3198 6.25964 80.8186 3.4932 79.5034 1.36168C79.0046 0.500001 77.9161 0.182541 77.0545 0.681407C76.1928 1.18027 75.8753 2.26871 76.3742 3.13039C76.9638 4.12812 76.3742 4.71769 76.1021 4.94445C75.2857 5.57937 73.7438 5.44331 72.1111 3.85601C69.4354 1.18027 66.3969 0.318595 63.7211 1.40703C61.2721 2.49547 59.6848 4.9898 59.6848 7.66553V9.38889L51.0227 4.35488C49.5261 3.4932 48.1656 3.4025 47.1678 3.99206L40.7279 7.71089C39.7302 8.30045 39.1406 9.52494 39.1406 11.2483V26.8946C39.1406 30.3866 41.5896 34.6043 44.5828 36.373L69.7075 50.8855L72.1111 52.246C73.6077 53.1077 74.9683 53.1984 75.966 52.6088C76.2381 52.4728 76.4195 52.2914 76.6463 52.0646C76.4649 52.2914 76.2381 52.4728 75.966 52.6088L82.4059 48.89C83.4037 48.3005 83.9932 47.076 83.9932 45.3526V29.661C83.9932 26.2143 81.5443 21.9512 78.5511 20.2279Z" fill="#E7D6B3"/>
<path opacity="0.42" d="M77.553 20.2279L75.1494 18.8673L66.3965 13.788L63.7662 12.2914V12.0193C63.7208 11.4297 63.358 10.8855 62.8138 10.6587C62.6777 10.568 62.4963 10.5227 62.3603 10.432V7.71089C62.3149 6.44104 63.0405 5.26191 64.1743 4.71769C65.4442 4.17347 67.0768 4.80839 68.6641 6.35034C71.7934 9.47959 75.2854 9.34354 77.3263 7.75624C79.3217 6.25964 79.8206 3.4932 78.5054 1.36168C78.0065 0.500001 76.9181 0.182541 76.0564 0.681407C75.1947 1.18027 74.8773 2.26871 75.3761 3.13039C75.9657 4.12812 75.3761 4.71769 75.104 4.94445C74.2877 5.57937 72.7458 5.44331 71.1131 3.85601C68.4827 1.18027 65.3988 0.318595 62.7231 1.40703C60.2741 2.49547 58.6868 4.9898 58.6868 7.66553V9.38889L50.0247 4.35488C48.5281 3.4932 47.1675 3.4025 46.1698 3.99206L39.7299 7.71089C38.7321 8.30045 38.1426 9.52494 38.1426 11.2483V26.8946C38.1426 30.3866 40.5916 34.6043 43.5848 36.373L68.7095 50.8855L71.1131 52.246C72.6097 53.1077 73.9702 53.1984 74.968 52.6088C75.2401 52.4728 75.4215 52.2914 75.6482 52.0646C75.4668 52.2914 75.2401 52.4728 74.968 52.6088L81.4079 48.89C82.4056 48.3005 82.9952 47.076 82.9952 45.3526V29.661C82.9952 26.2143 80.5462 21.9512 77.553 20.2279Z" fill="#E5D3AD"/>
<path opacity="0.45" d="M76.5096 20.2279L74.106 18.8673L65.3531 13.788L62.7228 12.2914V12.0193C62.6774 11.4297 62.3146 10.8855 61.7704 10.6587C61.6343 10.568 61.4529 10.5227 61.3169 10.432V7.71089C61.2715 6.44104 61.9971 5.26191 63.1309 4.71769C64.4008 4.17347 66.0334 4.80839 67.6207 6.35034C70.75 9.47959 74.242 9.34354 76.2829 7.75624C78.2783 6.25964 78.7772 3.4932 77.462 1.36168C76.9631 0.500001 75.8747 0.182541 75.013 0.681407C74.1513 1.18027 73.8339 2.26871 74.3327 3.13039C74.9223 4.12812 74.3327 4.71769 74.0606 4.94445C73.2443 5.57937 71.7024 5.44331 70.0697 3.85601C67.394 1.18027 64.3554 0.318595 61.6797 1.40703C59.2307 2.49547 57.6434 4.9898 57.6434 7.66553V9.38889L49.0266 4.35488C47.53 3.4932 46.1695 3.4025 45.1717 3.99206L38.7318 7.71089C37.7341 8.30045 37.1445 9.52494 37.1445 11.2483V26.8946C37.1445 30.3866 39.5935 34.6043 42.5867 36.373L67.7114 50.8855L70.1151 52.246C71.6117 53.1077 72.9722 53.1984 73.9699 52.6088C74.242 52.4728 74.4234 52.2914 74.6502 52.0646C74.4688 52.2914 74.242 52.4728 73.9699 52.6088L80.4098 48.89C81.4076 48.3005 81.9971 47.076 81.9971 45.3526V29.661C81.9971 26.2143 79.5482 21.9512 76.5096 20.2279Z" fill="#E3D0A7"/>
<path opacity="0.48" d="M75.5116 20.2279L73.1079 18.8673L64.3551 13.788L61.7247 12.2914V12.0193C61.6794 11.4297 61.3166 10.8855 60.7723 10.6587C60.6363 10.568 60.4549 10.5227 60.3188 10.432V7.71089C60.2735 6.44104 60.9991 5.26191 62.1329 4.71769C63.4027 4.17347 65.0354 4.80839 66.6227 6.35034C69.7519 9.47959 73.244 9.34354 75.2848 7.75624C77.2803 6.25964 77.7791 3.4932 76.4639 1.36168C75.9651 0.500001 74.8767 0.182541 74.015 0.681407C73.1533 1.18027 72.8358 2.26871 73.3347 3.13039C73.9243 4.12812 73.3347 4.71769 73.0626 4.94445C72.2463 5.57937 70.7043 5.44331 69.0717 3.85601C66.3959 1.18027 63.3574 0.318595 60.6816 1.40703C58.2327 2.49547 56.6454 4.9898 56.6454 7.66553V9.38889L48.0286 4.35488C46.532 3.4932 45.1714 3.4025 44.1737 3.99206L37.7338 7.71089C36.7361 8.30045 36.1465 9.52494 36.1465 11.2483V26.8946C36.1465 30.3866 38.5955 34.6043 41.5887 36.373L66.7134 50.8855L69.117 52.246C70.6136 53.1077 71.9742 53.1984 72.9719 52.6088C73.244 52.4728 73.4254 52.2914 73.6522 52.0646C73.4708 52.2914 73.244 52.4728 72.9719 52.6088L79.4118 48.89C80.4095 48.3005 80.9991 47.076 80.9991 45.3526V29.661C80.9991 26.2143 78.5501 21.9512 75.5116 20.2279Z" fill="#E1CDA1"/>
<path opacity="0.52" d="M74.5135 20.2279L72.1099 18.8673L63.3571 13.788L60.7267 12.2914V12.0193C60.6813 11.4297 60.3185 10.8855 59.7743 10.6587C59.6382 10.568 59.4568 10.5227 59.3208 10.432V7.71089C59.2754 6.44104 60.001 5.26191 61.1348 4.71769C62.4047 4.17347 64.0373 4.80839 65.6246 6.35034C68.7539 9.47959 72.2459 9.34354 74.2868 7.75624C76.2822 6.25964 76.7811 3.4932 75.4659 1.36168C74.967 0.500001 73.8786 0.182541 73.0169 0.681407C72.1552 1.18027 71.8378 2.26871 72.3366 3.13039C72.9262 4.12812 72.3367 4.71769 72.0645 4.94445C71.2482 5.57937 69.7063 5.44331 68.0736 3.85601C65.3979 1.18027 62.3593 0.318595 59.6836 1.40703C57.2346 2.49547 55.6473 4.9898 55.6473 7.66553V9.38889L47.0305 4.35488C45.5339 3.4932 44.1734 3.4025 43.1303 3.99206L36.7357 7.71089C35.738 8.30045 35.1484 9.52494 35.1484 11.2483V26.8946C35.1484 30.3866 37.5974 34.6043 40.5906 36.373L65.7153 50.8855L68.119 52.246C69.6156 53.1077 70.9761 53.1984 71.9738 52.6088C72.2459 52.4728 72.4274 52.2914 72.6541 52.0646C72.4727 52.2914 72.2459 52.4728 71.9738 52.6088L78.4137 48.89C79.4115 48.3005 80.0011 47.076 80.0011 45.3526V29.661C79.9557 26.2143 77.5067 21.9512 74.5135 20.2279Z" fill="#E0CA9C"/>
<path opacity="0.55" d="M73.5159 20.2279L71.1123 18.8673L62.3594 13.788L59.7291 12.2914V12.0193C59.6837 11.4297 59.3209 10.8855 58.7767 10.6587C58.6406 10.568 58.4592 10.5227 58.3232 10.432V7.71089C58.2778 6.44104 59.0034 5.26191 60.1372 4.71769C61.4071 4.17347 63.0397 4.80839 64.627 6.35034C67.7563 9.47959 71.2483 9.34354 73.2891 7.75624C75.2846 6.25964 75.7835 3.4932 74.4683 1.36168C73.9694 0.500001 72.881 0.182541 72.0193 0.681407C71.1576 1.18027 70.8402 2.26871 71.339 3.13039C71.9286 4.12812 71.339 4.71769 71.0669 4.94445C70.2506 5.57937 68.7086 5.44331 67.076 3.81066C64.4456 1.13492 61.3617 0.273244 58.686 1.36168C56.237 2.45011 54.6497 4.94445 54.6497 7.62018V9.34354L45.9876 4.35488C44.491 3.4932 43.1304 3.4025 42.1327 3.99206L35.6928 7.71089C34.695 8.30045 34.1055 9.52494 34.1055 11.2483V26.8946C34.1055 30.3866 36.5544 34.6043 39.5476 36.373L64.6724 50.8855L67.076 52.246C68.5726 53.1077 69.9331 53.1984 70.9309 52.6088C71.203 52.4728 71.3844 52.2914 71.6111 52.0646C71.4297 52.2914 71.203 52.4728 70.9309 52.6088L77.3708 48.89C78.3685 48.3005 78.9581 47.076 78.9581 45.3526V29.661C78.9581 26.2143 76.5091 21.9512 73.5159 20.2279Z" fill="#DEC796"/>
<path opacity="0.58" d="M72.5179 20.2279L70.1142 18.8673L61.3614 13.788L58.731 12.2914V12.0193C58.6857 11.4297 58.3228 10.8855 57.7786 10.6587C57.6426 10.568 57.4612 10.5227 57.3251 10.432V7.71089C57.2798 6.44104 58.0054 5.26191 59.1392 4.71769C60.409 4.17347 62.0417 4.80839 63.629 6.35034C66.7582 9.47959 70.2503 9.34354 72.2911 7.75624C74.2866 6.25964 74.7854 3.4932 73.4702 1.36168C72.9714 0.500001 71.8829 0.182541 71.0213 0.681407C70.1596 1.18027 69.8421 2.26871 70.341 3.13039C70.9306 4.12812 70.341 4.71769 70.0689 4.94445C69.2525 5.57937 67.7106 5.44331 66.0779 3.85601C63.4022 1.18027 60.3637 0.318595 57.6879 1.40703C55.2389 2.49547 53.6516 4.9898 53.6516 7.66553V9.38889L44.9895 4.35488C43.4929 3.4932 42.1324 3.4025 41.1346 3.99206L34.6947 7.71089C33.697 8.30045 33.1074 9.52494 33.1074 11.2483V26.8946C33.1074 30.3866 35.5564 34.6043 38.5496 36.373L63.6743 50.8855L66.0779 52.246C67.5745 53.1077 68.9351 53.1984 69.9328 52.6088C70.2049 52.4728 70.3863 52.2914 70.6131 52.0646C70.4317 52.2914 70.2049 52.4728 69.9328 52.6088L76.3727 48.89C77.3705 48.3005 77.96 47.076 77.96 45.3526V29.661C77.96 26.2143 75.5111 21.9512 72.5179 20.2279Z" fill="#DCC490"/>
<path opacity="0.61" d="M71.4764 20.2278L69.0728 18.8673L60.3653 13.7879L57.7349 12.2913V12.0192C57.6896 11.4296 57.3267 10.8854 56.7825 10.6586C56.6465 10.5679 56.4651 10.5226 56.329 10.4319V7.71079C56.2837 6.44095 57.0093 5.26181 58.1431 4.71759C59.4129 4.17338 61.0909 4.8083 62.6329 6.35025C65.7621 9.4795 69.2542 9.34344 71.295 7.75614C73.2905 6.25954 73.7893 3.4931 72.5195 1.36159C71.9753 0.545259 70.8415 0.318502 70.0252 0.908071C69.2995 1.40694 69.0274 2.35932 69.3902 3.13029C69.9798 4.12803 69.3902 4.71759 69.1181 4.94435C68.3018 5.57927 66.7599 5.44322 65.1272 3.85592C62.4968 1.18018 59.4583 0.318502 56.7825 1.40694C54.3336 2.49537 52.7462 4.9897 52.7462 7.66544V9.3888L43.9934 4.35478C42.4968 3.4931 41.1363 3.4024 40.1385 3.99197L33.6986 7.71079C32.7009 8.30036 32.1113 9.52485 32.1113 11.2482V26.8945C32.1113 30.3865 34.5603 34.6042 37.5535 36.3729L62.6782 50.8854L65.0818 52.2459C66.5784 53.1076 67.939 53.1983 68.9367 52.6087C69.2088 52.4727 69.3902 52.2913 69.617 52.0645C69.4356 52.2913 69.2088 52.4727 68.9367 52.6087L75.3766 48.8899C76.3744 48.3004 76.9639 47.0759 76.9639 45.3525V29.6609C76.9639 26.2142 74.515 21.9512 71.4764 20.2278Z" fill="#DAC18A"/>
<path opacity="0.64" d="M70.4784 20.2279L68.0747 18.8673L59.3219 13.788L56.7369 12.2914V12.0193C56.6915 11.4297 56.3287 10.8855 55.7845 10.6587C55.6484 10.568 55.467 10.5227 55.331 10.432V7.71089C55.2856 6.44104 56.0112 5.26191 57.145 4.71769C58.4149 4.17347 60.0929 4.80839 61.6348 6.35034C64.7641 9.47959 68.2561 9.34354 70.297 7.75624C72.2924 6.25964 72.7913 3.4932 71.5214 1.36168C71.0226 0.500001 69.9341 0.182541 69.0725 0.681407C68.2108 1.18027 67.8933 2.26871 68.3922 3.13039C68.9818 4.12812 68.3922 4.71769 68.1201 4.94445C67.3038 5.57937 65.7618 5.44331 64.1292 3.85601C61.4534 1.18027 58.4149 0.318595 55.7391 1.40703C53.2902 2.54082 51.7029 4.9898 51.7482 7.71089V9.43424L42.9954 4.35488C41.4988 3.4932 40.1382 3.4025 39.1405 3.99206L32.7006 7.66553C31.7029 8.2551 31.1133 9.47959 31.1133 11.2029V26.8492C31.1133 30.3413 33.5623 34.559 36.5555 36.3277L61.6802 50.8401L64.0838 52.2007C65.5804 53.0624 66.9409 53.1531 67.9387 52.5635C68.2108 52.4274 68.3922 52.246 68.619 52.0193C68.4375 52.246 68.2108 52.4274 67.9387 52.5635L74.3786 48.8447C75.3763 48.2551 75.9659 47.0306 75.9659 45.3073V29.661C75.9205 26.2143 73.4716 21.9512 70.4784 20.2279Z" fill="#D8BD84"/>
<path opacity="0.67" d="M69.4807 20.2279L67.0771 18.8673L58.3243 13.788L55.6939 12.2914V12.0193C55.6485 11.4297 55.2857 10.8855 54.7415 10.6587C54.6055 10.568 54.4241 10.5227 54.288 10.432V7.71089C54.2426 6.44104 54.9683 5.26191 56.1021 4.71769C57.3719 4.17347 59.0046 4.80839 60.5919 6.35034C63.7211 9.47959 67.2132 9.34354 69.254 7.75624C71.2495 6.25964 71.7483 3.4932 70.4785 1.36168C69.9796 0.500001 68.8912 0.182541 68.0295 0.681407C67.1678 1.18027 66.8504 2.26871 67.3492 3.13039C67.9388 4.12812 67.3492 4.71769 67.0771 4.94445C66.2608 5.57937 64.7188 5.44331 63.0862 3.85601C60.4104 1.18027 57.3719 0.318595 54.6962 1.40703C52.2472 2.49547 50.6599 4.9898 50.6599 7.66553V9.38889L41.9524 4.35488C40.4558 3.4932 39.0953 3.4025 38.0975 3.99206L31.6576 7.71089C30.6599 8.30045 30.0703 9.52494 30.0703 11.2483V26.8946C30.0703 30.3866 32.5193 34.6043 35.5125 36.373L60.6372 50.8855L63.0408 52.246C64.5374 53.1077 65.898 53.1984 66.8957 52.6088C67.1678 52.4728 67.3492 52.2914 67.576 52.0646C67.3946 52.2914 67.1678 52.4728 66.8957 52.6088L73.3356 48.89C74.3334 48.3005 74.9229 47.076 74.9229 45.3526V29.661C74.9229 26.2143 72.4739 21.9512 69.4807 20.2279Z" fill="#D6BA7E"/>
<path opacity="0.7" d="M68.4827 20.2279L66.0791 18.8673L57.3262 13.788L54.6958 12.2914V12.0193C54.6505 11.4297 54.2877 10.8855 53.7435 10.6587C53.6074 10.568 53.426 10.5227 53.29 10.432V7.71089C53.2446 6.44104 53.9702 5.26191 55.104 4.71769C56.3739 4.17347 58.0065 4.80839 59.5938 6.35034C62.7231 9.47959 66.2151 9.34354 68.2559 7.75624C70.2514 6.25964 70.7503 3.4932 69.4804 1.36168C68.9816 0.500001 67.8931 0.182541 67.0314 0.681407C66.1698 1.18027 65.8523 2.26871 66.3512 3.13039C66.9407 4.12812 66.3512 4.71769 66.0791 4.94445C65.2627 5.57937 63.7208 5.44331 62.0881 3.85601C59.4124 1.18027 56.3739 0.318595 53.6981 1.40703C51.2491 2.49547 49.6618 4.9898 49.6618 7.66553V9.38889L40.9544 4.35488C39.4578 3.4932 38.0972 3.4025 37.0995 3.99206L30.6596 7.71089C29.6618 8.30045 29.0723 9.52494 29.0723 11.2483V26.8946C29.0723 30.3866 31.5212 34.6043 34.5144 36.373L59.6392 50.8855L62.0428 52.246C63.5394 53.1077 64.8999 53.1984 65.8977 52.6088C66.1698 52.4728 66.3512 52.2914 66.5779 52.0646C66.3965 52.2914 66.1698 52.4728 65.8977 52.6088L72.3376 48.89C73.3353 48.3005 73.9249 47.076 73.9249 45.3526V29.661C73.9249 26.2143 71.4759 21.9512 68.4827 20.2279Z" fill="#D4B778"/>
<path opacity="0.73" d="M67.4393 20.2279L65.0357 18.8673L56.2828 13.788L53.6524 12.2914V12.0193C53.6071 11.4297 53.2443 10.8855 52.7001 10.6587C52.564 10.568 52.3826 10.5227 52.2466 10.432V7.71089C52.2012 6.44104 52.9268 5.26191 54.0606 4.71769C55.3305 4.17347 56.9631 4.80839 58.5504 6.35034C61.6797 9.47959 65.1717 9.34354 67.2125 7.75624C69.208 6.25964 69.7069 3.4932 68.437 1.36168C67.9382 0.500001 66.8497 0.182541 65.988 0.681407C65.1264 1.18027 64.8089 2.26871 65.3078 3.13039C65.8973 4.12812 65.3078 4.71769 65.0357 4.94445C64.2193 5.57937 62.6774 5.44331 61.0447 3.85601C58.369 1.18027 55.3305 0.318595 52.6547 1.40703C50.2057 2.49547 48.6184 4.9898 48.6184 7.66553V9.38889L39.9563 4.35488C38.4597 3.4932 37.0992 3.4025 36.1014 3.99206L29.6615 7.71089C28.6638 8.30045 28.0742 9.52494 28.0742 11.2483V26.8946C28.0742 30.3866 30.5232 34.6043 33.5164 36.373L58.6411 50.8855L61.0447 52.246C62.5413 53.1077 63.9019 53.1984 64.8996 52.6088C65.1717 52.4728 65.3531 52.2914 65.5799 52.0646C65.3985 52.2914 65.1717 52.4728 64.8996 52.6088L71.3395 48.89C72.3373 48.3005 72.9268 47.076 72.9268 45.3526V29.661C72.9268 26.2143 70.4778 21.9512 67.4393 20.2279Z" fill="#D3B473"/>
<path opacity="0.76" d="M66.4413 20.2279L64.0376 18.8673L55.2848 13.788L52.6544 12.2914V12.0193C52.6091 11.4297 52.2462 10.8855 51.702 10.6587C51.566 10.568 51.3846 10.5227 51.2485 10.432V7.71089C51.2032 6.44104 51.9288 5.26191 53.0626 4.71769C54.3324 4.17347 55.9651 4.80839 57.5524 6.35034C60.6816 9.47959 64.1737 9.34354 66.2145 7.75624C68.21 6.25964 68.7088 3.4932 67.439 1.36168C66.9401 0.500001 65.8517 0.182541 64.99 0.681407C64.1283 1.18027 63.8109 2.26871 64.3097 3.13039C64.8993 4.12812 64.3097 4.71769 64.0376 4.94445C63.2213 5.57937 61.6794 5.44331 60.0467 3.85601C57.371 1.18027 54.3324 0.318595 51.6567 1.40703C49.2077 2.49547 47.6204 4.9898 47.6204 7.66553V9.38889L38.9583 4.35488C37.4617 3.4932 36.1011 3.4025 35.1034 3.99206L28.6635 7.71089C27.6657 8.30045 27.0762 9.52494 27.0762 11.2483V26.8946C27.0762 30.3866 29.5252 34.6043 32.5183 36.373L57.6431 50.8855L60.0467 52.246C61.5433 53.1077 62.9038 53.1984 63.9016 52.6088C64.1737 52.4728 64.3551 52.2914 64.5818 52.0646C64.4004 52.2914 64.1737 52.4728 63.9016 52.6088L70.3415 48.89C71.3392 48.3005 71.9288 47.076 71.9288 45.3526V29.661C71.8834 26.2143 69.4345 21.9512 66.4413 20.2279Z" fill="#D1B16D"/>
<path opacity="0.79" d="M65.4432 20.2279L63.0396 18.8673L54.2867 13.788L51.6564 12.2914V12.0193C51.611 11.4297 51.2482 10.8855 50.704 10.6587C50.5679 10.568 50.3865 10.5227 50.2505 10.432V7.71089C50.2051 6.44104 50.9307 5.26191 52.0645 4.71769C53.3344 4.17347 54.967 4.80839 56.5543 6.35034C59.6836 9.47959 63.1756 9.34354 65.2164 7.75624C67.2119 6.25964 67.7108 3.4932 66.4409 1.36168C65.9421 0.500001 64.8536 0.182541 63.992 0.681407C63.1303 1.18027 62.8128 2.26871 63.3117 3.13039C63.9013 4.12812 63.3117 4.71769 63.0396 4.94445C62.2232 5.57937 60.6813 5.44331 59.0487 3.85601C56.3729 1.18027 53.3344 0.318595 50.6586 1.40703C48.2096 2.49547 46.6223 4.9898 46.6223 7.66553V9.38889L37.9602 4.35488C36.4636 3.4932 35.1031 3.4025 34.06 3.99206L27.6654 7.71089C26.6677 8.30045 26.0781 9.52494 26.0781 11.2483V26.8946C26.0781 30.3866 28.5271 34.6043 31.5203 36.373L56.645 50.8855L59.0487 52.246C60.5453 53.1077 61.9058 53.1984 62.9035 52.6088C63.1756 52.4728 63.357 52.2914 63.5838 52.0646C63.4024 52.2914 63.1756 52.4728 62.9035 52.6088L69.3434 48.89C70.3412 48.3005 70.9307 47.076 70.9307 45.3526V29.661C70.8854 26.2143 68.4364 21.9512 65.4432 20.2279Z" fill="#CFAE67"/>
<path opacity="0.82" d="M64.4456 20.2279L62.042 18.8673L53.2891 13.788L50.6587 12.2914V12.0193C50.6134 11.4297 50.2506 10.8855 49.7064 10.6587C49.5703 10.568 49.3889 10.5227 49.2528 10.432V7.71089C49.2075 6.44104 49.9331 5.26191 51.0669 4.71769C52.3367 4.17347 53.9694 4.80839 55.5567 6.35034C58.686 9.47959 62.178 9.34354 64.2188 7.75624C66.2143 6.25964 66.7132 3.4932 65.4433 1.36168C64.9445 0.500001 63.856 0.182541 62.9943 0.681407C62.1327 1.18027 61.8152 2.26871 62.3141 3.13039C62.9036 4.12812 62.3141 4.71769 62.042 4.94445C61.2256 5.57937 59.6837 5.44331 58.051 3.81066C55.4206 1.13492 52.3367 0.273244 49.661 1.36168C47.212 2.45011 45.6247 4.94445 45.6247 7.62018V9.34354L36.9172 4.35488C35.4206 3.4932 34.0601 3.4025 33.0624 3.99206L26.6225 7.71089C25.6247 8.30045 25.0352 9.52494 25.0352 11.2483V26.8946C25.0352 30.3866 27.4841 34.6043 30.4773 36.373L55.6021 50.8855L58.0057 52.246C59.5023 53.1077 60.8628 53.1984 61.8606 52.6088C62.1327 52.4728 62.3141 52.2914 62.5408 52.0646C62.3594 52.2914 62.1327 52.4728 61.8606 52.6088L68.3005 48.89C69.2982 48.3005 69.8878 47.076 69.8878 45.3526V29.661C69.8878 26.2143 67.4388 21.9512 64.4456 20.2279Z" fill="#CDAB61"/>
<path opacity="0.85" d="M63.4022 20.2279L60.9986 18.8673L52.2457 13.788L49.6153 12.2914V12.0193C49.57 11.4297 49.2072 10.8855 48.663 10.6587C48.5269 10.568 48.3455 10.5227 48.2094 10.432V7.71089C48.1641 6.44104 48.8897 5.26191 50.0235 4.71769C51.2933 4.17347 52.926 4.80839 54.5133 6.35034C57.6426 9.47959 61.1346 9.34354 63.1754 7.75624C65.1709 6.25964 65.6698 3.4932 64.3546 1.36168C63.8557 0.500001 62.7673 0.182541 61.9056 0.681407C61.0439 1.18027 60.7265 2.26871 61.2253 3.13039C61.8149 4.12812 61.2253 4.71769 60.9532 4.94445C60.1369 5.57937 58.5949 5.44331 56.9623 3.85601C54.3319 1.18027 51.248 0.318595 48.5723 1.40703C46.1233 2.49547 44.536 4.9898 44.536 7.66553V9.38889L35.9192 4.35488C34.4226 3.4932 33.0621 3.4025 32.0643 3.99206L25.6244 7.71089C24.6267 8.30045 24.0371 9.52494 24.0371 11.2483V26.8946C24.0371 30.3866 26.4861 34.6043 29.4793 36.373L54.604 50.8855L57.0076 52.246C58.5042 53.1077 59.8648 53.1984 60.8625 52.6088C61.1346 52.4728 61.316 52.2914 61.5428 52.0646C61.3614 52.2914 61.1346 52.4728 60.8625 52.6088L67.3024 48.89C68.3002 48.3005 68.8897 47.076 68.8897 45.3526V29.661C68.8897 26.2143 66.4407 21.9512 63.4022 20.2279Z" fill="#CBA85B"/>
<path opacity="0.88" d="M62.4061 20.228L60.0025 18.8674L51.295 13.7881L48.6646 12.2915V12.0194C48.6192 11.4298 48.2564 10.8856 47.7122 10.6588C47.5762 10.5681 47.3948 10.5228 47.2587 10.4321V7.71097C47.2133 6.44113 47.939 5.26199 49.0728 4.71777C50.3426 4.17356 51.9753 4.80848 53.5626 6.35043C56.6918 9.47968 60.1839 9.34362 62.2247 7.75632C64.2202 6.25972 64.719 3.49328 63.4492 1.36176C62.905 0.545438 61.7712 0.364032 60.9548 0.90825C60.2292 1.40712 60.0025 2.31415 60.3653 3.13047C60.9548 4.1282 60.3653 4.71777 60.0932 4.94453C59.2768 5.57945 57.7349 5.4434 56.1022 3.8561C53.4265 1.18036 50.388 0.318681 47.6669 1.40712C45.2179 2.49555 43.6306 4.98988 43.6306 7.66562V9.38898L34.9231 4.35496C33.4265 3.49328 32.066 3.40258 31.0682 3.99215L24.6283 7.71097C23.6306 8.30054 23.041 9.52503 23.041 11.2484V26.8946C23.041 30.3867 25.49 34.6044 28.4832 36.3731L53.6079 50.8856L56.0115 52.2461C57.5081 53.1078 58.8687 53.1985 59.8664 52.6089C60.1385 52.4729 60.3199 52.2915 60.5467 52.0647C60.3653 52.2915 60.1385 52.4729 59.8664 52.6089L66.3063 48.8901C67.3041 48.3005 67.8936 47.076 67.8936 45.3527V29.6611C67.8936 26.2144 65.4446 21.9513 62.4061 20.228Z" fill="#C9A455"/>
<path opacity="0.91" d="M61.4081 20.2279L59.0044 18.8673L50.2516 13.788L47.6666 12.2914V12.0193C47.6212 11.4297 47.2584 10.8855 46.7142 10.6587C46.5781 10.568 46.3967 10.5227 46.2607 10.432V7.71089C46.2153 6.44104 46.9409 5.26191 48.0747 4.71769C49.3446 4.17347 50.9772 4.80839 52.5645 6.35034C55.6938 9.47959 59.1858 9.34354 61.2266 7.75624C63.2221 6.25964 63.721 3.4932 62.4058 1.36168C61.9069 0.500001 60.8185 0.182541 59.9568 0.681407C59.0951 1.18027 58.7777 2.26871 59.2765 3.13039C59.8661 4.12812 59.2765 4.71769 59.0044 4.94445C58.1881 5.57937 56.6461 5.44331 55.0135 3.85601C52.3378 1.18027 49.2992 0.318595 46.6235 1.40703C44.1745 2.54082 42.5872 4.9898 42.6325 7.71089V9.43424L33.9251 4.35488C32.4285 3.4932 31.0679 3.4025 30.0702 3.99206L23.6303 7.66553C22.6325 8.2551 22.043 9.47959 22.043 11.2029V26.8492C22.043 30.3413 24.4919 34.559 27.4851 36.3277L52.6099 50.8401L55.0135 52.2007C56.5101 53.0624 57.8706 53.1531 58.8684 52.5635C59.1405 52.4274 59.3219 52.246 59.5486 52.0193C59.3672 52.246 59.1405 52.4274 58.8684 52.5635L65.3083 48.8447C66.306 48.2551 66.8956 47.0306 66.8956 45.3073V29.661C66.8502 26.2143 64.4012 21.9512 61.4081 20.2279Z" fill="#C8A150"/>
<path opacity="0.94" d="M60.4104 20.2279L58.0068 18.8673L49.254 13.788L46.6236 12.2914V12.0193C46.5782 11.4297 46.2154 10.8855 45.6712 10.6587C45.5351 10.568 45.3537 10.5227 45.2177 10.432V7.71089C45.1723 6.44104 45.898 5.26191 47.0317 4.71769C48.3016 4.17347 49.9342 4.80839 51.5215 6.35034C54.6508 9.47959 58.1429 9.34354 60.1837 7.75624C62.1791 6.25964 62.678 3.4932 61.3628 1.36168C60.8639 0.500001 59.7755 0.182541 58.9138 0.681407C58.0522 1.18027 57.7347 2.26871 58.2336 3.13039C58.8231 4.12812 58.2336 4.71769 57.9615 4.94445C57.1451 5.57937 55.6032 5.44331 53.9705 3.85601C51.3401 1.18027 48.2562 0.318595 45.5805 1.40703C43.1315 2.49547 41.5442 4.9898 41.5442 7.66553V9.38889L32.8821 4.35488C31.3855 3.4932 30.0249 3.4025 29.0272 3.99206L22.5873 7.71089C21.5896 8.30045 21 9.52494 21 11.2483V26.8946C21 30.3866 23.449 34.6043 26.4422 36.373L51.5669 50.8855L53.9705 52.246C55.4671 53.1077 56.8277 53.1984 57.8254 52.6088C58.0975 52.4728 58.2789 52.2914 58.5057 52.0646C58.3243 52.2914 58.0975 52.4728 57.8254 52.6088L64.2653 48.89C65.263 48.3005 65.8526 47.076 65.8526 45.3526V29.661C65.8526 26.2143 63.4036 21.9512 60.4104 20.2279Z" fill="#C69E4A"/>
<path opacity="0.97" d="M59.4124 20.2279L57.0088 18.8673L48.2559 13.788L45.6255 12.2914V12.0193C45.5802 11.4297 45.2174 10.8855 44.6732 10.6587C44.5371 10.568 44.3557 10.5227 44.2196 10.432V7.71089C44.1743 6.44104 44.8999 5.26191 46.0337 4.71769C47.3035 4.17347 48.9362 4.80839 50.5235 6.35034C53.6527 9.47959 57.1448 9.34354 59.1856 7.75624C61.1811 6.25964 61.68 3.4932 60.3648 1.36168C59.8659 0.500001 58.7775 0.182541 57.9158 0.681407C57.0541 1.18027 56.7366 2.26871 57.2355 3.13039C57.8251 4.12812 57.2355 4.71769 56.9634 4.94445C56.1471 5.57937 54.6051 5.44331 52.9725 3.85601C50.3874 1.18027 47.3489 0.318595 44.6732 1.40703C42.2242 2.49547 40.6369 4.9898 40.6369 7.66553V9.38889L31.884 4.35488C30.3874 3.4932 29.0269 3.4025 28.0292 3.99206L21.5893 7.71089C20.5915 8.30045 20.002 9.52494 20.002 11.2483V26.8946C20.002 30.3866 22.4509 34.6043 25.4441 36.373L50.5688 50.8855L52.9725 52.246C54.4691 53.1077 55.8296 53.1984 56.8273 52.6088C57.0995 52.4728 57.2809 52.2914 57.5076 52.0646C57.3262 52.2914 57.0995 52.4728 56.8273 52.6088L63.2673 48.89C64.265 48.3005 64.8546 47.076 64.8546 45.3526V29.661C64.8546 26.2143 62.4056 21.9512 59.4124 20.2279Z" fill="#C49B44"/>
<path d="M58.369 20.2279L55.9654 18.8673L47.2125 13.788L44.6275 12.2914V12.0193C44.5821 11.4297 44.2193 10.8855 43.6751 10.6587C43.5391 10.568 43.3576 10.5227 43.2216 10.432V7.71089C43.1762 6.44104 43.9019 5.26191 45.0357 4.71769C46.3055 4.17347 47.9381 4.80839 49.5255 6.35034C52.6547 9.47959 56.1468 9.34354 58.1876 7.75624C60.183 6.25964 60.6819 3.4932 59.3667 1.36168C58.8679 0.500001 57.7794 0.182541 56.9177 0.681407C56.0561 1.18027 55.7386 2.26871 56.2375 3.13039C56.827 4.12812 56.2375 4.71769 55.9654 4.94445C55.149 5.57937 53.6071 5.44331 51.9744 3.85601C49.344 1.18027 46.2601 0.318595 43.5844 1.40703C41.1354 2.49547 39.5481 4.9898 39.5481 7.66553V9.38889L30.886 4.35488C29.3894 3.4932 28.0289 3.4025 27.0311 3.99206L20.5912 7.71089C19.5935 8.30045 19.0039 9.52494 19.0039 11.2483V26.8946C19.0039 30.3866 21.4529 34.6043 24.4461 36.373L49.5708 50.8855L51.9744 52.246C53.471 53.1077 54.8316 53.1984 55.8293 52.6088C56.1014 52.4728 56.2828 52.2914 56.5096 52.0646C56.3282 52.2914 56.1014 52.4728 55.8293 52.6088L62.2692 48.89C63.2669 48.3005 63.8565 47.076 63.8565 45.3526V29.661C63.8565 26.2143 61.4075 21.9512 58.369 20.2279Z" fill="#C2983E"/>
</g>
<path d="M58.3676 20.2282L55.964 18.8676L47.2112 13.7883L41.9504 10.7497L30.8846 4.35516C29.388 3.49349 28.0275 3.40278 27.0298 3.99235L20.5898 7.71117C21.5876 7.1216 22.9481 7.21231 24.4447 8.07399L35.5558 14.4685L40.8166 17.5071L49.5694 22.5411L51.9731 23.9016C54.9663 25.625 57.4152 29.888 57.4152 33.3348V49.0264C57.4152 50.7497 56.8257 51.9742 55.8279 52.5638L62.2678 48.845C63.2656 48.2554 63.8551 47.0309 63.8551 45.3075V29.6613C63.8551 26.2146 61.4062 21.9515 58.3676 20.2282Z" fill="url(#paint1_linear_3165_2711)"/>
<path d="M30.8852 32.6089L24.4453 36.3277L49.57 50.8402L56.0099 47.1214L30.8852 32.6089Z" fill="#0F303F"/>
<path d="M51.9744 23.9469L49.5708 22.5864L40.818 17.507L35.5572 14.4685L24.4461 8.07391C22.9495 7.21224 21.5889 7.12153 20.5912 7.7111C19.5935 8.30067 19.0039 9.52516 19.0039 11.2485V26.8948C19.0039 30.3868 21.4529 34.6045 24.4461 36.3732L49.5708 50.8857L51.9744 52.2462C53.471 53.1079 54.8316 53.1986 55.8293 52.6091C56.827 52.0195 57.4166 50.795 57.4166 49.0716V33.38C57.4166 29.9333 54.9676 25.6703 51.9744 23.9469Z" fill="#262626"/>
<path d="M43.6744 15.2395C44.2186 15.0127 44.5814 14.4685 44.6267 13.8789V12.0195C44.5814 12.6091 44.2186 13.1533 43.6744 13.3801C42.2231 14.1057 40.4998 14.1057 39.0032 13.3801C38.4589 13.1533 38.0961 12.6091 38.0508 12.0195V13.9243C38.0961 14.5139 38.4589 15.0581 39.0032 15.2848C40.4998 16.0105 42.2231 16.0105 43.6744 15.2395Z" fill="url(#paint2_linear_3165_2711)"/>
<path d="M43.6744 13.3346C44.2186 13.1079 44.5814 12.5637 44.6267 11.9741C44.5814 11.3845 44.2186 10.8403 43.6744 10.6136C42.2231 9.88793 40.4998 9.88793 39.0032 10.6136C38.4589 10.8403 38.0961 11.3845 38.0508 11.9741C38.0961 12.5637 38.4589 13.1079 39.0032 13.3346C40.4998 14.1056 42.2231 14.1056 43.6744 13.3346ZM39.2299 10.795C40.5451 10.1147 42.1324 10.1147 43.4476 10.795C43.9465 11.0217 44.2639 11.4752 44.3093 12.0194C44.2639 12.5637 43.9465 13.0172 43.4476 13.2439C42.1324 13.9242 40.5451 13.9242 39.2299 13.2439C38.7311 13.0172 38.4136 12.5637 38.3682 12.0194C38.4136 11.4752 38.7311 11.0217 39.2299 10.795Z" fill="#262626"/>
<path d="M43.4477 13.2439C44.6269 12.5636 44.6269 11.4751 43.4477 10.7949C42.1325 10.1146 40.5452 10.1146 39.2301 10.7949C38.0509 11.4751 38.0509 12.5636 39.2301 13.2439C40.5452 13.9241 42.1325 13.9241 43.4477 13.2439Z" fill="#2E2E2E"/>
<path d="M43.3127 13.2438C44.4011 12.6088 44.4011 11.6111 43.3127 10.9762C42.0882 10.3413 40.5916 10.3413 39.3671 10.9762C38.2787 11.6111 38.2787 12.6088 39.3671 13.2438C40.6369 13.8787 42.0882 13.8787 43.3127 13.2438Z" fill="#424242"/>
<path d="M59.4123 1.40709C58.9135 0.545412 57.825 0.227951 56.9634 0.726817C56.1017 1.22568 55.7842 2.31412 56.2831 3.1758C56.8727 4.17353 56.2831 4.7631 56.011 4.98986C55.1947 5.62478 53.6527 5.48872 52.0201 3.90142C49.3897 1.22568 46.3058 0.364006 43.63 1.45244C41.1811 2.54088 39.5938 5.03521 39.5938 7.71094V11.974C39.5938 12.5636 40.4101 13.0171 41.3625 13.0171C42.3148 13.0171 43.1312 12.5636 43.1312 11.974V7.7563C43.0858 6.48645 43.8114 5.30732 44.9452 4.7631C46.2151 4.21888 47.8477 4.8538 49.435 6.39575C52.5643 9.525 56.0563 9.38895 58.0972 7.80165C60.1833 6.30505 60.7275 3.53861 59.4123 1.40709Z" fill="#1A1A1A"/>
<path d="M35.3751 25.3526L33.1076 24.0374V21.407C33.0169 19.9558 32.2459 18.6406 31.0214 17.8243L29.7516 17.0533C28.6178 16.373 27.7107 16.9172 27.7107 18.2324V20.9082L25.4432 19.593C24.3094 18.958 23.4023 19.4569 23.4023 20.7721V22.2687C23.493 23.7199 24.264 25.0351 25.4432 25.8515L27.7107 27.1667V29.797C27.8014 31.2483 28.5724 32.5635 29.7516 33.3798L31.0214 34.1508C32.1552 34.7857 33.1076 34.2868 33.1076 32.9716V30.3413L35.3751 31.6565C36.5089 32.2914 37.4613 31.7925 37.4613 30.4773V28.9807C37.3252 27.4841 36.5543 26.1689 35.3751 25.3526Z" fill="#2C5772"/>
<path d="M31.7927 31.0215V33.6519C31.838 34.1961 31.6113 34.695 31.2031 34.9671L32.473 34.2415C32.8811 33.924 33.1532 33.4252 33.0625 32.9263V30.2959L31.7927 31.0215Z" fill="url(#paint3_linear_3165_2711)"/>
<path d="M35.3757 25.3528L33.1082 24.0376L31.793 24.7632L34.0605 26.0784C35.285 26.8947 36.056 28.2099 36.1467 29.6612V31.1578C36.1921 31.702 35.9653 32.2009 35.5571 32.473L36.827 31.7473C37.2351 31.4299 37.5073 30.931 37.4166 30.4322V28.9356C37.3258 27.4843 36.5549 26.1691 35.3757 25.3528Z" fill="url(#paint4_linear_3165_2711)"/>
<path d="M25.3988 19.5932C24.9907 19.2757 24.4011 19.2304 23.9476 19.4572L22.6777 20.1828C23.1312 19.956 23.7208 20.0014 24.129 20.3188L26.3966 21.634L27.7117 20.863L25.3988 19.5932Z" fill="url(#paint5_linear_3165_2711)"/>
<path d="M31.0222 17.8241L29.7523 17.0532C29.3442 16.7357 28.7546 16.6904 28.3011 16.9171L27.0312 17.6427C27.4848 17.416 28.0743 17.4613 28.4825 17.7788L29.7523 18.5498C30.9768 19.3207 31.7478 20.6813 31.8385 22.1325V24.7629L33.1083 24.0373V21.4069C33.0176 19.9557 32.2467 18.6405 31.0222 17.8241Z" fill="url(#paint6_linear_3165_2711)"/>
<path d="M34.06 26.1237L31.7924 24.8085V22.1782C31.7017 20.7269 30.9307 19.4117 29.7062 18.5954L28.4364 17.8244C27.9375 17.3709 27.1212 17.3709 26.6677 17.8698C26.3956 18.1872 26.2595 18.6407 26.3502 19.0036V21.6339L24.0826 20.3187C23.5838 19.8652 22.7674 19.9106 22.3139 20.4095C22.0418 20.6816 21.9511 21.0897 22.0418 21.4979V22.9945C22.1325 24.4457 22.9035 25.7609 24.0826 26.5772L26.3502 27.8924V30.5228C26.4409 31.9741 27.2119 33.2893 28.391 34.1056L29.7062 34.8766C30.2051 35.3301 31.0214 35.3301 31.4749 34.8312C31.747 34.5138 31.8831 34.1056 31.7924 33.6974V31.067L34.06 32.3822C34.5588 32.8358 35.3752 32.7904 35.8287 32.2915C36.1008 32.0194 36.1915 31.6113 36.1008 31.2031V29.7065C36.0554 28.2099 35.2845 26.8947 34.06 26.1237Z" fill="#E0E0E0"/>
<path d="M47.1676 40.2282C47.1676 42.2236 45.7617 43.0853 43.993 42.0422C42.1336 40.8177 40.9544 38.7769 40.8184 36.5547C40.8184 34.5592 42.2243 33.6976 43.993 34.7406C45.8524 35.9651 47.0315 38.0059 47.1676 40.2282Z" fill="#FDC00F"/>
<path d="M52.0641 33.4254C52.0641 35.4209 50.6582 36.2825 48.8894 35.2395C47.03 34.015 45.8509 31.9742 45.7148 29.7519C45.7148 27.7111 47.1207 26.8948 48.8894 27.9379C50.7489 29.1624 51.928 31.2032 52.0641 33.4254Z" fill="#DE3F19"/>
<path d="M43.9921 34.7406C43.1304 34.2417 42.3594 34.1963 41.7698 34.5138L40.5 35.2394C41.0896 34.922 41.8605 34.9673 42.7222 35.4662C44.5816 36.6907 45.7608 38.7315 45.8968 40.9537C45.8968 41.9514 45.534 42.6771 44.9444 42.9945L46.2143 42.2689C46.8039 41.9514 47.1213 41.2258 47.1213 40.2281C47.0306 38.0059 45.8515 35.965 43.9921 34.7406Z" fill="url(#paint7_linear_3165_2711)"/>
<path d="M48.8905 27.9378C48.0288 27.439 47.2125 27.3936 46.6683 27.7111L45.3984 28.4367C45.988 28.1192 46.759 28.1646 47.6207 28.6634C49.4801 29.8879 50.6592 31.9288 50.7953 34.151C50.7953 35.1487 50.4325 35.8743 49.8882 36.1918L51.1581 35.4662C51.7476 35.1487 52.0651 34.4231 52.0651 33.4254C51.9744 31.1578 50.7953 29.1623 48.8905 27.9378Z" fill="url(#paint8_linear_3165_2711)"/>
<path d="M45.8507 40.9537C45.8507 41.9514 45.4879 42.677 44.9437 42.9945C44.3995 43.3119 43.5832 43.2666 42.7215 42.7677C40.8621 41.5432 39.6829 39.5024 39.5469 37.2802C39.5469 36.2825 39.9097 35.5568 40.4539 35.2394C40.9981 34.9219 41.8144 34.9673 42.6761 35.4661C44.5355 36.6906 45.7147 38.7314 45.8507 40.9537Z" fill="#FFDB32"/>
<path d="M50.7941 34.1509C50.7941 35.1487 50.4313 35.8743 49.8871 36.1918C49.3428 36.5092 48.5265 36.4639 47.6648 35.965C45.8054 34.7405 44.6263 32.6997 44.4902 30.4775C44.4902 29.4797 44.853 28.7541 45.3973 28.4367C45.9415 28.1192 46.7578 28.1645 47.6195 28.6634C49.4789 29.8879 50.658 31.9287 50.7941 34.1509Z" fill="#EF5619"/>
</g>
<defs>
<linearGradient id="paint0_linear_3165_2711" x1="0.5" y1="56.9359" x2="80.4909" y2="56.9359" gradientUnits="userSpaceOnUse">
<stop stop-color="#FFED44"/>
<stop offset="0.07" stop-color="#FFF047"/>
<stop offset="0.3" stop-color="#FFF24A"/>
<stop offset="0.55" stop-color="#FFE23A"/>
<stop offset="0.74" stop-color="#FFDC34"/>
<stop offset="1" stop-color="#F9B519"/>
</linearGradient>
<linearGradient id="paint1_linear_3165_2711" x1="32.6073" y1="0.740561" x2="60.8436" y2="49.6431" gradientUnits="userSpaceOnUse">
<stop stop-color="#383838"/>
<stop offset="0.1" stop-color="#3D3B3C"/>
<stop offset="0.3" stop-color="#403D3E"/>
<stop offset="0.55" stop-color="#302D2E"/>
<stop offset="0.74" stop-color="#2A2728"/>
<stop offset="1"/>
</linearGradient>
<linearGradient id="paint2_linear_3165_2711" x1="44.6339" y1="13.9138" x2="38.0579" y2="13.9131" gradientUnits="userSpaceOnUse">
<stop/>
<stop offset="1" stop-color="#383838"/>
</linearGradient>
<linearGradient id="paint3_linear_3165_2711" x1="31.3525" y1="31.2932" x2="32.9177" y2="34.0106" gradientUnits="userSpaceOnUse">
<stop stop-color="#8F8F8F"/>
<stop offset="0.35" stop-color="#898989"/>
<stop offset="0.82" stop-color="#787878"/>
<stop offset="1" stop-color="#707070"/>
</linearGradient>
<linearGradient id="paint4_linear_3165_2711" x1="32.9434" y1="24.1211" x2="37.2165" y2="31.5163" gradientUnits="userSpaceOnUse">
<stop stop-color="#CFCFCF"/>
<stop offset="0.02" stop-color="#D2D2D2"/>
<stop offset="0.14" stop-color="#DBDBDB"/>
<stop offset="0.3" stop-color="#DEDEDE"/>
<stop offset="0.47" stop-color="#C2C2C2"/>
<stop offset="0.68" stop-color="#A6A6A6"/>
<stop offset="0.86" stop-color="#959595"/>
<stop offset="1" stop-color="#8F8F8F"/>
</linearGradient>
<linearGradient id="paint5_linear_3165_2711" x1="24.3658" y1="19.2025" x2="25.9349" y2="21.9146" gradientUnits="userSpaceOnUse">
<stop stop-color="#CFCFCF"/>
<stop offset="0.12" stop-color="#C4C4C4"/>
<stop offset="0.36" stop-color="#B4B4B4"/>
<stop offset="0.63" stop-color="#ABABAB"/>
<stop offset="1" stop-color="#A8A8A8"/>
</linearGradient>
<linearGradient id="paint6_linear_3165_2711" x1="28.6737" y1="16.7082" x2="32.9529" y2="24.1185" gradientUnits="userSpaceOnUse">
<stop stop-color="#CFCFCF"/>
<stop offset="0.02" stop-color="#D2D2D2"/>
<stop offset="0.14" stop-color="#DBDBDB"/>
<stop offset="0.3" stop-color="#DEDEDE"/>
<stop offset="0.47" stop-color="#C2C2C2"/>
<stop offset="0.68" stop-color="#A6A6A6"/>
<stop offset="0.86" stop-color="#959595"/>
<stop offset="1" stop-color="#8F8F8F"/>
</linearGradient>
<linearGradient id="paint7_linear_3165_2711" x1="42.2362" y1="34.2417" x2="46.7147" y2="41.9963" gradientUnits="userSpaceOnUse">
<stop stop-color="#FFED44"/>
<stop offset="0.07" stop-color="#FFF047"/>
<stop offset="0.3" stop-color="#FFF24A"/>
<stop offset="0.55" stop-color="#FFE23A"/>
<stop offset="0.74" stop-color="#FFDC34"/>
<stop offset="1" stop-color="#F9B519"/>
</linearGradient>
<linearGradient id="paint8_linear_3165_2711" x1="47.1582" y1="27.4282" x2="51.6344" y2="35.1787" gradientUnits="userSpaceOnUse">
<stop stop-color="#FF682B"/>
<stop offset="0.07" stop-color="#FF6B2E"/>
<stop offset="0.3" stop-color="#FF6D31"/>
<stop offset="0.55" stop-color="#F65D21"/>
<stop offset="0.74" stop-color="#F3571B"/>
<stop offset="1" stop-color="#C93000"/>
</linearGradient>
<clipPath id="clip0_3165_2711">
<rect width="80" height="71.8367" fill="white" transform="translate(0.5 0.5)"/>
</clipPath>
</defs>
</svg>
