<svg width="81" height="70" viewBox="0 0 81 70" fill="none" xmlns="http://www.w3.org/2000/svg">
<g clip-path="url(#clip0_3165_3309)">
<path d="M67.2574 31.0217C49.6156 20.8176 31.3844 20.8176 13.7426 31.0217C4.89909 36.1011 0.5 41.2711 0.5 46.4412C0.5 51.6113 4.89909 56.7813 13.7426 61.9061C31.3844 72.1101 49.6156 72.1101 67.2574 61.9061C76.1009 56.8267 80.5 51.6113 80.5 46.4412C80.5 41.2711 76.1009 36.1011 67.2574 31.0217Z" fill="#949494"/>
<path d="M67.2574 54.1963C49.6156 64.4004 31.3844 64.4004 13.7426 54.1963C4.89909 49.1169 0.5 43.9469 0.5 38.7314V46.4412C0.5 51.6113 4.89909 56.7813 13.7426 61.906C31.3844 72.1101 49.6156 72.1101 67.2574 61.906C76.1009 56.8267 80.5 51.6113 80.5 46.4412V38.7314C80.5 43.9469 76.1009 49.1169 67.2574 54.1963Z" fill="url(#paint0_linear_3165_3309)"/>
<path d="M67.2574 23.3118C49.6156 13.1077 31.3844 13.1077 13.7426 23.3118C4.89909 28.3911 0.5 33.5612 0.5 38.7313C0.5 43.9013 4.89909 49.0714 13.7426 54.1961C31.3844 64.4002 49.6156 64.4002 67.2574 54.1961C76.1009 49.1167 80.5 43.9013 80.5 38.7313C80.5 33.5612 76.1009 28.3911 67.2574 23.3118Z" fill="#ABC700"/>
<mask id="mask0_3165_3309" style="mask-type:luminance" maskUnits="userSpaceOnUse" x="0" y="15" width="81" height="47">
<path d="M67.2574 23.3118C49.6156 13.1077 31.3844 13.1077 13.7426 23.3118C4.89909 28.3911 0.5 33.5612 0.5 38.7313C0.5 43.9013 4.89909 49.0714 13.7426 54.1961C31.3844 64.4002 49.6156 64.4002 67.2574 54.1961C76.1009 49.1167 80.5 43.9013 80.5 38.7313C80.5 33.5612 76.1009 28.3911 67.2574 23.3118Z" fill="white"/>
</mask>
<g mask="url(#mask0_3165_3309)">
<path opacity="0.03" d="M59.1856 41.77C59.231 41.8154 59.3217 41.8607 59.367 41.9061C59.9566 42.4503 60.5915 42.9038 61.2718 43.3573C61.5892 43.5841 61.9067 43.7655 62.2242 43.9469C63.6754 44.8086 65.172 45.4888 66.7593 46.033C67.5756 46.3052 68.392 46.5319 69.2083 46.7587C69.4804 46.804 69.7072 46.8947 69.9793 46.9401C71.1131 47.1668 72.2468 47.3482 73.3806 47.4389C78.0065 47.7564 82.3602 46.8494 85.2627 45.0353C85.5802 44.8539 85.8976 44.6271 86.1697 44.4004C87.8931 43.0852 88.8908 41.4072 88.8908 39.5478C88.8908 33.1532 87.9385 23.9922 79.1856 19.5478C79.6391 18.9129 80.0473 18.3233 80.4101 17.7337C86.8047 7.7564 78.3693 -0.678978 70.9317 0.590863C65.2627 1.5886 61.7253 6.48656 61.7253 12.2915C61.7707 14.5591 62.2242 16.7813 63.0405 18.9129C58.7775 21.1351 55.5575 25.7609 55.5575 33.6974C55.5122 34.1056 55.4668 34.5138 55.4668 34.9219C55.5121 35.8743 55.7389 36.8267 56.1017 37.6884C56.918 39.2303 57.9158 40.6362 59.1856 41.77Z" fill="#FCFDF9"/>
<path opacity="0.06" d="M58.1887 41.7701C58.234 41.8154 58.3247 41.8608 58.3701 41.9061C58.9596 42.4503 59.5946 42.9492 60.2748 43.4027C60.5923 43.6295 60.9098 43.8109 61.2272 43.9923C62.6785 44.854 64.1751 45.5342 65.7624 46.0785C66.5787 46.3506 67.395 46.5773 68.2113 46.8041C68.4835 46.8494 68.7102 46.9401 68.9823 46.9855C70.1161 47.2122 71.2499 47.3936 72.3837 47.4843C77.0095 47.8018 81.3633 46.8948 84.2658 45.0807C84.5832 44.8993 84.9007 44.6726 85.1728 44.4458C86.8961 43.1306 87.9392 41.4526 87.9392 39.5932C87.9392 33.1986 86.9869 24.0376 78.234 19.5932C78.6875 18.9583 79.0957 18.3687 79.4585 17.7791C85.8531 7.80181 77.4177 -0.633568 69.98 0.636273C64.3111 1.63401 60.8191 6.53197 60.8191 12.337C60.8644 14.6045 61.3179 16.8268 62.1342 18.9583C57.8712 21.1805 54.6513 25.8063 54.6513 33.7429C54.6059 34.151 54.5605 34.5592 54.5605 34.9673C54.6059 35.9197 54.8327 36.8721 55.1955 37.7338C55.9211 39.2304 56.9188 40.6363 58.1887 41.7701Z" fill="#F9FAF3"/>
<path opacity="0.09" d="M57.1442 41.7701C57.1895 41.8154 57.2802 41.8608 57.3256 41.9061C57.9151 42.4503 58.5501 42.9492 59.2303 43.4027C59.5478 43.6295 59.8653 43.8109 60.1827 43.9923C61.634 44.854 63.1306 45.5342 64.7179 46.0785C65.5342 46.3506 66.3505 46.5773 67.1668 46.8041C67.439 46.8494 67.6657 46.9401 67.9378 46.9855C69.0716 47.2122 70.2054 47.3936 71.3392 47.4843C75.965 47.8018 80.3188 46.8948 83.2213 45.0807C83.5387 44.8993 83.8562 44.6726 84.1283 44.4458C85.8517 43.1306 86.8947 41.4526 86.8947 39.5932C86.8947 33.1986 85.9424 24.0376 77.1895 19.5932C77.643 18.9583 78.0512 18.3687 78.414 17.7791C84.8086 7.80181 76.3732 -0.633568 68.9356 0.636273C63.2666 1.63401 59.7292 6.53197 59.7292 12.337C59.7746 14.6045 60.2281 16.8268 61.0444 18.9583C56.7814 21.1805 53.5614 25.8063 53.5614 33.7429C53.5161 34.151 53.4707 34.5592 53.4707 34.9673C53.5161 35.9197 53.7428 36.8721 54.1056 37.7338C54.8766 39.2304 55.9197 40.6363 57.1442 41.7701Z" fill="#F5F8ED"/>
<path opacity="0.12" d="M56.1469 41.7701C56.1923 41.8154 56.283 41.8608 56.3283 41.9061C56.9179 42.4503 57.5528 42.9492 58.2331 43.4027C58.5505 43.6295 58.868 43.8109 59.1855 43.9923C60.6367 44.854 62.1333 45.5342 63.7206 46.0785C64.5369 46.3506 65.3533 46.5773 66.1696 46.8041C66.4417 46.8494 66.6684 46.9401 66.9406 46.9855C68.0743 47.2122 69.2081 47.3936 70.3419 47.4843C74.9678 47.8018 79.3215 46.8948 82.224 45.0807C82.5415 44.8993 82.8589 44.6726 83.131 44.4458C84.8544 43.1306 85.8975 41.4526 85.8975 39.5932C85.8975 33.1986 84.9451 24.0376 76.1923 19.5932C76.6458 18.9583 77.0539 18.3687 77.4167 17.7791C83.8113 7.80181 75.3759 -0.633568 67.9383 0.636273C62.2694 1.63401 58.7319 6.53197 58.7319 12.337C58.7773 14.6045 59.2308 16.8268 60.0471 18.9583C55.7841 21.1805 52.5641 25.8063 52.5641 33.7429C52.5188 34.151 52.4734 34.5592 52.5188 34.9673C52.5641 35.9197 52.7909 36.8721 53.1537 37.7338C53.8793 39.2304 54.8771 40.6363 56.1469 41.7701Z" fill="#F2F5E6"/>
<path opacity="0.15" d="M55.15 41.7701C55.1954 41.8154 55.2861 41.8608 55.3314 41.9061C55.921 42.4503 56.5559 42.9492 57.2362 43.4027C57.5537 43.6295 57.8711 43.8109 58.1886 43.9923C59.6398 44.854 61.1364 45.5342 62.7237 46.0785C63.5401 46.3506 64.3564 46.5773 65.1727 46.8041C65.4448 46.8494 65.6716 46.9401 65.9437 46.9855C67.0775 47.2122 68.2113 47.3936 69.345 47.4843C73.9709 47.8018 78.3246 46.8948 81.2271 45.0807C81.5446 44.8993 81.862 44.6726 82.1342 44.4458C83.8575 43.1306 84.9006 41.4526 84.9006 39.5932C84.9006 33.1986 83.9482 24.0376 75.1954 19.5932C75.6489 18.9583 76.0571 18.3687 76.4199 17.7791C82.8144 7.80181 74.3791 -0.633568 66.9414 0.636273C61.2725 1.63401 57.7351 6.53197 57.7351 12.337C57.7804 14.6045 58.2339 16.8268 59.0503 18.9583C54.7872 21.1805 51.5673 25.8063 51.5673 33.7429C51.5219 34.151 51.4766 34.5592 51.4766 34.9673C51.5219 35.9197 51.7487 36.8721 52.1568 37.7338C52.8825 39.2304 53.8802 40.6363 55.15 41.7701Z" fill="#EFF3E0"/>
<path opacity="0.18" d="M54.1516 41.7701C54.1969 41.8154 54.2876 41.8608 54.333 41.9061C54.9225 42.4503 55.5575 42.9492 56.2377 43.4027C56.5552 43.6295 56.8726 43.8109 57.1901 43.9923C58.6414 44.854 60.1379 45.5342 61.7253 46.0785C62.5416 46.3506 63.3579 46.5773 64.1742 46.8041C64.4463 46.8494 64.6731 46.9401 64.9452 46.9855C66.079 47.2122 67.2128 47.3936 68.3466 47.4843C72.9724 47.8018 77.3262 46.8948 80.2287 45.0807C80.5461 44.8993 80.8636 44.6726 81.1357 44.4458C82.859 43.1306 83.9021 41.4526 83.9021 39.5932C83.9021 33.1986 82.9497 24.0376 74.1969 19.5932C74.6504 18.9583 75.0586 18.3687 75.4214 17.7791C81.816 7.80181 73.3806 -0.633568 65.9429 0.636273C60.274 1.63401 56.7366 6.53197 56.7366 12.337C56.7819 14.6045 57.2355 16.8267 58.0971 18.9129C53.8341 21.1351 50.6141 25.761 50.6141 33.6975C50.5688 34.1057 50.5234 34.5138 50.5234 34.922C50.5688 35.8744 50.7955 36.8268 51.1584 37.6884C51.884 39.2304 52.8817 40.6363 54.1516 41.7701Z" fill="#ECF0DA"/>
<path opacity="0.21" d="M53.109 41.7701C53.1544 41.8154 53.2451 41.8608 53.2904 41.9061C53.88 42.4503 54.5149 42.9492 55.1952 43.4027C55.5126 43.6295 55.8301 43.8109 56.1476 43.9923C57.5988 44.854 59.0954 45.5342 60.6827 46.0785C61.499 46.3506 62.3154 46.5773 63.1317 46.8041C63.4038 46.8494 63.6306 46.9401 63.9027 46.9855C65.0365 47.2122 66.1702 47.3936 67.304 47.4843C71.9299 47.8018 76.2836 46.8948 79.1861 45.0807C79.5036 44.8993 79.821 44.6726 80.0931 44.4458C81.8165 43.1306 82.8596 41.4526 82.8596 39.5932C82.8596 33.1986 81.9072 24.0376 73.1544 19.5932C73.6079 18.9583 74.016 18.3687 74.3789 17.7791C80.7734 7.80181 72.338 -0.633568 64.9004 0.636273C59.2315 1.63401 55.694 6.53197 55.694 12.337C55.7394 14.6045 56.1929 16.8268 57.0092 18.9583C52.7462 21.1805 49.5262 25.8063 49.5262 33.7429C49.4809 34.151 49.4355 34.5592 49.4355 34.9673C49.4809 35.9197 49.7077 36.8721 50.1158 37.7338C50.8414 39.2304 51.8392 40.6363 53.109 41.7701Z" fill="#E9EED4"/>
<path opacity="0.24" d="M52.111 41.7701C52.1563 41.8154 52.247 41.8608 52.2924 41.9061C52.8819 42.4503 53.5169 42.9492 54.1971 43.4027C54.5146 43.6295 54.8321 43.8109 55.1495 43.9923C56.6008 44.854 58.0974 45.5342 59.6847 46.0785C60.501 46.3506 61.3173 46.5773 62.1336 46.8041C62.4058 46.8494 62.6325 46.9401 62.9046 46.9855C64.0384 47.2122 65.1722 47.3936 66.306 47.4843C70.9318 47.8018 75.2856 46.8948 78.1881 45.0807C78.5055 44.8993 78.823 44.6726 79.0951 44.4458C80.8185 43.1306 81.8615 41.4526 81.8615 39.5932C81.8615 33.1986 80.9092 24.0376 72.1563 19.5932C72.6098 18.9583 73.018 18.3687 73.3808 17.7791C79.7754 7.80181 71.34 -0.633568 63.9024 0.636273C58.2334 1.63401 54.696 6.53197 54.696 12.337C54.7414 14.6045 55.1949 16.8268 56.0112 18.9583C51.7482 21.1805 48.5282 25.8063 48.5282 33.7429C48.4829 34.151 48.4375 34.5592 48.4375 34.9673C48.4829 35.9197 48.7096 36.8721 49.1178 37.7338C49.8434 39.2304 50.8411 40.6363 52.111 41.7701Z" fill="#E6EBCE"/>
<path opacity="0.27" d="M51.1125 41.7701C51.1578 41.8154 51.2485 41.8608 51.2939 41.9061C51.8835 42.4503 52.5184 42.9492 53.1987 43.4027C53.5161 43.6295 53.8336 43.8109 54.151 43.9923C55.6023 44.854 57.0989 45.5342 58.6862 46.0785C59.5025 46.3506 60.3188 46.5773 61.1352 46.8041C61.4073 46.8494 61.634 46.9401 61.9061 46.9855C63.0399 47.2122 64.1737 47.3936 65.3075 47.4843C69.9334 47.8018 74.2871 46.8948 77.1896 45.0807C77.5071 44.8993 77.8245 44.6726 78.0966 44.4458C79.82 43.1306 80.8631 41.4526 80.8631 39.5932C80.8631 33.1986 79.9107 24.0376 71.1578 19.5932C71.6114 18.9583 72.0195 18.3687 72.3823 17.7791C78.7769 7.80181 70.3415 -0.633568 62.9492 0.636273C57.2803 1.63401 53.7429 6.53197 53.7429 12.337C53.7882 14.6045 54.2417 16.8268 55.0581 18.9583C50.795 21.1805 47.5751 25.8063 47.5751 33.7429C47.5297 34.151 47.4844 34.5592 47.4844 34.9673C47.5297 35.9197 47.7565 36.8721 48.1193 37.7338C48.8449 39.2304 49.8427 40.6363 51.1125 41.7701Z" fill="#E2E9C8"/>
<path opacity="0.3" d="M50.1149 41.7701C50.1602 41.8154 50.2509 41.8608 50.2963 41.9061C50.8859 42.4503 51.5208 42.9492 52.201 43.4027C52.5185 43.6295 52.836 43.8109 53.1534 43.9923C54.6047 44.854 56.1013 45.5342 57.6886 46.0785C58.5049 46.3506 59.3212 46.5773 60.1376 46.8041C60.4097 46.8494 60.6364 46.9401 60.9085 46.9855C62.0423 47.2122 63.1761 47.3936 64.3099 47.4843C68.9357 47.8018 73.2895 46.8948 76.192 45.0807C76.5094 44.8993 76.8269 44.6726 77.099 44.4458C78.8224 43.1306 79.8654 41.4526 79.8654 39.5932C79.8654 33.1986 78.9131 24.0376 70.1602 19.5932C70.6137 18.9583 71.0219 18.3687 71.3847 17.7791C77.7793 7.80181 69.3439 -0.633568 61.9063 0.636273C56.2373 1.63401 52.6999 6.53197 52.6999 12.337C52.7453 14.6045 53.1988 16.8268 54.0151 18.9583C49.7521 21.1805 46.5321 25.8063 46.5321 33.7429C46.4868 34.151 46.4414 34.5592 46.4414 34.9673C46.4868 35.9197 46.7135 36.8721 47.0763 37.7338C47.8473 39.2304 48.845 40.6363 50.1149 41.7701Z" fill="#DFE6C1"/>
<path opacity="0.33" d="M49.1176 41.7701C49.163 41.8154 49.2537 41.8608 49.299 41.9061C49.8886 42.4503 50.5235 42.9492 51.2038 43.4027C51.5212 43.6295 51.8387 43.8109 52.1562 43.9923C53.6074 44.854 55.104 45.5342 56.6913 46.0785C57.5076 46.3506 58.324 46.5773 59.1403 46.8041C59.4124 46.8494 59.6391 46.9401 59.9113 46.9855C61.045 47.2122 62.1788 47.3936 63.3126 47.4843C67.9385 47.8018 72.2922 46.8948 75.1947 45.0807C75.5122 44.8993 75.8296 44.6726 76.1017 44.4458C77.8251 43.1306 78.8682 41.4526 78.8682 39.5932C78.8682 33.1986 77.9158 24.0376 69.163 19.5932C69.6165 18.9583 70.0246 18.3687 70.3875 17.7791C76.782 7.80181 68.3466 -0.633568 60.909 0.636273C55.2401 1.63401 51.7026 6.53197 51.7026 12.337C51.748 14.6045 52.2015 16.8268 53.0178 18.9583C48.7548 21.1805 45.5348 25.8063 45.5348 33.7429C45.4895 34.151 45.4441 34.5592 45.4895 34.9673C45.5348 35.9197 45.7616 36.8721 46.1244 37.7338C46.85 39.2304 47.8478 40.6363 49.1176 41.7701Z" fill="#DCE4BB"/>
<path opacity="0.36" d="M48.075 41.7701C48.1203 41.8154 48.211 41.8608 48.2564 41.9061C48.8459 42.4503 49.4809 42.9492 50.1611 43.4027C50.4786 43.6295 50.796 43.8109 51.1135 43.9923C52.5647 44.854 54.0613 45.5342 55.6487 46.0785C56.465 46.3506 57.2813 46.5773 58.0976 46.8041C58.3697 46.8494 58.5965 46.9401 58.8686 46.9855C60.0024 47.2122 61.1362 47.3936 62.27 47.4843C66.8958 47.8018 71.2496 46.8948 74.1521 45.0807C74.4695 44.8993 74.787 44.6726 75.0591 44.4458C76.7824 43.1306 77.8255 41.4526 77.8255 39.5932C77.8255 33.1986 76.8731 24.0376 68.1203 19.5932C68.5738 18.9583 68.982 18.3687 69.3448 17.7791C75.7394 7.80181 67.304 -0.633568 59.8663 0.636273C54.1974 1.63401 50.66 6.53197 50.66 12.337C50.7053 14.6045 51.1589 16.8268 51.9752 18.9583C47.7121 21.1805 44.4922 25.8063 44.4922 33.7429C44.4922 34.1057 44.4922 34.5138 44.4922 34.922C44.5375 35.8744 44.7643 36.8268 45.1271 37.6884C45.8074 39.2304 46.8051 40.6363 48.075 41.7701Z" fill="#D9E1B5"/>
<path opacity="0.39" d="M47.0758 41.7701C47.1212 41.8154 47.2119 41.8608 47.2572 41.9061C47.8468 42.4503 48.4817 42.9492 49.162 43.4027C49.4794 43.6295 49.7969 43.8109 50.1144 43.9923C51.5656 44.854 53.0622 45.5342 54.6495 46.0785C55.4658 46.3506 56.2822 46.5773 57.0985 46.8041C57.3706 46.8494 57.5974 46.9401 57.8695 46.9855C59.0033 47.2122 60.137 47.3936 61.2708 47.4843C65.8967 47.8018 70.2504 46.8948 73.1529 45.0807C73.4704 44.8993 73.7878 44.6726 74.0599 44.4458C75.7833 43.1306 76.8264 41.4526 76.8264 39.5932C76.8264 33.1986 75.874 24.0376 67.1212 19.5932C67.5747 18.9583 67.9828 18.3687 68.3457 17.7791C74.7402 7.80181 66.3048 -0.633568 58.8672 0.636273C53.1983 1.63401 49.6608 6.53197 49.6608 12.337C49.7062 14.6045 50.1597 16.8268 50.976 18.9583C46.713 21.1805 43.493 25.8063 43.493 33.7429C43.4477 34.151 43.4023 34.5592 43.4023 34.9673C43.4477 35.9197 43.6745 36.8721 44.0373 37.7338C44.8082 39.2304 45.806 40.6363 47.0758 41.7701Z" fill="#D6DFAF"/>
<path opacity="0.42" d="M46.0797 41.7701C46.1251 41.8154 46.2158 41.8608 46.2611 41.9061C46.8507 42.4503 47.4856 42.9492 48.1659 43.4027C48.4833 43.6295 48.8008 43.8109 49.1183 43.9923C50.5695 44.854 52.0661 45.5342 53.6534 46.0785C54.4697 46.3506 55.2861 46.5773 56.1024 46.8041C56.3745 46.8494 56.6013 46.9401 56.8734 46.9855C58.0072 47.2122 59.1409 47.3936 60.2747 47.4843C64.9006 47.8018 69.2543 46.8948 72.1568 45.0807C72.4743 44.8993 72.7917 44.6726 73.0638 44.4458C74.7872 43.1306 75.8303 41.4526 75.8303 39.5932C75.8303 33.1986 74.8779 24.0376 66.1251 19.5932C66.5786 18.9583 66.9867 18.3687 67.3496 17.7791C73.7441 7.80181 65.3087 -0.633568 57.8711 0.636273C52.2022 1.63401 48.6648 6.53197 48.6648 12.337C48.7101 14.6045 49.1636 16.8268 49.9799 18.9583C45.7169 21.1805 42.497 25.8063 42.497 33.7429C42.4516 34.151 42.4062 34.5592 42.4062 34.9673C42.4516 35.9197 42.6784 36.8721 43.0865 37.7338C43.8121 39.2304 44.8099 40.6363 46.0797 41.7701Z" fill="#D2DCA9"/>
<path opacity="0.45" d="M45.0812 41.7701C45.1266 41.8154 45.2173 41.8608 45.2626 41.9061C45.8522 42.4503 46.4871 42.9492 47.1674 43.4027C47.4849 43.6295 47.8023 43.8109 48.1198 43.9923C49.571 44.854 51.0676 45.5342 52.6549 46.0785C53.4713 46.3506 54.2876 46.5773 55.1039 46.8041C55.376 46.8494 55.6028 46.9401 55.8749 46.9855C57.0087 47.2122 58.1425 47.3936 59.2763 47.4843C63.9021 47.8018 68.2558 46.8948 71.1583 45.0807C71.4758 44.8993 71.7933 44.6726 72.0654 44.4458C73.7887 43.1306 74.8318 41.4526 74.8318 39.5932C74.8318 33.1986 73.8794 24.0376 65.1266 19.5932C65.5801 18.9583 65.9883 18.3687 66.3511 17.7791C72.7456 7.80181 64.3103 -0.633568 56.8726 0.636273C51.2037 1.63401 47.6663 6.53197 47.6663 12.337C47.7116 14.6045 48.2105 16.8268 49.0268 18.9583C44.7638 21.1805 41.5438 25.8063 41.5438 33.7429C41.4985 34.151 41.4531 34.5592 41.4531 34.9673C41.4985 35.9197 41.7252 36.8721 42.088 37.7338C42.8137 39.2304 43.8114 40.6363 45.0812 41.7701Z" fill="#CFDAA3"/>
<path opacity="0.48" d="M44.0383 41.7701C44.0836 41.8154 44.1743 41.8608 44.2197 41.9061C44.8093 42.4503 45.4442 42.9492 46.1244 43.4027C46.4419 43.6295 46.7594 43.8109 47.0768 43.9923C48.5281 44.854 50.0247 45.5342 51.612 46.0785C52.4283 46.3506 53.2446 46.5773 54.0609 46.8041C54.3331 46.8494 54.5598 46.9401 54.8319 46.9855C55.9657 47.2122 57.0995 47.3936 58.2333 47.4843C62.8591 47.8018 67.2129 46.8948 70.1154 45.0807C70.4328 44.8993 70.7503 44.6726 71.0224 44.4458C72.7458 43.1306 73.7888 41.4526 73.7888 39.5932C73.7888 33.1986 72.8365 24.0376 64.0836 19.5932C64.5371 18.9583 64.9453 18.3687 65.3081 17.7791C71.7027 7.80181 63.2673 -0.633568 55.8297 0.636273C50.1607 1.63401 46.6233 6.53197 46.6233 12.337C46.6687 14.6045 47.1222 16.8268 47.9385 18.9583C43.6755 21.1805 40.4555 25.8063 40.4555 33.7429C40.4555 34.1057 40.4102 34.5138 40.4102 34.922C40.4555 35.8744 40.6823 36.8268 41.0904 37.6884C41.7707 39.2304 42.7684 40.6363 44.0383 41.7701Z" fill="#CCD79D"/>
<path opacity="0.52" d="M43.0402 41.7701C43.0856 41.8154 43.1763 41.8608 43.2216 41.9061C43.8112 42.4503 44.4461 42.9492 45.1264 43.4027C45.4439 43.6295 45.7613 43.8109 46.0788 43.9923C47.53 44.854 49.0266 45.5342 50.6139 46.0785C51.4302 46.3506 52.2466 46.5773 53.0629 46.8041C53.335 46.8494 53.5618 46.9401 53.8339 46.9855C54.9677 47.2122 56.1015 47.3936 57.2352 47.4843C61.8611 47.8018 66.2148 46.8948 69.1173 45.0807C69.4348 44.8993 69.7522 44.6726 70.0244 44.4458C71.7477 43.1306 72.7908 41.4526 72.7908 39.5932C72.7908 33.1986 71.8384 24.0376 63.0856 19.5932C63.5391 18.9583 63.9473 18.3687 64.3101 17.7791C70.7046 7.80181 62.2693 -0.633568 54.8316 0.636273C49.1627 1.63401 45.6253 6.53197 45.6253 12.337C45.6706 14.6045 46.1241 16.8268 46.9405 18.9583C42.7228 21.1351 39.5028 25.761 39.5028 33.6975C39.4575 34.1057 39.4121 34.5138 39.4121 34.922C39.4575 35.8744 39.6842 36.8268 40.0924 37.6884C40.7727 39.2304 41.7704 40.6363 43.0402 41.7701Z" fill="#C9D596"/>
<path opacity="0.55" d="M42.043 41.7701C42.0883 41.8154 42.179 41.8608 42.2244 41.9061C42.8139 42.4503 43.4489 42.9492 44.1291 43.4027C44.4466 43.6295 44.764 43.8109 45.0815 43.9923C46.5328 44.854 48.0294 45.5342 49.6167 46.0785C50.433 46.3506 51.2493 46.5773 52.0656 46.8041C52.3377 46.8494 52.5645 46.9401 52.8366 46.9855C53.9704 47.2122 55.1042 47.3936 56.238 47.4843C60.8638 47.8018 65.2176 46.8948 68.1201 45.0807C68.4375 44.8993 68.755 44.6726 69.0271 44.4458C70.7504 43.1306 71.7935 41.4526 71.7935 39.5932C71.7935 33.1986 70.8411 24.0376 62.0883 19.5932C62.5418 18.9583 62.95 18.3687 63.3128 17.7791C69.7074 7.80181 61.272 -0.633568 53.8797 0.636273C48.2108 1.63401 44.6733 6.53197 44.6733 12.337C44.7187 14.6045 45.1722 16.8268 45.9885 18.9583C41.7255 21.1805 38.5055 25.8063 38.5055 33.7429C38.4602 34.151 38.4148 34.5592 38.4602 34.9673C38.5055 35.9197 38.7323 36.8721 39.0951 37.7338C39.7754 39.2304 40.7731 40.6363 42.043 41.7701Z" fill="#C6D290"/>
<path opacity="0.58" d="M41.0446 41.7701C41.0899 41.8154 41.1806 41.8608 41.226 41.9061C41.8155 42.4503 42.4505 42.9492 43.1307 43.4027C43.4482 43.6295 43.7657 43.8109 44.0831 43.9923C45.5344 44.854 47.031 45.5342 48.6183 46.0785C49.4346 46.3506 50.2509 46.5773 51.0672 46.8041C51.3393 46.8494 51.5661 46.9401 51.8382 46.9855C52.972 47.2122 54.1058 47.3936 55.2396 47.4843C59.8654 47.8018 64.2192 46.8948 67.1217 45.0807C67.4391 44.8993 67.7566 44.6726 68.0287 44.4458C69.752 43.1306 70.7951 41.4526 70.7951 39.5932C70.7951 33.1533 69.7974 24.0376 61.0899 19.5932C61.5434 18.9583 61.9516 18.3687 62.3144 17.7791C68.709 7.80181 60.2736 -0.633568 52.8359 0.636273C47.167 1.63401 43.6296 6.53197 43.6296 12.337C43.6749 14.6045 44.1285 16.8268 44.9448 18.9583C40.6818 21.1805 37.4618 25.8063 37.4618 33.7429C37.4164 34.151 37.3711 34.5592 37.3711 34.9673C37.4164 35.9197 37.6432 36.8721 38.006 37.7338C38.777 39.2304 39.7747 40.6363 41.0446 41.7701Z" fill="#C3D08A"/>
<path opacity="0.61" d="M40.0016 41.7701C40.0469 41.8154 40.1376 41.8608 40.183 41.9061C40.7726 42.4503 41.4075 42.9492 42.0878 43.4027C42.4052 43.6295 42.7227 43.8109 43.0401 43.9923C44.4914 44.854 45.988 45.5342 47.5753 46.0785C48.3916 46.3506 49.2079 46.5773 50.0243 46.8041C50.2964 46.8494 50.5231 46.9401 50.7952 46.9855C51.929 47.2122 53.0628 47.3936 54.1966 47.4843C58.8225 47.8018 63.1762 46.8948 66.0787 45.0807C66.3962 44.8993 66.7136 44.6726 66.9857 44.4458C68.7091 43.1306 69.7522 41.4526 69.7522 39.5932C69.7522 33.1986 68.7998 24.0376 60.0469 19.5932C60.5005 18.9583 60.9086 18.3687 61.2714 17.7791C67.666 7.80181 59.2306 -0.633568 51.793 0.636273C46.124 1.63401 42.5866 6.53197 42.5866 12.337C42.632 14.6045 43.0855 16.8268 43.9018 18.9583C39.6388 21.1805 36.4188 25.8063 36.4188 33.7429C36.3735 34.151 36.3281 34.5592 36.3281 34.9673C36.3735 35.9197 36.6002 36.8721 37.0084 37.7338C37.734 39.2304 38.7771 40.6363 40.0016 41.7701Z" fill="#BFCD84"/>
<path opacity="0.64" d="M39.0046 41.7701C39.05 41.8154 39.1407 41.8608 39.186 41.9061C39.7756 42.4503 40.4105 42.9492 41.0908 43.4027C41.4083 43.6295 41.7257 43.8109 42.0432 43.9923C43.4944 44.854 44.991 45.5342 46.5783 46.0785C47.3947 46.3506 48.211 46.5773 49.0273 46.8041C49.2994 46.8494 49.5262 46.9401 49.7983 46.9855C50.9321 47.2122 52.0659 47.3936 53.1997 47.4843C57.8255 47.8018 62.1792 46.8948 65.0817 45.0807C65.3992 44.8993 65.7167 44.6726 65.9888 44.4458C67.7121 43.1306 68.7552 41.4526 68.7552 39.5932C68.7552 33.1986 67.8028 24.0376 59.05 19.5932C59.5035 18.9583 59.9117 18.3687 60.2745 17.7791C66.669 7.80181 58.2337 -0.633568 50.796 0.636273C45.1271 1.63401 41.5897 6.53197 41.5897 12.337C41.635 14.6045 42.0885 16.8268 42.9049 18.9583C38.6418 21.1805 35.4219 25.8063 35.4219 33.7429C35.4219 34.1057 35.4219 34.5138 35.4219 34.922C35.4672 35.8744 35.694 36.8268 36.0568 37.6884C36.7371 39.2304 37.7348 40.6363 39.0046 41.7701Z" fill="#BCCB7E"/>
<path opacity="0.67" d="M38.007 41.7701C38.0524 41.8154 38.1431 41.8608 38.1884 41.9061C38.778 42.4503 39.4129 42.9492 40.0932 43.4027C40.4107 43.6295 40.7281 43.8109 41.0456 43.9923C42.4968 44.854 43.9934 45.5342 45.5807 46.0785C46.397 46.3506 47.2134 46.5773 48.0297 46.8041C48.3018 46.8494 48.5286 46.9401 48.8007 46.9855C49.9345 47.2122 51.0683 47.3936 52.202 47.4843C56.8279 47.8018 61.1816 46.8948 64.0841 45.0807C64.4016 44.8993 64.719 44.6726 64.9912 44.4458C66.7145 43.1306 67.7576 41.4526 67.7576 39.5932C67.7576 33.1986 66.8052 24.0376 58.0524 19.5932C58.5059 18.9583 58.9141 18.3687 59.2769 17.7791C65.6714 7.80181 57.236 -0.633568 49.7984 0.636273C44.1295 1.63401 40.5921 6.53197 40.5921 12.337C40.6374 14.6045 41.0909 16.8268 41.9073 18.9583C37.6896 21.1351 34.4696 25.761 34.4696 33.6975C34.4243 34.1057 34.3789 34.5138 34.3789 34.922C34.4243 35.8744 34.651 36.8268 35.0138 37.6884C35.7395 39.2304 36.7372 40.6363 38.007 41.7701Z" fill="#B9C878"/>
<path opacity="0.7" d="M37.009 41.77C37.0543 41.8154 37.145 41.8607 37.1904 41.9061C37.78 42.4503 38.4149 42.9038 39.0498 43.3573C39.3673 43.5841 39.6847 43.7655 40.0022 43.9469C41.4534 44.8086 42.95 45.4888 44.5373 46.033C45.3536 46.3052 46.17 46.5319 46.9863 46.7587C47.2584 46.804 47.4852 46.8947 47.7573 46.9401C48.8911 47.1668 50.0249 47.3482 51.1586 47.4389C55.7845 47.7564 60.1382 46.8494 63.0407 45.0353C63.3582 44.8539 63.6756 44.6271 63.9478 44.4004C65.6711 43.0852 66.7142 41.4072 66.7142 39.5478C66.7142 33.1532 65.7618 23.9922 57.009 19.5478C57.4625 18.9129 57.8707 18.3233 58.2335 17.7337C64.628 7.7564 56.1927 -0.678978 48.755 0.590863C43.1314 1.63395 39.6394 6.53191 39.6394 12.3369C39.6847 14.6045 40.1382 16.8267 40.9546 18.9582C36.6915 21.1804 33.4716 25.8063 33.4716 33.7428C33.4262 34.151 33.3809 34.5591 33.3809 34.9673C33.4262 35.9197 33.653 36.872 34.0611 37.7337C34.7414 39.2303 35.7391 40.6362 37.009 41.77Z" fill="#B6C672"/>
<path opacity="0.73" d="M36.0109 41.7701C36.0563 41.8154 36.147 41.8608 36.1923 41.9061C36.7819 42.4503 37.4168 42.9492 38.0971 43.4027C38.4146 43.6295 38.732 43.8109 39.0495 43.9923C40.5007 44.854 41.9973 45.5342 43.5846 46.0785C44.401 46.3506 45.2173 46.5773 46.0336 46.8041C46.3057 46.8494 46.5325 46.9401 46.8046 46.9855C47.9384 47.2122 49.0722 47.3936 50.2059 47.4843C54.8318 47.8018 59.1855 46.8948 62.088 45.0807C62.4055 44.8993 62.7229 44.6726 62.9951 44.4458C64.7184 43.1306 65.7615 41.4526 65.7615 39.5932C65.7615 33.1986 64.8091 24.0376 56.0563 19.5932C56.5098 18.9583 56.918 18.3687 57.2808 17.7791C63.6753 7.80181 55.24 -0.633568 47.8023 0.636273C42.1334 1.63401 38.596 6.53197 38.596 12.337C38.6413 14.6045 39.1402 16.8268 39.9565 18.9583C35.6935 21.1805 32.4735 25.8063 32.4735 33.7429C32.4282 34.151 32.3828 34.5592 32.3828 34.9673C32.4282 35.9197 32.6549 36.8721 33.0177 37.7338C33.7434 39.2304 34.7411 40.6363 36.0109 41.7701Z" fill="#B3C36B"/>
<path opacity="0.76" d="M34.9687 41.7701C35.0141 41.8154 35.1048 41.8608 35.1501 41.9061C35.7397 42.4503 36.3746 42.9492 37.0549 43.4027C37.3724 43.6295 37.6898 43.8109 38.0073 43.9923C39.4585 44.854 40.9551 45.5342 42.5424 46.0785C43.3588 46.3506 44.1751 46.5773 44.9914 46.8041C45.2635 46.8494 45.4903 46.9401 45.7624 46.9855C46.8962 47.2122 48.03 47.3936 49.1638 47.4843C53.7896 47.8018 58.1433 46.8948 61.0458 45.0807C61.3633 44.8993 61.6808 44.6726 61.9529 44.4458C63.6762 43.1306 64.7193 41.4526 64.7193 39.5932C64.7193 33.1986 63.7669 24.0376 55.0141 19.5932C55.4676 18.9583 55.8758 18.3687 56.2386 17.7791C62.6331 7.80181 54.1978 -0.633568 46.8055 0.636273C41.1365 1.63401 37.5991 6.53197 37.5991 12.337C37.6445 14.6045 38.098 16.8268 38.9143 18.9583C34.6513 21.1805 31.4313 25.8063 31.4313 33.7429C31.386 34.151 31.3406 34.5592 31.386 34.9673C31.4313 35.9197 31.6581 36.8721 32.0209 37.7338C32.7012 39.2304 33.6989 40.6363 34.9687 41.7701Z" fill="#AFC165"/>
<path opacity="0.79" d="M33.9699 41.7701C34.0153 41.8154 34.106 41.8608 34.1513 41.9061C34.7409 42.4503 35.3758 42.9492 36.0561 43.4027C36.3735 43.6295 36.691 43.8109 37.0085 43.9923C38.4597 44.854 39.9563 45.5342 41.5436 46.0785C42.3599 46.3506 43.1763 46.5773 43.9926 46.8041C44.2647 46.8494 44.4915 46.9401 44.7636 46.9855C45.8974 47.2122 47.0311 47.3936 48.1649 47.4843C52.7908 47.8018 57.1445 46.8948 60.047 45.0807C60.3645 44.8993 60.6819 44.6726 60.954 44.4458C62.6774 43.1306 63.7205 41.4526 63.7205 39.5932C63.7205 33.1986 62.7681 24.0376 54.0153 19.5932C54.4688 18.9583 54.8769 18.3687 55.2398 17.7791C61.6343 7.80181 53.1989 -0.633568 45.7613 0.636273C40.0924 1.63401 36.5549 6.53197 36.5549 12.337C36.6003 14.6045 37.0538 16.8268 37.8701 18.9583C33.6525 21.1351 30.4325 25.761 30.4325 33.6975C30.3871 34.1057 30.3418 34.5138 30.3418 34.922C30.3871 35.8744 30.6139 36.8268 31.0221 37.6884C31.7023 39.2304 32.7001 40.6363 33.9699 41.7701Z" fill="#ACBE5F"/>
<path opacity="0.82" d="M32.9719 41.7701C33.0172 41.8154 33.1079 41.8608 33.1533 41.9061C33.7428 42.4503 34.3778 42.9492 35.058 43.4027C35.3755 43.6295 35.693 43.8109 36.0104 43.9923C37.4617 44.854 38.9583 45.5342 40.5456 46.0785C41.3619 46.3506 42.1782 46.5773 42.9945 46.8041C43.2667 46.8494 43.4934 46.9401 43.7655 46.9855C44.8993 47.2122 46.0331 47.3936 47.1669 47.4843C51.7927 47.8018 56.1465 46.8948 59.049 45.0807C59.3664 44.8993 59.6839 44.6726 59.956 44.4458C61.6794 43.1306 62.7224 41.4526 62.7224 39.5932C62.7224 33.1986 61.7701 24.0376 53.0172 19.5932C53.4707 18.9583 53.8789 18.3687 54.2417 17.7791C60.6363 7.80181 52.2009 -0.633568 44.8086 0.636273C39.1397 1.63401 35.6023 6.53197 35.6023 12.337C35.6476 14.6045 36.1011 16.8268 36.9174 18.9583C32.6544 21.1805 29.4345 25.8063 29.4345 33.7429C29.3891 34.151 29.3438 34.5592 29.3438 34.9673C29.3891 35.9197 29.6159 36.8721 29.9787 37.7338C30.7043 39.2304 31.702 40.6363 32.9719 41.7701Z" fill="#A9BC59"/>
<path opacity="0.85" d="M31.9743 41.7701C32.0196 41.8154 32.1103 41.8608 32.1557 41.9061C32.7452 42.4503 33.3801 42.9492 34.0604 43.4027C34.3779 43.6295 34.6953 43.8109 35.0128 43.9923C36.464 44.854 37.9606 45.5342 39.5479 46.0785C40.3643 46.3506 41.1806 46.5773 41.9969 46.8041C42.269 46.8494 42.4958 46.9401 42.7679 46.9855C43.9017 47.2122 45.0355 47.3936 46.1693 47.4843C50.7951 47.8018 55.1489 46.8948 58.0514 45.0807C58.3688 44.8993 58.6863 44.6726 58.9584 44.4458C60.6817 43.1306 61.7248 41.4526 61.7248 39.5932C61.7248 33.1986 60.7724 24.0376 52.0196 19.5932C52.4731 18.9583 52.8813 18.3687 53.2441 17.7791C59.6387 7.80181 51.2033 -0.633568 43.7656 0.636273C38.0967 1.63401 34.5593 6.53197 34.5593 12.337C34.6046 14.6045 35.0582 16.8268 35.8745 18.9583C31.6114 21.1805 28.3915 25.8063 28.3915 33.7429C28.3461 34.151 28.3008 34.5592 28.3008 34.9673C28.3461 35.9197 28.5729 36.8721 28.9357 37.7338C29.7067 39.2304 30.7044 40.6363 31.9743 41.7701Z" fill="#A6B953"/>
<path opacity="0.88" d="M30.9317 41.7701C30.9771 41.8154 31.0678 41.8608 31.1131 41.9061C31.7027 42.4503 32.3376 42.9492 33.0179 43.4027C33.3353 43.6295 33.6528 43.8109 33.9703 43.9923C35.4215 44.854 36.9181 45.5342 38.5054 46.0785C39.3217 46.3506 40.1381 46.5773 40.9544 46.8041C41.2265 46.8494 41.4533 46.9401 41.7254 46.9855C42.8591 47.2122 43.9929 47.3936 45.1267 47.4843C49.7526 47.8018 54.1063 46.8948 57.0088 45.0807C57.3263 44.8993 57.6437 44.6726 57.9158 44.4458C59.6392 43.1306 60.6369 41.4526 60.6369 39.5932C60.6369 33.1986 59.6845 24.0376 50.9317 19.5932C51.3852 18.9583 51.7934 18.3687 52.1562 17.7791C58.5508 7.80181 50.1154 -0.633568 42.6777 0.636273C37.0088 1.63401 33.4714 6.53197 33.4714 12.337C33.5167 14.6045 33.9703 16.8268 34.7866 18.9583C30.5235 21.1805 27.3036 25.8063 27.3036 33.7429C27.2582 34.151 27.2129 34.5592 27.2129 34.9673C27.2582 35.9197 27.485 36.8721 27.8932 37.7338C28.6641 39.2304 29.7072 40.6363 30.9317 41.7701Z" fill="#A3B74D"/>
<path opacity="0.91" d="M29.9343 41.7701C29.9797 41.8154 30.0704 41.8608 30.1157 41.9061C30.7053 42.4503 31.3402 42.9492 32.0205 43.4027C32.338 43.6295 32.6554 43.8109 32.9729 43.9923C34.4241 44.854 35.9207 45.5342 37.508 46.0785C38.3244 46.3506 39.1407 46.5773 39.957 46.8041C40.2291 46.8494 40.4559 46.9401 40.728 46.9855C41.8618 47.2122 42.9956 47.3936 44.1293 47.4843C48.7552 47.8018 53.1089 46.8948 56.0114 45.0807C56.3289 44.8993 56.6463 44.6726 56.9185 44.4458C58.6418 43.1306 59.6395 41.4526 59.6395 39.5932C59.6395 33.1986 58.6872 24.0376 49.9343 19.5932C50.3878 18.9583 50.796 18.3687 51.1588 17.7791C57.5534 7.80181 49.118 -0.633568 41.7257 0.636273C36.0114 1.63401 32.5194 6.53197 32.5194 12.337C32.5647 14.6045 33.0182 16.8268 33.8346 18.9583C29.5715 21.1805 26.3516 25.8063 26.3516 33.7429C26.3516 34.1057 26.3516 34.5138 26.3516 34.922C26.3969 35.8744 26.6237 36.8268 26.9865 37.6884C27.6668 39.2304 28.6645 40.6363 29.9343 41.7701Z" fill="#A0B446"/>
<path opacity="0.94" d="M28.9367 41.77C28.9821 41.8154 29.0728 41.8607 29.1181 41.9061C29.7077 42.4503 30.3426 42.9491 31.0229 43.4027C31.3403 43.6294 31.6578 43.8108 31.9753 43.9922C33.4265 44.8539 34.9231 45.5342 36.5104 46.0784C37.3267 46.3505 38.1431 46.5773 38.9594 46.804C39.2315 46.8494 39.4583 46.9401 39.7304 46.9854C40.8642 47.2122 41.9979 47.3482 43.1317 47.4389C47.7576 47.7564 52.1113 46.8494 55.0138 45.0353C55.3313 44.8539 55.6487 44.6271 55.9208 44.4004C57.6442 43.0852 58.6419 41.4072 58.6419 39.5478C58.6419 33.1532 57.6896 23.9922 48.9367 19.5478C49.3902 18.9129 49.7984 18.3233 50.1612 17.7337C56.5558 7.7564 48.1204 -0.678978 40.6827 0.590863C35.0138 1.5886 31.4764 6.48656 31.4764 12.2915C31.5217 14.5591 31.9753 16.7813 32.7916 18.9129C28.6193 21.1351 25.3993 25.7609 25.3993 33.6974C25.3539 34.1056 25.3086 34.5138 25.3086 34.9219C25.3539 35.8743 25.5807 36.8267 25.9435 37.6884C26.6691 39.2303 27.6669 40.6362 28.9367 41.77Z" fill="#9CB240"/>
<path opacity="0.97" d="M27.9375 41.77C27.9828 41.8154 28.0735 41.8607 28.1189 41.9061C28.7085 42.4503 29.3434 42.9038 29.9783 43.3573C30.2958 43.5841 30.6132 43.7655 30.9307 43.9469C32.3819 44.8086 33.8785 45.4888 35.4658 46.033C36.2822 46.3052 37.0985 46.5319 37.9148 46.7587C38.1869 46.804 38.4137 46.8947 38.6858 46.9401C39.8196 47.1668 40.9534 47.3482 42.0871 47.4389C46.713 47.7564 51.0667 46.8494 53.9692 45.0353C54.2867 44.8539 54.6042 44.6271 54.8763 44.4004C56.5996 43.0852 57.6427 41.4072 57.6427 39.5478C57.6427 33.1532 56.6903 23.9922 47.9375 19.5478C48.391 18.9129 48.7992 18.3233 49.162 17.7337C55.5565 7.7564 47.1212 -0.678978 39.6835 0.590863C34.0599 1.63395 30.5679 6.53191 30.5679 12.3369C30.6132 14.6045 31.0667 16.8267 31.8831 18.9582C27.62 21.1804 24.4001 25.8063 24.4001 33.7428C24.3547 34.151 24.3094 34.5591 24.3547 34.9673C24.4001 35.9197 24.6268 36.872 25.035 37.7337C25.6699 39.2303 26.6676 40.6362 27.9375 41.77Z" fill="#99AF3A"/>
<path d="M26.8953 41.7701C26.9406 41.8154 27.0313 41.8608 27.0767 41.9061C27.6662 42.4503 28.3012 42.9492 28.9814 43.4027C29.2989 43.6295 29.6164 43.8109 29.9338 43.9923C31.3851 44.854 32.8817 45.5342 34.469 46.0785C35.2853 46.3506 36.1016 46.5773 36.9179 46.8041C37.1901 46.8494 37.4168 46.9401 37.6889 46.9855C38.8227 47.2122 39.9565 47.3936 41.0903 47.4843C45.7161 47.8018 50.0699 46.8948 52.9724 45.0807C53.2898 44.8993 53.6073 44.6726 53.8794 44.4458C55.6027 43.1306 56.6458 41.4526 56.6458 39.5932C56.6458 33.1986 55.6935 24.0376 46.9406 19.5932C47.3941 18.9583 47.8023 18.3687 48.1651 17.7791C54.5597 7.80181 46.1243 -0.633568 38.6867 0.636273C33.0631 1.63401 29.5257 6.53197 29.5257 12.337C29.571 14.6045 30.0699 16.8268 30.8862 18.9583C26.6232 21.1805 23.4032 25.8063 23.4032 33.7429C23.3579 34.151 23.3125 34.5592 23.3125 34.9673C23.3579 35.9197 23.5846 36.8721 23.9474 37.7338C24.6277 39.2304 25.6708 40.6363 26.8953 41.7701Z" fill="#96AD34"/>
</g>
<path d="M41.134 47.4386C30.8846 46.7129 22.4492 40.1823 23.4016 33.6971C24.0819 28.8898 30.2043 29.3887 40.4084 30.1143C50.6125 30.8399 56.6896 34.6948 56.6896 39.5474C56.6442 44.6268 49.3427 48.0281 41.134 47.4386Z" fill="#283D52"/>
<path d="M42.133 17.7787C33.9244 15.7832 23.4029 19.3206 23.4029 33.6971C22.4958 40.1823 30.9312 46.7129 41.1353 47.4386C49.3439 48.0281 56.6909 44.5814 56.6909 39.5474C56.6455 32.1098 55.3757 20.9987 42.133 17.7787Z" fill="url(#paint1_radial_3165_3309)"/>
<path d="M45.1257 21.679C45.1257 21.679 40.3184 28.0282 36.1461 39.23C31.3842 27.484 31.7017 18.5044 31.7017 18.5044L39.4568 18.8672L45.1257 21.679Z" fill="white"/>
<path d="M38.9582 18.8218H38.7315C36.736 22.8127 34.9673 26.9397 33.4707 31.112C34.1963 33.8785 35.058 36.5996 36.1464 39.2299C37.0535 36.8263 38.0059 34.6041 38.9129 32.654C38.6408 28.0735 38.6861 23.4476 38.9582 18.8218Z" fill="url(#paint2_radial_3165_3309)"/>
<path d="M48.2102 17.7789C46.0787 21.0895 42.9041 25.2619 39.276 26.1689C33.6524 27.4841 29.5254 18.0964 29.5254 12.3367C29.5254 6.57708 33.0628 1.63377 38.7317 0.636033C46.124 -0.679159 54.6048 7.80156 48.2102 17.7789Z" fill="url(#paint3_radial_3165_3309)"/>
</g>
<defs>
<linearGradient id="paint0_linear_3165_3309" x1="0.5" y1="54.156" x2="80.4909" y2="54.156" gradientUnits="userSpaceOnUse">
<stop stop-color="#C2DD00"/>
<stop offset="0.1" stop-color="#C7E000"/>
<stop offset="0.3" stop-color="#CAE200"/>
<stop offset="0.55" stop-color="#BAD200"/>
<stop offset="0.74" stop-color="#B4CC00"/>
<stop offset="1" stop-color="#8AA500"/>
</linearGradient>
<radialGradient id="paint1_radial_3165_3309" cx="0" cy="0" r="1" gradientUnits="userSpaceOnUse" gradientTransform="translate(31.9516 20.7583) scale(31.8277)">
<stop stop-color="#545770"/>
<stop offset="0.1" stop-color="#50536B"/>
<stop offset="0.3" stop-color="#4E5168"/>
<stop offset="0.38" stop-color="#464960"/>
<stop offset="0.59" stop-color="#353850"/>
<stop offset="0.74" stop-color="#2F324A"/>
<stop offset="1" stop-color="#20233D"/>
</radialGradient>
<radialGradient id="paint2_radial_3165_3309" cx="0" cy="0" r="1" gradientUnits="userSpaceOnUse" gradientTransform="translate(30.7587 22.1007) scale(18.2313 18.2313)">
<stop stop-color="#FFC45E"/>
<stop offset="0.1" stop-color="#FDBA59"/>
<stop offset="0.28" stop-color="#F99F4C"/>
<stop offset="0.51" stop-color="#F17337"/>
<stop offset="0.78" stop-color="#E7371A"/>
<stop offset="1" stop-color="#DE0000"/>
</radialGradient>
<radialGradient id="paint3_radial_3165_3309" cx="0" cy="0" r="1" gradientUnits="userSpaceOnUse" gradientTransform="translate(27.7476 5.1485) scale(26.0363)">
<stop stop-color="#FFF7B0"/>
<stop offset="0.26" stop-color="#FFF1AB"/>
<stop offset="0.61" stop-color="#FFDF9C"/>
<stop offset="1" stop-color="#FFC485"/>
</radialGradient>
<clipPath id="clip0_3165_3309">
<rect width="80" height="69.0703" fill="white" transform="translate(0.5 0.5)"/>
</clipPath>
</defs>
</svg>
