<svg width="81" height="79" viewBox="0 0 81 79" fill="none" xmlns="http://www.w3.org/2000/svg">
<g clip-path="url(#clip0_3165_3363)">
<path d="M67.0311 40.1833C49.4492 30.0138 31.2797 30.0138 13.6977 40.1833C4.88418 45.2906 0.5 50.4432 0.5 55.5957C0.5 60.7482 4.88418 65.9008 13.6977 71.0081C31.2797 81.1776 49.4492 81.1776 67.0311 71.0081C75.8446 65.946 80.2288 60.7934 80.2288 55.5957C80.2288 50.398 75.8446 45.2906 67.0311 40.1833Z" fill="#949494"/>
<path d="M67.0311 63.3245C49.4492 73.494 31.2797 73.494 13.6977 63.3245C4.88418 58.2172 0.5 53.0647 0.5 47.9121V55.5957C0.5 60.7483 4.88418 65.9008 13.6977 71.0082C31.2797 81.1776 49.4492 81.1776 67.0311 71.0082C75.8446 65.946 80.2288 60.7935 80.2288 55.5957V47.9121C80.2288 53.0647 75.8446 58.2172 67.0311 63.3245Z" fill="url(#paint0_linear_3165_3363)"/>
<path d="M67.0311 32.4997C49.4492 22.3302 31.2797 22.3302 13.6977 32.4997C4.88418 37.607 0.5 42.7596 0.5 47.9121C0.5 53.0647 4.88418 58.2172 13.6977 63.3245C31.2797 73.494 49.4492 73.494 67.0311 63.3245C75.8446 58.2624 80.2288 53.0647 80.2288 47.9121C80.2288 42.7596 75.8446 37.607 67.0311 32.4997Z" fill="#FFDB32"/>
<mask id="mask0_3165_3363" style="mask-type:luminance" maskUnits="userSpaceOnUse" x="18" y="14" width="49" height="47">
<path d="M65.7657 37.3814C63.5058 22.1046 54.3759 14.3306 38.9635 14.5565C31.2347 14.6469 25.6753 16.726 22.3307 20.6582C18.9861 24.5904 17.8109 30.3758 18.9409 38.0142C21.2008 53.291 30.3307 61.065 45.7431 60.839C53.4719 60.7486 59.0313 58.6695 62.3759 54.7825C65.7205 50.8955 66.8957 45.0198 65.7657 37.3814Z" fill="white"/>
</mask>
<g mask="url(#mask0_3165_3363)">
<path opacity="0.03" d="M72.5468 35.2571L71.8688 30.6018L67.9366 30.647L66.7615 22.647L56.818 22.7826L47.2812 33.9464L48.7728 44.2063L50.4451 44.1611L48.9988 45.8334L50.5355 56.0481H52.2078L50.8067 57.6752L52.3434 67.8899L62.2869 67.7543L81.3603 45.3814L79.8688 35.1667L72.5468 35.2571Z" fill="#FFFDFA"/>
<path opacity="0.06" d="M72.049 34.8055L71.371 30.1501L67.4388 30.2405L66.2637 22.1953L56.275 22.3309L46.7383 33.5399L48.275 43.7546H49.9473L48.501 45.427L50.0377 55.6416L51.71 55.5964L50.3089 57.2688L51.8456 67.4834L61.7891 67.3479L80.8626 44.9298L79.3258 34.7151L72.049 34.8055Z" fill="#FFFBF5"/>
<path opacity="0.09" d="M71.551 34.3987L70.8278 29.7434L66.9408 29.7886L65.7657 21.7886L55.777 21.9242L46.2402 33.088L47.777 43.3479L49.4493 43.3027L48.0029 44.975L49.5397 55.1897H51.212L49.8109 56.8168L51.3024 67.0315L61.2911 66.8959L80.3645 44.523L78.8278 34.3084L71.551 34.3987Z" fill="#FFF9F1"/>
<path opacity="0.12" d="M71.0097 33.9466L70.3317 29.2912L66.4447 29.3364L65.2244 21.3364L55.2809 21.472L45.7441 32.6811L47.2809 42.8958H48.9532L47.5069 44.5681L48.9984 54.7828L50.7159 54.7376L49.3148 56.4099L50.8063 66.6246L60.795 66.489L79.8684 44.0709L78.3317 33.8562L71.0097 33.9466Z" fill="#FFF8EC"/>
<path opacity="0.15" d="M70.5116 33.5399L69.8337 28.8845L65.9467 28.9297L64.7263 20.9297L54.7828 21.0653L45.2461 32.2291L46.7376 42.4438H48.4551L47.0088 44.1161L48.5003 54.3308H50.1726L48.8167 55.9579L50.3082 66.1726L60.2969 66.037L79.3252 43.6642L77.8337 33.4495L70.5116 33.5399Z" fill="#FFF6E7"/>
<path opacity="0.18" d="M70.0155 33.0877L69.3376 28.4323L65.4054 28.4775L64.2302 20.4775L54.2867 20.6131L44.75 31.8222L46.2415 42.0369L47.9138 41.9917L46.5127 43.7092L48.0042 53.9239L49.6766 53.8787L48.3206 55.551L49.8121 65.7657L59.7557 65.6301L78.8291 43.212L77.3376 32.9973L70.0155 33.0877Z" fill="#FFF4E2"/>
<path opacity="0.21" d="M69.5175 32.681L68.8395 28.0256L64.9073 28.0708L63.7322 20.0708L53.7435 20.1612L44.252 31.3702L45.7435 41.5849H47.4158L46.0147 43.2572L47.5062 53.4719H49.1785L47.7774 55.099L49.3141 65.3137L59.2576 65.1781L78.331 42.8053L76.7943 32.5454L69.5175 32.681Z" fill="#FFF2DD"/>
<path opacity="0.24" d="M69.0197 32.2288L68.2966 27.5735L64.4095 27.6187L63.2344 19.6187L53.2457 19.7542L43.709 30.9633L45.2457 41.178L46.918 41.1328L45.4717 42.8503L47.0084 53.065L48.6807 53.0198L47.2796 54.6469L48.8163 64.9068L58.7598 64.7712L77.8333 42.3531L76.2966 32.1384L69.0197 32.2288Z" fill="#FFF0D9"/>
<path opacity="0.27" d="M68.4784 31.8221L67.8005 27.1667L63.9135 27.2119L62.6931 19.2119L52.7496 19.3475L43.2129 30.5113L44.7496 40.726H46.4219L44.9756 42.3984L46.5123 52.613H48.1846L46.7835 54.2402L48.275 64.4549L58.2637 64.3193L77.3372 41.9464L75.8005 31.7317L68.4784 31.8221Z" fill="#FFEED4"/>
<path opacity="0.3" d="M67.9804 31.3704L67.3024 26.7151L63.4154 26.7603L62.1951 18.7603L52.2516 18.8958L42.7148 30.1049L44.2516 40.3196L45.9239 40.2744L44.4776 41.9919L45.9691 52.2066L47.6414 52.1614L46.2855 53.7885L47.777 64.0484L57.7657 63.9128L76.7939 41.4947L75.3024 31.28L67.9804 31.3704Z" fill="#FFEDCF"/>
<path opacity="0.33" d="M67.4843 30.9637L66.8063 26.3083L62.8741 26.3535L61.699 18.3535L51.7555 18.4891L42.2188 29.653L43.7103 39.8676H45.3826L43.9815 41.54L45.473 51.7546H47.1453L45.7894 53.3818L47.2809 63.5965L57.2696 63.4609L76.2978 41.088L74.8063 30.8733L67.4843 30.9637Z" fill="#FFEBCA"/>
<path opacity="0.36" d="M66.9862 30.5115L66.3083 25.8562L62.3761 25.9014L61.2009 17.9014L51.2574 18.037L41.7207 29.246L43.2122 39.4607L44.8845 39.4155L43.4834 41.0878L44.9749 51.3477L46.6473 51.3025L45.2461 52.9296L46.7829 63.1443L56.7264 63.0539L75.7998 40.6358L74.3083 30.4211L66.9862 30.5115Z" fill="#FFE9C6"/>
<path opacity="0.39" d="M66.4885 30.1046L65.7653 25.4492L61.8783 25.4944L60.7032 17.4492L50.7145 17.5848L41.1777 28.7939L42.7145 39.0085H44.3868L42.9404 40.6809L44.4772 50.8955H46.1495L44.7484 52.5227L46.2851 62.7374L56.2286 62.6018L75.302 40.2289L73.7653 29.969L66.4885 30.1046Z" fill="#FFE7C1"/>
<path opacity="0.42" d="M65.9924 29.6527L65.2692 24.9973L61.3822 25.0425L60.2071 17.0425L50.2184 17.1781L40.6816 28.3871L42.2184 38.6018L43.8907 38.5566L42.4444 40.2289L43.9811 50.4888L45.6534 50.4436L44.2523 52.0707L45.789 62.3306L55.7325 62.195L74.8059 39.7769L73.2692 29.5623L65.9924 29.6527Z" fill="#FFE5BC"/>
<path opacity="0.45" d="M65.4491 29.2007L64.7712 24.5905L60.8842 24.6357L59.6638 16.6357L49.7203 16.7261L40.1836 27.9352L41.7203 38.1499H43.3926L41.9463 39.8222L43.483 50.0369H45.1553L43.7542 51.664L45.2457 61.8787L55.2344 61.7431L74.3079 39.325L72.7712 29.1103L65.4491 29.2007Z" fill="#FFE3B7"/>
<path opacity="0.48" d="M64.953 28.7943L64.2751 24.1389L60.3429 24.1841L59.1677 16.1841L49.2242 16.3197L39.6875 27.5287L41.179 37.7434L42.8965 37.6982L41.4502 39.4157L42.9417 49.6304L44.6141 49.5852L43.2581 51.2123L44.7496 61.427L54.7383 61.3366L73.7666 38.9185L72.2751 28.7039L64.953 28.7943Z" fill="#FFE1B2"/>
<path opacity="0.52" d="M64.455 28.3873L63.777 23.7319L59.8448 23.7771L58.6697 15.7319L48.7262 15.8675L39.1895 27.0766L40.681 37.2913H42.3533L40.9522 38.9636L42.4437 49.1783H44.116L42.7149 50.8054L44.2516 61.0201L54.1951 60.8845L73.2685 38.5116L71.777 28.2517L64.455 28.3873Z" fill="#FFE0AE"/>
<path opacity="0.55" d="M63.9592 27.9354L63.2812 23.28L59.349 23.3252L58.1739 15.3252L48.1852 15.4608L38.6484 26.6698L40.1852 36.8845L41.8575 36.8393L40.4112 38.5116L41.9479 48.7715L43.6202 48.7263L42.2191 50.3534L43.7558 60.5681L53.6993 60.4325L72.7727 38.0597L71.2812 27.845L63.9592 27.9354Z" fill="#FFDEA9"/>
<path opacity="0.58" d="M63.4611 27.5284L62.738 22.873L58.851 22.9182L57.6758 14.873L47.6871 15.0086L38.1504 26.2177L39.6871 36.4324H41.3594L39.9131 38.1047L41.4498 48.3194H43.1221L41.721 49.9465L43.2577 60.1612L53.2012 60.0256L72.2747 37.6527L70.738 27.3928L63.4611 27.5284Z" fill="#FFDCA4"/>
<path opacity="0.61" d="M62.9179 27.0765L62.2399 22.4211L58.3529 22.4663L57.1326 14.4663L47.1891 14.6019L37.6523 25.8109L39.1891 36.0256L40.8614 35.9804L39.4151 37.6527L40.9518 47.9126L42.6241 47.8674L41.223 49.4946L42.7145 59.7092L52.7032 59.6189L71.7766 37.2008L70.2399 26.9861L62.9179 27.0765Z" fill="#FFDA9F"/>
<path opacity="0.64" d="M62.4218 26.6243L61.7438 21.969L57.8568 22.0594L56.6365 14.0142L46.693 14.1498L37.1562 25.3588L38.6478 35.5735H40.3653L38.919 37.2458L40.4105 47.4605L42.128 47.4153L40.7269 49.0876L42.2184 59.3023L52.2071 59.1667L71.2805 36.7486L69.7438 26.5339L62.4218 26.6243Z" fill="#FFD89A"/>
<path opacity="0.67" d="M61.9237 26.2176L61.2458 21.5622L57.3136 21.6074L56.1384 13.6074L46.1949 13.743L36.6582 24.9521L38.1497 35.1667L39.822 35.1215L38.4209 36.7939L39.9124 47.0086H41.5848L40.2288 48.6357L41.7203 58.8504L51.7091 58.7148L70.7373 36.3419L69.2458 26.1272L61.9237 26.2176Z" fill="#FFD696"/>
<path opacity="0.7" d="M61.4276 25.7659L60.7497 21.1558L56.8175 21.201L55.6423 13.1558L45.6536 13.2914L36.1621 24.5004L37.6536 34.7151H39.326L37.9248 36.3874L39.4163 46.6021L41.0887 46.5569L39.6875 48.2292L41.2243 58.4439L51.1678 58.3083L70.2412 35.8902L68.7497 25.6755L61.4276 25.7659Z" fill="#FFD491"/>
<path opacity="0.73" d="M60.9299 25.3592L60.2067 20.7038L56.3197 20.749L55.1446 12.749L45.1559 12.8846L35.6191 24.0937L37.1559 34.3083L38.8282 34.2631L37.3819 35.9355L38.9186 46.1954L40.5909 46.1502L39.1898 47.7773L40.7265 57.992L50.67 57.8564L69.7434 35.4835L68.2067 25.2688L60.9299 25.3592Z" fill="#FFD38C"/>
<path opacity="0.76" d="M60.4338 24.907L59.7106 20.2517L55.8236 20.3421L54.6485 12.2969L44.6598 12.4325L35.123 23.6415L36.6598 33.8562H38.3321L36.8858 35.5285L38.4225 45.7432H40.0948L38.6937 47.3703L40.2304 57.585L50.1739 57.4494L69.2473 35.0313L67.7106 24.8166L60.4338 24.907Z" fill="#FFD187"/>
<path opacity="0.79" d="M59.8905 24.5003L59.2126 19.8449L55.3256 19.8901L54.1052 11.8901L44.1617 12.0257L34.625 23.2348L36.1617 33.4495L37.834 33.4043L36.3877 35.0766L37.9244 45.2913V45.3365L39.5968 45.2913L38.1956 46.9184L39.6871 57.1331L49.6758 56.9975L68.7493 34.6246L67.2126 24.4099L59.8905 24.5003Z" fill="#FFCF83"/>
<path opacity="0.82" d="M59.3925 24.0482L58.7145 19.3928L54.8275 19.4832L53.6072 11.438L43.6637 11.5736L34.127 22.7826L35.6185 32.9973H37.2908L35.8897 34.6696L37.3812 44.8843L39.0535 44.8391L37.6976 46.5114L39.1891 56.7261L49.1778 56.5905L68.206 34.1725L66.7145 23.9578L59.3925 24.0482Z" fill="#FFCD7E"/>
<path opacity="0.85" d="M58.8964 23.6414L58.2184 18.9861L54.2862 19.0313L53.1111 11.0312L43.1676 11.1668L33.6309 22.3307L35.1224 32.5906L36.7947 32.5454L35.3936 34.2177L36.8851 44.4324H38.5574L37.2015 46.0595L38.693 56.2742L48.6817 56.1386L67.71 33.7657L66.2184 23.551L58.8964 23.6414Z" fill="#FFCB79"/>
<path opacity="0.88" d="M58.3984 23.1893L57.7204 18.5339L53.7882 18.5791L52.613 10.5791L42.6243 10.7147L33.1328 21.9237L34.6243 32.1384H36.2967L34.8955 33.8107L36.3871 44.0254L38.0594 43.9802L36.6582 45.6526L38.195 55.8672L48.1385 55.7316L67.2119 33.3136L65.7204 23.0989L58.3984 23.1893Z" fill="#FFC974"/>
<path opacity="0.91" d="M57.9025 22.7825L57.1794 18.1272L53.2924 18.1724L52.1172 10.1724L42.1285 10.308L32.5918 21.517L34.1285 31.7317L35.8008 31.6865L34.3545 33.3588L35.8912 43.5735H37.5635L36.1624 45.2006L37.6991 55.4153L47.6426 55.2797L66.7161 32.9068L65.1794 22.6921L57.9025 22.7825Z" fill="#FFC86F"/>
<path opacity="0.94" d="M57.3593 22.3309L56.6813 17.6755L52.7943 17.7659L51.6192 9.7207L41.6305 9.8563L32.0938 21.0653L33.6305 31.28H35.3028L33.8565 32.9523L35.3932 43.167L37.0655 43.1218L35.6644 44.7941L37.2011 55.0088L47.1446 54.8732L66.218 32.4552L64.6813 22.2405L57.3593 22.3309Z" fill="#FFC66B"/>
<path opacity="0.97" d="M56.8632 21.9241L56.1852 17.2688L52.2982 17.314L51.0779 9.31396L41.1344 9.44956L31.5977 20.6134L33.1344 30.8733L34.8067 30.8281L33.3604 32.5004L34.8971 42.7151H36.5694L35.1683 44.3422L36.6598 54.5569L46.6485 54.4213L65.722 32.0484L64.1852 21.8337L56.8632 21.9241Z" fill="#FFC466"/>
<path d="M56.3651 21.472L55.6872 16.8166L51.755 16.907L50.5798 8.86182L40.6363 8.99741L31.0996 20.2064L32.5911 30.4211H34.2635L32.8623 32.0935L34.3538 42.3081L36.0262 42.2629L34.6702 43.9353L36.1618 54.15L46.1505 54.0144L65.1787 31.5963L63.6872 21.3816L56.3651 21.472Z" fill="#FFC261"/>
</g>
<path d="M43.7999 5.83333C55.009 0.228812 64.1389 7.37005 64.1389 21.7881C64.1389 36.2062 55.0542 52.4774 43.7999 58.0819C32.5457 63.6864 23.4609 56.5452 23.4609 42.1271C23.4609 27.709 32.5909 11.4379 43.7999 5.83333Z" fill="#F0595F"/>
<path d="M31.3243 58.8049L24.4543 55.3699C19.6633 52.9744 16.5898 47.0535 16.5898 38.6468C16.5898 24.2287 25.6746 7.95748 36.9288 2.35296C41.6294 0.047876 45.9684 -0.0425195 49.4034 1.67499L56.2735 5.11002C52.8384 3.39251 48.4995 3.4829 43.7989 5.83319C32.5898 11.4377 23.4599 27.7089 23.4599 42.127C23.4599 50.4886 26.5333 56.4547 31.3243 58.8049Z" fill="#F6A5A2"/>
<path d="M37.7438 22.1949L43.7551 26.7147L49.7664 16.1836L54.1958 19.483L48.1393 30.0141L54.1958 34.5339L49.7664 42.2175L43.7551 37.7429L37.7438 48.274L33.3145 44.9294L39.3258 34.4435L33.3145 29.9237L37.7438 22.1949Z" fill="#A83C41"/>
<path d="M43.0756 24.8614L49.0869 29.3812L55.0982 18.8501L59.5276 22.1495L53.5163 32.6806L59.5276 37.2004L55.0982 44.9292L49.0869 40.4094L43.0756 50.9405L38.6914 47.6411L44.7027 37.11L38.6914 32.5902L43.0756 24.8614Z" fill="#CDE3F5"/>
<path d="M43.0753 24.8616L39.2787 23.3701L34.8945 31.0989L38.6911 32.5905L43.0753 24.8616Z" fill="#F2F6FB"/>
<path d="M38.6911 32.5902L34.8945 31.0986L40.9058 35.5732L44.7024 37.1099L38.6911 32.5902Z" fill="#96C2E7"/>
<path d="M49.0876 40.4097L48.5 41.4492L51.2571 43.5283L55.0989 44.9294L49.0876 40.4097Z" fill="#96C2E7"/>
<path d="M38.6911 47.6412L34.8945 46.1045L39.2787 49.4039L43.0753 50.9406L38.6911 47.6412Z" fill="#96C2E7"/>
<path d="M44.7024 37.11L40.9058 35.5732L34.8945 46.1043L38.6911 47.641L44.7024 37.11Z" fill="#F2F6FB"/>
<path d="M55.0995 18.8499L51.3029 17.3584L45.834 26.9403L49.0882 29.381L55.0995 18.8499Z" fill="#F2F6FB"/>
</g>
<defs>
<linearGradient id="paint0_linear_3165_3363" x1="0.5" y1="63.2686" x2="80.2198" y2="63.2686" gradientUnits="userSpaceOnUse">
<stop stop-color="#FFED44"/>
<stop offset="0.07" stop-color="#FFF047"/>
<stop offset="0.3" stop-color="#FFF24A"/>
<stop offset="0.55" stop-color="#FFE23A"/>
<stop offset="0.74" stop-color="#FFDC34"/>
<stop offset="1" stop-color="#F9B519"/>
</linearGradient>
<clipPath id="clip0_3165_3363">
<rect width="80" height="78.1017" fill="white" transform="translate(0.5 0.5)"/>
</clipPath>
</defs>
</svg>
