<svg width="81" height="70" viewBox="0 0 81 70" fill="none" xmlns="http://www.w3.org/2000/svg">
<g clip-path="url(#clip0_3165_3422)">
<path d="M67.2574 30.7493C49.6156 20.5452 31.3844 20.5452 13.7426 30.7493C4.89909 35.8286 0.5 40.9987 0.5 46.1688C0.5 51.3388 4.89909 56.5089 13.7426 61.6336C31.3844 71.8377 49.6156 71.8377 67.2574 61.6336C76.1009 56.5542 80.5 51.3388 80.5 46.1688C80.5 40.9987 76.1009 35.8286 67.2574 30.7493Z" fill="#949494"/>
<path d="M67.2574 53.9238C49.6156 64.1279 31.3844 64.1279 13.7426 53.9238C4.89909 48.8445 0.5 43.6744 0.5 38.459V46.1687C0.5 51.3388 4.89909 56.5089 13.7426 61.6336C31.3844 71.8377 49.6156 71.8377 67.2574 61.6336C76.1009 56.5542 80.5 51.3388 80.5 46.1687V38.459C80.5 43.6744 76.1009 48.8445 67.2574 53.9238Z" fill="url(#paint0_linear_3165_3422)"/>
<path d="M67.2574 23.0393C49.6156 12.8352 31.3844 12.8352 13.7426 23.0393C4.89909 28.1187 0.5 33.2887 0.5 38.4588C0.5 43.6289 4.89909 48.7989 13.7426 53.9236C31.3844 64.1277 49.6156 64.1277 67.2574 53.9236C76.1009 48.8443 80.5 43.6289 80.5 38.4588C80.5 33.2887 76.1009 28.1187 67.2574 23.0393Z" fill="#612E00"/>
<path d="M55.1944 1.76961L61.9971 5.71519L62.0878 5.76054C62.496 6.03265 62.7228 6.53151 62.7228 7.03038V9.75147V26.8036V29.5247C62.6774 30.2503 62.4507 30.9306 62.0878 31.5202C61.725 32.1551 61.1808 32.7447 60.5459 33.1075L28.301 51.7469C27.8475 52.0644 27.2579 52.1097 26.8044 51.883L26.7137 51.8376L19.911 47.8921L19.8656 47.8467L19.8203 47.8014L19.7749 47.756L19.7296 47.7107L19.6842 47.62L19.6389 47.5292L19.5935 47.4385L19.5482 47.3478L19.5028 47.2571L19.4575 47.1664L19.4121 47.0757V46.985V46.8943V46.7583V43.9011C19.4121 37.3252 19.4121 30.7039 19.4121 24.1279V23.9918V23.8558V23.7197V23.5837L19.4575 23.4476L19.5028 23.3116L19.5482 23.1755L19.5935 23.0395L19.6389 22.9034L19.6842 22.7673L19.7296 22.6313L19.7749 22.4952L19.8203 22.3592L19.8656 22.2231L19.9563 22.0871L20.047 21.951L20.1377 21.815L20.2284 21.6789L20.3191 21.5429L20.4098 21.4068L20.5005 21.2707L20.5912 21.18L20.682 21.0893L20.7727 20.9986L20.8634 20.9079L20.9541 20.8172L21.0448 20.7265L21.1355 20.6358L21.2262 20.5451L21.3169 20.4544L21.4076 20.3637L53.6525 1.72426L53.7432 1.67891L53.8792 1.63355L53.9699 1.5882L54.0606 1.54285L54.1513 1.4975L54.242 1.45215H54.3327H54.4234H54.6956H54.7863H54.877L54.9677 1.4975L55.1944 1.76961Z" fill="#E6EAEB"/>
<path d="M26.1699 28.1189L19.3672 24.1733V26.8944L26.1699 30.84V28.1189Z" fill="#C0392B"/>
<path d="M62.0429 5.67007L55.1949 1.76984L55.1495 1.72449H55.0588L54.9681 1.67914H54.8774H54.7867L54.696 1.63379L54.6053 1.67914H54.5146H54.4239L54.2878 1.72449L54.1971 1.76984H54.1064L53.9704 1.8152L53.8797 1.9059L53.789 1.95125L21.4987 20.5907L21.408 20.6361L21.2719 20.7268L21.1812 20.8175L21.0452 20.8628L20.9545 20.9535L20.8638 21.0442L20.7731 21.1349L20.6824 21.271L20.5917 21.3617L20.4556 21.4524L20.3649 21.5884L20.3196 21.6791L20.2289 21.8152L20.1382 21.9512L20.0475 22.042L20.0021 22.178L19.9114 22.3141L19.8661 22.4048L19.7754 22.5408L19.73 22.6769L19.6846 22.8129L19.6393 22.9036L19.5939 23.0397L19.5486 23.1757L19.5032 23.3118L19.4579 23.4025V23.5386L19.4125 23.6746V23.8107L19.3672 23.9467V24.0374V24.1735L26.1699 28.1191V27.983V27.8469L26.2153 27.7562V27.6202L26.2606 27.4841V27.3481L26.306 27.212L26.3513 27.1213L26.3967 26.9853L26.442 26.8492L26.4874 26.7132L26.5327 26.5771L26.6234 26.4864L26.6688 26.3503L26.7141 26.2143L26.8048 26.1236L26.8955 25.9875L26.9409 25.8515L27.0316 25.7608L27.1223 25.6247L27.213 25.534L27.3037 25.398L27.3944 25.3073L27.4851 25.1712L27.5758 25.0805L27.6665 24.9898L27.8026 24.8991L27.8933 24.8084L27.984 24.7177L28.0747 24.6723L28.2107 24.5816L28.3014 24.4909L60.5917 5.89683L60.6824 5.80612L60.8184 5.76077L60.9091 5.71542L60.9998 5.67007H61.1359L61.2266 5.62472H61.3173L61.408 5.57937H61.4987H61.5894H61.6801L61.7708 5.62472H61.8615L61.9522 5.67007H62.0429Z" fill="#BDBDBD"/>
<path d="M26.1699 30.8401L19.3672 26.8945V43.9467V46.6678V46.7585V46.8945L19.4125 46.9852V47.0759L19.4579 47.1666V47.3027L19.5032 47.348L19.5486 47.4387L19.5939 47.5295L19.6393 47.5748L19.6846 47.6655L19.73 47.7109L19.7754 47.8016L19.8661 47.8469L19.9114 47.8923L26.7141 51.8378L26.6688 51.7925L26.6234 51.7018L26.5327 51.6564L26.4874 51.6111L26.442 51.5204L26.3967 51.475L26.3513 51.3843L26.306 51.2936L26.2606 51.2029V51.1122L26.2153 51.0215V50.9308L26.1699 50.7948V50.7041V50.6134V47.8469V30.8401Z" fill="#9C9C9C"/>
<path d="M62.0863 31.475C62.4492 30.8854 62.6759 30.2052 62.7213 29.4795L51.3834 26.1235L46.0773 33.8333C45.6691 34.4682 45.0795 35.0124 44.4446 35.4206C43.9457 35.738 43.3562 35.8741 42.812 35.738L37.5058 34.1507L26.168 50.568C26.168 51.0668 26.3947 51.5657 26.8029 51.8378C27.3018 52.0646 27.8913 52.0192 28.2995 51.7018L60.5897 33.0623C61.2247 32.6995 61.7235 32.1099 62.0863 31.475Z" fill="#E6EAEB"/>
<path d="M26.168 30.8398V47.8466V50.6131L37.5058 34.1959L35.9185 33.7423L26.168 30.8398Z" fill="#E6EAEB"/>
<path d="M62.7222 29.4793V26.7582V9.70605L52.9716 23.8557L51.4297 26.1233L62.7222 29.4793Z" fill="#E6EAEB"/>
<path d="M60.5897 5.89672L28.2995 24.4908C27.6646 24.899 27.1657 25.4432 26.8029 26.0781C26.4401 26.6677 26.2133 27.348 26.168 28.0736V30.7947L42.812 35.738C43.4015 35.874 43.9911 35.738 44.4446 35.4205C45.1249 35.0124 45.6691 34.4682 46.0773 33.8332L62.7213 9.70625V6.98516C62.7213 6.48629 62.4945 5.98743 62.0863 5.71532C61.5875 5.48856 61.0433 5.57926 60.5897 5.89672Z" fill="#E6EAEB"/>
<path d="M62.7213 9.70595V6.98486L45.5331 31.9282C45.2609 32.3363 44.8981 32.6991 44.4446 32.9713C44.1272 33.198 43.719 33.2434 43.3562 33.1527L26.168 28.1187V30.8397L42.812 35.7377C43.4015 35.8738 43.9911 35.7377 44.4446 35.4202C45.1249 35.0121 45.6691 34.4679 46.0773 33.8329L62.7213 9.70595Z" fill="#E74C3C"/>
<path d="M26.6234 26.3953L19.8207 22.4951L19.7754 22.5405L19.73 22.6765L19.6846 22.8126L19.6393 22.9033L19.5939 23.0393L19.5486 23.1754L19.5032 23.3114L19.4579 23.4021V23.5382L19.4125 23.6743V23.8103L19.3672 23.9464V24.0371V24.1731L26.1699 28.1187V27.9826V27.8466L26.2153 27.7559V27.6198L26.2606 27.4838V27.3477L26.306 27.2117L26.3513 27.121L26.3967 26.9849L26.442 26.8489L26.4874 26.7128L26.5327 26.5767L26.6234 26.486V26.3953Z" fill="#9C9C9C"/>
</g>
<defs>
<linearGradient id="paint0_linear_3165_3422" x1="0.5" y1="53.879" x2="80.4909" y2="53.879" gradientUnits="userSpaceOnUse">
<stop stop-color="#734000"/>
<stop offset="0.1" stop-color="#784300"/>
<stop offset="0.3" stop-color="#7B4500"/>
<stop offset="0.55" stop-color="#6B3500"/>
<stop offset="0.74" stop-color="#652F00"/>
<stop offset="1" stop-color="#3B0800"/>
</linearGradient>
<clipPath id="clip0_3165_3422">
<rect width="80" height="68.7982" fill="white" transform="translate(0.5 0.5)"/>
</clipPath>
</defs>
</svg>
