<svg width="81" height="71" viewBox="0 0 81 71" fill="none" xmlns="http://www.w3.org/2000/svg">
<g clip-path="url(#clip0_3165_3448)">
<path d="M67.1063 32.2647C49.5045 22.0837 31.3145 22.0837 13.7127 32.2647C4.88914 37.3325 0.5 42.4909 0.5 47.6945C0.5 52.8981 4.88914 58.0113 13.7127 63.1244C31.3145 73.3054 49.5045 73.3054 67.1063 63.1244C75.9299 58.0565 80.319 52.8529 80.319 47.6945C80.319 42.5361 75.9299 37.3325 67.1063 32.2647Z" fill="#949494"/>
<path d="M67.1063 32.2647C49.5045 22.0837 31.3145 22.0837 13.7127 32.2647C4.88914 37.3325 0.5 42.4909 0.5 47.6945C0.5 52.8981 4.88914 58.0113 13.7127 63.1244C31.3145 73.3054 49.5045 73.3054 67.1063 63.1244C75.9299 58.0565 80.319 52.8529 80.319 47.6945C80.319 42.5361 75.9299 37.3325 67.1063 32.2647Z" fill="#CECECE"/>
<path d="M67.1063 55.3871C49.5045 65.5681 31.3145 65.5681 13.7127 55.3871C4.88914 50.3192 0.5 45.1608 0.5 40.0024V47.6947C0.5 52.8531 4.88914 58.0115 13.7127 63.1246C31.3145 73.3056 49.5045 73.3056 67.1063 63.1246C75.9299 58.0567 80.319 52.8531 80.319 47.6947V40.0024C80.319 45.1608 75.9299 50.3192 67.1063 55.3871Z" fill="url(#paint0_linear_3165_3448)"/>
<path d="M67.1063 24.5723C49.5045 14.3913 31.3145 14.3913 13.7127 24.5723C4.88914 29.6401 0.5 34.7985 0.5 40.0021C0.5 45.2058 4.88914 50.3189 13.7127 55.432C31.3145 65.613 49.5045 65.613 67.1063 55.432C75.9299 50.3641 80.319 45.1605 80.319 40.0021C80.319 34.8438 75.9299 29.6401 67.1063 24.5723Z" fill="#612E00"/>
<mask id="mask0_3165_3448" style="mask-type:luminance" maskUnits="userSpaceOnUse" x="0" y="16" width="81" height="48">
<path d="M67.1063 24.5723C49.5045 14.3913 31.3145 14.3913 13.7127 24.5723C4.88914 29.6401 0.5 34.7985 0.5 40.0021C0.5 45.2058 4.88914 50.3189 13.7127 55.432C31.3145 65.613 49.5045 65.613 67.1063 55.432C75.9299 50.3641 80.319 45.1605 80.319 40.0021C80.319 34.8438 75.9299 29.6401 67.1063 24.5723Z" fill="white"/>
</mask>
<g mask="url(#mask0_3165_3448)">
<path opacity="0.03" d="M84.7538 19.7761L84.5275 19.9118L81.9484 21.4051L89.8217 16.8802L84.7538 19.7761ZM72.5818 46.6087L72.5366 37.1969H72.5818V46.6087ZM96.3827 16.0204C95.885 14.2105 94.799 12.5815 93.3511 11.4051C93.1248 11.1788 92.8533 10.9978 92.5818 10.8168L92.3556 10.6811L84.618 6.20144L84.3918 6.06569L76.609 1.58605L76.3375 1.40506C74.2108 0.18334 70.7266 0.18334 68.5547 1.40506L52.4913 10.6358C52.1746 10.8168 51.9031 11.0431 51.6769 11.2693C50.1836 12.5815 49.1429 14.3462 48.7357 16.2919C48.6452 16.6539 48.5999 16.9707 48.5999 17.3327L48.5547 35.8394C48.5547 38.2829 50.2741 41.3598 52.4461 42.5815L52.6723 42.7173L60.4551 47.1969L60.6814 47.3327L68.4642 51.8123L68.6904 51.948C68.7809 51.9933 68.8714 52.0385 68.9619 52.0838C71.1339 53.1698 74.437 53.1698 76.4732 51.948L76.5637 51.9028L76.6995 51.8123L84.4823 47.3327L84.7085 47.1969L92.4913 42.7173L92.7176 42.5815C94.8443 41.3598 96.609 38.3281 96.609 35.8394L96.6542 17.6042V17.2874C96.609 16.9707 96.5185 16.4729 96.3827 16.0204ZM63.2606 21.4051L60.7266 19.9571L60.5004 19.8213L55.2968 16.7897L60.4551 19.7761L60.6814 19.9118L63.2606 21.4051Z" fill="#F9F8F7"/>
<path opacity="0.06" d="M83.7577 19.7761L83.5314 19.9118L80.9523 21.4051L88.8256 16.8802L83.7577 19.7761ZM71.631 46.6087L71.5857 37.1969H71.631V46.6087ZM95.3414 16.0204C94.8437 14.2105 93.7577 12.5815 92.3097 11.4051C92.0835 11.1788 91.812 10.9978 91.5405 10.8168L91.3142 10.6811L83.5767 6.20144L83.3505 6.06569L75.5676 1.58605L75.3414 1.40506C73.2147 0.18334 69.7305 0.18334 67.5586 1.40506L51.4952 10.6358C51.1785 10.8168 50.907 11.0431 50.6808 11.2693C49.1876 12.5815 48.1468 14.3462 47.7396 16.2919C47.6491 16.6539 47.6038 16.9707 47.6038 17.3327L47.5586 35.8847C47.5586 38.3281 49.278 41.4051 51.45 42.6268L51.6762 42.7625L59.459 47.2422L59.6853 47.3779L67.5133 51.9028L67.7396 52.0385C67.8301 52.0838 67.9206 52.129 68.0111 52.1743C70.183 53.2603 73.4862 53.2603 75.5224 52.0385L75.6129 51.9933L75.7486 51.9028L83.5314 47.4232L83.7577 47.2874L91.4952 42.8078L91.7215 42.672C93.8482 41.4503 95.6129 38.4186 95.6129 35.9299L95.6581 17.6947V17.3779C95.6129 16.9707 95.5224 16.4729 95.3414 16.0204ZM62.2645 21.4051L59.7305 19.9571L59.5043 19.8213L54.3007 16.7897L59.459 19.7761L59.6853 19.9118L62.2645 21.4051Z" fill="#F3F1F0"/>
<path opacity="0.09" d="M82.7183 19.7761L82.4921 19.9118L79.9129 21.4051L87.7862 16.8802L82.7183 19.7761ZM70.5916 46.6087L70.5464 37.1969H70.5916V46.6087ZM94.3473 16.0204C93.8495 14.2105 92.7635 12.5815 91.3156 11.4051C91.0893 11.1788 90.8178 10.9978 90.5464 10.8168L90.3201 10.6811L82.5825 6.20144L82.3563 6.06569L74.5735 1.58605L74.3473 1.40506C72.2206 0.18334 68.7364 0.18334 66.5645 1.40506L50.5011 10.6811C50.1844 10.8621 49.9129 11.0883 49.6866 11.3146C48.1934 12.6268 47.1527 14.3915 46.7454 16.3372C46.6549 16.6992 46.6097 17.0159 46.6097 17.3779L46.5645 35.8847C46.5645 38.3281 48.2839 41.4051 50.4559 42.6268L50.6821 42.7625L58.4649 47.2422L58.6912 47.3779L66.474 51.8575L66.7002 51.9933C66.7907 52.0385 66.8812 52.0838 66.9717 52.129C69.1436 53.215 72.4468 53.215 74.483 51.9933L74.5735 51.948L74.7092 51.8575L82.4921 47.3779L82.7183 47.2422L90.5011 42.7625L90.7273 42.6268C92.854 41.4051 94.6188 38.3734 94.6188 35.8847L94.664 17.6494V17.3327C94.6188 16.9707 94.5283 16.4729 94.3473 16.0204ZM61.2251 21.4051L58.6912 19.9571L58.4649 19.8213L53.3065 16.7897L58.4649 19.7761L58.6912 19.9118L61.2251 21.4051Z" fill="#ECEAE8"/>
<path opacity="0.12" d="M81.7219 19.7761L81.4956 19.9118L78.9165 21.4051L86.7898 16.8802L81.7219 19.7761ZM69.5952 46.6087L69.5499 37.1969H69.5952V46.6087ZM93.3508 16.0204C92.8531 14.2105 91.7671 12.5815 90.3192 11.4051C90.0929 11.1788 89.8214 10.9978 89.5499 10.8168L89.3237 10.6811L81.5861 6.20144L81.3599 6.06569L73.6223 1.58605L73.3508 1.40506C71.2241 0.18334 67.74 0.18334 65.568 1.40506L49.5047 10.6358C49.1879 10.8168 48.9165 11.0431 48.6902 11.2693C47.197 12.5815 46.1563 14.3462 45.7943 16.2919C45.7038 16.6539 45.6585 16.9707 45.6585 17.3327L45.6133 35.8394C45.6133 38.2829 47.3327 41.3598 49.5047 42.5815L49.7309 42.7173L57.5137 47.1969L57.74 47.3327L65.5228 51.8123L65.749 51.948C65.8395 51.9933 65.93 52.0385 66.0205 52.0838C68.1925 53.1698 71.4956 53.1698 73.5318 51.948L73.6223 51.9028L73.7581 51.8123L81.5409 47.3327L81.7671 47.1969L89.5499 42.7173L89.7762 42.5815C91.9029 41.3598 93.6676 38.3281 93.6676 35.8394L93.7128 17.6042V17.2874C93.6223 16.9707 93.5318 16.4729 93.3508 16.0204ZM60.2287 21.4051L57.6947 19.9571L57.4685 19.8213L52.2649 16.7897L57.4232 19.7761L57.6495 19.9118L60.2287 21.4051Z" fill="#E6E3E0"/>
<path opacity="0.15" d="M80.7264 19.7761L80.5002 19.9118L77.921 21.4051L85.7943 16.8802L80.7264 19.7761ZM68.5545 46.6087L68.5092 37.1969H68.5545V46.6087ZM92.3554 16.0204C91.8577 14.2105 90.7717 12.5815 89.3237 11.4051C89.0975 11.1788 88.826 10.9978 88.5545 10.8168L88.3283 10.6811L80.5907 6.20144L80.3644 6.06569L72.5816 1.58605L72.3101 1.40506C70.1834 0.18334 66.6993 0.18334 64.5273 1.40506L48.464 10.6358C48.1473 10.8168 47.8758 11.0431 47.6495 11.2693C46.1563 12.5815 45.1156 14.3462 44.7083 16.2919C44.6178 16.6539 44.5726 16.9707 44.5726 17.3327L44.5273 35.8394C44.5273 38.2829 46.2468 41.3598 48.4187 42.5815L48.645 42.7173L56.4278 47.1969L56.654 47.3327L64.4368 51.8123L64.6631 51.948C64.7536 51.9933 64.8441 52.0385 64.9346 52.0838C67.1065 53.1698 70.4097 53.1698 72.4459 51.948L72.5364 51.9028L72.6721 51.8123L80.4549 47.3327L80.6812 47.1969L88.464 42.7173L88.6902 42.5815C90.8169 41.3598 92.5816 38.3281 92.5816 35.8394L92.6269 17.6042V17.2874C92.5816 16.9707 92.5364 16.4729 92.3554 16.0204ZM59.2332 21.4051L56.6993 19.9571L56.473 19.8213L51.2694 16.7897L56.4278 19.7761L56.654 19.9118L59.2332 21.4051Z" fill="#E0DCD8"/>
<path opacity="0.18" d="M79.7303 19.7761L79.5041 19.9118L76.9249 21.4051L84.7982 16.8802L79.7303 19.7761ZM67.5584 46.6087L67.5132 37.1969H67.5584V46.6087ZM91.3593 16.0204C90.8616 14.2105 89.7756 12.5815 88.2824 11.4051C88.0561 11.1788 87.7846 10.9978 87.5132 10.8168L87.2869 10.6811L79.5493 6.20144L79.3231 6.06569L71.5403 1.54081L71.3141 1.40506C69.1874 0.18334 65.7032 0.18334 63.5313 1.40506L47.4679 10.6358C47.1512 10.8168 46.8797 11.0431 46.6534 11.2693C45.1602 12.5815 44.1195 14.3462 43.7122 16.2919C43.6217 16.6539 43.5765 16.9707 43.5765 17.3327L43.5312 35.8394C43.5312 38.2829 45.2507 41.3598 47.4227 42.5815L47.6489 42.7173L55.4317 47.1969L55.6579 47.3327L63.4408 51.8123L63.667 51.948C63.7575 51.9933 63.848 52.0385 63.9385 52.0838C66.1104 53.1698 69.4136 53.1698 71.4498 51.948L71.5403 51.9028L71.676 51.8123L79.4589 47.3327L79.6851 47.1969L87.4679 42.7173L87.6941 42.5815C89.8208 41.3598 91.5856 38.3281 91.5856 35.8394L91.6308 17.6042V17.2874C91.5855 16.9707 91.4951 16.4729 91.3593 16.0204ZM58.2371 21.4051L55.7032 19.9571L55.477 19.8213L50.2733 16.7897L55.4317 19.7761L55.6579 19.9118L58.2371 21.4051Z" fill="#DAD4D1"/>
<path opacity="0.21" d="M78.691 19.7761L78.4647 19.9118L75.8855 21.4051L83.7588 16.8802L78.691 19.7761ZM90.3199 16.0204C89.8222 14.2105 88.7362 12.5815 87.2882 11.4051C87.062 11.1788 86.7905 10.9978 86.519 10.8168L86.2928 10.6811L78.5552 6.20144L78.329 6.06569L70.5914 1.58605L70.3199 1.40506C68.1932 0.18334 64.7091 0.18334 62.5371 1.40506L46.4738 10.6358C46.157 10.8168 45.8855 11.0431 45.6593 11.2693C44.1661 12.5815 43.1253 14.3462 42.7181 16.2919C42.6276 16.6539 42.5824 16.9707 42.5824 17.3327L42.5371 35.8394C42.5371 38.2829 44.2566 41.3598 46.4285 42.5815L46.6548 42.7173L54.4376 47.1969L54.6638 47.3327L62.4466 51.8123L62.6729 51.948C62.7634 51.9933 62.8539 52.0385 62.9443 52.0838C65.1163 53.1698 68.4195 53.1698 70.4557 51.948L70.5462 51.9028L70.6819 51.8123L78.4647 47.3327L78.691 47.1969L86.4738 42.7173L86.7 42.5815C88.8267 41.3598 90.5914 38.3281 90.5914 35.8394L90.6367 17.6042V17.2874C90.5914 16.9707 90.5009 16.4729 90.3199 16.0204ZM57.1977 21.4051L54.6638 19.9571L54.4376 19.8213L49.2792 16.7897L54.4376 19.7761L54.6638 19.9118L57.1977 21.4051Z" fill="#D4CDC9"/>
<path opacity="0.24" d="M77.6949 19.7761L77.4686 19.9118L74.8894 21.4051L82.7627 16.8802L77.6949 19.7761ZM65.5682 46.6087L65.5229 37.1969H65.5682V46.6087ZM89.3238 16.0204C88.8261 14.2105 87.7401 12.5815 86.2922 11.4051C86.0659 11.1788 85.7944 10.9978 85.5229 10.8168L85.2967 10.6811L77.5591 6.20144L77.3329 6.06569L69.5501 1.58605L69.3238 1.40506C67.1971 0.18334 63.713 0.18334 61.541 1.40506L45.4777 10.6811C45.1609 10.8621 44.8894 11.0883 44.6632 11.3146C43.17 12.6268 42.1293 14.3915 41.722 16.3372C41.6315 16.6992 41.5863 17.0159 41.5863 17.3779L41.541 35.8847C41.541 38.3281 43.2605 41.4051 45.4324 42.6268L45.6587 42.7625L53.4415 47.2422L53.6677 47.3779L61.4505 51.8575L61.6768 51.9933C61.7673 52.0385 61.8578 52.0838 61.9483 52.129C64.1202 53.215 67.4234 53.215 69.4596 51.9933L69.5501 51.948L69.6858 51.8575L77.4686 47.3779L77.6949 47.2422L85.4777 42.7625L85.7039 42.6268C87.8306 41.4051 89.5953 38.3734 89.5953 35.8847L89.6406 17.6494V17.3327C89.5953 16.9707 89.5048 16.4729 89.3238 16.0204ZM56.2016 21.4051L53.6677 19.9571L53.4415 19.8213L48.2831 16.7897L53.4415 19.7761L53.6677 19.9118L56.2016 21.4051Z" fill="#CEC6C1"/>
<path opacity="0.27" d="M76.6988 19.7761L76.4725 19.9118L73.8933 21.4051L81.7666 16.8802L76.6988 19.7761ZM64.5721 46.6087L64.5268 37.1969H64.5721V46.6087ZM88.3277 16.0204C87.83 14.2105 86.744 12.5815 85.2961 11.4051C85.0698 11.1788 84.7983 10.9978 84.5268 10.8168L84.3006 10.6811L76.5178 6.20144L76.2915 6.06569L68.5087 1.58605L68.2825 1.40506C66.1558 0.18334 62.6716 0.18334 60.4997 1.40506L44.4816 10.6811C44.1648 10.8621 43.8933 11.0883 43.6671 11.3146C42.1739 12.6268 41.1332 14.3915 40.7259 16.3372C40.6354 16.6992 40.5902 17.0159 40.5902 17.3779L40.5449 35.8847C40.5449 38.3281 42.2644 41.4051 44.4363 42.6268L44.6626 42.7625L52.4454 47.2422L52.6716 47.3779L60.4544 51.8575L60.6807 51.9933C60.7712 52.0385 60.8617 52.0838 60.9522 52.129C63.1241 53.215 66.4273 53.215 68.4635 51.9933L68.554 51.948L68.6897 51.8575L76.4725 47.3779L76.6988 47.2422L84.4816 42.7625L84.7078 42.6268C86.8345 41.4051 88.5992 38.3734 88.5992 35.8847L88.6445 17.6494V17.3327C88.554 16.9707 88.5087 16.4729 88.3277 16.0204ZM55.2056 21.4051L52.6716 19.9571L52.4454 19.8213L47.2418 16.7897L52.4001 19.7761L52.6264 19.9118L55.2056 21.4051Z" fill="#C7BFB9"/>
<path opacity="0.3" d="M75.705 19.7761L75.4787 19.9118L72.8995 21.4051L80.7728 16.8802L75.705 19.7761ZM63.533 46.6087L63.4878 37.1969H63.533V46.6087ZM87.3339 16.0204C86.8362 14.2105 85.7502 12.5815 84.3022 11.4051C84.076 11.1788 83.8045 10.9978 83.533 10.8168L83.3068 10.6811L75.5692 6.20144L75.343 6.06569L67.6054 1.58605L67.2887 1.40506C65.162 0.18334 61.6778 0.18334 59.5059 1.40506L43.4425 10.6811C43.1258 10.8621 42.8543 11.0883 42.628 11.3146C41.1348 12.6268 40.0941 14.3915 39.6869 16.3372C39.5964 16.6992 39.5511 17.0159 39.5511 17.3779L39.5059 35.8847C39.5059 38.3281 41.2253 41.4051 43.3973 42.6268L43.6235 42.7625L51.4063 47.2422L51.6326 47.3779L59.4154 51.8575L59.6416 51.9933C59.7321 52.0385 59.8226 52.0838 59.9131 52.129C62.085 53.215 65.3882 53.215 67.4244 51.9933L67.5149 51.948L67.6507 51.8575L75.4335 47.3779L75.6597 47.2422L83.4425 42.7625L83.6688 42.6268C85.7955 41.4051 87.5602 38.3734 87.5602 35.8847L87.6054 17.6494V17.3327C87.5602 16.9707 87.4697 16.4729 87.3339 16.0204ZM54.2117 21.4051L51.6778 19.9571L51.4516 19.8213L46.2479 16.7897L51.4063 19.7761L51.6326 19.9118L54.2117 21.4051Z" fill="#C1B8B2"/>
<path opacity="0.33" d="M74.6636 19.7761L74.4374 19.9118L71.8582 21.4051L79.7315 16.8802L74.6636 19.7761ZM62.5369 46.6087L62.4917 37.1969H62.5369V46.6087ZM86.2926 16.0204C85.7948 14.2105 84.7089 12.5815 83.2609 11.4051C83.0347 11.1788 82.7632 10.9978 82.4917 10.8168L82.2654 10.6811L74.5279 6.20144L74.3016 6.06569L66.5188 1.58605L66.2926 1.40506C64.1659 0.18334 60.6817 0.18334 58.5098 1.40506L42.4464 10.6811C42.1297 10.8621 41.8582 11.0883 41.6319 11.3146C40.1387 12.6268 39.098 14.3915 38.6908 16.3372C38.6003 16.6992 38.555 17.0159 38.555 17.3779L38.5098 35.8847C38.5098 38.3281 40.2292 41.4051 42.4012 42.6268L42.6274 42.7625L50.4102 47.2422L50.6365 47.3779L58.4645 51.9028L58.6908 52.0385C58.7813 52.0838 58.8718 52.129 58.9623 52.1743C61.1342 53.2603 64.4374 53.2603 66.4736 52.0385L66.5641 51.9933L66.6998 51.9028L74.4826 47.4232L74.7089 47.2874L82.4464 42.8078L82.6727 42.672C84.7994 41.4503 86.5641 38.4186 86.5641 35.9299L86.6093 17.6947V17.3779C86.5641 16.9707 86.4736 16.4729 86.2926 16.0204ZM53.2156 21.4051L50.6817 19.9571L50.4555 19.8213L45.2518 16.7897L50.4102 19.7761L50.6365 19.9118L53.2156 21.4051Z" fill="#BBB1AA"/>
<path opacity="0.36" d="M73.6675 19.7761L73.4413 19.9118L70.8621 21.4051L78.7354 16.8802L73.6675 19.7761ZM61.5408 46.6087L61.4956 37.1969H61.5408V46.6087ZM85.2965 16.0204C84.7987 14.2105 83.7128 12.5815 82.2648 11.4051C82.0386 11.1788 81.7671 10.9978 81.4956 10.8168L81.2693 10.6811L73.5318 6.20144L73.3055 6.06569L65.5227 1.58605L65.2965 1.40506C63.1698 0.18334 59.6856 0.18334 57.5137 1.40506L41.4503 10.6811C41.1336 10.8621 40.8621 11.0883 40.6358 11.3146C39.1426 12.6268 38.1019 14.3915 37.6947 16.3372C37.6042 16.6992 37.5589 17.0159 37.5589 17.3779L37.5137 35.8847C37.5137 38.3281 39.2331 41.4051 41.4051 42.6268L41.6313 42.7625L49.4141 47.2422L49.6404 47.3779L57.4232 51.8575L57.6494 51.9933C57.7399 52.0385 57.8304 52.0838 57.9209 52.129C60.0929 53.215 63.396 53.215 65.4775 51.9933L65.568 51.948L65.7037 51.8575L73.4865 47.3779L73.7128 47.2422L81.4956 42.7625L81.7218 42.6268C83.8485 41.4051 85.6132 38.3734 85.6132 35.8847L85.6585 17.6494V17.3327C85.568 16.9707 85.4775 16.4729 85.2965 16.0204ZM52.1743 21.4051L49.6404 19.9571L49.4141 19.8213L44.2558 16.7897L49.4141 19.7761L49.6404 19.9118L52.1743 21.4051Z" fill="#B5AAA2"/>
<path opacity="0.39" d="M72.673 19.7761L72.4468 19.9118L69.8676 21.4051L77.7409 16.8802L72.673 19.7761ZM60.5464 46.6087L60.5011 37.1969H60.5464V46.6087ZM84.302 16.0204C83.8043 14.2105 82.7183 12.5815 81.2703 11.4051C81.0441 11.1788 80.7726 10.9978 80.5011 10.8168L80.2749 10.6811L72.5373 6.20144L72.3111 6.06569L64.5283 1.58605L64.2568 1.40506C62.1301 0.18334 58.6459 0.18334 56.474 1.40506L40.4559 10.6811C40.1391 10.8621 39.8676 11.0883 39.6414 11.3146C38.1482 12.6268 37.1074 14.3915 36.7454 16.3372C36.655 16.6992 36.6097 17.0159 36.6097 17.3779L36.5645 35.8847C36.5645 38.3281 38.2839 41.4051 40.4559 42.6268L40.6821 42.7625L48.4649 47.2422L48.6912 47.3779L56.474 51.8575L56.7002 51.9933C56.7907 52.0385 56.8812 52.0838 56.9717 52.129C59.1436 53.215 62.4468 53.215 64.5283 51.9933L64.6188 51.948L64.7545 51.8575L72.5373 47.3779L72.7635 47.2422L80.5463 42.7625L80.7726 42.6268C82.8993 41.4051 84.664 38.3734 84.664 35.8847L84.7093 17.6494V17.3327C84.5735 16.9707 84.483 16.4729 84.302 16.0204ZM51.1798 21.4051L48.6459 19.9571L48.4197 19.8213L43.216 16.7897L48.3744 19.7761L48.6007 19.9118L51.1798 21.4051Z" fill="#AFA39B"/>
<path opacity="0.42" d="M71.6773 19.7761L71.451 19.9118L68.8719 21.4051L76.7452 16.8802L71.6773 19.7761ZM59.5053 46.6087L59.4601 37.1969H59.5053V46.6087ZM83.3062 16.0204C82.8085 14.2105 81.7225 12.5815 80.2746 11.4051C80.0483 11.1788 79.7768 10.9978 79.5053 10.8168L79.2791 10.6811L71.5415 6.20144L71.3153 6.06569L63.5325 1.58605L63.261 1.40506C61.1343 0.18334 57.6501 0.18334 55.4782 1.40506L39.4148 10.6811C39.0981 10.8621 38.8266 11.0883 38.6004 11.3146C37.1071 12.6268 36.0664 14.3915 35.7044 16.3372C35.6139 16.6992 35.5687 17.0159 35.5687 17.3779L35.5234 35.8847C35.5234 38.3281 37.2429 41.4051 39.4148 42.6268L39.6411 42.7625L47.4239 47.2422L47.6501 47.3779L55.4329 51.8575L55.6592 51.9933C55.7497 52.0385 55.8402 52.0838 55.9307 52.129C58.1026 53.215 61.4058 53.215 63.442 51.9933L63.5325 51.948L63.6682 51.8575L71.451 47.3779L71.6773 47.2422L79.4601 42.7625L79.6863 42.6268C81.813 41.4051 83.5777 38.3734 83.5777 35.8847L83.623 17.6494V17.3327C83.5325 16.9707 83.4872 16.4729 83.3062 16.0204ZM50.1841 21.4051L47.6501 19.9571L47.4239 19.8213L42.2203 16.7897L47.3786 19.7761L47.6049 19.9118L50.1841 21.4051Z" fill="#A89C93"/>
<path opacity="0.45" d="M70.6815 19.7761L70.4553 19.9118L67.8761 21.4051L75.7494 16.8802L70.6815 19.7761ZM58.5096 46.6087L58.4643 37.1969H58.5096V46.6087ZM82.2652 16.0204C81.7675 14.2105 80.6815 12.5815 79.2336 11.4051C79.0073 11.1788 78.7358 10.9978 78.4643 10.8168L78.2381 10.6811L70.5005 6.20144L70.2743 6.06569L62.4915 1.54081L62.2652 1.40506C60.1385 0.18334 56.6544 0.18334 54.4824 1.40506L38.4191 10.6811C38.1023 10.8621 37.8308 11.0883 37.6046 11.3146C36.1114 12.6268 35.0707 14.3915 34.6634 16.3372C34.5729 16.6992 34.5277 17.0159 34.5277 17.3779L34.4824 35.8847C34.4824 38.3281 36.2019 41.4051 38.3738 42.6268L38.6001 42.7625L46.3829 47.2422L46.6091 47.3779L54.3919 51.8575L54.6182 51.9933C54.7087 52.0385 54.7992 52.0838 54.8897 52.129C57.0616 53.215 60.3648 53.215 62.401 51.9933L62.4915 51.948L62.6272 51.8575L70.41 47.3779L70.6363 47.2422L78.4191 42.7625L78.6453 42.6268C80.772 41.4051 82.5367 38.3734 82.5367 35.8847L82.582 17.6494V17.3327C82.5367 16.9707 82.4462 16.4729 82.2652 16.0204ZM49.1883 21.4051L46.6544 19.9571L46.4281 19.8213L41.2245 16.7897L46.3829 19.7761L46.6091 19.9118L49.1883 21.4051Z" fill="#A2958B"/>
<path opacity="0.48" d="M69.6402 19.7761L69.4139 19.9118L66.8347 21.4051L74.708 16.8802L69.6402 19.7761ZM57.5135 46.6087L57.4682 37.1969H57.5135V46.6087ZM81.2691 16.0204C80.7714 14.2105 79.6854 12.5815 78.2375 11.4051C78.0112 11.1788 77.7397 10.9978 77.4682 10.8168L77.242 10.6811L69.5044 6.20144L69.2782 6.06569L61.4954 1.58605L61.2691 1.40506C59.1424 0.18334 55.6583 0.18334 53.4863 1.40506L37.423 10.6811C37.1062 10.8621 36.8347 11.0883 36.6085 11.3146C35.1153 12.6268 34.0746 14.3915 33.6673 16.3372C33.5768 16.6992 33.5316 17.0159 33.5316 17.3779L33.4863 35.8847C33.4863 38.3281 35.2058 41.4051 37.3777 42.6268L37.604 42.7625L45.3868 47.2422L45.613 47.3779L53.3958 51.8575L53.6221 51.9933C53.7126 52.0385 53.8031 52.0838 53.8936 52.129C56.0655 53.215 59.3687 53.215 61.4501 51.9933L61.5406 51.948L61.6764 51.8575L69.4592 47.3779L69.6854 47.2422L77.4682 42.7625L77.6945 42.6268C79.8212 41.4051 81.5859 38.3734 81.5859 35.8847L81.6311 17.6494V17.3327C81.5406 16.9707 81.4501 16.4729 81.2691 16.0204ZM48.147 21.4051L45.613 19.9571L45.3868 19.8213L40.2284 16.7897L45.3868 19.7761L45.613 19.9118L48.147 21.4051Z" fill="#9C8E83"/>
<path opacity="0.52" d="M68.646 19.7761L68.4198 19.9118L65.8406 21.4051L73.7139 16.8802L68.646 19.7761ZM56.5193 46.6087L56.4741 37.1969H56.5193V46.6087ZM80.275 16.0204C79.7773 14.2105 78.6913 12.5815 77.2433 11.4051C77.0171 11.1788 76.7456 10.9978 76.4741 10.8168L76.2478 10.6811L68.5103 6.20144L68.284 6.06569L60.5465 1.58605L60.275 1.40506C58.1483 0.18334 54.6641 0.18334 52.4922 1.40506L36.4288 10.6811C36.1121 10.8621 35.8406 11.0883 35.6144 11.3146C34.1211 12.6268 33.0804 14.3915 32.6732 16.3372C32.5827 16.6992 32.5374 17.0159 32.5374 17.3779L32.4922 35.8847C32.4922 38.3281 34.2116 41.4051 36.3836 42.6268L36.6098 42.7625L44.3926 47.2422L44.6189 47.3779L52.4017 51.8575L52.6279 51.9933C52.7184 52.0385 52.8089 52.0838 52.8994 52.129C55.0714 53.215 58.3745 53.215 60.4107 51.9933L60.5012 51.948L60.637 51.8575L68.4198 47.3779L68.646 47.2422L76.4288 42.7625L76.6551 42.6268C78.7818 41.4051 80.5465 38.3734 80.5465 35.8847L80.5917 17.6494V17.3327C80.5465 16.9707 80.456 16.4729 80.275 16.0204ZM47.1528 21.4051L44.6189 19.9571L44.3926 19.7761L44.6189 19.9118L47.1528 21.4051Z" fill="#96867C"/>
<path opacity="0.55" d="M67.6499 19.7761L67.4237 19.9118L64.8445 21.4051L72.7178 16.8802L67.6499 19.7761ZM55.5232 46.6087L55.478 37.1969H55.5232V46.6087ZM79.2789 16.0204C78.7812 14.2105 77.6952 12.5815 76.2472 11.4051C76.021 11.1788 75.7495 10.9978 75.478 10.8168L75.2517 10.6811L67.4689 6.20144L67.2427 6.06569L59.4599 1.58605L59.2337 1.40506C57.107 0.18334 53.6228 0.18334 51.4508 1.40506L35.4327 10.6811C35.116 10.8621 34.8445 11.0883 34.6183 11.3146C33.1251 12.6268 32.0843 14.3915 31.6771 16.3372C31.5866 16.6992 31.5413 17.0159 31.5413 17.3779L31.4961 35.8847C31.4961 38.3281 33.2155 41.4051 35.3875 42.6268L35.6137 42.7625L43.3965 47.2422L43.6228 47.3779L51.4056 51.8575L51.6318 51.9933C51.7223 52.0385 51.8128 52.0838 51.9033 52.129C54.0753 53.215 57.3784 53.215 59.4146 51.9933L59.5051 51.948L59.6409 51.8575L67.4237 47.3779L67.6499 47.2422L75.4327 42.7625L75.659 42.6268C77.7857 41.4051 79.5504 38.3734 79.5504 35.8847L79.5956 17.6494V17.3327C79.5051 16.9707 79.4599 16.4729 79.2789 16.0204ZM46.1567 21.4051L43.6228 19.9571L43.3965 19.8213L38.1929 16.7897L43.3513 19.7761L43.5775 19.9118L46.1567 21.4051Z" fill="#907F74"/>
<path opacity="0.58" d="M66.6542 19.7761L66.4279 19.9118L63.8487 21.4051L71.722 16.8802L66.6542 19.7761ZM54.4822 46.6087L54.437 37.1969H54.4822V46.6087ZM78.2831 16.0204C77.7854 14.2105 76.6994 12.5815 75.2515 11.4051C75.0252 11.1788 74.7537 10.9978 74.4822 10.8168L74.256 10.6811L66.5184 6.20144L66.2922 6.06569L58.5094 1.58605L58.2379 1.40506C56.1112 0.18334 52.627 0.18334 50.4551 1.40506L34.3917 10.6811C34.075 10.8621 33.8035 11.0883 33.5773 11.3146C32.084 12.6268 31.0433 14.3915 30.6361 16.3372C30.5456 16.6992 30.5003 17.0159 30.5003 17.3779L30.4551 35.8847C30.4551 38.3281 32.1745 41.4051 34.3465 42.6268L34.5727 42.7625L42.3555 47.2422L42.5818 47.3779L50.3646 51.8575L50.5908 51.9933C50.6813 52.0385 50.7718 52.0838 50.8623 52.129C53.0343 53.215 56.3374 53.215 58.4189 51.9933L58.5094 51.948L58.6451 51.8575L66.4279 47.3779L66.6542 47.2422L74.437 42.7625L74.6632 42.6268C76.7899 41.4051 78.5546 38.3734 78.5546 35.8847L78.5999 17.6494V17.3327C78.5094 16.9707 78.4189 16.4729 78.2831 16.0204ZM45.161 21.4051L42.627 19.9571L42.4008 19.8213L37.1972 16.7897L42.3555 19.7761L42.5818 19.9118L45.161 21.4051Z" fill="#8A786C"/>
<path opacity="0.61" d="M65.6128 19.7761L65.3866 19.9118L62.8074 21.4051L70.6807 16.8802L65.6128 19.7761ZM53.4861 46.6087L53.4409 37.1969H53.4861V46.6087ZM77.2418 16.0204C76.7441 14.2105 75.6581 12.5815 74.2101 11.4051C73.9839 11.1788 73.7124 10.9978 73.4409 10.8168L73.2146 10.6811L65.4771 6.20144L65.2508 6.06569L57.5133 1.58605L57.2418 1.40506C55.1151 0.18334 51.6309 0.18334 49.459 1.40506L33.3956 10.6811C33.0789 10.8621 32.8074 11.0883 32.5812 11.3146C31.0879 12.6268 30.0472 14.3915 29.64 16.3372C29.5495 16.6992 29.5042 17.0159 29.5042 17.3779L29.459 35.8847C29.459 38.3281 31.1784 41.4051 33.3504 42.6268L33.5766 42.7625L41.3594 47.2422L41.5857 47.3779L49.3685 51.8575L49.5947 51.9933C49.6852 52.0385 49.7757 52.0838 49.8662 52.129C52.0382 53.215 55.3413 53.215 57.4228 51.9933L57.5133 51.948L57.649 51.8575L65.4318 47.3779L65.6581 47.2422L73.4409 42.7625L73.6671 42.6268C75.7938 41.4051 77.5585 38.3734 77.5585 35.8847L77.6038 17.6494V17.3327C77.5133 16.9707 77.4228 16.4729 77.2418 16.0204ZM44.1196 21.4051L41.5857 19.9571L41.3594 19.8213L36.2011 16.7897L41.3594 19.7761L41.5857 19.9118L44.1196 21.4051Z" fill="#837164"/>
<path opacity="0.64" d="M64.6187 19.7761L64.3924 19.9118L61.8133 21.4051L69.6866 16.8802L64.6187 19.7761ZM52.492 46.6087L52.4467 37.1969H52.492V46.6087ZM76.2476 16.0204C75.7499 14.2105 74.6639 12.5815 73.216 11.4051C72.9897 11.1788 72.7182 10.9978 72.4467 10.8168L72.2205 10.6811L64.4829 6.20144L64.2567 6.06569L56.4739 1.58605L56.2476 1.40506C54.121 0.18334 50.6368 0.18334 48.4648 1.40506L32.4015 10.6811C32.0848 10.8621 31.8133 11.0883 31.587 11.3146C30.0938 12.6268 29.0531 14.3915 28.6458 16.3372C28.5553 16.6992 28.5101 17.0159 28.5101 17.3779L28.4648 35.8847C28.4648 38.3281 30.2296 41.4051 32.3562 42.6268L32.5825 42.7625L40.32 47.2422L40.5463 47.3779L48.3291 51.8575L48.5553 51.9933C48.6458 52.0385 48.7363 52.0838 48.8268 52.129C50.9988 53.215 54.3019 53.215 56.3834 51.9933L56.4739 51.948L56.6096 51.8575L64.3924 47.3779L64.6187 47.2422L72.4015 42.7625L72.6277 42.6268C74.7544 41.4051 76.5191 38.3734 76.5191 35.8847L76.5644 17.6494V17.3327C76.5191 16.9707 76.4286 16.4729 76.2476 16.0204ZM43.1255 21.4051L40.5915 19.9571L40.3653 19.8213L35.2069 16.7897L40.3653 19.7761L40.5915 19.9118L43.1255 21.4051Z" fill="#7D6A5D"/>
<path opacity="0.67" d="M63.6226 19.7761L63.3964 19.9118L60.8172 21.4051L68.6905 16.8802L63.6226 19.7761ZM51.4959 46.6087L51.4506 37.1969H51.4959V46.6087ZM75.2516 16.0204C74.7538 14.2105 73.6678 12.5815 72.2199 11.4051C71.9936 11.1788 71.7221 10.9978 71.4506 10.8168L71.2244 10.6811L63.4868 6.20144L63.2606 6.06569L55.523 1.58605L55.2063 1.40506C53.0796 0.18334 49.5954 0.18334 47.4235 1.40506L31.4054 10.6811C31.0887 10.8621 30.8172 11.0883 30.5909 11.3146C29.0977 12.6268 28.057 14.3915 27.6497 16.3372C27.5592 16.6992 27.514 17.0159 27.514 17.3779L27.4688 35.8847C27.4688 38.3281 29.1882 41.4051 31.3602 42.6268L31.5864 42.7625L39.3692 47.2422L39.5954 47.3779L47.3783 51.8575L47.6045 51.9933C47.695 52.0385 47.7855 52.0838 47.876 52.129C50.0479 53.215 53.3511 53.215 55.4326 51.9933L55.523 51.948L55.6588 51.8575L63.4416 47.3779L63.6678 47.2422L71.4506 42.7625L71.6769 42.6268C73.8036 41.4051 75.5683 38.3734 75.5683 35.8847L75.6135 17.6494V17.3327C75.523 16.9707 75.4325 16.4729 75.2516 16.0204ZM42.1294 21.4051L39.5954 19.9571L39.3692 19.8213L34.1656 16.7897L39.324 19.7761L39.5502 19.9118L42.1294 21.4051Z" fill="#776355"/>
<path opacity="0.7" d="M62.6265 19.7761L62.4003 19.9118L59.8211 21.4051L67.6944 16.8802L62.6265 19.7761ZM50.4546 46.6087L50.4093 37.1969H50.4546V46.6087ZM74.2555 16.0204C73.7577 14.2105 72.6717 12.5815 71.2238 11.4051C70.9975 11.1788 70.726 10.9978 70.4546 10.8168L70.2283 10.6811L62.4908 6.20144L62.2645 6.06569L54.4817 1.58605L54.2102 1.40506C52.0835 0.18334 48.5541 0.18334 46.4274 1.40506L30.3641 10.6811C30.0473 10.8621 29.7758 11.0883 29.5496 11.3146C28.0564 12.6268 27.0156 14.3915 26.6537 16.3372C26.5632 16.6992 26.5179 17.0159 26.5179 17.3779L26.4727 35.8847C26.4727 38.3281 28.1921 41.4051 30.3641 42.6268L30.5903 42.7625L38.3731 47.2422L38.5994 47.3779L46.3822 51.8575L46.6084 51.9933C46.6989 52.0385 46.7894 52.0838 46.8799 52.129C49.0518 53.215 52.355 53.215 54.4365 51.9933L54.527 51.948L54.6627 51.8575L62.4455 47.3779L62.6717 47.2422L70.4546 42.7625L70.6808 42.6268C72.8075 41.4051 74.5722 38.3734 74.5722 35.8847L74.6175 17.6494V17.3327C74.4817 16.9707 74.4365 16.4729 74.2555 16.0204ZM41.1333 21.4051L38.5994 19.9571L38.3731 19.8213L33.1695 16.7897L38.3279 19.7761L38.5541 19.9118L41.1333 21.4051Z" fill="#715C4D"/>
<path opacity="0.73" d="M61.5855 19.7761L61.3592 19.9118L58.7801 21.4051L66.6534 16.8802L61.5855 19.7761ZM49.4588 46.6087L49.4135 37.1969H49.4588V46.6087ZM73.2144 16.0204C72.7167 14.2105 71.6307 12.5815 70.1828 11.4051C69.9565 11.1788 69.685 10.9978 69.4135 10.8168L69.1873 10.6811L61.4497 6.20144L61.2235 6.06569L53.4407 1.54081L53.2144 1.40506C51.0877 0.18334 47.5583 0.18334 45.4316 1.40506L29.3683 10.6811C29.0516 10.8621 28.7801 11.0883 28.5538 11.3146C27.0606 12.6268 26.0199 14.3915 25.6126 16.3372C25.5221 16.6992 25.4769 17.0159 25.4769 17.3779L25.4316 35.8847C25.4316 38.3281 27.1511 41.4051 29.323 42.6268L29.5493 42.7625L37.3321 47.2422L37.5583 47.3779L45.3411 51.8575L45.5674 51.9933C45.6579 52.0385 45.7484 52.0838 45.8389 52.129C48.0108 53.215 51.314 53.215 53.3954 51.9933L53.4859 51.948L53.6217 51.8575L61.4045 47.3779L61.6307 47.2422L69.4135 42.7625L69.6398 42.6268C71.7665 41.4051 73.5312 38.3734 73.5312 35.8847L73.5764 17.6494V17.3327C73.4859 16.9707 73.3954 16.4729 73.2144 16.0204ZM40.1375 21.4051L37.6036 19.9118L37.3773 19.7761L32.1737 16.7897L37.3321 19.7761L37.5583 19.9118L40.1375 21.4051Z" fill="#6B5546"/>
<path opacity="0.76" d="M60.5913 19.7761L60.3651 19.9118L57.7859 21.4051L65.7045 16.8802L60.5913 19.7761ZM48.4646 46.6087L48.4194 37.1969H48.4646V46.6087ZM72.2203 16.0204C71.7226 14.2105 70.6366 12.5815 69.1886 11.4051C68.9624 11.1788 68.6909 10.9978 68.4194 10.8168L68.1932 10.6811L60.4556 6.20144L60.2294 6.06569L52.4465 1.58605L52.2203 1.40506C50.0936 0.18334 46.6094 0.18334 44.4375 1.40506L28.3741 10.6811C28.0574 10.8621 27.7859 11.0883 27.5597 11.3146C26.0665 12.6268 25.0257 14.3915 24.6185 16.3372C24.528 16.6992 24.4827 17.0159 24.4827 17.3779L24.4375 35.8847C24.4375 38.3281 26.157 41.4051 28.3289 42.6268L28.5551 42.7625L36.3379 47.2422L36.5642 47.3779L44.347 51.8575L44.5732 51.9933C44.6637 52.0385 44.7542 52.0838 44.8447 52.129C47.0167 53.215 50.3198 53.215 52.4013 51.9933L52.4918 51.948L52.6275 51.8575L60.4103 47.3779L60.6366 47.2422L68.4194 42.7625L68.6456 42.6268C70.7723 41.4051 72.537 38.3734 72.537 35.8847L72.5823 17.6494V17.3327C72.4918 16.9707 72.4013 16.4729 72.2203 16.0204ZM39.0981 21.4051L36.5642 19.9571L36.3379 19.8213L31.1796 16.7897L36.3379 19.7761L36.5642 19.9118L39.0981 21.4051Z" fill="#644E3E"/>
<path opacity="0.79" d="M59.5953 19.7761L59.369 19.9118L56.7898 21.4051L64.7084 16.8802L59.5953 19.7761ZM47.4686 46.6087L47.4233 37.1969H47.4686V46.6087ZM71.2242 16.0204C70.7265 14.2105 69.6405 12.5815 68.1925 11.4051C67.9663 11.1788 67.6948 10.9978 67.4233 10.8168L67.1971 10.6811L59.4595 6.20144L59.2333 6.06569L51.4957 1.58605L51.2242 1.40506C49.0975 0.18334 45.5681 0.18334 43.4414 1.40506L27.3781 10.6811C27.0613 10.8621 26.7898 11.0883 26.5636 11.3146C25.0704 12.6268 24.0296 14.3915 23.6224 16.3372C23.5319 16.6992 23.4867 17.0159 23.4867 17.3779L23.4414 35.8847C23.4414 38.3281 25.1609 41.4051 27.3328 42.6268L27.5591 42.7625L35.3419 47.2422L35.5681 47.3779L43.3509 51.8575L43.5771 51.9933C43.6676 52.0385 43.7581 52.0838 43.8486 52.129C46.0206 53.215 49.3238 53.215 51.4052 51.9933L51.4957 51.948L51.6314 51.8575L59.4143 47.3779L59.6405 47.2422L67.4233 42.7625L67.6495 42.6268C69.7762 41.4051 71.541 38.3734 71.541 35.8847L71.5862 17.6494V17.3327C71.4957 16.9707 71.4052 16.4729 71.2242 16.0204ZM38.102 21.4051L35.5681 19.9571L35.3419 19.7761L35.5681 19.9118L38.102 21.4051Z" fill="#5E4736"/>
<path opacity="0.82" d="M58.5995 19.7761L58.3732 19.9118L55.7941 21.4051L63.7126 16.8802L58.5995 19.7761ZM46.4728 46.6087L46.4275 37.1969H46.4728V46.6087ZM70.2284 16.0204C69.7307 14.2105 68.6447 12.5815 67.1968 11.4051C66.9705 11.1788 66.699 10.9978 66.4275 10.8168L66.2013 10.6811L58.4185 6.20144L58.1922 6.06569L50.4094 1.58605L50.1832 1.40506C48.0565 0.18334 44.5723 0.18334 42.4004 1.40506L26.337 10.6811C26.0203 10.8621 25.7488 11.0883 25.5226 11.3146C24.0293 12.6268 22.9886 14.3915 22.5814 16.3372C22.4909 16.6992 22.4456 17.0159 22.4456 17.3779L22.4004 35.8847C22.4004 38.3281 24.1198 41.4051 26.2918 42.6268L26.518 42.7625L34.3008 47.2422L34.5271 47.3779L42.3099 51.8575L42.5361 51.9933C42.6266 52.0385 42.7171 52.0838 42.8076 52.129C44.9796 53.215 48.2827 53.215 50.3642 51.9933L50.4547 51.948L50.5904 51.8575L58.3732 47.3779L58.5995 47.2422L66.3823 42.7625L66.6085 42.6268C68.7352 41.4051 70.4999 38.3734 70.4999 35.8847L70.5452 17.6494V17.3327C70.4547 16.9707 70.3642 16.4729 70.2284 16.0204ZM37.1063 21.4051L34.5723 19.9571L34.3461 19.8213L29.1425 16.7897L34.3461 19.7761L34.5723 19.9118L37.1063 21.4051Z" fill="#58402E"/>
<path opacity="0.85" d="M57.6053 19.7761L57.3791 19.9118L54.7999 21.4051L62.6732 16.8802L57.6053 19.7761ZM45.4334 46.6087L45.3881 37.1969H45.4334V46.6087ZM69.1891 16.0204C68.6913 14.2105 67.6053 12.5815 66.1574 11.4051C65.9311 11.1788 65.6596 10.9978 65.3881 10.8168L65.1619 10.6811L57.3791 6.20144L57.1529 6.06569L49.4153 1.58605L49.1891 1.40506C47.0624 0.18334 43.5782 0.18334 41.4062 1.40506L25.3429 10.6811C25.0262 10.8621 24.7547 11.0883 24.5284 11.3146C23.0352 12.6268 21.9945 14.3915 21.5872 16.3372C21.4967 16.6992 21.4515 17.0159 21.4515 17.3779L21.4062 35.8847C21.4062 38.3281 23.1257 41.4051 25.2977 42.6268L25.5239 42.7625L33.3067 47.2422L33.5329 47.3779L41.3157 51.8575L41.542 51.9933C41.6325 52.0385 41.723 52.0838 41.8135 52.129C43.9854 53.215 47.2886 53.215 49.37 51.9933L49.4605 51.948L49.5963 51.8575L57.3791 47.3779L57.6053 47.2422L65.3881 42.7625L65.6144 42.6268C67.7411 41.4051 69.5058 38.3734 69.5058 35.8847L69.551 17.6494V17.3327C69.4605 16.9707 69.3701 16.4729 69.1891 16.0204ZM36.1121 21.4051L33.5782 19.9571L33.3519 19.8213L28.1483 16.7897L33.3519 19.7761L33.5782 19.9118L36.1121 21.4051Z" fill="#523827"/>
<path opacity="0.88" d="M56.564 19.7761L56.3378 19.9118L53.7586 21.4051L61.6319 16.8802L56.564 19.7761ZM44.4373 46.6087L44.3921 37.1969H44.4373V46.6087ZM68.193 16.0204C67.6952 14.2105 66.6092 12.5815 65.1613 11.4051C64.935 11.1788 64.6635 10.9978 64.3921 10.8168L64.1658 10.6811L56.383 6.20144L56.1568 6.06569L48.4192 1.58605L48.193 1.40506C46.0663 0.18334 42.5821 0.18334 40.4102 1.40506L24.3468 10.6811C24.0301 10.8621 23.7586 11.0883 23.5323 11.3146C22.0391 12.6268 20.9984 14.3915 20.5912 16.3372C20.5007 16.6992 20.4554 17.0159 20.4554 17.3779L20.4102 35.8847C20.4102 38.3281 22.1296 41.4051 24.3016 42.6268L24.5278 42.7625L32.3106 47.2422L32.5369 47.3779L40.3197 51.8575L40.5459 51.9933C40.6364 52.0385 40.7269 52.0838 40.8174 52.129C42.9893 53.215 46.2925 53.215 48.374 51.9933L48.4645 51.948L48.6002 51.8575L56.383 47.3779L56.6093 47.2422L64.3921 42.7625L64.6183 42.6268C66.745 41.4051 68.5097 38.3734 68.5097 35.8847L68.555 17.6494V17.3327C68.4645 16.9707 68.374 16.4729 68.193 16.0204ZM35.0708 21.4051L32.5369 19.9571L32.3106 19.8213L27.1522 16.7897L32.3559 19.7761L32.5821 19.9118L35.0708 21.4051Z" fill="#4C311F"/>
<path opacity="0.91" d="M55.5679 19.7761L55.3417 19.9118L52.7625 21.4051L60.6358 16.8802L55.5679 19.7761ZM43.4412 46.6087L43.396 37.1969H43.4412V46.6087ZM67.1969 16.0204C66.6991 14.2105 65.6132 12.5815 64.1652 11.4051C63.9389 11.1788 63.6675 10.9978 63.396 10.8168L63.1697 10.6811L55.4322 6.20144L55.2059 6.06569L47.4231 1.58605L47.1969 1.40506C45.0249 0.18334 41.5408 0.18334 39.4141 1.40506L23.3507 10.6811C23.034 10.8621 22.7625 11.0883 22.5362 11.3146C21.043 12.6268 20.0023 14.3915 19.5951 16.3372C19.5046 16.6992 19.4593 17.0159 19.4593 17.3779L19.4141 35.8847C19.4141 38.3281 21.1335 41.4051 23.3055 42.6268L23.5317 42.7625L31.3145 47.2422L31.5408 47.3779L39.3236 51.8575L39.5498 51.9933C39.6403 52.0385 39.7308 52.0838 39.8213 52.129C41.9932 53.215 45.2964 53.215 47.3779 51.9933L47.4684 51.948L47.6041 51.8575L55.3869 47.3779L55.6132 47.2422L63.396 42.7625L63.6222 42.6268C65.7489 41.4051 67.5136 38.3734 67.5136 35.8847L67.5589 17.6494V17.3327C67.4684 16.9707 67.3779 16.4729 67.1969 16.0204ZM34.0747 21.4051L31.5408 19.9571L31.3145 19.8213L26.1109 16.7897L31.2693 19.7761L31.4955 19.9118L34.0747 21.4051Z" fill="#462A17"/>
<path opacity="0.94" d="M54.5738 19.7761L54.3475 19.9118L51.7683 21.4051L59.6416 16.8802L54.5738 19.7761ZM42.4471 46.6087L42.4018 37.1969H42.4471V46.6087ZM66.2027 16.0204C65.705 14.2105 64.619 12.5815 63.1711 11.4051C62.9448 11.1788 62.6733 10.9978 62.4018 10.8168L62.1756 10.6811L54.3928 6.20144L54.1665 6.06569L46.429 1.58605L46.1575 1.40506C44.0308 0.18334 40.5466 0.18334 38.3747 1.40506L22.3566 10.6811C22.0398 10.8621 21.7683 11.0883 21.5421 11.3146C20.0489 12.6268 19.0082 14.3915 18.6009 16.3372C18.5104 16.6992 18.4652 17.0159 18.4652 17.3779L18.4199 35.8847C18.4199 38.3281 20.1394 41.4051 22.3113 42.6268L22.5376 42.7625L30.3204 47.2422L30.5466 47.3779L38.3294 51.8575L38.5557 51.9933C38.6462 52.0385 38.7367 52.0838 38.8272 52.129C40.9991 53.215 44.3023 53.215 46.3837 51.9933L46.4742 51.948L46.61 51.8575L54.3928 47.3779L54.619 47.2422L62.4018 42.7625L62.6281 42.6268C64.7548 41.4051 66.5195 38.3734 66.5195 35.8847L66.5647 17.6494V17.3327C66.429 16.9707 66.3837 16.4729 66.2027 16.0204ZM33.0806 21.4051L30.5466 19.9571L30.3204 19.8213L25.1168 16.7897L30.2751 19.7761L30.5014 19.9118L33.0806 21.4051Z" fill="#3F230F"/>
<path opacity="0.97" d="M53.5777 19.7761L53.3514 19.9118L50.7722 21.4051L58.6455 16.8802L53.5777 19.7761ZM41.4057 46.6087L41.3605 37.1969H41.4057V46.6087ZM65.1614 16.0204C64.6636 14.2105 63.5777 12.5815 62.1297 11.4051C61.9035 11.1788 61.632 10.9978 61.3605 10.8168L61.1342 10.6811L53.3514 6.20144L53.1252 6.06569L45.3876 1.54081L45.1614 1.40506C43.0347 0.18334 39.5505 0.18334 37.3786 1.40506L21.3152 10.6811C20.9985 10.8621 20.727 11.0883 20.5008 11.3146C19.0075 12.6268 17.9668 14.3915 17.6048 16.3372C17.5143 16.6992 17.4691 17.0159 17.4691 17.3779L17.4238 35.8847C17.4238 38.3281 19.1433 41.4051 21.3152 42.6268L21.5415 42.7625L29.3243 47.2422L29.5505 47.3779L37.3333 51.8575L37.5596 51.9933C37.6501 52.0385 37.7406 52.0838 37.8311 52.129C40.003 53.215 43.3062 53.215 45.3876 51.9933L45.4781 51.948L45.6139 51.8575L53.3967 47.3779L53.6229 47.2422L61.4057 42.7625L61.632 42.6268C63.7587 41.4051 65.5234 38.3734 65.5234 35.8847L65.5686 17.6494V17.3327C65.4329 16.9707 65.3424 16.4729 65.1614 16.0204ZM32.0845 21.4051L29.5505 19.9571L29.3243 19.8213L24.1207 16.7897L29.3243 19.7761L29.5505 19.9118L32.0845 21.4051Z" fill="#391C08"/>
<path d="M52.5367 19.7761L52.3104 19.9118L49.7312 21.4051L57.6498 16.8802L52.5367 19.7761ZM40.41 46.6087L40.3647 37.1969H40.41V46.6087ZM64.1656 16.0204C63.6679 14.2105 62.5819 12.5815 61.1339 11.4051C60.9077 11.1788 60.6362 10.9978 60.3647 10.8168L60.1385 10.6811L52.3557 6.20144L52.1294 6.06569L44.3919 1.54081L44.1656 1.40506C42.0389 0.18334 38.5095 0.18334 36.3828 1.40506L20.3195 10.6811C20.0027 10.8621 19.7312 11.0883 19.505 11.3146C18.0118 12.6268 16.971 14.3915 16.5638 16.3372C16.4733 16.6992 16.4281 17.0159 16.4281 17.3779L16.3828 35.8847C16.3828 38.3281 18.1023 41.4051 20.2742 42.6268L20.5005 42.7625L28.2833 47.2422L28.5095 47.3779L36.2923 51.9028L36.5186 52.0385C36.6091 52.0838 36.6996 52.129 36.7901 52.1743C38.962 53.2603 42.2652 53.2603 44.3466 52.0385L44.4371 51.9933L44.5729 51.9028L52.3557 47.4232L52.5819 47.2874L60.3647 42.8078L60.591 42.672C62.7177 41.4503 64.4824 38.4186 64.4824 35.9299L64.5276 17.6947V17.3779C64.4371 16.9707 64.3466 16.4729 64.1656 16.0204Z" fill="#331500"/>
</g>
<path d="M44.301 52.0388C42.1291 53.3057 38.6449 53.2605 36.473 52.0388C34.301 50.817 34.3463 48.7808 36.473 47.5139C38.5997 46.2469 42.1291 46.2922 44.301 47.5139C46.473 48.7356 46.473 50.7718 44.301 52.0388ZM56.6087 13.2152C56.6087 15.7039 58.3282 18.7356 60.5001 20.0026C62.6721 21.2695 64.3915 20.2288 64.3915 17.7401C64.3915 15.2514 62.6268 12.2198 60.5001 10.9528C58.3734 9.68582 56.6087 10.7265 56.6087 13.2152ZM20.3191 19.7311C22.4911 18.5094 24.2105 15.4777 24.2105 12.989C24.2105 10.5003 22.4911 9.45958 20.3191 10.7265C18.1472 11.9935 16.4277 14.9799 16.4277 17.4686C16.4277 19.9573 18.1924 20.9528 20.3191 19.7311ZM40.4096 15.8849C34.5273 15.8849 29.7309 20.6813 29.7309 26.5636C29.7309 32.446 34.5273 37.2424 40.4096 37.2424C46.292 37.2424 51.0884 32.446 51.0884 26.5636C51.0884 20.6813 46.292 15.8849 40.4096 15.8849Z" fill="url(#paint1_radial_3165_3448)"/>
<path d="M36.2923 24.4369L28.5548 19.9121L28.3285 19.7763L20.5457 15.2967L20.3195 15.1609C18.1928 13.9392 16.4281 14.9347 16.4281 17.3781L16.3828 35.8849C16.3828 38.3283 18.1023 41.4053 20.2742 42.627L20.5005 42.7627L28.2833 47.2424L28.5095 47.3781L36.2471 51.8578L36.4733 51.9935C38.6 53.2152 40.3647 52.2198 40.3647 49.7763L40.41 31.2695C40.41 28.7808 38.6905 25.7492 36.5186 24.5274L36.2923 24.4369Z" fill="white"/>
<path d="M24.6633 23.758C24.6633 25.6132 23.3511 26.3824 21.7221 25.4322C20.0026 24.3009 18.9167 22.4457 18.8262 20.3643C18.8262 18.5091 20.1384 17.7399 21.7673 18.6901C23.4868 19.8213 24.5728 21.6765 24.6633 23.758Z" fill="#012E3E"/>
<path d="M31.3137 35.2965C31.3137 37.1517 30.0014 37.921 28.3725 36.9707C26.653 35.8395 25.5671 33.9843 25.4766 31.9029C25.4766 30.0477 26.7888 29.2784 28.4177 30.2287C30.1372 31.3599 31.2232 33.2151 31.3137 35.2965Z" fill="#012E3E"/>
<path d="M37.966 46.7897C37.966 48.6449 36.6538 49.4141 35.0248 48.4639C33.3054 47.3327 32.2194 45.4775 32.1289 43.396C32.1289 41.5408 33.4411 40.7716 35.0701 41.7218C36.7895 42.8983 37.8755 44.7535 37.966 46.7897Z" fill="#012E3E"/>
<path d="M60.3197 15.2966L52.5369 19.7762L52.3106 19.9119L44.5731 24.3916L44.3468 24.5273C42.2201 25.749 40.4554 28.7807 40.4554 31.2694L40.4102 49.8214C40.4102 52.3101 42.1296 53.3056 44.3016 52.0839L44.5278 51.9481L52.3106 47.4685L52.5369 47.3328L60.3197 42.8531L60.5459 42.7174C62.6726 41.4956 64.4373 38.464 64.4373 35.9753L64.4826 17.4233C64.4826 14.9346 62.7179 13.9391 60.5912 15.1608L60.3197 15.2966Z" fill="#D6D2D2"/>
<path d="M58.3731 30.1832C58.3731 33.9841 55.7034 38.5995 52.4003 40.4547C49.0971 42.3099 46.4727 40.8167 46.4727 37.0158C46.4727 33.2149 49.1423 28.5995 52.4455 26.7443C55.7487 24.8891 58.3731 26.3823 58.3731 30.1832Z" fill="#012E3E"/>
<path d="M60.1386 10.6811L52.3558 6.20144L52.1296 6.06569L44.392 1.54081L44.1658 1.40506C42.0391 0.18334 38.5097 0.18334 36.383 1.40506L20.3196 10.6811C18.1929 11.9028 18.1929 13.939 20.3196 15.1607L20.5459 15.2965L28.2834 19.7761L28.5097 19.9118L36.2925 24.3915L36.5187 24.5272C38.6454 25.749 42.1296 25.749 44.3015 24.5272L60.3649 15.2965C62.4916 14.0747 62.4916 12.0385 60.3649 10.8168L60.1386 10.6811Z" fill="#F2EFEF"/>
<path d="M43.26 6.97075C41.4048 7.92098 39.2328 7.92098 37.4229 6.97075C35.7939 6.02053 35.7939 4.52731 37.4229 3.62234C39.2781 2.67211 41.45 2.67211 43.26 3.62234C44.889 4.52731 44.889 6.06578 43.26 6.97075Z" fill="#012E3E"/>
<path d="M43.26 14.663C41.4048 15.6132 39.2328 15.6132 37.4229 14.663C35.7939 13.7127 35.7939 12.2195 37.4229 11.2693C39.2781 10.3191 41.45 10.3191 43.26 11.2693C44.889 12.2195 44.8437 13.758 43.26 14.663Z" fill="#012E3E"/>
<path d="M43.2151 22.3554C41.3599 23.3056 39.1879 23.3056 37.378 22.3554C35.749 21.4051 35.749 19.9119 37.378 18.9617C39.2332 18.0115 41.4051 18.0115 43.2151 18.9617C44.844 19.9119 44.844 21.4051 43.2151 22.3554Z" fill="#012E3E"/>
<path d="M50.4541 11.3146C48.8252 12.2648 48.8252 13.7581 50.4541 14.663C52.3093 15.6133 54.4813 15.6133 56.2912 14.663C57.9202 13.7128 57.9202 12.2196 56.2912 11.2694C54.4813 10.3644 52.3093 10.3644 50.4541 11.3146Z" fill="#012E3E"/>
<path d="M37.1514 11.3147C35.5224 12.2649 35.5224 13.7582 37.1514 14.7084C39.0066 15.6586 41.1786 15.6586 42.9885 14.7084C44.6175 13.7582 44.6175 12.2649 42.9885 11.3147C41.1786 10.3645 39.0066 10.3645 37.1514 11.3147Z" fill="#012E3E"/>
<path d="M23.8487 11.3148C22.2197 12.265 22.2197 13.7582 23.8487 14.7084C25.7039 15.6587 27.8758 15.6587 29.6858 14.7084C31.3147 13.7582 31.3147 12.265 29.6858 11.36C27.8758 10.4098 25.7039 10.4098 23.8487 11.3148Z" fill="#012E3E"/>
</g>
<defs>
<linearGradient id="paint0_linear_3165_3448" x1="0.5" y1="55.3469" x2="80.31" y2="55.3469" gradientUnits="userSpaceOnUse">
<stop stop-color="#734000"/>
<stop offset="0.1" stop-color="#784300"/>
<stop offset="0.3" stop-color="#7B4500"/>
<stop offset="0.55" stop-color="#6B3500"/>
<stop offset="0.74" stop-color="#652F00"/>
<stop offset="1" stop-color="#3B0800"/>
</linearGradient>
<radialGradient id="paint1_radial_3165_3448" cx="0" cy="0" r="1" gradientUnits="userSpaceOnUse" gradientTransform="translate(11.6676 10.5365) scale(61.5158 61.5158)">
<stop stop-color="#C8C8C8"/>
<stop offset="0.18" stop-color="#C2C2C2"/>
<stop offset="0.42" stop-color="#B2B2B2"/>
<stop offset="0.69" stop-color="#989898"/>
<stop offset="0.98" stop-color="#737373"/>
<stop offset="1" stop-color="#707070"/>
</radialGradient>
<clipPath id="clip0_3165_3448">
<rect width="80" height="70.2262" fill="white" transform="translate(0.5 0.5)"/>
</clipPath>
</defs>
</svg>
