<svg width="81" height="72" viewBox="0 0 81 72" fill="none" xmlns="http://www.w3.org/2000/svg">
<g clip-path="url(#clip0_3165_4133)">
<path d="M67.2574 33.3796C49.6156 23.1755 31.3844 23.1755 13.7426 33.3796C4.89909 38.459 0.5 43.6291 0.5 48.8445C0.5 54.0599 4.89909 59.1846 13.7426 64.3093C31.3844 74.5134 49.6156 74.5134 67.2574 64.3093C76.1009 59.23 80.5 54.0145 80.5 48.8445C80.5 43.6744 76.1009 38.459 67.2574 33.3796Z" fill="#949494"/>
<path d="M67.2574 56.5543C49.6156 66.7583 31.3844 66.7583 13.7426 56.5543C4.89909 51.4749 0.5 46.3048 0.5 41.1348V48.8445C0.5 54.0146 4.89909 59.1847 13.7426 64.3094C31.3844 74.5135 49.6156 74.5135 67.2574 64.3094C76.1009 59.23 80.5 54.0146 80.5 48.8445V41.1348C80.5 46.3048 76.1009 51.4749 67.2574 56.5543Z" fill="url(#paint0_linear_3165_4133)"/>
<path d="M67.2574 25.6702C49.6156 15.4661 31.3844 15.4661 13.7426 25.6702C4.89909 30.7495 0.5 35.9196 0.5 41.135C0.5 46.3504 4.89909 51.4751 13.7426 56.5999C31.3844 66.8039 49.6156 66.8039 67.2574 56.5999C76.1009 51.5205 80.5 46.3504 80.5 41.135C80.5 35.9196 76.1009 30.7495 67.2574 25.6702Z" fill="#FFDB32"/>
<mask id="mask0_3165_4133" style="mask-type:luminance" maskUnits="userSpaceOnUse" x="0" y="18" width="81" height="47">
<path d="M67.2574 25.6702C49.6156 15.4661 31.3844 15.4661 13.7426 25.6702C4.89909 30.7495 0.5 35.9196 0.5 41.135C0.5 46.3504 4.89909 51.4751 13.7426 56.5999C31.3844 66.8039 49.6156 66.8039 67.2574 56.5999C76.1009 51.5205 80.5 46.3504 80.5 41.135C80.5 35.9196 76.1009 30.7495 67.2574 25.6702Z" fill="white"/>
</mask>
<g mask="url(#mask0_3165_4133)">
<path opacity="0.03" d="M97.4171 38.0512C97.4171 36.4185 96.6915 34.7859 95.2402 33.1532V18.414L78.5055 8.75412V5.53416C78.5055 4.76319 78.0067 4.03757 77.0089 3.448C74.7414 2.31421 72.0656 2.31421 69.798 3.448C68.8003 4.03757 68.3014 4.76319 68.3014 5.53416V24.3097C64.1745 24.9899 60.1835 26.4865 56.5554 28.6181C51.1586 31.7473 48.4375 34.9219 48.4375 38.0512V40.5455C48.4375 43.7201 51.1586 46.8947 56.5554 49.9786C67.3491 56.2371 78.5055 56.2371 89.2992 49.9786C94.696 46.8494 97.4171 43.6748 97.4171 40.5455V38.0512Z" fill="#FEFCF7"/>
<path opacity="0.06" d="M96.5558 38.0512C96.5558 36.4185 95.8301 34.7859 94.3789 33.1532V18.414L77.6442 8.75412V5.53416C77.6442 4.76319 77.1453 4.03757 76.1476 3.448C73.88 2.31421 71.2043 2.31421 68.9367 3.448C67.939 4.03757 67.4401 4.76319 67.4401 5.53416V24.3097C63.3131 24.9899 59.3222 26.4865 55.6941 28.6181C50.2973 31.7473 47.5762 34.9219 47.5762 38.0512V40.5455C47.5762 43.7201 50.2973 46.8947 55.6941 49.9786C66.4877 56.2371 77.6442 56.2371 88.4832 49.9786C93.88 46.8494 96.6011 43.6748 96.6011 40.5455L96.5558 38.0512Z" fill="#FCF9F0"/>
<path opacity="0.09" d="M95.7394 38.0512C95.7394 36.4185 95.0137 34.7859 93.5625 33.1532V18.414L76.7824 8.75412V5.53416C76.7824 4.76319 76.2836 4.03757 75.2858 3.448C73.0636 2.31421 70.3425 2.31421 68.075 3.448C67.0772 4.03757 66.5784 4.76319 66.5784 5.53416V24.3097C62.4514 24.9899 58.4604 26.4865 54.8323 28.6181C49.4809 31.7473 46.7598 34.8766 46.7598 38.0512V40.5455C46.7598 43.7201 49.4809 46.8947 54.8777 49.9786C65.6713 56.2371 76.8278 56.2371 87.6215 49.9786C93.0183 46.8947 95.7394 43.7201 95.7394 40.5455V38.0512Z" fill="#FBF5E8"/>
<path opacity="0.12" d="M94.878 38.0512C94.878 36.4185 94.1524 34.7859 92.7012 33.1532V18.414L75.9665 8.75412V5.53416C75.9665 4.76319 75.4676 4.03757 74.4699 3.448C72.2023 2.31421 69.5266 2.31421 67.259 3.448C66.2612 4.03757 65.7624 4.76319 65.7624 5.53416V24.3097C61.6354 24.9899 57.6445 26.4865 54.0164 28.6181C48.6195 31.7473 45.8984 34.9219 45.8984 38.0512V40.5455C45.8984 43.7201 48.6195 46.8947 54.0164 49.9786C64.81 56.2371 75.9665 56.2371 86.7601 49.9786C92.1569 46.8494 94.878 43.6748 94.878 40.5455V38.0512Z" fill="#F9F2E0"/>
<path opacity="0.15" d="M94.0612 38.0512C94.0612 36.4185 93.3356 34.7859 91.8843 33.1532V18.414L75.1496 8.75412V5.53416C75.1496 4.76319 74.6508 4.03757 73.653 3.448C71.3855 2.31421 68.7097 2.31421 66.4421 3.448C65.4444 4.03757 64.9455 4.76319 64.9455 5.53416V24.3097C60.8186 25.0353 56.8276 26.4865 53.2449 28.6181C47.848 31.7473 45.127 34.9219 45.127 38.0512V40.5455C45.127 43.7201 47.848 46.8947 53.2449 49.9786C64.0385 56.2371 75.195 56.2371 85.9886 49.9786C91.3855 46.8494 94.1065 43.6748 94.1065 40.5455V38.0512H94.0612Z" fill="#F8EFD8"/>
<path opacity="0.18" d="M93.1983 38.0512C93.1983 36.4185 92.4727 34.7859 91.0215 33.1532V18.414L74.2868 8.75412V5.53416C74.2868 4.76319 73.7879 4.03757 72.7902 3.448C70.5226 2.31421 67.8469 2.31421 65.5793 3.448C64.5816 4.03757 64.0827 4.76319 64.0827 5.53416V24.3097C59.9557 24.9899 55.9648 26.4865 52.3367 28.6181C46.9398 31.7473 44.2188 34.9219 44.2188 38.0512V40.5455C44.2188 43.7201 46.9398 46.8947 52.3367 49.9786C63.1303 56.2371 74.2868 56.2371 85.0804 49.9786C90.4773 46.8494 93.1983 43.6748 93.1983 40.5455V38.0512Z" fill="#F7ECD1"/>
<path opacity="0.21" d="M92.337 38.0512C92.337 36.4185 91.6114 34.7859 90.1601 33.1532V18.414L73.4255 8.75412V5.53416C73.4255 4.76319 72.9266 4.03757 71.9289 3.448C69.6613 2.31421 66.9855 2.31421 64.718 3.448C63.7202 4.03757 63.2214 4.76319 63.2214 5.53416V24.3097C59.0944 24.9899 55.1035 26.4865 51.4753 28.6181C46.0785 31.7473 43.3574 34.9219 43.3574 38.0512V40.5455C43.3574 43.7201 46.0785 46.8947 51.4753 49.9786C62.269 56.2371 73.4255 56.2371 84.2191 49.9786C89.6159 46.8494 92.337 43.6748 92.337 40.5455V38.0512Z" fill="#F5E9C9"/>
<path opacity="0.24" d="M91.5206 38.0512C91.5206 36.4185 90.795 34.7859 89.3437 33.1532V18.414L72.609 8.75412V5.53416C72.609 4.76319 72.1102 4.03757 71.1124 3.448C68.8449 2.31421 66.1691 2.31421 63.9016 3.448C62.9038 4.03757 62.405 4.76319 62.405 5.53416V24.3097C58.2326 24.9899 54.287 26.4865 50.6589 28.6181C45.2621 31.7473 42.541 34.8766 42.541 38.0512V40.5455C42.541 43.7201 45.2621 46.8947 50.6589 49.9786C61.4526 56.2371 72.609 56.2371 83.4027 49.9786C88.7995 46.8494 91.5206 43.6748 91.5206 40.5455V38.0512Z" fill="#F4E6C1"/>
<path opacity="0.27" d="M90.6593 38.0512C90.6593 36.4185 89.9337 34.7859 88.4824 33.1532V18.414L71.7477 8.75412V5.53416C71.7477 4.76319 71.2489 4.03757 70.2511 3.448C67.9835 2.31421 65.3078 2.31421 63.0402 3.448C62.0425 4.03757 61.5436 4.76319 61.5436 5.53416V24.3097C57.4167 24.9899 53.4257 26.4865 49.7976 28.6181C44.4008 31.7473 41.6797 34.8766 41.6797 38.0512V40.5455C41.6797 43.7201 44.4008 46.8947 49.7976 49.9786C60.5913 56.2371 71.7477 56.2371 82.5414 49.9786C87.9382 46.8494 90.6593 43.6748 90.6593 40.5455V38.0512Z" fill="#F2E2B9"/>
<path opacity="0.3" d="M89.8429 38.051C89.8429 36.4184 89.1173 34.7857 87.666 33.153V18.4138L70.886 8.75395V5.534C70.886 4.76302 70.3871 4.0374 69.3894 3.44783C67.1218 2.26869 64.446 2.26869 62.1331 3.44783C61.1354 4.0374 60.6365 4.76302 60.6365 5.534V24.3095C56.5095 25.0351 52.5186 26.4864 48.8905 28.6179C43.539 31.7472 40.8633 34.8764 40.8633 38.051V40.5453C40.8633 43.7199 43.5844 46.8945 48.9812 49.9784C59.7748 56.2369 70.9313 56.2369 81.725 49.9784C87.1218 46.8945 89.8429 43.7199 89.8429 40.5453V38.051Z" fill="#F1DFB2"/>
<path opacity="0.33" d="M88.9815 38.0512C88.9815 36.4185 88.2559 34.7859 86.8047 33.1532V18.414L70.07 8.75412V5.53416C70.07 4.76319 69.5711 4.03757 68.5734 3.448C66.3058 2.31421 63.6301 2.31421 61.3625 3.448C60.3648 4.03757 59.8659 4.76319 59.8659 5.53416V24.3097C55.7389 24.9899 51.748 26.4865 48.1199 28.6181C42.723 31.7473 40.002 34.8766 40.002 38.0512V40.5455C40.002 43.7201 42.723 46.8947 48.1199 49.9786C58.9135 56.2371 70.07 56.2371 80.8636 49.9786C86.2605 46.8494 88.9815 43.6748 88.9815 40.5455V38.0512Z" fill="#F0DCAA"/>
<path opacity="0.36" d="M88.1202 38.0512C88.1202 36.4185 87.3946 34.7859 85.9433 33.1532V18.414L69.2087 8.75412V5.53416C69.2087 4.76319 68.7098 4.03757 67.7121 3.448C65.4445 2.31421 62.7687 2.31421 60.5012 3.448C59.5034 4.03757 59.0046 4.76319 59.0046 5.53416V24.3097C54.8776 25.0353 50.8867 26.4865 47.2585 28.6181C41.8617 31.7473 39.1406 34.8766 39.1406 38.0512V40.5455C39.1406 43.7201 41.8617 46.8947 47.2585 49.9786C58.0975 56.2371 69.2087 56.2371 80.0023 49.9786C85.3991 46.8494 88.1202 43.6748 88.1202 40.5455V38.0512Z" fill="#EED9A2"/>
<path opacity="0.39" d="M87.3038 38.0512C87.3038 36.4185 86.5782 34.7859 85.1269 33.1532V18.414L68.3922 8.75412V5.53416C68.3922 4.76319 67.8934 4.03757 66.8956 3.448C64.6281 2.31421 61.9523 2.31421 59.6848 3.448C58.687 4.03757 58.1882 4.76319 58.1882 5.53416V24.3097C54.0612 24.9899 50.0703 26.4865 46.4421 28.6181C41.0453 31.7473 38.3242 34.8766 38.3242 38.0512V40.5455C38.3242 43.7201 41.0453 46.8947 46.4421 49.9786C57.2358 56.2371 68.3922 56.2371 79.1859 49.9786C84.5827 46.8494 87.3038 43.6748 87.3038 40.5455V38.0512Z" fill="#EDD69B"/>
<path opacity="0.42" d="M86.4425 38.0512C86.4425 36.4185 85.7169 34.7859 84.2656 33.1532V18.414L67.5309 8.75412V5.53416C67.5309 4.76319 67.0321 4.03757 66.0343 3.448C63.7667 2.31421 61.091 2.31421 58.8234 3.448C57.8257 4.03757 57.3268 4.76319 57.3268 5.53416V24.3097C53.1999 24.9899 49.2089 26.4865 45.5808 28.6181C40.184 31.7473 37.4629 34.8766 37.4629 38.0512V40.5455C37.4629 43.7201 40.184 46.8947 45.5808 49.9786C56.3745 56.2371 67.5309 56.2371 78.3246 49.9786C83.7214 46.8494 86.4425 43.6748 86.4425 40.5455V38.0512Z" fill="#EBD293"/>
<path opacity="0.45" d="M85.6261 38.0512C85.6261 36.4185 84.9005 34.7859 83.4492 33.1532V18.414L66.7145 8.75412V5.53416C66.7145 4.76319 66.2156 4.03757 65.2179 3.448C62.9503 2.31421 60.2746 2.31421 58.007 3.448C57.0093 4.03757 56.5104 4.76319 56.5104 5.53416V24.3097C52.3834 24.9899 48.3925 26.4865 44.7644 28.6181C39.3676 31.7473 36.6465 34.8766 36.6465 38.0512V40.5455C36.6465 43.7201 39.3676 46.8947 44.7644 49.9786C55.5581 56.2371 66.7145 56.2371 77.5082 49.9786C82.905 46.8494 85.6261 43.6748 85.6261 40.5455V38.0512Z" fill="#EACF8B"/>
<path opacity="0.48" d="M84.7648 38.0512C84.7648 36.4185 84.0391 34.7859 82.5879 33.1532V18.414L65.8532 8.75412V5.53416C65.8532 4.76319 65.3543 4.03757 64.3566 3.448C62.089 2.31421 59.4133 2.31421 57.1457 3.448C56.148 4.03757 55.6491 4.76319 55.6491 5.53416V24.3097C51.5221 24.9899 47.5312 26.4865 43.9031 28.6181C38.5062 31.7473 35.7852 34.8766 35.7852 38.0512V40.5455C35.7852 43.7201 38.5062 46.8947 43.9031 49.9786C54.6967 56.2371 65.8532 56.2371 76.6468 49.9786C82.0437 46.8494 84.7648 43.6748 84.7648 40.5455V38.0512Z" fill="#E9CC83"/>
<path opacity="0.52" d="M83.903 38.0512C83.903 36.4185 83.1774 34.7859 81.7261 33.1532V18.414L64.9914 8.75412V5.53416C64.9914 4.76319 64.4926 4.03757 63.4948 3.448C61.2273 2.31421 58.5515 2.31421 56.2839 3.448C55.2862 4.03757 54.7873 4.76319 54.7873 5.53416V24.3097C50.6604 24.9899 46.6694 26.4865 43.0413 28.6181C37.6445 31.7473 34.9688 34.8766 34.9688 38.0512V40.5455C34.9688 43.7201 37.6898 46.8947 43.0867 49.9786C53.8803 56.2371 65.0368 56.2371 75.8304 49.9786C81.2273 46.8947 83.9483 43.7201 83.9483 40.5455L83.903 38.0512Z" fill="#E7C97C"/>
<path opacity="0.55" d="M83.0851 38.0512C83.0851 36.4185 82.3594 34.7859 80.9082 33.1532V18.414L64.1735 8.75412V5.53416C64.1735 4.76319 63.6746 4.03757 62.6769 3.448C60.4093 2.31421 57.7336 2.31421 55.466 3.448C54.4683 4.03757 53.9694 4.76319 53.9694 5.53416V24.3097C49.7971 25.0353 45.8515 26.4865 42.2234 28.6181C36.8266 31.7473 34.1055 34.8766 34.1055 38.0512V40.5455C34.1055 43.7201 36.8266 46.8947 42.2234 49.9786C53.017 56.2371 64.1735 56.2371 74.9671 49.9786C80.364 46.8494 83.0851 43.6748 83.0851 40.5455V38.0512Z" fill="#E6C674"/>
<path opacity="0.58" d="M82.2237 38.0512C82.2237 36.4185 81.4981 34.7859 80.0469 33.1532V18.414L63.3122 8.75412V5.53416C63.3122 4.76319 62.8133 4.03757 61.8156 3.448C59.548 2.31421 56.8723 2.31421 54.6047 3.448C53.607 4.03757 53.1081 4.76319 53.1081 5.53416V24.3097C48.9811 24.9899 44.9902 26.4865 41.3621 28.6181C35.9652 31.7473 33.2441 34.8766 33.2441 38.0512V40.5455C33.2441 43.7201 35.9652 46.8947 41.3621 49.9786C52.1557 56.2371 63.3122 56.2371 74.1058 49.9786C79.5027 46.8494 82.2237 43.6748 82.2237 40.5455V38.0512Z" fill="#E5C36C"/>
<path opacity="0.61" d="M81.4073 38.0512C81.4073 36.4185 80.6817 34.7859 79.2305 33.1532V18.414L62.4958 8.75412V5.53416C62.4958 4.76319 61.9969 4.03757 60.9992 3.448C58.7316 2.31421 56.0559 2.31421 53.7883 3.448C52.7905 4.03757 52.2917 4.76319 52.2917 5.53416V24.3097C48.1647 24.9899 44.1738 26.4865 40.5456 28.6181C35.1488 31.7473 32.4277 34.8766 32.4277 38.0512V40.5455C32.4277 43.7201 35.1488 46.8947 40.5456 49.9786C51.3393 56.2371 62.4958 56.2371 73.2894 49.9786C78.6862 46.8494 81.4073 43.6748 81.4073 40.5455V38.0512Z" fill="#E3BF64"/>
<path opacity="0.64" d="M80.546 38.0512C80.546 36.4185 79.8204 34.7859 78.3691 33.1532V18.414L61.6344 8.75412V5.53416C61.6344 4.76319 61.1356 4.03757 60.1378 3.448C57.8703 2.31421 55.1945 2.31421 52.927 3.448C51.9292 4.03757 51.4304 4.76319 51.4304 5.53416V24.3097C47.3034 24.9899 43.3124 26.4865 39.6843 28.6181C34.2875 31.7473 31.5664 34.8766 31.5664 38.0512V40.5455C31.5664 43.7201 34.2875 46.8947 39.6843 49.9786C50.478 56.2371 61.6344 56.2371 72.4281 49.9786C77.8249 46.8494 80.546 43.6748 80.546 40.5455V38.0512Z" fill="#E2BC5D"/>
<path opacity="0.67" d="M79.6847 38.0512C79.6847 36.4185 78.959 34.7859 77.5078 33.1532V18.414L60.7731 8.75412V5.53416C60.7731 4.76319 60.2742 4.03757 59.2765 3.448C57.0089 2.31421 54.3332 2.31421 52.0656 3.448C51.0679 4.03757 50.569 4.76319 50.569 5.53416V24.3097C46.442 24.9899 42.4511 26.4865 38.823 28.6181C33.4262 31.7473 30.7051 34.8766 30.7051 38.0512V40.5455C30.7051 43.7201 33.4262 46.8947 38.823 49.9786C49.6166 56.2371 60.7731 56.2371 71.5668 49.9786C76.9636 46.8494 79.6847 43.6748 79.6847 40.5455V38.0512Z" fill="#E0B955"/>
<path opacity="0.7" d="M78.8683 38.0512C78.8683 36.4185 78.1426 34.7859 76.6914 33.1532V18.414L59.9567 8.75412V5.53416C59.9567 4.76319 59.4578 4.03757 58.4601 3.448C56.1925 2.31421 53.5168 2.31421 51.2492 3.448C50.2515 4.03757 49.7526 4.76319 49.7526 5.53416V24.3097C45.6256 24.9899 41.6347 26.4865 38.0066 28.6181C32.6098 31.7473 29.8887 34.8766 29.8887 38.0512V40.5455C29.8887 43.7201 32.6098 46.8947 38.0066 49.9786C48.8002 56.2371 59.9567 56.2371 70.7503 49.9786C76.1472 46.8494 78.8683 43.6748 78.8683 40.5455V38.0512Z" fill="#DFB64D"/>
<path opacity="0.73" d="M78.0065 38.0512C78.0065 36.4185 77.2809 34.7859 75.8296 33.1532V18.414L59.0949 8.75412V5.53416C59.0949 4.76319 58.5961 4.03757 57.5983 3.448C55.3308 2.31421 52.655 2.31421 50.3875 3.448C49.3897 4.03757 48.8909 4.76319 48.8909 5.53416V24.3097C44.7639 24.9899 40.7729 26.4865 37.1448 28.6181C31.748 31.7473 29.0723 34.8766 29.0723 38.0512V40.5455C29.0723 43.7201 31.7934 46.8947 37.1902 49.9786C47.9838 56.2371 59.1403 56.2371 69.934 49.9786C75.3308 46.8947 78.0519 43.7201 78.0519 40.5455L78.0065 38.0512Z" fill="#DEB346"/>
<path opacity="0.76" d="M77.1905 38.0512C77.1905 36.4185 76.4649 34.7859 75.0137 33.1532V18.414L58.279 8.75412V5.53416C58.279 4.76319 57.7801 4.03757 56.7824 3.448C54.5148 2.31421 51.8391 2.31421 49.5715 3.448C48.5737 4.03757 48.0749 4.76319 48.0749 5.53416V24.3097C43.9025 25.0353 39.957 26.4865 36.3289 28.6181C30.932 31.7473 28.2109 34.8766 28.2109 38.0512V40.5455C28.2109 43.7201 30.932 46.8947 36.3289 49.9786C47.1225 56.2371 58.279 56.2371 69.0726 49.9786C74.4694 46.8494 77.1905 43.6748 77.1905 40.5455V38.0512Z" fill="#DCAF3E"/>
<path opacity="0.79" d="M76.3292 38.0512C76.3292 36.4185 75.6036 34.7859 74.1523 33.1532V18.414L57.4176 8.75412V5.53416C57.4176 4.76319 56.9188 4.03757 55.921 3.448C53.6535 2.31421 50.9777 2.31421 48.7102 3.448C47.7124 4.03757 47.2136 4.76319 47.2136 5.53416V24.3097C43.0866 24.9899 39.0956 26.4865 35.4675 28.6181C30.0707 31.7473 27.3496 34.8766 27.3496 38.0512V40.5455C27.3496 43.7201 30.0707 46.8947 35.4675 49.9786C46.2612 56.2371 57.4176 56.2371 68.2113 49.9786C73.6081 46.8494 76.3292 43.6748 76.3292 40.5455V38.0512Z" fill="#DBAC36"/>
<path opacity="0.82" d="M75.4659 38.0512C75.4659 36.4185 74.7403 34.7859 73.2891 33.1532V18.414L56.5544 8.75412V5.53416C56.5544 4.76319 56.0555 4.03757 55.0578 3.448C52.7902 2.31421 50.1144 2.31421 47.8469 3.448C46.8491 4.03757 46.3503 4.76319 46.3503 5.53416V24.3097C42.2233 25.0353 38.2324 26.4865 34.6042 28.6181C29.2074 31.7473 26.4863 34.8766 26.4863 38.0512V40.5455C26.4863 43.7201 29.2074 46.8947 34.6042 49.9786C45.3979 56.2371 56.5544 56.2371 67.348 49.9786C72.7448 46.8494 75.4659 43.6748 75.4659 40.5455V38.0512Z" fill="#D9A92E"/>
<path opacity="0.85" d="M74.6495 38.0512C74.6495 36.4185 73.9239 34.7859 72.4726 33.1532V18.414L55.738 8.75412V5.53416C55.738 4.76319 55.2391 4.03757 54.2414 3.448C51.9738 2.31421 49.298 2.31421 47.0305 3.448C46.0327 4.03757 45.5339 4.76319 45.5339 5.53416V24.3097C41.4069 24.9899 37.416 26.4865 33.7878 28.6181C28.391 31.7473 25.6699 34.8766 25.6699 38.0512V40.5455C25.6699 43.7201 28.391 46.8947 33.7878 49.9786C44.5815 56.2371 55.738 56.2371 66.5316 49.9786C71.9284 46.8494 74.6495 43.6748 74.6495 40.5455V38.0512Z" fill="#D8A627"/>
<path opacity="0.88" d="M73.7882 38.0512C73.7882 36.4185 73.0626 34.7859 71.6113 33.1532V18.414L54.8766 8.75412V5.53416C54.8766 4.76319 54.3778 4.03757 53.38 3.448C51.1124 2.31421 48.4367 2.31421 46.1691 3.448C45.1714 4.03757 44.6725 4.76319 44.6725 5.53416V24.3097C40.5456 24.9899 36.5546 26.4865 32.9265 28.6181C27.5297 31.7473 24.8086 34.8766 24.8086 38.0512V40.5455C24.8086 43.7201 27.5297 46.8947 32.9265 49.9786C43.7202 56.2371 54.8766 56.2371 65.6703 49.9786C71.0671 46.8494 73.7882 43.6748 73.7882 40.5455V38.0512Z" fill="#D7A31F"/>
<path opacity="0.91" d="M72.9718 38.0512C72.9718 36.4185 72.2462 34.7859 70.7949 33.1532V18.414L54.0602 8.75412V5.53416C54.0602 4.76319 53.5614 4.03757 52.5636 3.448C50.296 2.31421 47.6203 2.31421 45.3527 3.448C44.355 4.03757 43.8561 4.76319 43.8561 5.53416V24.3097C39.7292 24.9899 35.7382 26.4865 32.1101 28.6181C26.7133 31.7473 23.9922 34.8766 23.9922 38.0512V40.5455C23.9922 43.7201 26.7133 46.8947 32.1101 49.9786C42.9038 56.2371 54.0602 56.2371 64.8539 49.9786C70.2507 46.8494 72.9718 43.6748 72.9718 40.5455V38.0512Z" fill="#D5A017"/>
<path opacity="0.94" d="M72.1104 38.0512C72.1104 36.4185 71.3848 34.7859 69.9336 33.1532V18.414L53.1989 8.75412V5.53416C53.1989 4.76319 52.7 4.03757 51.7023 3.448C49.4347 2.31421 46.759 2.31421 44.4914 3.448C43.4937 4.03757 42.9948 4.76319 42.9948 5.53416V24.3097C38.8678 24.9899 34.8769 26.4865 31.2488 28.6181C25.8519 31.7473 23.1309 34.8766 23.1309 38.0512V40.5455C23.1309 43.7201 25.8519 46.8947 31.2488 49.9786C42.0424 56.2371 53.1989 56.2371 63.9925 49.9786C69.3894 46.8494 72.1104 43.6748 72.1104 40.5455V38.0512Z" fill="#D49C0F"/>
<path opacity="0.97" d="M71.2487 38.0512C71.2487 36.4185 70.5231 34.7859 69.0718 33.1532V18.414L52.3371 8.75412V5.53416C52.3371 4.76319 51.8383 4.03757 50.8405 3.448C48.573 2.31421 45.8972 2.31421 43.6296 3.448C42.6319 4.03757 42.133 4.76319 42.133 5.53416V24.3097C38.0061 24.9899 34.0151 26.4865 30.387 28.6181C24.9902 31.7473 22.3145 34.8766 22.3145 38.0512V40.5455C22.3145 43.7201 25.0355 46.8947 30.4324 49.9786C41.226 56.2371 52.3825 56.2371 63.1761 49.9786C68.573 46.8494 71.2487 43.6748 71.2487 40.5455V38.0512Z" fill="#D29908"/>
<path d="M70.4327 38.0512C70.4327 36.4185 69.7071 34.7859 68.2558 33.1532V18.414L51.5212 8.75412V5.53416C51.5212 4.76319 51.0223 4.03757 50.0246 3.448C47.757 2.31421 45.0812 2.31421 42.8137 3.448C41.8159 4.03757 41.3171 4.76319 41.3171 5.53416V24.3097C37.1901 24.9899 33.1992 26.4865 29.571 28.6181C24.1742 31.7473 21.4531 34.8766 21.4531 38.0512V40.5455C21.4531 43.7201 24.1742 46.8947 29.571 49.9786C40.3647 56.2371 51.5212 56.2371 62.3148 49.9786C67.7116 46.8494 70.4327 43.6748 70.4327 40.5455V38.0512Z" fill="#D19600"/>
</g>
<path d="M45.807 18.7311L45.8524 19.0032L45.8977 19.23L45.9431 19.4567V19.7288L45.9884 20.0009V20.2277V20.4998V20.7719V21.3161L45.9431 21.8603L45.8977 22.4046L45.807 22.9488L45.7163 23.493L45.5803 24.0372L45.4896 24.6268L45.3082 25.171L45.1268 25.7152L44.9454 26.2594L44.7186 26.8037L44.4918 27.3932L44.2651 27.9374L43.993 28.4363L43.7209 28.9805L43.4034 29.5247L42.8138 30.5225L42.1336 31.5202L41.3626 32.4726L40.5916 33.3343L40.4556 33.5157L35.739 30.7946L31.476 36.6903V36.7356H31.4306L24.9453 45.8059L23.0859 48.3456L30.841 52.8354L32.6551 50.2957L39.1857 41.2254V41.1801H39.2311L40.5009 39.4114L43.6302 41.2254L43.6755 41.2708H43.7662L43.8569 41.2254L43.9476 41.1801L44.9 40.6359L45.807 40.0463L46.6687 39.366L47.5304 38.6404L48.3467 37.8241L49.1177 36.917L49.8433 36.01L50.5236 35.0123L51.1585 33.9692L51.4306 33.4703L51.7481 32.9261L51.9748 32.3819L52.2469 31.8377L52.4737 31.2935L52.7005 30.7492L52.8819 30.205L53.0633 29.6154L53.1993 29.0712L53.3354 28.527L53.4714 27.9828L53.5621 27.3932L53.6528 26.849L53.6982 26.3048L53.7435 25.8059V25.2617V24.9896V24.7175L53.6982 24.4454V24.2186L53.6528 23.9465V23.6744L53.6075 23.4476L53.5621 23.2209L53.5168 23.0395L53.4714 22.8581L53.4261 22.6767L53.3807 22.4953L53.29 22.3139L53.2447 22.1325L53.1993 21.9964L53.1086 21.815L59.1404 13.4703L51.3853 9.02588L45.3535 17.3706L45.4442 17.5066L45.4896 17.688L45.5803 17.8694L45.6256 18.0055L45.671 18.1869L45.7163 18.3683L45.7617 18.5497L45.807 18.7311Z" fill="#943B3B"/>
<path d="M59.0947 13.4707L53.1083 21.8154C53.2897 22.2689 53.4257 22.7224 53.5164 23.2213C53.6525 23.9015 53.6978 24.5818 53.6978 25.2621C53.6978 28.0739 52.7001 31.2031 51.1128 34.0149C49.5255 36.8267 47.3033 39.2303 44.8543 40.6816L43.9019 41.2258C43.6298 41.3619 43.4031 41.2712 43.4031 40.9537V35.2394L39.14 41.1805L39.0947 41.2258L32.6094 50.2507L30.75 52.7904L43.4031 55.7836V50.3415C43.4031 50.024 43.5845 49.7065 43.9019 49.5251L43.9473 49.4798L44.8543 48.9809C49.2988 46.3959 53.335 41.9968 56.2375 36.9174C59.14 31.8381 60.9541 26.1691 60.9541 21.0444C60.9541 19.5478 60.7727 18.0512 60.4099 16.6C60.1378 15.5115 59.7296 14.4684 59.0947 13.4707Z" fill="#E74C3C"/>
<path d="M59.0947 13.4707L53.1083 21.8154C53.2897 22.2689 53.4257 22.7224 53.5164 23.2213C53.6525 23.9015 53.6978 24.5818 53.6978 25.2621C53.6978 28.0739 52.7001 31.2031 51.1128 34.0149C49.5255 36.8267 47.3033 39.2303 44.8543 40.6816L43.9019 41.2258C43.6298 41.3619 43.4031 41.2712 43.4031 40.9537V35.2394L39.14 41.1805L39.0947 41.2258L32.6094 50.2507L30.75 52.7904L43.4031 55.7836V50.3415C43.4031 50.024 43.5845 49.7065 43.9019 49.5251L43.9473 49.4798L44.8543 48.9809C49.2988 46.3959 53.335 41.9968 56.2375 36.9174C59.14 31.8381 60.9541 26.1691 60.9541 21.0444C60.9541 19.5478 60.7727 18.0512 60.4099 16.6C60.1378 15.5115 59.7296 14.4684 59.0947 13.4707Z" fill="#E74C3C"/>
<path d="M30.841 52.8357L43.4941 35.2394L35.739 30.7949L23.0859 48.3459L30.841 52.8357Z" fill="#BF4A3D"/>
<path d="M53.1086 21.815L59.1404 13.4703L51.3853 9.02588L45.3535 17.3706L53.1086 21.815Z" fill="#BF4A3D"/>
<path d="M45.7146 11.2483L45.8053 11.2029L45.896 11.1122L45.9867 11.0215L46.0774 10.9308L46.1228 10.7948L46.1681 10.6587L46.2135 10.5227V10.3866V4.94444L58.8665 7.93764L51.1114 3.44785L38.4584 0.5V5.94218V6.07823L38.413 6.21429L38.3677 6.35034L38.3223 6.39569L38.2316 6.48639L38.1409 6.5771L38.0502 6.6678L37.9595 6.71315H37.9141L37.0071 7.21202L36.1908 7.71088L35.3745 8.2551L34.5581 8.84467L33.7872 9.5703L33.0162 10.2506L32.2452 10.9308L31.5196 11.6565L30.794 12.4274L30.0683 13.1984L29.3881 14.0147L28.7078 14.8764L28.0729 15.7381L27.438 16.6451L26.8484 17.5522L26.2588 18.4592L25.7146 19.4116L25.1704 20.3639L24.6715 21.3163L24.218 22.3141L23.7645 23.3118L23.3563 24.3095L22.9482 25.3073L22.5853 26.305L22.2225 27.2574L21.9504 28.2551L21.6783 29.2528L21.4516 30.2506L21.2702 31.2483L21.1341 32.246L21.0434 33.2438L20.998 34.2415V35.1939V35.7834V36.373L21.0434 36.9626L21.0888 37.5522L21.1341 38.1417L21.2248 38.6859L21.3155 39.1848L21.4516 39.6837L21.5876 40.1372L21.7237 40.5454L21.8597 40.9535L21.9958 41.3617L22.1772 41.7698L22.3586 42.1327L22.54 42.4955L22.7668 42.8583L30.5219 47.3481C30.4765 47.2574 30.3858 47.1213 30.3405 47.0306V46.9853V46.9399C30.2951 46.8039 30.2044 46.7132 30.159 46.6224C30.1137 46.5317 30.023 46.3957 29.9776 46.2596C29.8416 46.0329 29.7509 45.7608 29.6602 45.534V45.4887V45.4433C29.6148 45.3073 29.5695 45.2166 29.5241 45.0805V45.0351V44.9898L29.3881 44.627V44.5816C29.3427 44.4456 29.2974 44.3095 29.2974 44.1735V44.1281V44.0828C29.2067 43.7653 29.1613 43.4478 29.0706 43.085C29.0253 42.949 29.0253 42.7676 28.9799 42.5862V42.5408C28.9346 42.3594 28.9346 42.178 28.8892 42.042V41.9966C28.8892 41.8152 28.8439 41.6338 28.8439 41.4977V41.4524C28.8439 41.271 28.7985 41.0896 28.7985 40.9082V40.8628C28.7985 40.6814 28.7985 40.5 28.7985 40.2732C28.7985 40.0918 28.7985 39.8651 28.7985 39.6837C28.7985 39.3662 28.7985 39.0488 28.7985 38.7313V38.6859C28.7985 38.3685 28.8439 38.051 28.8439 37.7336C28.8892 37.0986 28.9799 36.4184 29.0706 35.7381C29.1613 35.0578 29.2974 34.4229 29.4788 33.7426C29.5695 33.4252 29.6148 33.1077 29.7055 32.7449V32.6995C29.7962 32.3821 29.8869 32.0646 29.9776 31.7472V31.7018C30.0683 31.3844 30.159 31.0669 30.2951 30.7041C30.3858 30.3866 30.5219 30.0692 30.6579 29.7517V29.7064V29.661C30.794 29.3435 30.8847 29.0261 31.0207 28.7086V28.6633C31.1568 28.3458 31.2928 28.0283 31.4289 27.7109C31.7463 27.0306 32.0185 26.3957 32.3359 25.7608C32.472 25.4433 32.6534 25.1259 32.8348 24.8537V24.8084V24.763C33.0162 24.4456 33.1522 24.1735 33.3336 23.856C33.5151 23.5385 33.6965 23.2664 33.8779 22.949C34.0593 22.6315 34.2407 22.3594 34.4221 22.0873V22.042V21.9966C34.8302 21.407 35.1931 20.8175 35.6466 20.2732C35.8733 20.0011 36.0547 19.6837 36.2815 19.4116C36.5083 19.1395 36.735 18.8673 36.9618 18.5952C39.0933 15.9195 41.7237 13.6519 44.6262 11.8832L45.5332 11.3844H45.5785L45.7146 11.2483Z" fill="#27AE60"/>
<path d="M46.215 19.8653V19.7746L46.1697 19.6839L46.1243 19.5932L46.079 19.5479C45.9883 19.5025 45.8522 19.5025 45.7162 19.5932L44.7638 20.1374C43.5393 20.863 42.4509 21.7701 41.4531 22.8132L46.1697 25.5343C46.215 25.5343 46.215 19.8653 46.215 19.8653Z" fill="#2A9155"/>
<path d="M30.568 47.3026L36.5544 38.9579C36.373 38.5044 36.2369 38.0509 36.1462 37.552C36.0101 36.8718 35.9648 36.1915 35.9648 35.5112C35.9648 32.6994 36.9625 29.5702 38.5498 26.7584C40.1371 23.9466 42.3593 21.543 44.8083 20.0917L45.7607 19.5475C46.0328 19.4115 46.2596 19.5022 46.2596 19.8196V25.4886L50.5226 19.5475L50.568 19.5022L57.0532 10.4772L58.9126 7.93753L46.2596 4.94434V10.3865C46.2596 10.704 46.0782 11.0214 45.7607 11.2028H45.7154L44.8083 11.7017C40.3639 14.2867 36.373 18.7312 33.4705 23.7652C30.568 28.7992 28.7539 34.5135 28.7539 39.6382C28.7539 41.1348 28.9353 42.6314 29.2981 44.0827C29.5249 45.2618 29.9784 46.3502 30.568 47.3026Z" fill="#34CF75"/>
<path d="M45.8059 11.2029L45.8966 11.1122L45.9873 11.0215L46.0326 10.8855L46.1233 10.7948L46.1687 10.6587V10.568L46.214 10.432V4.9898L38.4589 0.5V5.94218V6.07823L38.4136 6.21429L38.3682 6.30499L38.3229 6.44104L38.2322 6.53175L38.1415 6.62245L38.0508 6.71315L45.8059 11.2029Z" fill="#2A9155"/>
</g>
<defs>
<linearGradient id="paint0_linear_3165_4133" x1="0.5" y1="56.514" x2="80.4909" y2="56.514" gradientUnits="userSpaceOnUse">
<stop stop-color="#FFED44"/>
<stop offset="0.07" stop-color="#FFF047"/>
<stop offset="0.3" stop-color="#FFF24A"/>
<stop offset="0.55" stop-color="#FFE23A"/>
<stop offset="0.74" stop-color="#FFDC34"/>
<stop offset="1" stop-color="#F9B519"/>
</linearGradient>
<clipPath id="clip0_3165_4133">
<rect width="80" height="71.4286" fill="white" transform="translate(0.5 0.5)"/>
</clipPath>
</defs>
</svg>
