<svg width="81" height="76" viewBox="0 0 81 76" fill="none" xmlns="http://www.w3.org/2000/svg">
<g clip-path="url(#clip0_3165_3576)">
<path d="M67.2574 37.28C49.6156 27.0759 31.3844 27.0759 13.7426 37.28C4.89909 42.4047 0.5 47.5748 0.5 52.7449C0.5 57.9149 4.89909 63.085 13.7426 68.2097C31.3844 78.4138 49.6156 78.4138 67.2574 68.2097C76.1009 63.1304 80.5 57.9149 80.5 52.7449C80.5 47.5748 76.1009 42.4047 67.2574 37.28Z" fill="#949494"/>
<path d="M67.2574 60.5C49.6156 70.7041 31.3844 70.7041 13.7426 60.5C4.89909 55.3753 0.5 50.2052 0.5 45.0352V52.7449C0.5 57.915 4.89909 63.085 13.7426 68.2098C31.3844 78.4138 49.6156 78.4138 67.2574 68.2098C76.1009 63.085 80.5 57.915 80.5 52.7449V45.0352C80.5 50.2052 76.1009 55.3753 67.2574 60.5Z" fill="url(#paint0_linear_3165_3576)"/>
<path d="M67.2574 29.5705C49.6156 19.3665 31.3844 19.3665 13.7426 29.5705C4.89909 34.6953 0.5 39.8653 0.5 45.0354C0.5 50.2055 4.89909 55.3755 13.7426 60.5003C31.3844 70.7043 49.6156 70.7043 67.2574 60.5003C76.1009 55.3755 80.5 50.2055 80.5 45.0354C80.5 39.8653 76.1009 34.6953 67.2574 29.5705Z" fill="#ABC700"/>
<mask id="mask0_3165_3576" style="mask-type:luminance" maskUnits="userSpaceOnUse" x="0" y="21" width="81" height="48">
<path d="M67.2574 29.5705C49.6156 19.3665 31.3844 19.3665 13.7426 29.5705C4.89909 34.6953 0.5 39.8653 0.5 45.0354C0.5 50.2055 4.89909 55.3755 13.7426 60.5003C31.3844 70.7043 49.6156 70.7043 67.2574 60.5003C76.1009 55.3755 80.5 50.2055 80.5 45.0354C80.5 39.8653 76.1009 34.6953 67.2574 29.5705Z" fill="white"/>
</mask>
<g mask="url(#mask0_3165_3576)">
<path opacity="0.03" d="M89.1625 32.1101C88.4368 31.7019 87.6659 31.2937 86.9402 30.9309L89.616 29.389C90.3416 28.9808 90.6137 28.1191 90.3869 27.3482C90.0695 26.2597 89.3892 25.3527 88.4368 24.7178L84.2645 21.5885C82.7225 20.4547 80.8631 17.8244 80.1829 15.8289L78.3235 10.3867C77.6885 8.57265 76.9176 7.89238 76.464 7.66562C76.1012 7.43887 75.6477 7.39352 75.2396 7.62027L67.8473 11.838C67.7112 11.9287 67.6205 12.0194 67.5298 12.1101L64.5366 10.8856C63.7656 10.5681 63.2668 10.6135 62.9947 10.7949L55.6024 15.0579C55.421 15.194 55.2849 15.33 55.1942 15.5568C55.0581 15.9649 55.0128 16.872 56.0105 18.55L59.0491 23.72C60.1375 25.5795 60.8178 28.4366 60.591 30.0239C59.1398 30.6135 57.7792 31.3391 56.4187 32.1101C51.0219 35.2393 48.3008 38.4139 48.3008 41.5432V44.0375C48.3008 47.2121 51.0219 50.3867 56.4187 53.4706C67.2123 59.7291 78.3688 59.7291 89.1625 53.4706C94.5593 50.3414 97.2804 47.1668 97.2804 44.0375V41.5432C97.235 38.4139 94.5593 35.2393 89.1625 32.1101Z" fill="#FBFCF7"/>
<path opacity="0.06" d="M88.1191 32.1101C87.3934 31.7019 86.6225 31.2937 85.8968 30.9309L88.5726 29.389C89.2982 28.9808 89.5703 28.1191 89.3436 27.3482C89.0261 26.2597 88.3458 25.3527 87.3934 24.7178L83.2211 21.5885C81.6792 20.4547 79.8197 17.8244 79.1395 15.8289L77.2801 10.3867C76.6451 8.57265 75.8742 7.89238 75.4207 7.66562C75.0578 7.43887 74.6043 7.39352 74.1962 7.62027L66.8492 11.838C66.7132 11.9287 66.6225 12.0194 66.5318 12.1101L63.5386 10.8856C62.7676 10.5681 62.2687 10.6135 61.9966 10.7949L54.6043 15.0579C54.4229 15.194 54.2869 15.33 54.1962 15.5568C54.0601 15.9649 54.0148 16.872 55.0125 18.55L58.051 23.72C59.1395 25.5795 59.8197 28.4366 59.593 30.0239C58.1417 30.6135 56.7812 31.3391 55.4206 32.1101C50.0238 35.2393 47.3027 38.4139 47.3027 41.5432V44.0375C47.3027 47.2121 50.0238 50.3867 55.4206 53.4706C66.2143 59.7291 77.3708 59.7291 88.1644 53.4706C93.5612 50.3414 96.2823 47.1668 96.2823 44.0375V41.5432C96.237 38.4139 93.5159 35.2393 88.1191 32.1101Z" fill="#F7F9F0"/>
<path opacity="0.09" d="M87.1214 32.1101C86.3958 31.7019 85.6248 31.2937 84.8992 30.9309L87.575 29.389C88.3006 28.9808 88.5727 28.1191 88.3459 27.3482C88.0285 26.2597 87.3482 25.3527 86.3958 24.7178L82.2235 21.5885C80.6815 20.4547 78.8221 17.8244 78.1419 15.8289L76.2824 10.3867C75.6475 8.57265 74.8765 7.89238 74.423 7.66562C74.0602 7.43887 73.6067 7.39352 73.1985 7.62027L65.8063 11.838C65.6702 11.9287 65.5795 12.0194 65.4888 12.1101L62.4956 10.8856C61.7246 10.5681 61.2258 10.6135 60.9536 10.7949L53.5614 15.0579C53.3799 15.194 53.2439 15.33 53.1532 15.5568C53.0171 15.9649 52.9718 16.872 53.9695 18.55L57.0081 23.72C58.0965 25.5795 58.7768 28.4366 58.55 30.0239C57.0988 30.6135 55.7382 31.3391 54.3777 32.1101C48.9809 35.2393 46.2598 38.4139 46.2598 41.5432V44.0375C46.2598 47.2121 48.9809 50.3867 54.3777 53.4706C65.1713 59.6838 76.3278 59.6838 87.1214 53.4706C92.5183 50.3414 95.2394 47.1668 95.2394 44.0375V41.5432C95.2394 38.4139 92.5183 35.2393 87.1214 32.1101Z" fill="#F4F6E8"/>
<path opacity="0.12" d="M86.123 32.1101C85.3973 31.7019 84.6264 31.2937 83.9007 30.9309L86.5765 29.389C87.3021 28.9808 87.5742 28.1191 87.3475 27.3482C87.03 26.2597 86.3497 25.3527 85.3973 24.7178L81.225 21.5885C79.6831 20.4547 77.8236 17.8244 77.1434 15.8289L75.284 10.3867C74.649 8.57265 73.8781 7.89238 73.4246 7.66562C73.0617 7.43887 72.6082 7.39352 72.2001 7.62027L64.8078 11.838C64.6717 11.9287 64.581 12.0194 64.4903 12.1101L61.4971 10.8856C60.7261 10.5681 60.2273 10.6135 59.9552 10.7949L52.5629 15.0579C52.3815 15.194 52.2454 15.33 52.1547 15.5568C52.0187 15.9649 51.9733 16.872 52.971 18.55L56.0096 23.72C57.098 25.5795 57.7783 28.4366 57.5515 30.0239C56.1003 30.6135 54.7397 31.3391 53.3792 32.1101C47.9824 35.2393 45.3066 38.4139 45.3066 41.5885V44.0829C45.3066 47.2575 48.0277 50.4321 53.4246 53.516C64.2182 59.7291 75.3747 59.7291 86.1683 53.516C91.5651 50.3867 94.2862 47.2121 94.2862 44.0829V41.5885C94.2409 38.4139 91.5198 35.2393 86.123 32.1101Z" fill="#F0F3E0"/>
<path opacity="0.15" d="M85.1249 32.1101C84.3993 31.7019 83.6283 31.2937 82.9027 30.9309L85.5784 29.389C86.3041 28.9808 86.5762 28.1191 86.3494 27.3482C86.032 26.2597 85.3517 25.3527 84.3993 24.7178L80.227 21.5885C78.685 20.4547 76.8256 17.8244 76.1453 15.8289L74.2859 10.3867C73.651 8.57265 72.88 7.89238 72.4265 7.66562C72.0637 7.43887 71.6102 7.39352 71.202 7.62027L63.8097 11.838C63.6737 11.9287 63.583 12.0194 63.4923 12.1101L60.4991 10.8856C59.7281 10.5681 59.2292 10.6135 58.9571 10.7949L51.5648 15.0579C51.3834 15.194 51.2474 15.33 51.1567 15.5568C51.0206 15.9649 50.9753 16.872 51.973 18.55L55.0115 23.72C56.1 25.5795 56.7802 28.4366 56.5535 30.0239C55.1022 30.6135 53.7417 31.3391 52.3812 32.1101C46.9843 35.2393 44.3086 38.4139 44.3086 41.5885V44.0829C44.3086 47.2575 47.0297 50.4321 52.4265 53.516C63.2202 59.7291 74.3766 59.7291 85.1703 53.516C90.5671 50.3867 93.2882 47.2121 93.2882 44.0829V41.5885C93.1975 38.4139 90.5217 35.2393 85.1249 32.1101Z" fill="#ECF0D8"/>
<path opacity="0.18" d="M84.082 32.1101C83.3563 31.7019 82.5854 31.2937 81.8597 30.9309L84.5355 29.389C85.2157 28.9808 85.5332 28.1191 85.2611 27.3482C84.9436 26.2597 84.2634 25.3527 83.311 24.7178L79.1386 21.5885C77.5967 20.4547 75.7373 17.8244 75.057 15.8289L73.1976 10.3867C72.5627 8.57265 71.7917 7.89238 71.3382 7.66562C70.9754 7.43887 70.5219 7.39352 70.1137 7.62027L62.8121 11.838C62.6761 11.9287 62.5854 12.0194 62.4946 12.1101L59.5015 10.8856C58.7305 10.5681 58.2316 10.6135 57.9595 10.7949L50.5672 15.0579C50.3858 15.194 50.2498 15.33 50.159 15.5568C50.023 15.9649 49.9776 16.872 50.9754 18.55L54.0139 23.72C55.1024 25.5795 55.7826 28.4366 55.5559 30.0239C54.1046 30.6135 52.7441 31.3391 51.3835 32.1101C45.9867 35.2393 43.2656 38.4139 43.2656 41.5432V44.0375C43.2656 47.2121 45.9867 50.3867 51.3835 53.4706C62.1772 59.6838 73.3337 59.6838 84.1273 53.4706C89.5241 50.3414 92.2452 47.1668 92.2452 44.0375V41.5432C92.1999 38.4139 89.5241 35.2393 84.082 32.1101Z" fill="#E8ECD1"/>
<path opacity="0.21" d="M83.0843 32.1101C82.3587 31.7019 81.5877 31.2937 80.8621 30.9309L83.5379 29.389C84.2635 28.9808 84.5356 28.1191 84.3088 27.3482C83.9914 26.2597 83.3111 25.3527 82.3587 24.7178L78.1864 21.5885C76.6444 20.4547 74.785 17.8244 74.1047 15.8289L72.2453 10.3867C71.6104 8.57265 70.8394 7.89238 70.3859 7.66562C70.0231 7.43887 69.5696 7.39352 69.1614 7.62027L61.7691 11.838C61.6331 11.9287 61.5424 12.0194 61.4517 12.1101L58.4585 10.8856C57.6875 10.5681 57.1886 10.6135 56.9165 10.7949L49.5242 15.0579C49.3428 15.194 49.2068 15.33 49.1161 15.5568C48.98 15.9649 48.9347 16.872 49.9324 18.55L52.971 23.72C54.0594 25.5795 54.7397 28.4366 54.5129 30.0239C53.0617 30.6135 51.7011 31.3391 50.3406 32.1101C44.9437 35.2393 42.2227 38.4139 42.2227 41.5885V44.0829C42.2227 47.2575 44.9437 50.4321 50.3406 53.516C61.1342 59.7291 72.2907 59.7291 83.0843 53.516C88.4812 50.3867 91.2023 47.2575 91.2023 44.0829V41.5885C91.2023 38.4139 88.4812 35.2393 83.0843 32.1101Z" fill="#E5E9C9"/>
<path opacity="0.24" d="M82.0863 32.1101C81.3607 31.7019 80.5897 31.2937 79.8641 30.9309L82.5398 29.389C83.2654 28.9808 83.5375 28.1191 83.3108 27.3482C82.9933 26.2597 82.313 25.3527 81.3607 24.7178L77.1883 21.5885C75.6464 20.4547 73.787 17.8244 73.1067 15.8289L71.2473 10.3867C70.6124 8.57265 69.8414 7.89238 69.3879 7.66562C69.0251 7.43887 68.5715 7.39352 68.1634 7.62027L60.7711 11.838C60.635 11.9287 60.5443 12.0194 60.4536 12.1101L57.4604 10.8856C56.6895 10.5681 56.1906 10.6135 55.9185 10.7949L48.5262 15.0579C48.3448 15.194 48.2087 15.33 48.118 15.5568C47.982 15.9649 47.9366 16.872 48.9344 18.55L51.9729 23.72C53.0613 25.5795 53.7416 28.4366 53.5149 30.0239C52.0636 30.6135 50.7031 31.3391 49.3425 32.1101C43.9457 35.2393 41.2246 38.4139 41.2246 41.5885V44.0829C41.2246 47.2575 43.9457 50.4321 49.3425 53.516C60.1362 59.7291 71.2926 59.7291 82.0863 53.516C87.4831 50.3867 90.2042 47.2121 90.2042 44.0829V41.5885C90.2042 38.4139 87.4831 35.2393 82.0863 32.1101Z" fill="#E1E6C1"/>
<path opacity="0.27" d="M81.0882 32.1101C80.3626 31.7019 79.5916 31.2937 78.866 30.9309L81.5418 29.389C82.2674 28.9808 82.5395 28.1191 82.3127 27.3482C81.9953 26.2597 81.315 25.3527 80.3626 24.7178L76.1903 21.5885C74.6483 20.4547 72.7889 17.8244 72.1086 15.8289L70.2492 10.3867C69.6143 8.57265 68.8433 7.89238 68.3898 7.66562C68.027 7.43887 67.5735 7.39352 67.1653 7.62027L59.773 11.838C59.637 11.9287 59.5463 12.0194 59.4556 12.1101L56.4624 10.8856C55.6914 10.5681 55.1925 10.6135 54.9204 10.7949L47.5281 15.0579C47.3467 15.194 47.2107 15.33 47.12 15.5568C46.9839 15.9649 46.9386 16.872 47.9363 18.55L50.9749 23.72C52.0633 25.5795 52.7436 28.4366 52.5168 30.0239C51.0656 30.6135 49.705 31.3391 48.3445 32.1101C42.9477 35.2393 40.2266 38.4139 40.2266 41.5885V44.0829C40.2266 47.2575 42.9477 50.4321 48.3445 53.516C59.1381 59.7291 70.2946 59.7291 81.0882 53.516C86.4851 50.3867 89.2062 47.2121 89.2062 44.0829V41.5885C89.1608 38.4139 86.4851 35.2393 81.0882 32.1101Z" fill="#DDE3B9"/>
<path opacity="0.3" d="M80.0468 32.1101C79.3212 31.7019 78.5502 31.2937 77.8246 30.9309L80.5003 29.389C81.2259 28.9808 81.498 28.1191 81.2713 27.3482C80.9538 26.2597 80.2736 25.3527 79.3212 24.7178L75.1488 21.5885C73.6069 20.4547 71.7475 17.8244 71.0672 15.8289L69.2078 10.3867C68.5729 8.57265 67.8019 7.89238 67.3484 7.66562C66.9856 7.43887 66.5321 7.39352 66.1239 7.62027L58.777 11.838C58.6409 11.9287 58.5502 12.0194 58.4595 12.1101L55.4663 10.8856C54.6953 10.5681 54.1965 10.6135 53.9243 10.7949L46.5321 15.0579C46.3506 15.194 46.2146 15.33 46.1239 15.5568C45.9878 15.9649 45.9425 16.872 46.9402 18.55L49.9788 23.72C51.0672 25.5795 51.7475 28.4366 51.5207 30.0239C50.0695 30.6135 48.7089 31.3391 47.3484 32.1101C41.9516 35.2393 39.2305 38.4139 39.2305 41.5885V44.0829C39.2305 47.2575 41.9516 50.4321 47.3484 53.516C58.142 59.7291 69.2985 59.7291 80.0921 53.516C85.489 50.3867 88.2101 47.2121 88.2101 44.0829V41.5885C88.1647 38.4139 85.489 35.2393 80.0468 32.1101Z" fill="#D9E0B2"/>
<path opacity="0.33" d="M79.0492 32.1101C78.3236 31.7019 77.5526 31.2937 76.827 30.9309L79.5027 29.389C80.2283 28.9808 80.5004 28.1191 80.2737 27.3482C79.9562 26.2597 79.2759 25.3527 78.3236 24.7178L74.1512 21.5885C72.6093 20.4547 70.7499 17.8244 70.0696 15.8289L68.2102 10.3867C67.5753 8.57265 66.8043 7.89238 66.3508 7.66562C65.988 7.43887 65.5344 7.39352 65.1263 7.62027L57.734 11.838C57.5979 11.9287 57.5072 12.0194 57.4165 12.1101L54.4233 10.8856C53.6524 10.5681 53.1535 10.6135 52.8814 10.7949L45.4891 15.1033C45.3077 15.2393 45.1716 15.3754 45.0809 15.6021C44.9449 16.0103 44.8995 16.9173 45.8973 18.5953L48.9358 23.7654C50.0242 25.6248 50.7045 28.482 50.4777 30.0693C49.0265 30.6588 47.666 31.3844 46.3054 32.1554C40.9086 35.2847 38.1875 38.4593 38.1875 41.5885V44.0829C38.1875 47.2575 40.9086 50.4321 46.3054 53.516C57.0991 59.7291 68.2555 59.7291 79.0492 53.516C84.446 50.3867 87.1671 47.2121 87.1671 44.0829V41.5885C87.1671 38.4139 84.446 35.2393 79.0492 32.1101Z" fill="#D6DDAA"/>
<path opacity="0.36" d="M78.0511 32.1101C77.3255 31.7019 76.5545 31.2937 75.8289 30.9309L78.5046 29.389C79.2303 28.9808 79.5024 28.1191 79.2756 27.3482C78.9582 26.2597 78.2779 25.3527 77.3255 24.7178L73.1532 21.5885C71.6112 20.4547 69.7518 17.8244 69.0715 15.8289L67.2121 10.3867C66.5772 8.57265 65.8062 7.89238 65.3527 7.66562C64.9899 7.43887 64.5364 7.39352 64.1282 7.62027L56.7359 11.838C56.5999 11.9287 56.5092 12.0194 56.4185 12.1101L53.4253 10.8856C52.6543 10.5681 52.1554 10.6135 51.8833 10.7949L44.491 15.0579C44.3096 15.194 44.1736 15.33 44.0829 15.5568C43.9468 15.9649 43.9015 16.872 44.8992 18.55L47.9378 23.72C49.0262 25.5795 49.7065 28.4366 49.4797 30.0239C48.0285 30.6135 46.6679 31.3391 45.3074 32.1101C39.8652 35.2393 37.1895 38.4139 37.1895 41.5432V44.0375C37.1895 47.2121 39.9105 50.3867 45.3074 53.4706C56.101 59.6838 67.2575 59.6838 78.0511 53.4706C83.448 50.3414 86.169 47.1668 86.169 44.0375V41.5432C86.169 38.4139 83.448 35.2393 78.0511 32.1101Z" fill="#D2DAA2"/>
<path opacity="0.39" d="M77.0531 32.1101C76.3275 31.7019 75.5565 31.2937 74.8309 30.9309L77.5066 29.389C78.2322 28.9808 78.5043 28.1191 78.2776 27.3482C77.9601 26.2597 77.2798 25.3527 76.3275 24.7178L72.1551 21.5885C70.6132 20.4547 68.7538 17.8244 68.0735 15.8289L66.2141 10.3867C65.5792 8.57265 64.8082 7.89238 64.3547 7.66562C63.9919 7.43887 63.5384 7.39352 63.1302 7.62027L55.7379 11.838C55.6018 11.9287 55.5111 12.0194 55.4204 12.1101L52.4272 10.8856C51.6563 10.5681 51.1574 10.6135 50.8853 10.7949L43.493 15.1033C43.3116 15.2393 43.1755 15.3754 43.0848 15.6021C42.9488 16.0103 42.9034 16.9173 43.9012 18.5953L46.9397 23.7654C48.0281 25.6248 48.7084 28.482 48.4817 30.0693C47.0304 30.6588 45.6699 31.3844 44.3093 32.1554C38.9125 35.2847 36.1914 38.4593 36.1914 41.5885V44.0829C36.1914 47.2575 38.9125 50.4321 44.3093 53.516C55.103 59.7291 66.2594 59.7291 77.0531 53.516C82.4499 50.3867 85.171 47.2121 85.171 44.0829V41.5885C85.1257 38.4139 82.4499 35.2393 77.0531 32.1101Z" fill="#CED79B"/>
<path opacity="0.42" d="M76.055 32.1101C75.3294 31.7019 74.5584 31.2937 73.8328 30.9309L76.5086 29.389C77.2342 28.9808 77.5063 28.1191 77.2795 27.3482C76.9621 26.2597 76.2818 25.3527 75.3294 24.7178L71.1571 21.5885C69.6151 20.4547 67.7557 17.8244 67.0755 15.8289L65.216 10.3867C64.5811 8.57265 63.8101 7.89238 63.3566 7.66562C62.9938 7.43887 62.5403 7.39352 62.1321 7.62027L54.7398 11.838C54.6038 11.9287 54.5131 12.0194 54.4224 12.1101L51.4292 10.8856C50.6582 10.5681 50.1593 10.6135 49.8872 10.7949L42.4949 15.1033C42.3135 15.2393 42.1775 15.3754 42.0868 15.6021C41.9507 16.0103 41.9054 16.9173 42.9031 18.5953L45.9417 23.7654C47.0301 25.6248 47.7104 28.482 47.4836 30.0693C46.0324 30.6588 44.6718 31.3844 43.3113 32.1554C37.9144 35.2847 35.1934 38.4593 35.1934 41.5885V44.0829C35.1934 47.2575 37.9144 50.4321 43.3113 53.516C54.1049 59.7291 65.2614 59.7291 76.055 53.516C81.4519 50.3867 84.173 47.2121 84.173 44.0829V41.5885C84.1276 38.4139 81.4519 35.2393 76.055 32.1101Z" fill="#CAD493"/>
<path opacity="0.45" d="M75.0121 32.1101C74.2865 31.7019 73.5155 31.2937 72.7898 30.9309L75.4656 29.389C76.1459 28.9808 76.4633 28.1191 76.1912 27.3482C75.8737 26.2597 75.1935 25.3527 74.2411 24.7178L70.0688 21.5885C68.5268 20.4547 66.6674 17.8244 65.9871 15.8289L64.1277 10.3867C63.4928 8.57265 62.7218 7.89238 62.2683 7.66562C61.9055 7.43887 61.452 7.39352 61.0438 7.62027L53.6969 11.838C53.5608 11.9287 53.4701 12.0194 53.3794 12.1101L50.3862 10.8856C49.6152 10.5681 49.1164 10.6135 48.8443 10.7949L41.452 15.0579C41.2706 15.194 41.1345 15.33 41.0438 15.5568C40.9078 15.9649 40.8624 16.872 41.8601 18.55L44.8987 23.72C45.9871 25.5795 46.6674 28.4366 46.4406 30.0239C44.9894 30.6135 43.6289 31.3391 42.2683 32.1101C36.8715 35.2393 34.1504 38.4139 34.1504 41.5432V44.0375C34.1504 47.2121 36.8715 50.3867 42.2683 53.4706C53.062 59.6838 64.2184 59.6838 75.0121 53.4706C80.4089 50.3414 83.13 47.1668 83.13 44.0375V41.5432C83.13 38.4139 80.4543 35.2393 75.0121 32.1101Z" fill="#C7D18B"/>
<path opacity="0.48" d="M74.014 32.1101C73.2884 31.7019 72.5174 31.2937 71.7918 30.9309L74.4675 29.389C75.1932 28.9808 75.4653 28.1191 75.2385 27.3482C74.9211 26.2597 74.2408 25.3527 73.2884 24.7178L69.1161 21.5885C67.5741 20.4547 65.7147 17.8244 65.0344 15.8289L63.175 10.3867C62.5401 8.57265 61.7691 7.89238 61.3156 7.66562C60.9528 7.43887 60.4993 7.39352 60.0911 7.62027L52.6988 11.838C52.5628 11.9287 52.4721 12.0194 52.3814 12.1101L49.3882 10.8856C48.6172 10.5681 48.1183 10.6135 47.8462 10.7949L40.4539 15.1033C40.2725 15.2393 40.1365 15.3754 40.0458 15.6021C39.9097 16.0103 39.8644 16.9173 40.8621 18.5953L43.9006 23.7654C44.9891 25.6248 45.6694 28.482 45.4426 30.0693C43.9913 30.6588 42.6308 31.3844 41.2703 32.1554C35.8734 35.2393 33.1523 38.4139 33.1523 41.5885V44.0829C33.1523 47.2575 35.8734 50.4321 41.2703 53.516C52.0639 59.7291 63.2204 59.7291 74.014 53.516C79.4109 50.3867 82.1319 47.2575 82.1319 44.0829V41.5885C82.1319 38.4139 79.4109 35.2393 74.014 32.1101Z" fill="#C3CE83"/>
<path opacity="0.52" d="M73.0175 32.1101C72.2919 31.7019 71.5209 31.2937 70.7953 30.9309L73.471 29.389C74.1966 28.9808 74.4687 28.1191 74.242 27.3482C73.9245 26.2597 73.2443 25.3527 72.2919 24.7178L68.1195 21.5885C66.5776 20.4547 64.7182 17.8244 64.0379 15.8289L62.1785 10.3867C61.5436 8.57265 60.7726 7.89238 60.3191 7.66562C59.9563 7.43887 59.5028 7.39352 59.0946 7.62027L51.7023 11.838C51.5663 11.9287 51.4755 12.0194 51.3848 12.1101L48.3916 10.8856C47.6207 10.5681 47.1218 10.6135 46.8497 10.7949L39.4574 15.1033C39.276 15.2393 39.1399 15.4207 39.0946 15.6021C38.9585 16.0103 38.9132 16.9173 39.9109 18.5953L42.9495 23.7654C44.0379 25.6248 44.7182 28.482 44.4914 30.0693C43.0402 30.6588 41.6796 31.3844 40.3191 32.1554C34.9223 35.2847 32.2012 38.4593 32.2012 41.5885V44.0829C32.2012 47.2575 34.9223 50.4321 40.3191 53.516C51.1127 59.7291 62.2692 59.7291 73.0629 53.516C78.4597 50.3867 81.1808 47.2121 81.1808 44.0829V41.5885C81.1354 38.4139 78.4143 35.2393 73.0175 32.1101Z" fill="#BFCA7C"/>
<path opacity="0.55" d="M72.0179 32.1101C71.2923 31.7019 70.5213 31.2937 69.7957 30.9309L72.4714 29.389C73.1971 28.9808 73.4692 28.1191 73.2424 27.3482C72.925 26.2597 72.2447 25.3527 71.2923 24.7178L67.12 21.5885C65.578 20.4547 63.7186 17.8244 63.0383 15.8289L61.1789 10.3867C60.544 8.57265 59.773 7.89238 59.3195 7.66562C58.9567 7.43887 58.5032 7.39352 58.095 7.62027L50.7027 11.838C50.5667 11.9287 50.476 12.0194 50.3853 12.1101L47.3921 10.8856C46.6211 10.5681 46.1222 10.6135 45.8501 10.7949L38.4578 15.1033C38.2764 15.2393 38.1404 15.3754 38.0497 15.6021C37.9136 16.0103 37.8683 16.9173 38.866 18.5953L41.9046 23.7654C42.993 25.6248 43.6733 28.482 43.4465 30.0693C41.9953 30.6588 40.6347 31.3844 39.2742 32.1554C33.8773 35.2847 31.1562 38.4593 31.1562 41.5885V44.0829C31.1562 47.2575 33.8773 50.4321 39.2742 53.516C50.0678 59.7291 61.2243 59.7291 72.0179 53.516C77.4148 50.3867 80.1358 47.2121 80.1358 44.0829V41.5885C80.0905 38.4139 77.4148 35.2393 72.0179 32.1101Z" fill="#BBC774"/>
<path opacity="0.58" d="M70.975 32.1101C70.2493 31.7019 69.4784 31.2937 68.7527 30.9309L71.4285 29.389C72.1541 28.9808 72.4262 28.1191 72.1995 27.3482C71.882 26.2597 71.2017 25.3527 70.2493 24.7178L66.077 21.5885C64.5351 20.4547 62.6756 17.8244 61.9954 15.8289L60.136 10.3867C59.501 8.57265 58.7301 7.89238 58.2765 7.66562C57.9137 7.43887 57.4602 7.39352 57.0521 7.62027L49.7051 11.838C49.5691 11.9287 49.4784 12.0194 49.3877 12.1101L46.3945 10.8856C45.6235 10.5681 45.1246 10.6135 44.8525 10.7949L37.4602 15.1033C37.2788 15.2393 37.1428 15.3754 37.0521 15.6021C36.916 16.0103 36.8707 16.9173 37.8684 18.5953L40.8616 23.72C41.95 25.5795 42.6303 28.4366 42.4035 30.0239C40.9523 30.6135 39.5917 31.3391 38.2312 32.1101C32.8344 35.2393 30.1133 38.4139 30.1133 41.5885V44.0829C30.1133 47.2575 32.8344 50.4321 38.2312 53.516C49.0248 59.7291 60.1813 59.7291 70.975 53.516C76.3718 50.3867 79.0929 47.2121 79.0929 44.0829V41.5885C79.0929 38.4139 76.4171 35.2393 70.975 32.1101Z" fill="#B8C46C"/>
<path opacity="0.61" d="M69.9789 32.1101C69.2532 31.7019 68.4823 31.2937 67.7566 30.9309L70.4324 29.389C71.158 28.9808 71.4301 28.1191 71.2034 27.3482C70.8859 26.2597 70.2056 25.3527 69.2532 24.7178L65.0809 21.5885C63.539 20.4547 61.6795 17.8244 60.9993 15.8289L59.1399 10.3867C58.5049 8.57265 57.734 7.89238 57.2805 7.66562C56.9176 7.43887 56.4641 7.39352 56.056 7.62027L48.6637 11.838C48.5276 11.9287 48.4369 12.0194 48.3462 12.1101L45.353 10.8856C44.582 10.5681 44.0832 10.6135 43.8111 10.7949L36.4188 15.1033C36.2374 15.2393 36.1013 15.3754 36.0106 15.6021C35.8746 16.0103 35.8292 16.9173 36.8269 18.5953L39.8655 23.7654C40.9539 25.6248 41.6342 28.482 41.4074 30.0693C39.9562 30.6588 38.5956 31.3391 37.2351 32.1101C31.8383 35.2393 29.1172 38.4139 29.1172 41.5432V44.0375C29.1172 47.2121 31.8383 50.3867 37.2351 53.4706C48.0288 59.6838 59.1852 59.6838 69.9789 53.4706C75.3757 50.3414 78.0968 47.1668 78.0968 44.0375V41.5432C78.0968 38.4139 75.3757 35.2393 69.9789 32.1101Z" fill="#B4C164"/>
<path opacity="0.64" d="M68.9808 32.1101C68.2552 31.7019 67.4842 31.2937 66.7586 30.9309L69.4343 29.389C70.16 28.9808 70.4321 28.1191 70.2053 27.3482C69.8878 26.2597 69.2076 25.3527 68.2552 24.7178L64.0829 21.5885C62.5409 20.4547 60.6815 17.8244 60.0012 15.8289L58.1418 10.3867C57.5069 8.57265 56.7359 7.89238 56.2824 7.66562C55.9196 7.43887 55.4661 7.39352 55.0579 7.62027L47.6656 11.838C47.5296 11.9287 47.4389 12.0194 47.3482 12.1101L44.355 10.8856C43.584 10.5681 43.0851 10.6135 42.813 10.7949L35.4207 15.0579C35.2393 15.194 35.1033 15.33 35.0126 15.5568C34.8765 15.9649 34.8312 16.872 35.8289 18.55L38.8674 23.72C39.9559 25.5795 40.6361 28.4366 40.4094 30.0239C38.9581 30.6135 37.5976 31.3391 36.2371 32.1101C30.7949 35.2393 28.1191 38.4139 28.1191 41.5432V44.0375C28.1191 47.2121 30.8402 50.3867 36.2371 53.4706C47.0307 59.6838 58.1872 59.6838 68.9808 53.4706C74.3776 50.3414 77.0987 47.1668 77.0987 44.0375V41.5432C77.0987 38.4139 74.3776 35.2393 68.9808 32.1101Z" fill="#B0BE5D"/>
<path opacity="0.67" d="M67.9828 32.1101C67.2572 31.7019 66.4862 31.2937 65.7606 30.9309L68.4363 29.389C69.1619 28.9808 69.434 28.1191 69.2073 27.3482C68.8898 26.2597 68.2095 25.3527 67.2572 24.7178L63.0848 21.5885C61.5429 20.4547 59.6835 17.8244 59.0032 15.8289L57.1438 10.3867C56.5089 8.57265 55.7379 7.89238 55.2844 7.66562C54.9216 7.43887 54.468 7.39352 54.0599 7.62027L46.6676 11.838C46.5315 11.9287 46.4408 12.0194 46.3501 12.1101L43.3569 10.8856C42.5859 10.5681 42.0871 10.6135 41.815 10.7949L34.4227 15.1033C34.2413 15.2393 34.1052 15.3754 34.0145 15.6021C33.8785 16.0103 33.8331 16.9173 34.8308 18.5953L37.8694 23.7654C38.9578 25.6248 39.6381 28.482 39.4113 30.0693C37.9601 30.6588 36.5996 31.3845 35.239 32.1554C29.8422 35.2847 27.1211 38.4593 27.1211 41.6339V44.1282C27.1211 47.3028 29.8422 50.4774 35.239 53.5613C46.0327 59.7745 57.1891 59.7745 67.9828 53.5613C73.3796 50.4321 76.1007 47.2575 76.1007 44.1282V41.6339C76.0553 38.4139 73.3796 35.2393 67.9828 32.1101Z" fill="#ACBB55"/>
<path opacity="0.7" d="M66.9847 32.1101C66.2591 31.7019 65.4881 31.2937 64.7625 30.9309L67.4382 29.389C68.1639 28.9808 68.436 28.1191 68.2092 27.3482C67.8918 26.2597 67.2115 25.3527 66.2591 24.7178L62.0868 21.5885C60.5448 20.4547 58.6854 17.8244 58.0051 15.8289L56.1457 10.3867C55.5108 8.57265 54.7398 7.89238 54.2863 7.66562C53.9235 7.43887 53.47 7.39352 53.0618 7.62027L45.6695 11.838C45.5335 11.9287 45.4428 12.0194 45.3521 12.1101L42.3589 10.8856C41.5879 10.5681 41.089 10.6135 40.8169 10.7949L33.4246 15.1033C33.2432 15.2393 33.1072 15.3754 33.0165 15.6021C32.8804 16.0103 32.8351 16.9173 33.8328 18.5953L36.8713 23.7654C37.9598 25.6248 38.6401 28.482 38.4133 30.0693C36.962 30.6588 35.6015 31.3844 34.241 32.1554C28.8441 35.2847 26.123 38.4593 26.123 41.5885V44.0829C26.123 47.2575 28.8441 50.4321 34.241 53.516C45.0346 59.7291 56.1911 59.7291 66.9847 53.516C72.3816 50.3867 75.1026 47.2121 75.1026 44.0829V41.5885C75.0573 38.4139 72.3816 35.2393 66.9847 32.1101Z" fill="#A9B84D"/>
<path opacity="0.73" d="M65.9418 32.1101C65.2161 31.7019 64.4452 31.2937 63.7195 30.9309L66.3953 29.389C67.0755 28.9808 67.393 28.1191 67.1209 27.3482C66.8034 26.2597 66.1232 25.3527 65.1708 24.7178L60.9984 21.5885C59.4565 20.4547 57.5971 17.8244 56.9168 15.8289L55.0574 10.3867C54.4225 8.57265 53.6515 7.89238 53.198 7.66562C52.8352 7.43887 52.3817 7.39352 51.9735 7.62027L44.6266 11.838C44.4905 11.9287 44.3998 12.0194 44.3091 12.1101L41.3159 10.8856C40.5449 10.5681 40.0461 10.6135 39.774 10.7949L32.3817 15.0579C32.2003 15.194 32.0642 15.33 31.9735 15.5568C31.8374 15.9649 31.7921 16.872 32.7898 18.55L35.8284 23.72C36.9168 25.5795 37.5971 28.4366 37.3703 30.0239C35.9191 30.6135 34.5585 31.3391 33.198 32.1101C27.8012 35.2393 25.0801 38.4139 25.0801 41.5432V44.0375C25.0801 47.2121 27.8012 50.3867 33.198 53.4706C43.9916 59.6838 55.1481 59.6838 65.9418 53.4706C71.3386 50.3414 74.0597 47.1668 74.0597 44.0375V41.5432C74.0597 38.4139 71.3386 35.2393 65.9418 32.1101Z" fill="#A5B546"/>
<path opacity="0.76" d="M64.9437 32.1101C64.2181 31.7019 63.4471 31.2937 62.7215 30.9309L65.3972 29.389C66.1229 28.9808 66.395 28.1191 66.1682 27.3482C65.8507 26.2597 65.1705 25.3527 64.2181 24.7178L60.0458 21.5885C58.5038 20.4547 56.6444 17.8244 55.9641 15.8289L54.1047 10.3867C53.4698 8.57265 52.6988 7.89238 52.2453 7.66562C51.8825 7.43887 51.429 7.39352 51.0208 7.62027L43.6285 11.838C43.4925 11.9287 43.4018 12.0194 43.3111 12.1101L40.3179 10.8856C39.5469 10.5681 39.048 10.6135 38.7759 10.7949L31.3836 15.1033C31.2022 15.2393 31.0662 15.3754 30.9755 15.6021C30.8394 16.0103 30.7941 16.9173 31.7918 18.5953L34.8303 23.7654C35.9188 25.6248 36.599 28.482 36.3723 30.0693C34.921 30.6588 33.5605 31.3844 32.1999 32.1554C26.8031 35.2393 24.082 38.4139 24.082 41.5885V44.0829C24.082 47.2575 26.8031 50.4321 32.1999 53.516C42.9936 59.7291 54.1501 59.7291 64.9437 53.516C70.3405 50.3867 73.0616 47.2575 73.0616 44.0829V41.5885C73.0616 38.4139 70.3405 35.2393 64.9437 32.1101Z" fill="#A1B23E"/>
<path opacity="0.79" d="M63.9472 32.1101C63.2216 31.7019 62.4506 31.2937 61.725 30.9309L64.4007 29.389C65.1263 28.9808 65.3984 28.1191 65.1717 27.3482C64.8542 26.2597 64.1739 25.3527 63.2216 24.7178L59.0492 21.5885C57.5073 20.4547 55.6479 17.8244 54.9676 15.8289L53.1082 10.3867C52.4733 8.57265 51.7023 7.89238 51.2488 7.66562C50.886 7.43887 50.4324 7.39352 50.0243 7.62027L42.632 11.838C42.4959 11.9287 42.4052 12.0194 42.3145 12.1101L39.3213 10.8856C38.5504 10.5681 38.0515 10.6135 37.7794 10.7949L30.3871 15.1033C30.2057 15.2393 30.0696 15.4207 30.0243 15.6021C29.8882 16.0103 29.8429 16.9173 30.8406 18.5953L33.8792 23.7654C34.9676 25.6248 35.6479 28.482 35.4211 30.0693C33.9699 30.6588 32.6093 31.3844 31.2488 32.1554C25.8519 35.2847 23.1309 38.4593 23.1309 41.5885V44.0829C23.1309 47.2575 25.8519 50.4321 31.2488 53.516C42.0424 59.7291 53.1989 59.7291 63.9925 53.516C69.3894 50.3867 72.1104 47.2121 72.1104 44.0829V41.5885C72.0651 38.4139 69.344 35.2393 63.9472 32.1101Z" fill="#9DAF36"/>
<path opacity="0.82" d="M62.9476 32.1101C62.222 31.7019 61.451 31.2937 60.7254 30.9309L63.4011 29.389C64.1268 28.9808 64.3989 28.1191 64.1721 27.3482C63.8546 26.2597 63.1744 25.3527 62.222 24.7178L58.0497 21.5885C56.5077 20.4547 54.6483 17.8244 53.968 15.8289L52.1086 10.3867C51.4737 8.57265 50.7027 7.89238 50.2492 7.66562C49.8864 7.43887 49.4329 7.39352 49.0247 7.62027L41.6324 11.838C41.4964 11.9287 41.4057 12.0194 41.315 12.1101L38.3218 10.8856C37.5508 10.5681 37.0519 10.6135 36.7798 10.7949L29.3875 15.1033C29.2061 15.2393 29.0701 15.3754 28.9794 15.6021C28.8433 16.0103 28.798 16.9173 29.7957 18.5953L32.8342 23.7654C33.9227 25.6248 34.6029 28.482 34.3762 30.0693C32.9249 30.6588 31.5644 31.3844 30.2039 32.1554C24.807 35.2847 22.0859 38.4593 22.0859 41.5885V44.0829C22.0859 47.2575 24.807 50.4321 30.2039 53.516C40.9975 59.7291 52.154 59.7291 62.9476 53.516C68.3444 50.3867 71.0655 47.2121 71.0655 44.0829V41.5885C71.0202 38.4139 68.3444 35.2393 62.9476 32.1101Z" fill="#9AAC2E"/>
<path opacity="0.85" d="M61.9046 32.1101C61.179 31.7019 60.4081 31.2937 59.6824 30.9309L62.3582 29.389C63.0838 28.9808 63.3559 28.1191 63.1291 27.3482C62.8117 26.2597 62.1314 25.3527 61.179 24.7178L57.0067 21.5885C55.4647 20.4547 53.6053 17.8244 52.9251 15.8289L51.0656 10.3867C50.4307 8.57265 49.6598 7.89238 49.2062 7.66562C48.8434 7.43887 48.3899 7.39352 47.9817 7.62027L40.5895 11.838C40.4534 11.9287 40.3627 12.0194 40.272 12.1101L37.2788 10.8856C36.5078 10.5681 36.009 10.6135 35.7368 10.7949L28.3446 15.0579C28.1632 15.194 28.0271 15.33 27.9364 15.5568C27.8003 15.9649 27.755 16.872 28.7527 18.55L31.7913 23.72C32.8797 25.5795 33.56 28.4366 33.3332 30.0239C31.882 30.6135 30.5214 31.3391 29.1609 32.1101C23.7187 35.2393 21.043 38.4139 21.043 41.5885V44.0829C21.043 47.2575 23.7641 50.4321 29.1609 53.516C39.9545 59.7291 51.111 59.7291 61.9046 53.516C67.3015 50.3867 70.0226 47.2121 70.0226 44.0829V41.5885C70.0226 38.4139 67.3015 35.2393 61.9046 32.1101Z" fill="#96A827"/>
<path opacity="0.88" d="M60.9086 32.1101C60.1829 31.7019 59.412 31.2937 58.6863 30.9309L61.3621 29.389C62.0877 28.9808 62.3598 28.1191 62.133 27.3482C61.8156 26.2597 61.1353 25.3527 60.1829 24.7178L56.0106 21.5885C54.4686 20.4547 52.6092 17.8244 51.929 15.8289L50.0696 10.3867C49.4346 8.57265 48.6637 7.89238 48.2101 7.66562C47.8473 7.43887 47.3938 7.39352 46.9857 7.62027L39.5934 11.838C39.4573 11.9287 39.3666 12.0194 39.2759 12.1101L36.2827 10.8856C35.5117 10.5681 35.0129 10.6135 34.7408 10.7949L27.3485 15.1033C27.1671 15.2393 27.031 15.3754 26.9403 15.6021C26.8042 16.0103 26.7589 16.9173 27.7566 18.5953L30.7952 23.7654C31.8836 25.6248 32.5639 28.482 32.3371 30.0693C30.8859 30.6588 29.5253 31.3391 28.1648 32.1101C22.768 35.2393 20.0469 38.4139 20.0469 41.5432V44.0375C20.0469 47.2121 22.768 50.3867 28.1648 53.4706C38.9584 59.6838 50.1149 59.6838 60.9086 53.4706C66.3054 50.3414 69.0265 47.1668 69.0265 44.0375V41.5432C69.0265 38.4139 66.3054 35.2393 60.9086 32.1101Z" fill="#92A51F"/>
<path opacity="0.91" d="M59.9101 32.1101C59.1845 31.7019 58.4135 31.2937 57.6879 30.9309L60.3636 29.389C61.0892 28.9808 61.3613 28.1191 61.1346 27.3482C60.8171 26.2597 60.1368 25.3527 59.1845 24.7178L55.0121 21.5885C53.4702 20.4547 51.6108 17.8244 50.9305 15.8289L49.0711 10.3867C48.4362 8.57265 47.6652 7.89238 47.2117 7.66562C46.8489 7.43887 46.3953 7.39352 45.9872 7.62027L38.5949 11.838C38.4588 11.9287 38.3681 12.0194 38.2774 12.1101L35.2842 10.8856C34.5133 10.5681 34.0144 10.6135 33.7423 10.7949L26.35 15.1033C26.1686 15.2393 26.0325 15.3754 25.9418 15.6021C25.8058 16.0103 25.7604 16.9173 26.7582 18.5953L29.7967 23.7654C30.8851 25.6248 31.5654 28.482 31.384 30.0693C29.9328 30.6588 28.5722 31.3844 27.2117 32.1554C21.7695 35.2847 19.0938 38.4593 19.0938 41.5885V44.0829C19.0938 47.2575 21.8148 50.4321 27.2117 53.516C38.0053 59.7291 49.1618 59.7291 59.9554 53.516C65.3523 50.3867 68.0733 47.2121 68.0733 44.0829V41.5885C68.028 38.4139 65.3069 35.2393 59.9101 32.1101Z" fill="#8EA217"/>
<path opacity="0.94" d="M58.9125 32.1101C58.1868 31.7019 57.4159 31.2937 56.6902 30.9309L59.366 29.389C60.0916 28.9808 60.3637 28.1191 60.137 27.3482C59.8195 26.2597 59.1392 25.3527 58.1868 24.7178L54.0145 21.5885C52.4726 20.4547 50.6131 17.8244 49.9329 15.8289L48.0735 10.3867C47.4385 8.57265 46.6676 7.89238 46.2141 7.66562C45.8512 7.43887 45.3977 7.39352 44.9896 7.62027L37.5973 11.838C37.4612 11.9287 37.3705 12.0194 37.2798 12.1101L34.2866 10.8856C33.5156 10.5681 33.0168 10.6135 32.7447 10.7949L25.3524 15.1033C25.171 15.2393 25.0349 15.3754 24.9442 15.6021C24.8082 16.0103 24.7628 16.9173 25.7605 18.5953L28.7991 23.7654C29.8875 25.6248 30.5678 28.482 30.341 30.0693C28.8898 30.6588 27.5292 31.3844 26.1687 32.1554C20.7719 35.2847 18.0508 38.4593 18.0508 41.5885V44.0829C18.0508 47.2575 20.7719 50.4321 26.1687 53.516C36.9623 59.7291 48.1188 59.7291 58.9125 53.516C64.3093 50.3867 67.0304 47.2121 67.0304 44.0829V41.5885C66.985 38.4139 64.3093 35.2393 58.9125 32.1101Z" fill="#8B9F0F"/>
<path opacity="0.97" d="M57.8691 32.1101C57.1434 31.7019 56.3725 31.2937 55.6468 30.9309L58.3226 29.389C59.0482 28.9808 59.3203 28.1191 59.0936 27.3482C58.7761 26.2597 58.0958 25.3527 57.1434 24.7178L52.9711 21.5885C51.4292 20.4547 49.5697 17.8244 48.8895 15.8289L47.0301 10.3867C46.3951 8.57265 45.6242 7.89238 45.1707 7.66562C44.8078 7.43887 44.3543 7.39352 43.9462 7.62027L36.5992 11.838C36.4632 11.9287 36.3725 12.0194 36.2818 12.1101L33.2886 10.8856C32.5176 10.5681 32.0187 10.6135 31.7466 10.7949L24.3543 15.1033C24.1729 15.2393 24.0369 15.3754 23.9462 15.6021C23.8101 16.0103 23.7648 16.9173 24.7625 18.5953L27.801 23.7654C28.8895 25.6248 29.5697 28.482 29.343 30.0693C27.8917 30.6588 26.5312 31.3844 25.1706 32.1554C19.7738 35.2847 17.0527 38.4593 17.0527 41.5885V44.0829C17.0527 47.2575 19.7738 50.4321 25.1706 53.516C35.9643 59.7291 47.1208 59.7291 57.9144 53.516C63.3112 50.3867 66.0323 47.2121 66.0323 44.0829V41.5885C65.987 38.4139 63.2659 35.2393 57.8691 32.1101Z" fill="#879C08"/>
<path d="M56.8715 32.1101C56.1458 31.7019 55.3748 31.2937 54.6492 30.9309L57.325 29.389C58.0052 28.9808 58.3227 28.1191 58.0959 27.3482C57.7785 26.2597 57.0982 25.3527 56.1458 24.7178L51.9735 21.5885C50.4315 20.4547 48.5721 17.8244 47.8919 15.8289L46.0324 10.3867C45.3975 8.57265 44.6265 7.89238 44.173 7.66562C43.8102 7.43887 43.3567 7.39352 42.9485 7.62027L35.5563 11.838C35.4202 11.9287 35.3295 12.0194 35.2388 12.1101L32.2456 10.8856C31.4746 10.5681 30.9758 10.6135 30.7036 10.7949L23.3114 15.0579C23.1299 15.194 22.9939 15.33 22.9032 15.5568C22.7671 15.9649 22.7218 16.872 23.7195 18.55L26.7581 23.72C27.8465 25.5795 28.5268 28.4366 28.3 30.0239C26.8488 30.6135 25.4882 31.3391 24.1277 32.1101C18.7309 35.2393 16.0098 38.4139 16.0098 41.5432V44.0375C16.0098 47.2121 18.7309 50.3867 24.1277 53.4706C34.9213 59.6838 46.0778 59.6838 56.8715 53.4706C62.2683 50.3414 64.9894 47.1668 64.9894 44.0375V41.5432C64.9894 38.4139 62.2683 35.2393 56.8715 32.1101Z" fill="#839900"/>
</g>
<path opacity="0.1" d="M54.1057 36.5091C62.2689 41.2256 62.2689 48.8447 54.1057 53.5612C45.9424 58.2778 32.6998 58.2778 24.5365 53.5612C16.3732 48.8447 16.3732 41.2256 24.5365 36.5091C32.6998 31.7925 45.9424 31.7925 54.1057 36.5091Z" fill="#1D1D1B"/>
<path d="M56.8256 39.5477V43.1759C56.8256 45.7609 55.1022 48.3459 51.7008 50.3414C44.8528 54.3323 33.6963 54.3323 26.8482 50.3414C23.3562 48.3459 21.6328 45.7155 21.6328 43.0851V39.457C21.6328 42.0874 23.3562 44.7178 26.8482 46.7133C33.7417 50.7042 44.8981 50.7042 51.7008 46.7133C55.1022 44.7178 56.8256 42.1328 56.8256 39.5477Z" fill="#B88325"/>
<path d="M51.6096 32.2916C58.503 36.2826 58.5483 42.7225 51.7003 46.7134C44.8522 50.7043 33.6957 50.7043 26.8476 46.7134C19.9996 42.7225 19.9089 36.2826 26.7569 32.2916C33.605 28.3007 44.7161 28.3461 51.6096 32.2916Z" fill="#F9B233"/>
<path d="M39.2745 47.8471C34.8754 47.8471 30.7938 46.8947 27.7552 45.126C24.9888 43.5387 23.4922 41.5433 23.4922 39.5024C23.4922 37.4616 24.9888 35.5115 27.7099 33.9242C30.7484 32.1555 34.8301 31.2031 39.2291 31.2031C43.6282 31.2031 47.7099 32.1555 50.7484 33.9242C53.5149 35.5115 55.0115 37.507 55.0115 39.5478C55.0115 41.5886 53.5149 43.5387 50.7938 45.126C47.7552 46.8947 43.6736 47.8471 39.2745 47.8471Z" fill="#B88325"/>
<path d="M39.2745 48.7089C34.8754 48.7089 30.7938 47.7566 27.7552 45.9878C24.9888 44.4005 23.4922 42.4051 23.4922 40.3643C23.4922 38.3234 24.9888 36.328 27.6645 34.786C30.7031 33.0173 34.7847 32.0649 39.1838 32.0649C43.5829 32.0649 47.6645 33.0173 50.7031 34.786C53.4695 36.3733 54.9661 38.3688 54.9661 40.4096C54.9661 42.4504 53.4695 44.4005 50.7484 45.9878C47.7552 47.7566 43.6736 48.7089 39.2745 48.7089Z" fill="#FFCA38"/>
<path d="M48.1645 44.8537L46.3958 43.8106L45.3527 44.4002L47.1215 44.4909V45.4433L45.3981 46.441L43.6294 45.3979L42.2235 46.2143L28.9809 38.6406V37.6882L30.3868 37.8242L28.5273 36.7358V35.7834L30.2507 35.6927L32.1101 36.7358L33.1532 36.1462L31.2938 35.1031V34.1508L33.0171 34.0601L34.9219 35.1938C36.6453 34.3775 38.6861 34.4682 40.3187 35.466L40.7722 35.7381C42.1328 36.509 42.4956 37.3254 41.8607 38.187C43.448 37.6882 45.126 37.9149 46.5319 38.7766L47.6203 39.4115C48.5727 39.9558 49.0262 40.5453 49.0262 41.1349C49.0262 41.6791 48.6634 42.178 47.9831 42.7675L49.8425 42.9036V43.856L48.1645 44.8537ZM42.7677 43.7199L45.2167 42.314C46.033 41.8152 46.1691 41.407 45.1713 40.8174L44.0375 40.1372C42.8131 39.4115 41.9514 39.5022 40.8629 40.1372L38.7314 41.3616L42.8131 43.7199H42.7677ZM36.8267 40.3186L38.8221 39.1394C39.7292 38.5952 39.9559 38.0963 38.9128 37.4614L38.1419 37.0533C37.3709 36.509 36.3278 36.4637 35.5115 37.0079L33.2893 38.2777L36.8267 40.3186Z" fill="#B88325"/>
<path d="M49.1162 40.228H48.3906V41.1804H49.1162V40.228Z" fill="#B88325"/>
<path d="M42.2686 36.5093H41.543V37.4617H42.2686V36.5093Z" fill="#B88325"/>
<path d="M48.1645 43.947L46.3958 42.9039L45.3527 43.4935L47.1215 44.5365L45.3981 45.5343L43.6294 44.4912L42.2235 45.3075L28.9809 37.6885L30.3868 36.8721L28.5273 35.7837L30.2507 34.786L32.1101 35.8291L33.1532 35.2395L31.2938 34.1964L33.0171 33.1533L34.9219 34.2871C36.6453 33.4708 38.6861 33.5615 40.3187 34.5592L40.7722 34.8313C42.1328 35.6023 42.4956 36.4186 41.8607 37.2803C43.448 36.7814 45.126 37.0082 46.5319 37.8699L47.6203 38.5048C48.5727 39.049 49.0262 39.6386 49.0262 40.2282C49.0262 40.7724 48.6634 41.2712 47.9831 41.8608L49.8879 42.9492L48.1645 43.947ZM42.7677 42.8132L45.2167 41.4073C46.033 40.9084 46.1691 40.5003 45.1713 39.9107L44.0375 39.2304C42.8131 38.5048 41.9514 38.5955 40.8629 39.2304L38.7314 40.4549L42.8131 42.8132H42.7677ZM36.8267 39.3665L38.8221 38.1873C39.7292 37.6431 39.9559 37.1443 38.9128 36.5093L38.1419 36.1012C37.3709 35.5569 36.3278 35.5116 35.5115 36.0558L33.2893 37.3257L36.8267 39.3665Z" fill="#F9B233"/>
<path d="M59.1849 35.2391V38.8673C59.1849 41.4523 57.4616 44.0373 54.0602 46.0328C47.2121 50.0237 36.0557 50.0237 29.2076 46.0328C25.7155 44.0373 23.9922 41.4069 23.9922 38.7766V35.1484C23.9922 37.7788 25.7155 40.4092 29.2076 42.4047C36.101 46.3956 47.2575 46.3956 54.0602 42.4047C57.5069 40.4092 59.1849 37.8242 59.1849 35.2391Z" fill="#B88325"/>
<path d="M54.0158 27.9829C60.9092 31.9739 60.9546 38.4138 54.1065 42.4047C47.2584 46.3956 36.102 46.3956 29.2539 42.4047C22.4058 38.4138 22.3151 31.9739 29.1632 27.9829C36.0113 23.992 47.1224 23.992 54.0158 27.9829Z" fill="#F9B233"/>
<path d="M41.6788 43.5385C37.2797 43.5385 33.1981 42.5861 30.1595 40.8174C27.3931 39.2301 25.8965 37.2347 25.8965 35.1939C25.8965 33.153 27.3931 31.2029 30.1142 29.6156C33.1527 27.8469 37.2344 26.8945 41.5881 26.8945C45.9418 26.8945 50.0688 27.8469 53.1074 29.6156C55.8738 31.2029 57.3704 33.1984 57.3704 35.2392C57.3704 37.28 55.8738 39.2301 53.1527 40.8174C50.1142 42.5861 46.0325 43.5385 41.6788 43.5385Z" fill="#B88325"/>
<path d="M41.6788 44.4003C37.2797 44.4003 33.1981 43.4479 30.1595 41.6792C27.3931 40.0919 25.8965 38.0964 25.8965 36.0556C25.8965 34.0148 27.3931 32.0193 30.1142 30.432C33.1527 28.6633 37.2344 27.7109 41.5881 27.7109C45.9418 27.7109 50.0688 28.6633 53.1074 30.432C55.8738 32.0193 57.3704 34.0148 57.3704 36.0556C57.3704 38.0964 55.8738 40.0465 53.1527 41.6338C50.1142 43.4479 46.0325 44.4003 41.6788 44.4003Z" fill="#FFCA38"/>
<path d="M50.5673 40.5457L48.7986 39.5026L47.7555 40.0922L49.5242 40.1829V41.1352L47.8009 42.133L46.0322 41.0899L44.6263 41.9062L31.3383 34.3325V33.3801L32.7442 33.5162L30.8848 32.4731V31.5207L32.6081 31.43L34.4675 32.4731L35.5106 31.8835L33.6512 30.8404V29.8881L35.3746 29.7974L37.3247 30.9312C39.048 30.1148 41.0888 30.2055 42.7215 31.2033L43.175 31.4754C44.5356 32.2463 44.8984 33.0627 44.2635 33.9243C45.8508 33.4255 47.5741 33.6522 48.98 34.5139L50.0684 35.1488C51.0208 35.6931 51.4743 36.2826 51.4743 36.8722C51.4743 37.4164 51.1115 37.9153 50.4313 38.5048L52.2907 38.6409V39.5933L50.5673 40.5457ZM45.1705 39.4119L47.6195 38.006C48.4358 37.5071 48.5718 37.099 47.5741 36.5094L46.4403 35.8291C45.2158 35.1035 44.3542 35.1942 43.2657 35.8291L41.1342 37.0536L45.1705 39.4119ZM39.1841 36.0105L41.1795 34.8314C42.0866 34.2872 42.3133 33.7883 41.2703 33.1534L40.5446 32.7452C39.7737 32.201 38.7306 32.201 37.9142 32.6999L35.692 33.9697L39.1841 36.0105Z" fill="#B88325"/>
<path d="M51.5205 35.9194H50.7949V36.8718H51.5205V35.9194Z" fill="#B88325"/>
<path d="M44.6729 32.2007H43.9473V33.1531H44.6729V32.2007Z" fill="#B88325"/>
<path d="M50.5673 39.6385L48.7986 38.5954L47.7555 39.185L49.5242 40.2281L47.8009 41.2258L46.0322 40.1827L44.6263 40.999L31.3383 33.38L32.7442 32.5637L30.8848 31.5206L32.6081 30.5228L34.4675 31.5659L35.5106 30.9764L33.6512 29.9333L35.3746 28.9355L37.3247 30.0693C39.048 29.253 41.0888 29.3437 42.7215 30.3414L43.175 30.6136C44.5356 31.3845 44.8984 32.2009 44.2635 33.0625C45.8508 32.5637 47.5741 32.7904 48.98 33.6521L50.0684 34.287C51.0208 34.8312 51.4743 35.4208 51.4743 36.0104C51.4743 36.5546 51.1115 37.0535 50.4313 37.643L52.2907 38.7315L50.5673 39.6385ZM45.1705 38.5047L47.6195 37.0988C48.4358 36.5999 48.5718 36.1918 47.5741 35.6022L46.4403 34.9219C45.2158 34.1963 44.3542 34.287 43.2657 34.9219L41.0888 36.1464L45.1705 38.5047ZM39.1841 35.058L41.1795 33.8789C42.0866 33.3346 42.3133 32.8358 41.2703 32.2009L40.5446 31.7473C39.7737 31.2031 38.7306 31.1578 37.9142 31.702L35.692 32.9718L39.1841 35.058Z" fill="#F9B233"/>
<path d="M56.8256 30.931V34.5592C56.8256 37.1442 55.1022 39.7292 51.7008 41.7247C44.8528 45.7156 33.6963 45.7156 26.8482 41.7247C23.3562 39.7292 21.6328 37.0988 21.6328 34.4685V30.8403C21.6328 33.4707 23.3562 36.1011 26.8482 38.0966C33.7417 42.0875 44.8981 42.0875 51.7008 38.0966C55.1022 36.1011 56.8256 33.5161 56.8256 30.931Z" fill="#B88325"/>
<path d="M51.6096 23.6748C58.503 27.6658 58.5483 34.1057 51.7003 38.0966C44.8522 42.0875 33.6957 42.0875 26.8476 38.0966C19.9996 34.1057 19.9089 27.6658 26.7569 23.6748C33.605 19.6839 44.7161 19.6839 51.6096 23.6748Z" fill="#F9B233"/>
<path d="M39.2745 39.2304C34.8754 39.2304 30.7938 38.278 27.7552 36.5093C24.9888 34.922 23.4922 32.9266 23.4922 30.8857C23.4922 28.8449 24.9888 26.8948 27.7099 25.3075C30.7484 23.5388 34.8301 22.5864 39.1838 22.5864C43.5375 22.5864 47.6645 23.5388 50.7031 25.3075C53.4695 26.8948 54.9661 28.8903 54.9661 30.9311C54.9661 32.9719 53.4695 34.922 50.7484 36.5093C47.7552 38.278 43.6736 39.2304 39.2745 39.2304Z" fill="#B88325"/>
<path d="M39.2745 40.0922C34.8754 40.0922 30.7938 39.1399 27.7552 37.3711C24.9888 35.7838 23.4922 33.7884 23.4922 31.7476C23.4922 29.7067 24.9888 27.7113 27.6645 26.1693C30.7031 24.4006 34.7847 23.4482 39.1838 23.4482C43.5829 23.4482 47.6645 24.4006 50.7031 26.1693C53.4695 27.7566 54.9661 29.7521 54.9661 31.7929C54.9661 33.8337 53.4695 35.7838 50.7484 37.3711C47.7552 39.1399 43.6736 40.0922 39.2745 40.0922Z" fill="#FFCA38"/>
<path d="M48.1645 36.237L46.3958 35.1939L45.3527 35.7835L47.1215 35.8742V36.8266L45.3981 37.8697L43.6294 36.8266L42.2235 37.6429L28.9809 29.9785V29.0715L30.3868 29.2075L28.5273 28.1191V27.1667L30.2507 27.076L32.1101 28.1191L33.1532 27.5295L31.2938 26.4864V25.5341L33.0171 25.4434L34.9219 26.5771C36.6453 25.7608 38.6861 25.8515 40.3187 26.8493L40.7722 27.1214C42.1328 27.8923 42.4956 28.7087 41.8607 29.5703C43.448 29.0715 45.126 29.2982 46.5319 30.1599L47.6203 30.7948C48.5727 31.3391 49.0262 31.9286 49.0262 32.5182C49.0262 33.0624 48.6634 33.5613 47.9831 34.1508L49.8425 34.2869V35.2393L48.1645 36.237ZM42.7677 35.1032L45.2167 33.6973C46.033 33.1985 46.1691 32.7903 45.1713 32.2007L44.0375 31.5205C42.8131 30.7948 41.9514 30.8855 40.8629 31.5205L38.7314 32.7449L42.8131 35.1032H42.7677ZM36.8267 31.7019L38.8221 30.5227C39.7292 29.9785 39.9559 29.4796 38.9128 28.8447L38.1419 28.4366C37.3709 27.8923 36.3278 27.847 35.5115 28.3912L33.2893 29.7064L36.8267 31.7019Z" fill="#B88325"/>
<path d="M49.1162 31.6113H48.3906V32.5637H49.1162V31.6113Z" fill="#B88325"/>
<path d="M42.2686 27.8926H41.543V28.845H42.2686V27.8926Z" fill="#B88325"/>
<path d="M48.1645 35.3298L46.3958 34.2867L45.3527 34.8763L47.1215 35.9194L45.3981 36.9171L43.6294 35.874L42.2235 36.6903L28.9809 29.0713L30.3868 28.255L28.5273 27.1665L30.2507 26.1688L32.1101 27.2119L33.1532 26.6223L31.2938 25.5792L33.0171 24.5361L34.9219 25.6699C36.6453 24.8536 38.7314 24.9443 40.3641 25.942L40.8176 26.2141C42.1781 26.9851 42.541 27.8014 41.906 28.6631C43.4933 28.1643 45.1713 28.391 46.5772 29.2527L47.6657 29.8876C48.618 30.4318 49.0716 31.0214 49.0716 31.611C49.0716 32.1552 48.7088 32.654 48.0285 33.2436L49.9332 34.3321L48.1645 35.3298ZM42.7677 34.196L45.2167 32.7901C46.033 32.2912 46.1691 31.8831 45.1713 31.2935L44.0375 30.6132C42.8131 29.8876 41.9514 29.9783 40.8629 30.6132L38.6861 31.8377L42.7677 34.196ZM36.8267 30.7493L38.8221 29.5701C39.7292 29.0259 39.9559 28.5271 38.9128 27.8921L38.1419 27.484C37.3709 26.9398 36.3278 26.8944 35.5115 27.4386L33.2893 28.7085L36.8267 30.7493Z" fill="#F9B233"/>
<path d="M56.8256 26.6224V30.2506C56.8256 32.8356 55.1022 35.4206 51.7008 37.4161C44.8528 41.407 33.6963 41.407 26.8482 37.4161C23.3562 35.4206 21.6328 32.7902 21.6328 30.1599V26.5317C21.6328 29.1621 23.3562 31.7925 26.8482 33.788C33.7417 37.7789 44.8981 37.7789 51.7008 33.788C55.1022 31.7925 56.8256 29.2075 56.8256 26.6224Z" fill="#B88325"/>
<path d="M51.6096 19.3662C58.503 23.3572 58.5483 29.7971 51.7003 33.788C44.8522 37.7789 33.6957 37.7789 26.8476 33.788C19.9996 29.7971 19.9089 23.3572 26.7569 19.3662C33.605 15.3753 44.7161 15.3753 51.6096 19.3662Z" fill="#F9B233"/>
<path d="M39.2745 34.9218C34.8754 34.9218 30.7938 33.9694 27.7552 32.2007C24.9888 30.6134 23.4922 28.6179 23.4922 26.5317C23.4922 24.4456 24.9888 22.5408 27.7099 20.9535C30.7484 19.1848 34.8301 18.2324 39.2291 18.2324C43.6282 18.2324 47.7099 19.1848 50.7484 20.9535C53.5149 22.5408 55.0115 24.5363 55.0115 26.5771C55.0115 28.6179 53.5149 30.568 50.7938 32.1553C47.7552 33.9694 43.6736 34.9218 39.2745 34.9218Z" fill="#B88325"/>
<path d="M39.2745 35.7836C34.8754 35.7836 30.7938 34.8312 27.7552 33.0625C24.9888 31.4752 23.4922 29.4797 23.4922 27.4389C23.4922 25.3981 24.9888 23.4026 27.6645 21.8153C30.7031 20.0466 34.7847 19.0942 39.1838 19.0942C43.5829 19.0942 47.6645 20.0466 50.7031 21.8153C53.4695 23.4026 54.9661 25.3981 54.9661 27.4389C54.9661 29.4797 53.4695 31.4298 50.7484 33.0171C47.7552 34.8312 43.6736 35.7836 39.2745 35.7836Z" fill="#FFCA38"/>
<path d="M48.1645 31.9284L46.3958 30.8853L45.3527 31.4749L47.1215 31.5656V32.518L45.3981 33.5611L43.6294 32.518L42.2235 33.3343L28.9809 25.6699V24.7175L30.3868 24.8536L28.5273 23.8105V22.8581L30.2507 22.7674L32.1101 23.8105L33.1532 23.2209L31.2938 22.1778V21.2255L33.0171 21.1348L34.9673 22.2686C36.6906 21.4522 38.7314 21.5429 40.3641 22.5407L40.8176 22.8128C42.1781 23.5837 42.541 24.4001 41.906 25.2617C43.4933 24.7629 45.2167 24.9896 46.6226 25.8513L47.711 26.4862C48.6634 27.0305 49.1169 27.62 49.1169 28.2096C49.1169 28.7538 48.7541 29.2527 48.0738 29.8422L49.9332 29.9783V30.9307L48.1645 31.9284ZM42.7677 30.7946L45.2167 29.3887C46.033 28.8899 46.1691 28.4817 45.1713 27.8921L44.0375 27.2119C42.8131 26.4862 41.9514 26.5769 40.8629 27.2119L38.7314 28.4364L42.8131 30.7946H42.7677ZM36.8267 27.3933L38.8221 26.2595C39.7292 25.7153 39.9559 25.2164 38.9128 24.5815L38.1419 24.128C37.3709 23.5837 36.3278 23.5837 35.5115 24.0826L33.2893 25.3525L36.8267 27.3933Z" fill="#B88325"/>
<path d="M49.1162 27.3027H48.3906V28.2551H49.1162V27.3027Z" fill="#B88325"/>
<path d="M42.2686 23.584H41.543V24.5364H42.2686V23.584Z" fill="#B88325"/>
<path d="M48.1645 30.9764L46.3958 29.9787L45.3527 30.5683L47.1215 31.6114L45.3981 32.6091L43.6294 31.566L42.2235 32.3823L28.9809 24.7633L30.3868 23.947L28.5273 22.9039L30.2507 21.9061L32.1101 22.9492L33.1532 22.3597L31.2938 21.3166L33.0171 20.3188L34.9673 21.3619C36.6906 20.5456 38.7314 20.6363 40.3641 21.634L40.8176 21.9061C42.1781 22.6771 42.541 23.4934 41.906 24.3551C43.4933 23.8563 45.1713 24.083 46.5772 24.9447L47.6657 25.5796C48.618 26.1238 49.0716 26.7134 49.0716 27.303C49.0716 27.8472 48.7088 28.3461 48.0285 28.9356L49.9332 29.9787L48.1645 30.9764ZM42.7677 29.888L45.2167 28.4821C46.033 27.9832 46.1691 27.5751 45.1713 26.9855L44.0375 26.3052C42.8131 25.5796 41.9514 25.6703 40.8629 26.3052L38.7314 27.5297L42.8131 29.888H42.7677ZM36.8267 26.4413L38.8221 25.3075C39.7292 24.7633 39.9559 24.2644 38.9128 23.6295L38.1419 23.176C37.3709 22.6318 36.3278 22.5864 35.5115 23.1306L33.2893 24.4005L36.8267 26.4413Z" fill="#F9B233"/>
<path d="M58.0053 22.3143V25.9425C58.0053 28.5275 56.2819 31.1125 52.8805 33.108C46.0325 37.0989 34.876 37.0989 28.0279 33.108C24.5359 31.0672 22.8125 28.4368 22.8125 25.8518V22.2236C22.8125 24.854 24.5359 27.4844 28.0279 29.4799C34.9213 33.4708 46.0778 33.4708 52.9259 29.4799C56.2819 27.4844 58.0053 24.8994 58.0053 22.3143Z" fill="#B88325"/>
<path d="M52.8361 15.0581C59.7295 19.0491 59.7749 25.489 52.9268 29.4799C46.0787 33.4708 34.9223 33.4708 28.0742 29.4799C21.2261 25.489 21.1354 19.0491 27.9835 15.0581C34.8316 11.0672 45.9427 11.0672 52.8361 15.0581Z" fill="#F9B233"/>
<path d="M40.4991 30.6137C36.1 30.6137 32.0184 29.6613 28.9798 27.8926C26.2134 26.3053 24.7168 24.3099 24.7168 22.269C24.7168 20.2282 26.2134 18.2781 28.9345 16.6908C31.973 14.9221 36.0547 13.9697 40.4084 13.9697C44.7621 13.9697 48.8891 14.9221 51.9277 16.6908C54.6941 18.2781 56.1907 20.2736 56.1907 22.3144C56.1907 24.3552 54.6941 26.3053 51.973 27.8926C48.9345 29.6613 44.8529 30.6137 40.4991 30.6137Z" fill="#B88325"/>
<path d="M40.4991 31.4755C36.1 31.4755 32.0184 30.5232 28.9798 28.7544C26.2134 27.1671 24.7168 25.1717 24.7168 23.1309C24.7168 21.09 26.2134 19.0946 28.8891 17.5526C31.9277 15.7839 36.0093 14.8315 40.4084 14.8315C44.8075 14.8315 48.8891 15.7839 51.9277 17.5526C54.6941 19.1399 56.1907 21.1354 56.1907 23.1762C56.1907 25.217 54.6941 27.1671 51.973 28.7544C48.9345 30.5232 44.8529 31.4755 40.4991 31.4755Z" fill="#FFCA38"/>
<path d="M49.3896 27.6204L47.6209 26.5773L46.5778 27.1669L48.3465 27.2576V28.21L46.6231 29.2077L44.8544 28.1646L43.4485 28.981L30.1605 21.3619V20.4549L31.5664 20.5909L29.707 19.5479V18.5955L31.4304 18.5048L33.2898 19.5932L34.3329 19.0036L32.4735 17.9606V17.0082L34.1968 16.9175L36.1469 18.0513C37.8703 17.2349 39.9111 17.3256 41.5438 18.3234L41.9973 18.5955C43.3578 19.3665 43.7206 20.1828 43.0857 21.0445C44.673 20.5456 46.351 20.7724 47.7569 21.634L48.8454 22.269C49.7977 22.8132 50.2512 23.4027 50.2512 23.9923C50.2512 24.5365 49.8884 25.0354 49.2082 25.625L51.0676 25.761V26.7134L49.3896 27.6204ZM43.9474 26.4866L46.3964 25.0807C47.2127 24.5819 47.3488 24.1737 46.351 23.5841L45.2172 22.9039C43.9927 22.1783 43.1311 22.269 42.0426 22.9039L39.9111 24.1284L43.9474 26.4866ZM38.0063 23.0399L40.0018 21.9061C40.9088 21.3619 41.1356 20.8631 40.0925 20.2281L39.3669 19.82C38.5959 19.2758 37.5528 19.2304 36.7365 19.7746L34.5143 21.0445L38.0063 23.0399Z" fill="#B88325"/>
<path d="M50.2959 22.9492H49.5703V23.9016H50.2959V22.9492Z" fill="#B88325"/>
<path d="M43.4932 19.2754H42.7676V20.2278H43.4932V19.2754Z" fill="#B88325"/>
<path d="M49.3896 26.6678L47.6209 25.6247L46.5778 26.2143L48.3465 27.2574L46.6231 28.2551L44.8091 27.2574L43.4032 28.0737L30.1605 20.4546L31.5664 19.6383L29.707 18.5952L31.4304 17.5975L33.2898 18.6406L34.3329 18.051L32.4735 17.0079L34.1968 15.9648L36.1469 17.0986C37.8703 16.2823 39.9111 16.373 41.5438 17.3707L41.9973 17.6428C43.3578 18.4138 43.7206 19.2302 43.0857 20.0918C44.673 19.593 46.351 19.8197 47.7569 20.6814L48.8454 21.3163C49.7977 21.8605 50.2512 22.4501 50.2512 23.0397C50.2512 23.5839 49.8884 24.0828 49.2082 24.6723L51.0676 25.7608L49.3896 26.6678ZM43.9474 25.5794L46.3964 24.1735C47.2127 23.6746 47.3488 23.2664 46.351 22.6769L45.2172 21.9966C43.9927 21.271 43.1311 21.3617 42.0426 21.9966L39.9111 23.2211L43.9474 25.5794ZM38.0063 22.1326L40.0018 20.9989C40.9088 20.4546 41.1356 19.9558 40.0925 19.3209L39.3669 18.9127C38.5959 18.3685 37.5528 18.3231 36.7365 18.8673L34.5143 20.0918L38.0063 22.1326Z" fill="#F9B233"/>
<path d="M56.8256 18.0057V21.6339C56.8256 24.2189 55.1022 26.8039 51.7008 28.7994C44.8528 32.7903 33.6963 32.7903 26.8482 28.7994C23.3562 26.8039 21.6328 24.1735 21.6328 21.5432V17.915C21.6328 20.5454 23.3562 23.1758 26.8482 25.1713C33.7417 29.1622 44.8981 29.1622 51.7008 25.1713C55.1022 23.1758 56.8256 20.5908 56.8256 18.0057Z" fill="#B88325"/>
<path d="M51.6096 10.7495C58.503 14.7405 58.5483 21.1804 51.7003 25.1713C44.8522 29.1622 33.6957 29.1622 26.8476 25.1713C19.9996 21.1804 19.9089 14.7405 26.7569 10.7495C33.605 6.75862 44.7161 6.75862 51.6096 10.7495Z" fill="#F9B233"/>
<path d="M39.2745 26.3051C34.8754 26.3051 30.7938 25.3527 27.7552 23.584C24.9888 21.9967 23.4922 20.0013 23.4922 17.9605C23.4922 15.9196 24.9888 13.9695 27.7099 12.3822C30.7484 10.6135 34.8301 9.66113 39.1838 9.66113C43.5375 9.66113 47.6645 10.6135 50.7031 12.3822C53.4695 13.9695 54.9661 15.965 54.9661 18.0058C54.9661 20.0466 53.4695 21.9967 50.7484 23.584C47.7552 25.3527 43.6736 26.3051 39.2745 26.3051Z" fill="#B88325"/>
<path d="M39.2745 27.1669C34.8754 27.1669 30.7938 26.2145 27.7552 24.4458C24.9888 22.8585 23.4922 20.863 23.4922 18.8222C23.4922 16.7814 24.9888 14.7859 27.6645 13.1986C30.7031 11.4299 34.7847 10.4775 39.1838 10.4775C43.5829 10.4775 47.6645 11.4299 50.7031 13.1986C53.4695 14.7859 54.9661 16.7814 54.9661 18.8222C54.9661 20.863 53.4695 22.8131 50.7484 24.4004C47.7552 26.2145 43.6736 27.1669 39.2745 27.1669Z" fill="#FFCA38"/>
<path d="M36.8265 17.8243L38.8219 16.6905C39.729 16.1463 39.9557 15.6474 38.9126 15.0125L38.1417 14.559C37.3707 14.0148 36.3276 13.9694 35.5113 14.5136L33.2891 15.7835L36.8265 17.8243Z" fill="#F9B233"/>
<path d="M27.3476 11.1575C27.3476 9.70623 27.3929 8.30033 27.5743 6.89444C27.8011 5.806 28.6174 5.12573 29.343 5.17108C30.0687 5.21643 30.2501 7.07584 30.2501 7.75612L29.9326 11.747C29.7966 12.4273 29.4337 13.0622 28.9349 13.5611L27.5743 15.0124L26.5312 12.6087L27.3476 11.1575Z" fill="#E93A4C"/>
<path d="M20.998 34.0603C21.4969 34.0603 22.9935 33.4707 23.8552 32.9265C24.0819 32.7904 24.3087 32.609 24.4447 32.3823C24.4447 31.8834 24.354 31.3392 24.1726 30.8857C22.8121 29.7519 21.8597 30.5228 21.905 31.0217C21.4062 31.702 20.8166 32.2462 20.1363 32.6997C19.7282 32.9265 19.6828 34.0603 20.998 34.0603Z" fill="black"/>
<path d="M28.3003 34.6043C28.2096 34.7403 28.0736 34.8764 27.9375 34.9671L27.7107 35.1485C26.8491 35.6927 25.3525 36.3276 24.8536 36.2823C23.5838 36.2823 23.5838 35.1485 23.9919 34.8764C24.5815 34.4682 25.1257 34.0147 25.5792 33.4705C25.6699 33.3798 25.7153 33.2891 25.7606 33.1984L25.7153 32.4274L25.6699 31.7925H27.8922L27.9375 32.1099L28.0282 33.1077C28.0736 33.1984 28.1189 33.3344 28.1643 33.4251C28.255 33.7879 28.3003 34.1961 28.3003 34.6043Z" fill="black"/>
<path d="M34.1049 18.5048C34.0596 19.0037 30.5222 20.9085 30.114 21.1806H29.2523L23.8101 22.9493C23.9462 24.1284 24.3544 28.981 24.3544 31.2033C24.3997 32.1556 21.9961 32.2463 21.724 31.294C21.6333 30.9311 20.0006 23.04 20.0913 22.4051C19.8646 19.5933 24.9439 19.1398 29.0256 16.9629L34.1049 18.5048Z" fill="#4D7A91"/>
<path d="M35.1024 18.9126C35.4198 19.2301 35.4652 21.7697 33.6058 22.4954L27.6647 24.899C27.8008 26.5316 28.4357 29.026 28.1636 33.289C28.1636 34.2414 25.6693 34.2414 25.4879 33.3344C25.3972 32.9716 23.7645 25.1257 23.8552 24.5362C23.8099 23.5384 24.3994 22.7221 25.3518 21.9511C25.76 21.5883 28.6625 20.4092 28.7532 20.3638C28.1636 19.3661 28.345 18.0509 28.6171 17.2346C29.2974 16.9171 29.0253 16.9625 29.6148 16.645L35.1024 18.9126Z" fill="#5B90AB"/>
<path d="M35.0123 18.0964C35.0123 18.0964 35.0576 18.7314 35.0576 18.9581C33.1075 20.5454 28.7538 19.0488 28.3002 17.7336C28.3002 17.4615 28.2095 17.1894 28.2549 16.7812C29.6608 18.4139 33.561 19.0488 35.0123 18.0964Z" fill="black"/>
<path d="M29.6606 18.6858C29.9327 18.8672 30.2048 18.9579 30.5223 19.0486L30.4769 18.5044C30.1595 18.4137 29.8873 18.2777 29.6152 18.1416L29.6606 18.6858Z" fill="#575756"/>
<path d="M28.2999 17.0082C29.479 18.4141 33.3339 19.5932 35.0572 18.1419C35.42 17.8245 35.284 17.507 35.3293 16.6453C35.3747 15.7837 35.42 14.922 35.42 14.1964C35.5107 12.2916 35.4654 10.3868 35.3293 8.48208C35.3293 8.30067 35.284 8.16462 35.284 8.02856C34.2863 7.12153 33.1978 6.35056 32.0187 5.76099C31.2477 5.44353 30.4767 5.21677 29.6604 5.03537C26.7126 4.21904 27.8917 16.5546 28.2999 17.0082Z" fill="#3C3C3B"/>
<path d="M32.9254 6.25962C33.2429 6.89454 31.7009 8.07368 30.93 8.11903C30.7032 7.84692 30.6579 7.39341 30.4764 7.03059C30.2497 7.212 29.9776 7.34805 29.6601 7.57481C29.252 5.35259 31.7463 4.67232 32.3359 5.534C32.608 5.8061 32.7894 6.03286 32.9254 6.25962Z" fill="#E93A4C"/>
<path d="M26.9818 21.5455L26.7324 21.9775L28.0679 22.7482L28.3172 22.3161L26.9818 21.5455Z" fill="#333332"/>
<path d="M33.1076 19.5479L27.9375 22.4957C27.9375 22.7225 28.0736 22.8132 28.3003 22.7225L32.7448 20.1828C32.9715 20.0014 33.1076 19.7746 33.1076 19.5479Z" fill="#333332"/>
<path d="M21.3613 18.6408L26.5314 15.7383L33.1074 19.5478L27.9826 22.4957L21.3613 18.6408Z" fill="#575756"/>
<path d="M28.6182 21.271L28.3008 21.4524L28.6636 21.6792L28.9811 21.4978L28.6182 21.271Z" fill="#DADADA"/>
<path d="M27.4395 20.9534L27.8023 21.1801L28.1197 20.9987L27.7569 20.772L27.4395 20.9534Z" fill="#DADADA"/>
<path d="M27.3034 20.5454L27.0312 20.6815L27.3941 20.9082L27.6662 20.7268L27.3034 20.5454Z" fill="#DADADA"/>
<path d="M26.8936 20.2734L26.5762 20.4548L26.939 20.6816L27.2564 20.5002L26.8936 20.2734Z" fill="#DADADA"/>
<path d="M26.4401 20.0464L26.168 20.1824L26.5308 20.4092L26.8029 20.2278L26.4401 20.0464Z" fill="#DADADA"/>
<path d="M25.2617 19.6839L25.6245 19.9107L25.942 19.7293L25.5792 19.5479L25.2617 19.6839Z" fill="#DADADA"/>
<path d="M25.1256 19.2754L24.8535 19.4568L25.2163 19.6382L25.4884 19.5021L25.1256 19.2754Z" fill="#DADADA"/>
<path d="M24.7179 19.0488L24.4004 19.1849L24.7632 19.4116L25.0807 19.2302L24.7179 19.0488Z" fill="#DADADA"/>
<path d="M25.896 17.7334L26.2135 17.5974L25.8053 17.3706L25.5332 17.552L25.896 17.7334Z" fill="#DADADA"/>
<path d="M25.4429 17.5069L25.7604 17.3254L25.3975 17.144L25.0801 17.2801L25.4429 17.5069Z" fill="#DADADA"/>
<path d="M25.3068 17.0988L24.944 16.8721L24.6719 17.0535L25.0347 17.2802L25.3068 17.0988Z" fill="#DADADA"/>
<path d="M30.523 20.5454L30.7951 20.364L30.4323 20.1372L30.1602 20.3186L30.523 20.5454Z" fill="#DADADA"/>
<path d="M30.0698 20.2735L30.3873 20.1374L30.0245 19.9106L29.707 20.0921L30.0698 20.2735Z" fill="#DADADA"/>
<path d="M27.5742 18.822L28.2091 19.1848L28.3452 19.2755L28.4359 19.3209L28.6173 19.4116L28.8441 19.593L29.2069 19.7744L29.6604 20.0465L29.9325 19.8651L28.7534 19.1848L28.708 19.1395L27.8463 18.6406L27.5742 18.822Z" fill="#DADADA"/>
<path d="M27.4839 18.7769L27.756 18.5955L27.3932 18.4141L27.1211 18.5501L27.4839 18.7769Z" fill="#DADADA"/>
<path d="M27.0308 18.5498L27.3482 18.3684L26.9854 18.1416L26.668 18.323L27.0308 18.5498Z" fill="#DADADA"/>
<path d="M26.8947 18.0964L26.5319 17.915L26.2598 18.0511L26.6226 18.2779L26.8947 18.0964Z" fill="#DADADA"/>
<path d="M25.8068 17.7791L25.444 17.5977L25.1719 17.7337L25.5347 17.9605L25.8068 17.7791Z" fill="#DADADA"/>
<path d="M25.3971 17.5524L25.0343 17.3257L24.7168 17.5071L25.0796 17.7338L25.3971 17.5524Z" fill="#DADADA"/>
<path d="M24.9435 17.28L24.5807 17.0986L24.3086 17.28L24.6714 17.4614L24.9435 17.28Z" fill="#DADADA"/>
<path d="M30.4318 20.591L30.069 20.3643L29.7969 20.5457L30.1597 20.7271L30.4318 20.591Z" fill="#DADADA"/>
<path d="M29.3438 20.2733L29.7066 20.5L30.024 20.3186L29.6612 20.1372L29.3438 20.2733Z" fill="#DADADA"/>
<path d="M28.9355 20.0466L29.2984 20.228L29.5705 20.092L29.2077 19.8652L28.9355 20.0466Z" fill="#DADADA"/>
<path d="M28.4824 19.7742L28.8452 20.001L29.1627 19.8196L28.7999 19.6382L28.4824 19.7742Z" fill="#DADADA"/>
<path d="M28.0742 19.5476L28.437 19.729L28.7091 19.593L28.3463 19.3662L28.0742 19.5476Z" fill="#DADADA"/>
<path d="M27.6211 19.2756L27.9839 19.5024L28.3014 19.321L27.9386 19.0942L27.6211 19.2756Z" fill="#DADADA"/>
<path d="M27.166 19.0491L27.5288 19.2305L27.8463 19.0944L27.4835 18.8677L27.166 19.0491Z" fill="#DADADA"/>
<path d="M26.7578 18.7766L27.1206 19.0034L27.3927 18.822L27.0299 18.5952L26.7578 18.7766Z" fill="#DADADA"/>
<path d="M26.3047 18.5501L26.6675 18.7315L26.985 18.5501L26.6221 18.3687L26.3047 18.5501Z" fill="#DADADA"/>
<path d="M25.4435 18.0056L25.0807 17.8242L24.8086 17.9603L25.1714 18.187L25.4435 18.0056Z" fill="#DADADA"/>
<path d="M24.3555 17.7337L24.7183 17.9151L25.0357 17.7337L24.6729 17.5522L24.3555 17.7337Z" fill="#DADADA"/>
<path d="M24.5822 17.507L24.2194 17.2803L23.9473 17.4617L24.3101 17.6884L24.5822 17.507Z" fill="#DADADA"/>
<path d="M30.0685 20.7722L29.7057 20.5908L29.4336 20.7269L29.7964 20.9536L30.0685 20.7722Z" fill="#DADADA"/>
<path d="M28.9805 20.5003L29.3433 20.6817L29.6607 20.5456L29.2979 20.3188L28.9805 20.5003Z" fill="#DADADA"/>
<path d="M29.2072 20.2732L28.8444 20.0918L28.5723 20.2279L28.9351 20.4546L29.2072 20.2732Z" fill="#DADADA"/>
<path d="M28.7994 20.0466L28.4366 19.8198L28.1191 20.0012L28.482 20.228L28.7994 20.0466Z" fill="#DADADA"/>
<path d="M28.3459 19.7747L27.983 19.5933L27.7109 19.7293L28.0737 19.9561L28.3459 19.7747Z" fill="#DADADA"/>
<path d="M27.8927 19.5476L27.5299 19.3208L27.2578 19.5022L27.6206 19.6836L27.8927 19.5476Z" fill="#DADADA"/>
<path d="M26.8047 19.2303L27.1675 19.457L27.485 19.2756L27.1221 19.0942L26.8047 19.2303Z" fill="#DADADA"/>
<path d="M27.0314 19.049L26.6686 18.8223L26.3965 19.0037L26.7593 19.1851L27.0314 19.049Z" fill="#DADADA"/>
<path d="M25.896 18.6862L26.3042 18.9584L26.6216 18.777L26.1681 18.5502L26.5309 18.3234L26.1681 18.0967L25.8053 18.3234L25.6693 18.4141L25.5332 18.5048L25.76 18.6409L25.896 18.6862Z" fill="#DADADA"/>
<path d="M24.8081 18.414L25.0802 18.2326L24.7174 18.0059L24.4453 18.1873L24.8081 18.414Z" fill="#DADADA"/>
<path d="M24.3096 17.7788L23.9922 17.9149L24.355 18.1416L24.6725 17.9602L24.3096 17.7788Z" fill="#DADADA"/>
<path d="M24.2189 17.7336L23.8561 17.5068L23.584 17.6882L23.9468 17.8696L24.2189 17.7336Z" fill="#DADADA"/>
<path d="M29.7072 20.9987L29.3444 20.772L29.0723 20.9534L29.4351 21.1801L29.7072 20.9987Z" fill="#DADADA"/>
<path d="M28.98 20.9082L29.2975 20.7268L28.9346 20.5454L28.6172 20.6815L28.98 20.9082Z" fill="#DADADA"/>
<path d="M28.8439 20.5002L28.4811 20.2734L28.209 20.4548L28.5718 20.6816L28.8439 20.5002Z" fill="#DADADA"/>
<path d="M28.0733 20.0464L27.7559 20.2278L28.1187 20.4092L28.3908 20.2278L28.0733 20.0464Z" fill="#DADADA"/>
<path d="M27.9826 20.0012L27.6198 19.7744L27.3477 19.9558L27.7105 20.1826L27.9826 20.0012Z" fill="#DADADA"/>
<path d="M27.5295 19.7293L27.1666 19.5479L26.8945 19.6839L27.2573 19.9107L27.5295 19.7293Z" fill="#DADADA"/>
<path d="M26.8042 19.6836L27.1217 19.5021L26.7589 19.2754L26.4414 19.4568L26.8042 19.6836Z" fill="#DADADA"/>
<path d="M26.6681 19.2302L26.3053 19.0488L26.0332 19.1849L26.396 19.4116L26.6681 19.2302Z" fill="#DADADA"/>
<path d="M25.8068 18.7312L25.6707 18.6405L25.444 18.5498L25.1719 18.6859L25.3986 18.8219L25.5347 18.9126L25.9428 19.1847L26.2603 19.0033L25.8068 18.7312Z" fill="#DADADA"/>
<path d="M23.7207 18.5955L24.0835 18.8222L24.3556 18.6408L23.9928 18.4141L23.7207 18.5955Z" fill="#DADADA"/>
<path d="M23.5831 18.187L23.2656 18.3684L23.6284 18.5498L23.9459 18.4138L23.5831 18.187Z" fill="#DADADA"/>
<path d="M23.1295 17.915L22.8574 18.0964L23.2202 18.3232L23.4923 18.1418L23.1295 17.915Z" fill="#DADADA"/>
<path d="M29.9776 18.1873L29.1159 18.6861C29.0706 18.7315 29.0252 18.7315 28.9799 18.6861L27.6647 17.9151C27.6647 17.9151 27.6193 17.8698 27.6647 17.8698L28.5264 17.3709C28.5717 17.3256 28.6171 17.3256 28.6624 17.3709L29.9776 18.0966C30.023 18.0966 30.023 18.1419 30.023 18.1419C30.023 18.1419 30.023 18.1873 29.9776 18.1873Z" fill="#878787"/>
<path d="M30.7487 17.1441C30.9755 16.5545 34.1048 13.7881 34.4676 13.516C33.6512 12.2008 33.0617 10.7042 32.7442 9.16222C32.7442 7.62027 34.8757 6.98535 35.4653 8.4366C37.0979 11.974 37.6422 13.7427 37.6422 14.1509C37.6422 14.559 37.4608 14.9219 37.1887 15.194C36.9165 15.4661 36.5084 15.9196 32.2907 18.5046C31.1569 19.1395 30.522 17.6883 30.7487 17.1441Z" fill="#E93A4C"/>
<path d="M27.5746 19.6382C27.6654 19.7289 27.8468 19.7289 27.9375 19.5928L28.3456 19.094L29.0712 18.4591L29.1166 18.4137L28.7084 18.1416L28.0282 18.6405L27.5293 19.5475C27.5293 19.5928 27.5293 19.6382 27.5746 19.6382Z" fill="#FFBB7D"/>
<path opacity="0.1" d="M27.5742 19.6386C27.6649 19.7293 27.8463 19.7293 27.937 19.5932L28.3452 19.0943L29.0708 18.4594L29.0255 18.4141L28.2998 18.8222C28.0731 19.2304 27.8463 19.6386 27.5742 19.6386Z" fill="#1D1D1B"/>
<path d="M27.8923 20.0014C27.983 20.0921 28.1644 20.0467 28.2551 19.956L28.6632 19.4118L29.4342 18.7769L29.0714 18.4141L28.3458 19.0036L27.8469 19.8653C27.8016 19.9107 27.8469 19.956 27.8923 20.0014Z" fill="#FFBB7D"/>
<path d="M28.1645 17.7336C28.2098 17.8243 28.3005 17.915 28.3912 17.9604C28.6634 18.0964 28.9808 18.1418 29.2983 18.1418L29.4797 18.1871L30.0239 18.3232L30.2053 17.7336L30.2507 17.6429L30.296 17.5068L29.7518 17.5522C29.2529 17.6429 28.7994 17.6429 28.3005 17.5068C28.2098 17.5068 28.1191 17.5522 28.1191 17.6882C28.1645 17.6882 28.1645 17.7336 28.1645 17.7336Z" fill="#FFBB7D"/>
<path opacity="0.1" d="M28.1641 17.7338C28.2094 17.8245 28.3001 17.9152 28.3908 17.9605C28.6629 18.0966 28.9804 18.1419 29.2978 18.1419L29.4793 18.1873L30.2049 17.7338L30.3863 17.6431H30.2502C29.4339 17.6884 28.7536 18.0059 28.1641 17.7338Z" fill="#1D1D1B"/>
<path d="M28.709 18.1419L29.6614 19.0489L29.9788 19.321L30.0695 19.3664C30.6137 19.3664 31.1126 19.0036 31.3394 18.5047L31.8836 18.0965C31.8836 17.9151 31.8382 17.7791 31.7475 17.643C31.5661 17.3256 31.158 17.0534 30.8859 17.1441C30.5684 17.4163 30.2056 17.5523 29.7974 17.5977C29.3893 17.7337 29.0264 17.9151 28.709 18.1419Z" fill="#FFBB7D"/>
<path opacity="0.1" d="M27.8926 20.0013C27.9833 20.092 28.1647 20.0466 28.2554 19.9559L28.6636 19.4117L29.4345 18.7768L29.3892 18.7314L28.6182 19.2303C28.3914 19.5931 28.1647 19.9559 27.8926 20.0013Z" fill="#1D1D1B"/>
<path d="M28.3008 20.2279C28.3008 20.2733 28.3008 20.3186 28.3461 20.364C28.4822 20.4547 28.6182 20.4093 28.7089 20.2733L29.0718 19.6837L29.7067 19.0034L29.752 18.9127L29.3892 18.6406L28.7543 19.2755L28.3008 20.2279Z" fill="#FFBB7D"/>
<path opacity="0.1" d="M28.3906 20.364C28.5267 20.4547 28.6627 20.4093 28.7534 20.2733L29.1162 19.6837L29.7512 19.0034L29.0255 19.5476C28.7988 19.9558 28.6627 20.3186 28.3906 20.364Z" fill="#1D1D1B"/>
<path d="M28.9355 20.2735C28.9355 20.3189 28.9355 20.3642 28.9809 20.4096C29.0716 20.5003 29.253 20.4549 29.2984 20.3642L29.6158 19.8653L29.9786 19.4572L30.16 19.2304L30.2054 19.1397L29.7972 18.8223L29.6158 19.049L29.2984 19.4118L28.9355 20.2735Z" fill="#FFBB7D"/>
<path opacity="0.1" d="M28.9805 20.3642C29.0712 20.4549 29.2526 20.4096 29.2979 20.3189L29.6154 19.82L29.9782 19.4118C30.5224 19.4118 31.0213 19.049 31.248 18.5502L31.7923 18.142C31.7923 17.9606 31.7469 17.8245 31.6562 17.6885C31.7016 18.0059 31.4748 18.278 31.1573 18.3687C30.9306 18.7769 30.5678 19.049 30.1143 19.1851H29.9782L29.8421 19.3211L29.4793 19.7293C29.3433 20.1375 29.2526 20.3642 28.9805 20.3642Z" fill="#1D1D1B"/>
<path d="M25.3074 14.9672L26.4865 12.6543C27.1668 12.9718 27.3935 13.8788 27.5296 15.0579L26.8947 15.7382C26.033 16.6452 25.0806 15.3754 25.3074 14.9672Z" fill="#E93A4C"/>
<path d="M26.3958 15.6022C26.3958 15.6475 26.3505 15.7382 26.3505 15.7836L26.0784 16.101L25.9877 16.1917L25.3527 16.8267L23.9922 15.965L25.0353 15.3301L25.4888 14.9672C25.7155 14.8765 26.4412 15.194 26.3958 15.6022Z" fill="#FFBB7D"/>
<path d="M24.537 16.1463L23.7207 16.7358L23.63 17.3707C23.63 17.4614 23.5846 17.5068 23.5393 17.5521C23.4939 17.5975 23.4939 17.5975 23.4486 17.5975C23.4032 17.5975 23.3125 17.5521 23.3125 17.5068V17.4614V17.4161L23.4486 16.5544C23.4486 16.5544 24.1288 15.9648 24.1742 15.9648C24.2649 15.9648 24.4009 16.0102 24.537 16.1463Z" fill="#FFBB7D"/>
<path opacity="0.1" d="M24.2634 16.1919L23.6284 16.6908L23.5377 17.3257C23.5377 17.371 23.4924 17.4617 23.4924 17.5524C23.447 17.5978 23.447 17.5978 23.4017 17.5978C23.3563 17.5978 23.2656 17.5524 23.2656 17.5071V17.4617C23.4017 17.235 23.4924 16.9629 23.4924 16.6908L24.2634 16.1919Z" fill="#1D1D1B"/>
<path d="M24.8534 16.2824L24.5359 16.5092L23.8556 17.0534L23.6289 17.6883C23.5835 17.779 23.4928 17.8697 23.3568 17.9151C23.3114 17.9151 23.2661 17.8697 23.2661 17.8697C23.2207 17.8244 23.2207 17.7337 23.2207 17.6883L23.4928 16.7813C23.4928 16.7813 24.3091 16.0557 24.3998 16.0557C24.4905 16.0557 24.8534 16.2824 24.8534 16.2824Z" fill="#FFBB7D"/>
<path opacity="0.1" d="M24.7169 16.3276L24.5355 16.509L23.8552 17.0533L23.6284 17.6882C23.5831 17.7789 23.4924 17.8696 23.3563 17.9149C23.311 17.9149 23.2656 17.8696 23.2656 17.8696C23.447 17.8242 23.6738 17.3707 23.7191 17.0079L24.7169 16.3276Z" fill="#1D1D1B"/>
<path d="M25.2172 16.4637L24.7637 16.8719L24.1288 17.4161L23.8113 18.0056C23.7206 18.0963 23.6299 18.187 23.4939 18.187H23.4485C23.4485 18.187 23.4032 18.187 23.4032 18.1417C23.3578 18.0963 23.3578 18.0056 23.4032 17.9603L23.8567 17.144C24.1288 16.8265 24.4462 16.5544 24.7637 16.3276C24.9451 16.3276 25.0812 16.373 25.2172 16.4637Z" fill="#FFBB7D"/>
<path opacity="0.1" d="M24.9896 16.5547L24.7629 16.8721L24.128 17.4164L23.8105 18.0059C23.7198 18.0966 23.6291 18.1873 23.493 18.1873H23.4477L23.4023 18.142C23.5837 18.1873 23.9919 17.7338 24.0373 17.3257L24.9896 16.5547Z" fill="#1D1D1B"/>
<path d="M25.4892 16.7359L24.6728 17.5522L24.4007 18.1418C24.3554 18.2325 24.2647 18.3232 24.1286 18.3232C24.0833 18.3232 24.0379 18.2779 24.0379 18.2779C23.9926 18.2325 23.9926 18.1418 24.0379 18.0965L24.4007 17.2348C24.6275 16.9627 24.8996 16.6452 25.1717 16.4185C25.2171 16.4185 25.3985 16.5545 25.4892 16.6452V16.7359Z" fill="#FFBB7D"/>
<path opacity="0.1" d="M25.4884 16.7357L24.672 17.552L24.3999 18.1416C24.3546 18.2323 24.2639 18.323 24.1278 18.323C24.0825 18.323 24.0371 18.2777 24.0371 18.2777C24.2185 18.2777 24.536 17.8242 24.5813 17.4613L25.443 16.645L25.4884 16.7357Z" fill="#1D1D1B"/>
<path d="M26.0787 15.9194C26.0787 15.9647 26.0787 16.0101 26.0787 16.0554C26.124 16.2822 26.0787 16.5543 26.0333 16.7811C25.9426 16.9625 25.8519 17.1439 25.7159 17.2799C25.5798 17.4613 25.5345 17.6427 25.4437 17.8241C25.4437 17.9148 25.3984 17.9602 25.3077 18.0055C25.2623 18.0055 25.217 18.0055 25.1716 18.0055C25.1263 18.0055 25.0809 17.9602 25.0356 17.9148C24.9902 17.8241 24.9902 17.7334 24.9902 17.6427C25.0356 17.3253 25.2623 17.0532 25.3077 16.7811C25.3077 16.7357 25.3077 16.7357 25.3077 16.6903C25.3077 16.5996 25.3077 16.5089 25.3077 16.3729C25.353 16.2368 25.4437 16.1008 25.5798 16.0101C25.6705 15.9647 25.8066 15.9194 25.8973 15.874L26.0787 15.9194Z" fill="#FFBB7D"/>
<path opacity="0.1" d="M26.3964 15.6021C26.3964 15.6474 26.351 15.7381 26.351 15.7835L26.0789 16.1009C26.1243 16.3277 26.0789 16.5998 26.0336 16.8265C25.9428 17.0079 25.8521 17.1894 25.7161 17.3254C25.58 17.5068 25.5347 17.6882 25.444 17.8696C25.444 17.9603 25.3986 18.0057 25.3079 18.051C25.2626 18.051 25.2172 18.051 25.1719 18.051C25.2172 18.0057 25.2626 17.9603 25.2626 17.915C25.3079 17.7789 25.3533 17.6882 25.3986 17.5522C25.4893 17.3708 25.6254 17.1894 25.7614 17.0079C25.8975 16.7358 25.9882 16.4637 25.9428 16.1463C25.9428 16.0102 25.8975 15.9195 25.8521 15.7835C25.9429 15.7835 26.0336 15.7835 26.0789 15.7835L26.3964 15.6021Z" fill="#1D1D1B"/>
<path d="M21.361 18.7316L19.9551 13.5615C19.7737 13.7429 19.683 13.9697 19.7284 14.1964L20.9528 18.6862C20.9528 18.913 21.1342 18.913 21.361 18.7316Z" fill="#4A4A49"/>
<path d="M26.531 17.371L27.6195 22.6318L20.9982 18.8676L19.9551 13.5615L26.531 17.371Z" fill="#4A4A49"/>
<path d="M27.9372 22.5407L26.5313 17.3706C26.3499 17.552 26.2592 17.7788 26.3045 18.0055L27.529 22.4953C27.5744 22.7221 27.7558 22.7221 27.9372 22.5407Z" fill="#333332"/>
<path d="M23.766 18.3231C23.8113 18.5498 23.6753 18.6405 23.4485 18.5498C23.2218 18.4138 23.0404 18.187 22.995 17.9602C22.9497 17.7335 23.0857 17.6428 23.3125 17.7335C23.5392 17.8695 23.6753 18.0509 23.766 18.3231Z" fill="#DADADA"/>
<path d="M29.1619 3.53864C28.6631 3.26653 27.9828 2.76766 27.9374 2.08739C27.8921 1.27106 28.6631 0.817548 29.7515 0.59079C31.2481 0.27333 32.1551 1.36177 32.1098 2.94907C32.0644 3.49328 32.1551 4.26426 31.9284 4.35496C31.5656 4.49102 31.747 4.26426 31.4749 4.40031L29.1619 3.53864Z" fill="#1D1D1B"/>
<path d="M29.9787 6.84915L29.7973 6.07818L29.752 5.85142L31.7928 3.85596L32.2009 5.3072C32.7452 6.7131 30.3415 7.52943 29.9787 6.84915Z" fill="#FFBB7D"/>
<path opacity="0.1" d="M29.9783 6.84941L29.7969 6.07844L31.3388 4.80859C31.6109 5.71562 30.976 6.84941 29.9783 6.84941Z" fill="#1D1D1B"/>
<path d="M27.8477 2.5408C27.8477 1.58842 28.7547 1.04421 29.7524 0.8628C31.1583 0.590691 31.6572 1.49772 31.8839 2.5408C31.9293 3.08502 31.9293 3.62924 31.8386 4.17346L31.2944 4.80838C31.249 5.17119 31.113 5.48865 30.8862 5.76076C30.6141 6.12357 30.2059 6.39568 29.7524 6.44103C29.2989 6.48638 28.9361 6.25963 28.664 5.534C28.3919 4.80838 28.3465 4.85373 28.2558 4.53627C28.2105 4.40021 28.2105 4.17346 28.1651 4.08275C28.1198 3.99205 28.0291 3.81065 27.9837 3.67459C27.893 3.31178 27.8477 2.90362 27.8477 2.5408Z" fill="#FFBB7D"/>
<path d="M30.5225 1.67913C30.7946 1.49772 30.84 3.26643 30.84 3.26643C30.84 3.26643 31.2482 3.13038 31.3389 3.22108C31.5656 3.35713 31.3842 4.03741 31.611 4.30951C31.6563 4.40022 31.7924 4.40022 31.9284 4.30951C32.0191 3.81065 32.0191 3.31178 32.0191 2.81292C31.9738 2.31405 31.8377 1.86053 31.611 1.45237C31.3389 1.04421 30.8853 0.772099 30.4318 0.681396C29.9783 0.636045 29.5248 0.681396 29.162 0.862802C28.1643 1.27097 27.9375 1.63378 27.9375 2.04194C28.1189 2.49546 29.2073 2.63151 30.5225 1.67913Z" fill="#1D1D1B"/>
<path d="M31.2474 2.72221C31.5649 2.5408 31.6102 2.99432 31.6556 3.17572C31.6556 3.31178 31.6556 3.44783 31.6556 3.58389C31.6556 3.71994 31.7009 3.85599 31.6556 3.99205C31.4742 4.26416 31.2021 3.90135 31.1114 3.76529C31.0207 3.62924 31.0207 2.90361 31.2474 2.72221Z" fill="#FFBB7D"/>
<path d="M28.1636 4.30937C28.4811 4.49078 28.8439 4.35473 28.7532 3.85586C28.8439 3.81051 28.8892 3.81051 28.9799 3.85586C29.1613 4.85359 30.4765 4.35473 30.2498 3.67445C30.1137 3.40234 29.6602 3.58375 29.2067 3.6291C29.1613 3.6291 29.0253 3.67445 29.0253 3.71981C28.9346 3.67445 28.8439 3.67445 28.7532 3.71981C28.6625 3.71981 28.5718 3.67445 28.5264 3.67445C28.1636 3.58375 27.8008 3.40234 27.8008 3.67445C27.8008 3.94656 27.9368 4.17332 28.1636 4.30937ZM29.0253 3.85586C29.0253 3.81051 29.0253 3.71981 29.1613 3.71981C29.2974 3.71981 29.4334 3.67445 29.5695 3.67445C29.8869 3.6291 30.0684 3.58375 30.1591 3.71981C30.2044 3.81051 30.2044 3.94656 30.1591 4.03727C30.0684 4.17332 29.9323 4.30937 29.7509 4.30937C29.6148 4.35473 29.4334 4.35473 29.2974 4.26402C29.1613 4.21867 29.0706 4.03727 29.0253 3.85586ZM27.8915 3.67445C27.8915 3.6291 27.8915 3.58375 27.9368 3.58375C27.9822 3.58375 28.0729 3.58375 28.2543 3.6291C28.4357 3.67445 28.4357 3.67445 28.5264 3.71981C28.5718 3.71981 28.6625 3.76516 28.6625 3.85586C28.7532 4.03727 28.7532 4.30937 28.5264 4.35473C28.3903 4.40008 28.2543 4.35473 28.1636 4.26402C27.9822 4.12797 27.8915 3.90121 27.8915 3.67445Z" fill="#1D1D1B"/>
<path d="M30.1606 3.76523L30.9769 3.17566V3.08496L30.1152 3.67453L30.1606 3.76523Z" fill="#1D1D1B"/>
</g>
<defs>
<linearGradient id="paint0_linear_3165_3576" x1="0.5" y1="60.4371" x2="80.5" y2="60.4371" gradientUnits="userSpaceOnUse">
<stop stop-color="#C2DD00"/>
<stop offset="0.1" stop-color="#C7E000"/>
<stop offset="0.3" stop-color="#CAE200"/>
<stop offset="0.55" stop-color="#BAD200"/>
<stop offset="0.74" stop-color="#B4CC00"/>
<stop offset="1" stop-color="#8AA500"/>
</linearGradient>
<clipPath id="clip0_3165_3576">
<rect width="80" height="75.3288" fill="white" transform="translate(0.5 0.5)"/>
</clipPath>
</defs>
</svg>
