<svg width="81" height="74" viewBox="0 0 81 74" fill="none" xmlns="http://www.w3.org/2000/svg">
<g clip-path="url(#clip0_3165_3782)">
<path d="M67.2574 34.8313C49.6156 24.6272 31.3844 24.6272 13.7426 34.8313C4.89909 39.9106 0.5 45.0807 0.5 50.2508C0.5 55.4209 4.89909 60.5909 13.7426 65.7156C31.3844 75.9197 49.6156 75.9197 67.2574 65.7156C76.1009 60.6363 80.5 55.4209 80.5 50.2508C80.5 45.0807 76.1009 39.9106 67.2574 34.8313Z" fill="#949494"/>
<path d="M67.2574 58.0059C49.6156 68.21 31.3844 68.21 13.7426 58.0059C4.89909 52.9265 0.5 47.7111 0.5 42.541V50.2508C0.5 55.4208 4.89909 60.5909 13.7426 65.7156C31.3844 75.9197 49.6156 75.9197 67.2574 65.7156C76.1009 60.6363 80.5 55.4208 80.5 50.2508V42.541C80.5 47.7111 76.1009 52.9265 67.2574 58.0059Z" fill="url(#paint0_linear_3165_3782)"/>
<path d="M67.2574 27.1213C49.6156 16.9172 31.3844 16.9172 13.7426 27.1213C4.89909 32.2007 0.5 37.3708 0.5 42.5408C0.5 47.7109 4.89909 52.881 13.7426 58.0057C31.3844 68.2098 49.6156 68.2098 67.2574 58.0057C76.1009 52.9263 80.5 47.7109 80.5 42.5408C80.5 37.3708 76.1009 32.2007 67.2574 27.1213Z" fill="#008CFF"/>
<mask id="mask0_3165_3782" style="mask-type:luminance" maskUnits="userSpaceOnUse" x="0" y="19" width="81" height="47">
<path d="M67.2574 27.1213C49.6156 16.9172 31.3844 16.9172 13.7426 27.1213C4.89909 32.2007 0.5 37.3708 0.5 42.5408C0.5 47.7109 4.89909 52.881 13.7426 58.0057C31.3844 68.2098 49.6156 68.2098 67.2574 58.0057C76.1009 52.9263 80.5 47.7109 80.5 42.5408C80.5 37.3708 76.1009 32.2007 67.2574 27.1213Z" fill="white"/>
</mask>
<g mask="url(#mask0_3165_3782)">
<path opacity="0.03" d="M87.5735 26.4411L79.8184 21.9514V18.7314L54.9205 4.35498L51.5645 6.30509V38.9128L76.4624 53.2439L79.8184 51.3391V50.2507L84.9885 53.2439L87.5735 51.7926V50.5228L92.2901 53.2439L93.9681 52.3368V36.1464L87.5735 32.4729V26.4411Z" fill="#FBFCFD"/>
<path opacity="0.06" d="M86.5774 26.4411L78.777 21.9514V18.7314L53.879 4.35498L50.5684 6.30509V38.9128L75.4663 53.2439L78.777 51.3391V50.2507L83.9924 53.2439L86.5774 51.7926V50.5228L91.294 53.2439L92.9266 52.3368V36.1464L86.5774 32.4729V26.4411Z" fill="#F6F9FB"/>
<path opacity="0.09" d="M85.5794 26.4411L77.7789 21.9514V18.7314L52.881 4.35498L49.5703 6.30509V38.9128L74.4683 53.2439L77.7789 51.3391V50.2507L82.9944 53.2439L85.5794 51.7926V50.5228L90.2959 53.2439L91.9286 52.3368V36.1464L85.5794 32.4729V26.4411Z" fill="#F2F6FA"/>
<path opacity="0.12" d="M84.536 26.4411L76.7809 21.9514V18.7314L51.8829 4.35498L48.5723 6.30509V38.9128L73.4702 53.2439L76.7809 51.3391V50.2507L81.951 53.2439L84.536 51.7926V50.5228L89.2979 53.2439L90.9305 52.3368V36.1464L84.536 32.4729V26.4411Z" fill="#EDF3F8"/>
<path opacity="0.15" d="M83.5384 26.4411L75.7833 21.9514V18.7314L50.8853 4.35498L47.5293 6.30509V38.9128L72.4273 53.2439L75.7833 51.3391V50.2507L80.9533 53.2439L83.5384 51.7926V50.5228L88.2549 53.2439L89.9329 52.3368V36.1464L83.5384 32.4729V26.4411Z" fill="#E9F0F6"/>
<path opacity="0.18" d="M82.5403 26.4411L74.7399 21.9514V18.7314L49.8419 4.35498L46.5312 6.30509V38.9128L71.4292 53.2439L74.7399 51.3391V50.2507L79.9553 53.2439L82.5403 51.7926V50.5228L87.2569 53.2439L88.8895 52.3368V36.1464L82.5403 32.4729V26.4411Z" fill="#E4EDF4"/>
<path opacity="0.21" d="M81.5423 26.4411L73.7418 21.9514V18.7314L48.8439 4.35498L45.5332 6.30509V38.9128L70.4312 53.2439L73.7418 51.3391V50.2507L78.9572 53.2439L81.5423 51.7926V50.5228L86.2588 53.2439L87.8915 52.3368V36.1464L81.5423 32.4729V26.4411Z" fill="#E0EAF2"/>
<path opacity="0.24" d="M80.4989 26.4411L72.7438 21.9514V18.7314L47.8458 4.35498L44.5352 6.30509V38.9128L69.4331 53.2439L72.7438 51.3391V50.2507L77.9592 53.2439L80.4989 51.7926V50.5228L85.2608 53.2439L86.8934 52.3368V36.1464L80.4989 32.4729V26.4411Z" fill="#DBE7F1"/>
<path opacity="0.27" d="M79.5013 26.4411L71.7462 21.9514V18.7314L46.8482 4.35498L43.4922 6.30509V38.9128L68.3901 53.2439L71.7462 51.3391V50.2507L76.9162 53.2439L79.5013 51.7926V50.5228L84.2178 53.2439L85.8958 52.3368V36.1464L79.5013 32.4729V26.4411Z" fill="#D7E4EF"/>
<path opacity="0.3" d="M78.5032 26.4411L70.7481 21.9514V18.7314L45.8048 4.35498L42.4941 6.30509V38.9128L67.3921 53.2439L70.7481 51.3391V50.2507L75.9182 53.2439L78.5032 51.7926V50.5228L83.2198 53.2439L84.8978 52.3368V36.1464L78.5032 32.4729V26.4411Z" fill="#D2E1ED"/>
<path opacity="0.33" d="M77.5071 26.4411L69.7067 21.9514V18.7314L44.8087 4.35498L41.498 6.30509V38.9128L66.396 53.2439L69.7067 51.3391V50.2507L74.9221 53.2439L77.5071 51.7926V50.5228L82.2237 53.2439L83.8563 52.3368V36.1464L77.5071 32.4729V26.4411Z" fill="#CEDEEB"/>
<path opacity="0.36" d="M76.5091 26.4411L68.7086 21.9514V18.7314L43.8107 4.35498L40.5 6.30509V38.9128L65.398 53.2439L68.7086 51.3391V50.2507L73.924 53.2439L76.5091 51.7926V50.5228L81.2256 53.2439L82.8583 52.3368V36.1464L76.5091 32.4729V26.4411Z" fill="#CADBEA"/>
<path opacity="0.39" d="M75.4661 26.4411L67.711 21.9514V18.7314L42.813 4.35498L39.457 6.30509V38.9128L64.4003 53.2439L67.711 51.3391V50.2507L72.8811 53.2439L75.4661 51.7926V50.5228L80.1827 53.2439L81.8607 52.3368V36.1464L75.4661 32.4729V26.4411Z" fill="#C5D8E8"/>
<path opacity="0.42" d="M74.4681 26.4411L66.713 21.9514V18.7314L41.815 4.35498L38.459 6.30509V38.9128L63.3569 53.2439L66.713 51.3391V50.2507L71.883 53.2439L74.4681 51.7926V50.5228L79.1846 53.2439L80.8626 52.3368V36.1464L74.4681 32.4729V26.4411Z" fill="#C1D5E6"/>
<path opacity="0.45" d="M73.47 26.4411L65.6696 21.9514V18.7314L40.7716 4.35498L37.4609 6.30509V38.9128L62.3589 53.2439L65.6696 51.3391V50.2507L70.885 53.2439L73.47 51.7926V50.5228L78.1866 53.2439L79.8192 52.3368V36.1464L73.47 32.4729V26.4411Z" fill="#BCD2E4"/>
<path opacity="0.48" d="M72.472 26.4411L64.6715 21.9514V18.7314L39.7735 4.35498L36.4629 6.30509V38.9128L61.3608 53.2439L64.6715 51.3391V50.2507L69.8869 53.2439L72.472 51.7926V50.5228L77.1885 53.2439L78.8212 52.3368V36.1464L72.472 32.4729V26.4411Z" fill="#B8CFE2"/>
<path opacity="0.52" d="M71.4286 26.4411L63.6735 21.9514V18.7314L38.7755 4.35498L35.4648 6.30509V38.9128L60.3175 53.2439L63.6735 51.3391V50.2507L68.8435 53.2439L71.4286 51.7926V50.5228L76.1905 53.2439L77.8231 52.3368V36.1464L71.4286 32.4729V26.4411Z" fill="#B3CDE1"/>
<path opacity="0.55" d="M70.4309 26.4411L62.6758 21.9514V18.7314L37.7779 4.35498L34.4219 6.30509V38.9128L59.3198 53.2439L62.6758 51.3391V50.2507L67.8459 53.2439L70.4309 51.7926V50.5228L75.1475 53.2439L76.8255 52.3368V36.1464L70.4309 32.4729V26.4411Z" fill="#AFCADF"/>
<path opacity="0.58" d="M69.4329 26.4411L61.6324 21.9514V18.7314L36.7345 4.35498L33.4238 6.30509V38.9128L58.3218 53.2439L61.6324 51.3391V50.2507L66.8479 53.2439L69.4329 51.7926V50.5228L74.1495 53.2439L75.7821 52.3368V36.1464L69.4329 32.4729V26.4411Z" fill="#AAC7DD"/>
<path opacity="0.61" d="M68.4368 26.4411L60.6364 21.9514V18.7314L35.7384 4.35498L32.4277 6.30509V38.9128L57.3257 53.2439L60.6364 51.3391V50.2507L65.8518 53.2439L68.4368 51.7926V50.5228L73.1534 53.2439L74.786 52.3368V36.1464L68.4368 32.4729V26.4411Z" fill="#A6C4DB"/>
<path opacity="0.64" d="M67.4388 26.4411L59.6383 21.9514V18.7314L34.7403 4.35498L31.4297 6.30509V38.9128L56.3276 53.2439L59.6383 51.3391V50.2507L64.8537 53.2439L67.4388 51.7926V50.5228L72.11 53.2439L73.788 52.3368V36.1464L67.4388 32.4729V26.4411Z" fill="#A1C1D9"/>
<path opacity="0.67" d="M66.3958 26.4411L58.6407 21.9514V18.7314L33.7427 4.35498L30.3867 6.30509V38.9128L55.2847 53.2439L58.6407 51.3391V50.2507L63.8108 53.2439L66.3958 51.7926V50.5228L71.1123 53.2439L72.7903 52.3368V36.1464L66.3958 32.4729V26.4411Z" fill="#9DBED8"/>
<path opacity="0.7" d="M65.3977 26.4411L57.5973 21.9514V18.7314L32.7447 4.35498L29.3887 6.30509V38.9128L54.2866 53.2439L57.5973 51.3391V50.2507L62.8127 53.2439L65.3977 51.7926V50.5228L70.1143 53.2439L71.747 52.3368V36.1464L65.3977 32.4729V26.4411Z" fill="#99BBD6"/>
<path opacity="0.73" d="M64.3997 26.4411L56.5992 21.9514V18.7314L31.7013 4.35498L28.3906 6.30509V38.9128L53.2886 53.2439L56.5992 51.3391V50.2507L61.8147 53.2439L64.3997 51.7926V50.5228L69.1163 53.2439L70.7489 52.3368V36.1464L64.3997 32.4729V26.4411Z" fill="#94B8D4"/>
<path opacity="0.76" d="M63.4016 26.4411L55.6012 21.9514V18.7314L30.7032 4.35498L27.3926 6.30509V38.9128L52.2905 53.2439L55.6012 51.3391V50.2507L60.8166 53.2439L63.4016 51.7926V50.5228L68.1182 53.2439L69.7509 52.3368V36.1464L63.4016 32.4729V26.4411Z" fill="#90B5D2"/>
<path opacity="0.79" d="M62.3587 26.4411L54.6036 21.9514V18.7314L29.7056 4.35498L26.3496 6.30509V38.9128L51.2476 53.2439L54.6036 51.3391V50.2507L59.7736 53.2439L62.3587 51.7926V50.5228L67.0752 53.2439L68.7532 52.3368V36.1464L62.3587 32.4729V26.4411Z" fill="#8BB2D1"/>
<path opacity="0.82" d="M61.3606 26.4411L53.6055 21.9514V18.7314L28.7076 4.35498L25.3516 6.30509V38.9128L50.2495 53.2439L53.6055 51.3391V50.2507L58.7756 53.2439L61.3606 51.7926V50.5228L66.0772 53.2439L67.7552 52.3368V36.1464L61.3606 32.4729V26.4411Z" fill="#87AFCF"/>
<path opacity="0.85" d="M60.3626 26.4411L52.5621 21.9514V18.7314L27.6642 4.35498L24.3535 6.30509V38.9128L49.2515 53.2439L52.5621 51.3391V50.2507L57.7776 53.2439L60.3626 51.7926V50.5228L65.0791 53.2439L66.7118 52.3368V36.1464L60.3626 32.4729V26.4411Z" fill="#82ACCD"/>
<path opacity="0.88" d="M59.3665 26.4411L51.566 21.9514V18.7314L26.6681 4.35498L23.3574 6.30509V38.9128L48.2554 53.2439L51.566 51.3391V50.2507L56.7815 53.2439L59.3665 51.7926V50.5228L64.083 53.2439L65.7157 52.3368V36.1464L59.3665 32.4729V26.4411Z" fill="#7EA9CB"/>
<path opacity="0.91" d="M58.3231 26.4411L50.568 21.9514V18.7314L25.67 4.35498L22.3594 6.30509V38.9128L47.2573 53.2439L50.568 51.3391V50.2507L55.7381 53.2439L58.3231 51.7926V50.5228L63.0396 53.2439L64.7177 52.3368V36.1464L58.3231 32.4729V26.4411Z" fill="#79A6C9"/>
<path opacity="0.94" d="M57.3255 26.4411L49.5704 21.9514V18.7314L24.6724 4.35498L21.3164 6.30509V38.9128L46.2144 53.2439L49.5704 51.3391V50.2507L54.7404 53.2439L57.3255 51.7926V50.5228L62.042 53.2439L63.72 52.3368V36.1464L57.3255 32.4729V26.4411Z" fill="#75A3C8"/>
<path opacity="0.97" d="M56.3274 26.4411L48.527 21.9514V18.7314L23.629 4.35498L20.3184 6.30509V38.9128L45.2163 53.2439L48.527 51.3391V50.2507L53.7424 53.2439L56.3274 51.7926V50.5228L61.044 53.2439L62.6766 52.3368V36.1464L56.3274 32.4729V26.4411Z" fill="#70A0C6"/>
<path d="M55.3294 26.4411L47.5289 21.9514V18.7314L22.631 4.35498L19.3203 6.30509V38.9128L44.2183 53.2439L47.5289 51.3391V50.2507L52.7443 53.2439L55.3294 51.7926V50.5228L60.0459 53.2439L61.6786 52.3368V36.1464L55.3294 32.4729V26.4411Z" fill="#6C9DC4"/>
</g>
<path d="M62.2683 28.7996C62.1776 30.5683 61.2706 32.1556 59.774 33.108L33.1527 48.4821L24.037 53.7429C23.3114 54.151 22.6311 54.1964 22.1776 53.8789L19.4565 52.337C18.9577 51.9742 18.6855 51.3393 18.7309 50.7043V43.0853L18.6855 25.8064C18.7762 24.0377 19.7286 22.4504 21.1799 21.498L56.9168 0.86306C57.4157 0.500248 58.096 0.409545 58.6856 0.681654L61.3613 2.2236C61.4066 2.2236 61.4066 2.26896 61.452 2.26896C61.9055 2.54106 62.1776 3.08528 62.1776 3.85626L62.223 21.1352L62.2683 28.7996Z" fill="#497BFE"/>
<path d="M21.4969 44.718L18.7305 43.0853L59.4561 19.5933L62.2225 21.1806L21.4969 44.718Z" fill="#E3E7F0"/>
<path d="M62.2689 28.7993C62.1782 30.568 61.2711 32.1553 59.7745 33.1077L24.0376 53.7426C23.312 54.1508 22.6317 54.1961 22.1782 53.8787L19.4571 52.3367C18.9582 51.9739 18.6861 51.339 18.7315 50.704V43.085L21.4979 44.7177L62.2235 21.2256L62.2689 28.7993Z" fill="#E9E7FC"/>
<path d="M22.2692 53.9245L19.5028 52.2918C19.0039 51.929 18.6865 51.2941 18.7772 50.6591V43.0854L21.5436 44.7181V52.3372C21.4529 52.9267 21.7704 53.5616 22.2692 53.9245Z" fill="#E9E7FC"/>
<path d="M62.2232 21.1807V28.7997C62.1325 30.5684 61.2255 32.1557 59.7289 33.1081L24.0373 53.743C22.6768 54.5594 21.543 53.8791 21.543 52.2918V44.7181L62.2232 21.1807Z" fill="#F3F1FC"/>
<path d="M61.452 2.2689C60.8624 1.99679 60.1821 2.08749 59.6833 2.4503L23.9463 23.0852C22.4497 24.0376 21.5427 25.6703 21.452 27.3936L21.4973 44.6725L18.7309 43.0399L18.6855 25.761C18.7762 23.9923 19.7286 22.405 21.1799 21.4526L56.9168 0.817649C57.4157 0.454838 58.096 0.364135 58.6855 0.636244L61.452 2.2689Z" fill="#497BFE"/>
<path d="M59.6844 2.45051C61.0903 1.63418 62.1788 2.31445 62.1788 3.90176L62.2241 21.1807L21.4985 44.7181L21.4531 27.4392C21.5438 25.6705 22.4962 24.0832 23.9475 23.1308L59.6844 2.45051Z" fill="#57B3FE"/>
<path d="M33.153 17.7793V48.4822L26.4863 52.3371V21.6342L33.153 17.7793Z" fill="#F45170"/>
<path d="M29.4345 34.9673C29.4345 34.9673 26.5773 36.5093 22.9492 33.244C22.9492 33.244 23.2213 27.8018 29.8426 25.897C29.8426 25.897 32.7451 23.9923 36.7814 28.0739C36.7814 28.0739 34.151 33.2893 31.8835 33.7882L29.4345 34.9673Z" fill="#CC104A"/>
<path d="M24.8984 26.8494C24.8984 26.8494 32.2 23.9015 33.3792 22.1328C33.3792 22.1328 37.0526 22.1782 35.3293 26.8494L31.7465 32.2008L28.2544 34.2417L24.8984 26.8494Z" fill="#E93565"/>
<path d="M28.2103 34.1966C28.2103 34.1966 22.6321 28.4369 24.8996 26.8496C24.8996 26.8496 28.1196 26.9857 28.2103 34.1966Z" fill="#DF3260"/>
<path d="M29.3893 34.3776C29.3893 34.3776 24.8088 36.1916 24.582 38.7767C24.582 38.7767 24.7634 41.9966 26.8043 41.8606L33.607 37.9603C33.607 37.9603 35.6024 36.9626 35.9653 35.7381C35.9653 35.7381 33.4256 33.1984 31.0219 33.788L29.3893 34.3776Z" fill="#CC104A"/>
<path d="M27.2578 44.4911C28.8905 43.9922 30.6138 42.7677 32.3825 41.2258C35.149 40.863 36.2828 39.7292 34.8315 37.4616L32.3825 34.1963L28.5277 36.3278L27.2578 44.4911Z" fill="#E93565"/>
<path d="M28.5271 36.3276C28.5271 36.3276 23.5385 43.5839 26.8038 44.4456C30.0691 45.3072 28.5271 36.3276 28.5271 36.3276Z" fill="#DF3260"/>
<path d="M33.063 33.1081V33.1988C33.2444 33.8791 32.927 34.6047 32.2467 34.9222L29.3442 36.3281C28.6186 36.6909 27.7115 36.3734 27.3941 35.6478C27.3487 35.5118 27.3034 35.3757 27.258 35.1943C27.1673 34.5594 27.5301 33.9698 28.0744 33.6977L30.9769 32.2465C31.7025 31.8836 32.6095 32.2011 32.9723 32.9267C33.0177 32.9267 33.063 33.0174 33.063 33.1081Z" fill="#F45170"/>
<path d="M48.256 17.3711C48.256 17.5072 48.2107 17.5979 48.1653 17.6886C48.12 17.7793 48.0293 17.87 47.9386 17.9154C47.8478 18.0061 47.7118 17.9607 47.6664 17.9154C47.6211 17.87 47.6211 17.8247 47.6211 17.734V12.972C47.6211 12.836 47.6664 12.7453 47.7118 12.6546C47.7571 12.5639 47.8478 12.4732 47.9386 12.3825C48.0293 12.2918 48.1653 12.2918 48.2107 12.3825C48.256 12.4278 48.256 12.4732 48.256 12.5639V17.3711Z" fill="white"/>
<path d="M46.3958 17.8698C46.3958 18.0059 46.3505 18.0966 46.3051 18.2326C46.2598 18.3687 46.1691 18.4594 46.1237 18.5501C45.6702 19.0943 45.1714 19.5478 44.5818 19.9107C44.219 20.1374 43.7655 20.2735 43.312 20.2735C42.9491 20.2735 42.6317 20.0467 42.4503 19.7746C42.2235 19.3664 42.1328 18.9583 42.1328 18.5048C42.1328 17.9605 42.2235 17.371 42.4503 16.8721C42.6317 16.3279 42.9491 15.829 43.312 15.3755C43.6294 14.9673 44.0376 14.6045 44.5364 14.3324C44.8085 14.151 45.126 14.015 45.4888 13.9243C45.7609 13.8789 45.9877 13.8789 46.2598 13.8789C46.3051 13.8789 46.3505 13.9243 46.3505 13.9243C46.3958 13.9696 46.3958 14.015 46.3958 14.1057C46.3958 14.1964 46.3505 14.3324 46.3051 14.4231C46.2598 14.5138 46.1691 14.6045 46.0784 14.6499C46.033 14.6952 45.9877 14.6952 45.9423 14.6952C45.7156 14.6499 45.5342 14.6952 45.3074 14.7406C45.0807 14.7859 44.8539 14.8766 44.6271 15.0127C44.2643 15.1941 43.9922 15.4662 43.7201 15.7837C43.448 16.1011 43.2212 16.4639 43.0852 16.8268C42.9491 17.2349 42.8584 17.6431 42.8584 18.0966C42.8584 18.4141 42.9038 18.7315 43.0852 19.049C43.2212 19.2757 43.448 19.4118 43.7201 19.4118C44.0829 19.4118 44.4004 19.3211 44.6725 19.0943C45.126 18.8222 45.4888 18.5048 45.8063 18.0966V16.736L44.7178 17.371C44.6725 17.4163 44.5818 17.4163 44.4911 17.371C44.4457 17.3256 44.4004 17.2349 44.4004 17.1896C44.4004 17.0989 44.4457 16.9628 44.4911 16.8721C44.5364 16.7814 44.6271 16.6907 44.7178 16.6453L46.033 15.8744C46.1237 15.829 46.2144 15.829 46.3051 15.8744C46.3958 15.9197 46.3958 16.0104 46.3958 16.1011V17.8698Z" fill="white"/>
<path d="M52.7453 9.9786C52.7453 10.0693 52.7 10.2054 52.6546 10.2961C52.6093 10.3868 52.5186 10.4775 52.4279 10.5228L50.1603 11.838V13.4707L52.2011 12.2915C52.2465 12.2462 52.3372 12.2462 52.4279 12.2462C52.4732 12.2915 52.5186 12.3822 52.5186 12.4729C52.5186 12.5636 52.4732 12.6997 52.4279 12.7904C52.3825 12.8811 52.2918 12.9718 52.2011 13.0172L50.1603 14.1963V16.2371C50.1603 16.3732 50.115 16.4639 50.0696 16.5546C50.0243 16.6453 49.9336 16.736 49.8429 16.8267C49.7522 16.872 49.6614 16.872 49.6161 16.8267C49.5254 16.7813 49.5254 16.6906 49.5254 16.5999V11.8834C49.5254 11.6566 49.6614 11.4298 49.8429 11.2938L52.4732 9.7972C52.5186 9.75185 52.6093 9.75185 52.7 9.7972C52.7453 9.7972 52.7453 9.8879 52.7453 9.9786Z" fill="white"/>
<path d="M57.0085 7.52943C57.0085 7.62014 56.9632 7.75619 56.9178 7.84689C56.8725 7.9376 56.7817 8.0283 56.691 8.07365L55.3305 8.84463V13.2437C55.3305 13.3798 55.2851 13.4705 55.2398 13.5612C55.1944 13.6519 55.1037 13.7426 55.013 13.7879C54.9223 13.8333 54.8316 13.8333 54.7863 13.8333C54.7409 13.7879 54.6956 13.6972 54.6956 13.6065V9.20744L53.335 9.97841C53.2897 10.0238 53.199 10.0238 53.1083 10.0238C53.0629 9.97841 53.0176 9.88771 53.0176 9.79701C53.0176 9.7063 53.0629 9.57025 53.1083 9.47955C53.1536 9.38884 53.2443 9.29814 53.335 9.25279L56.691 7.30268C56.7364 7.25732 56.8271 7.25732 56.9178 7.25732C56.9632 7.34803 57.0085 7.43873 57.0085 7.52943Z" fill="white"/>
<path d="M59.5029 15.2847C59.3215 14.9673 59.0494 14.7859 58.6866 14.7405C58.233 14.6952 57.7342 14.8312 57.3714 15.1033L56.0108 15.8743C55.9201 15.9197 55.8294 16.0104 55.7841 16.1464C55.7387 16.2371 55.6934 16.3732 55.6934 16.4639V21.1804C55.6934 21.2711 55.7387 21.3618 55.7841 21.4072C55.8748 21.4525 55.9655 21.4525 56.0108 21.3618L57.3714 20.5909C57.8702 20.3188 58.3237 19.9106 58.6866 19.4571C59.0494 19.0036 59.3215 18.5047 59.5029 17.9605C59.6843 17.507 59.775 17.0081 59.775 16.4639C59.8203 16.0557 59.6843 15.6476 59.5029 15.2847ZM58.9133 18.0058C58.7773 18.414 58.5505 18.7768 58.2784 19.0943C58.0063 19.4117 57.6888 19.6838 57.326 19.9106L56.3736 20.4548V16.4185L57.326 15.8743C57.5981 15.6929 57.9609 15.6022 58.2784 15.5569C58.5505 15.5569 58.7773 15.6929 58.9133 15.9197C59.0947 16.1918 59.1401 16.5092 59.1401 16.8267C59.1401 17.2349 59.0494 17.643 58.9133 18.0058Z" fill="white"/>
<path d="M49.9338 24.3549L48.2105 20.6815C48.1651 20.5908 48.1198 20.5454 48.0744 20.5454C47.9837 20.5454 47.893 20.5454 47.8023 20.5908L47.7116 20.6361C47.6209 20.6815 47.5302 20.7722 47.4395 20.8629C47.3488 20.9536 47.3034 21.0896 47.3034 21.1803L45.6254 26.8493C45.6254 26.8946 45.5801 26.9853 45.5801 27.0307C45.5801 27.1214 45.6254 27.2121 45.6708 27.2574C45.7615 27.3028 45.8522 27.3028 45.8975 27.2121C45.9882 27.1667 46.0336 27.1214 46.0789 27.0307C46.1243 26.94 46.1696 26.8946 46.215 26.8039L46.6232 25.3527L48.8907 24.0375L49.3442 24.9899C49.3896 25.0352 49.435 25.0806 49.4803 25.0806C49.5257 25.0806 49.6164 25.0806 49.6617 25.0352C49.7524 24.9899 49.8431 24.8992 49.8885 24.7631C49.9338 24.6724 49.9792 24.5363 49.9792 24.4456C50.0245 24.4456 49.9792 24.4003 49.9338 24.3549ZM46.8953 24.5363L47.7569 21.6338L48.6186 23.5386L46.8953 24.5363Z" fill="white"/>
<path d="M44.9454 26.804C44.9907 26.8493 45.0361 26.8947 45.0361 26.9854C45.0361 27.1214 44.9907 27.3028 44.8547 27.3935C44.6279 27.6656 44.3558 27.9378 44.129 28.1645C43.8569 28.3913 43.5848 28.618 43.3127 28.7541C42.9499 28.9808 42.5417 29.1169 42.0882 29.1169C41.7254 29.1169 41.4079 28.9355 41.2265 28.618C40.9998 28.2099 40.8637 27.7564 40.9091 27.3028C40.9091 26.7133 40.9998 26.1691 41.2265 25.6248C41.4079 25.0806 41.7254 24.5817 42.0882 24.1282C42.451 23.7201 42.8592 23.3573 43.3127 23.0852C43.5848 22.9491 43.8569 22.813 44.129 22.7223C44.3558 22.677 44.6279 22.6316 44.8547 22.677C44.9454 22.677 45.0361 22.7677 45.0361 22.9037C45.0361 22.9944 44.9907 23.0852 44.9454 23.1759C44.9 23.2666 44.8093 23.3573 44.7186 23.4026C44.6733 23.448 44.6279 23.448 44.5825 23.448C44.4011 23.448 44.1744 23.448 43.993 23.4933C43.7662 23.5387 43.5395 23.6294 43.3581 23.7654C42.9952 23.9922 42.6778 24.2643 42.4057 24.5817C42.1336 24.8992 41.9522 25.3074 41.8161 25.6702C41.6801 26.033 41.6347 26.4412 41.6347 26.8493C41.6347 27.1668 41.6801 27.4842 41.8161 27.8017C41.9522 28.0285 42.1789 28.1645 42.4057 28.1645C42.7685 28.1645 43.086 28.0738 43.3581 27.8924C43.5848 27.7564 43.8116 27.6203 43.993 27.4389C44.2197 27.2575 44.4011 27.0307 44.5825 26.8493C44.6279 26.804 44.6733 26.7586 44.7186 26.7586C44.764 26.7586 44.8547 26.7586 44.9454 26.804Z" fill="white"/>
<path d="M53.833 20.1375C54.0597 19.8654 54.2865 19.5933 54.4225 19.2759C54.5586 18.9584 54.6493 18.6409 54.6493 18.2781C54.6493 17.7793 54.5132 17.5071 54.1958 17.3711C53.8783 17.2804 53.4248 17.3711 52.7899 17.7339L51.2026 18.6409C51.1119 18.6863 51.0212 18.777 50.9758 18.913C50.9305 19.0037 50.8851 19.1398 50.8851 19.2305V23.9924C50.8398 24.0831 50.9305 24.2192 51.0212 24.2192C51.0665 24.2192 51.1572 24.2192 51.2026 24.1738C51.2933 24.1285 51.384 24.0378 51.4293 23.9471C51.4747 23.8564 51.52 23.7203 51.52 23.6296V21.8155L52.8806 21.0446C53.198 20.8632 53.4248 20.8178 53.5608 20.9085C53.6969 20.9992 53.833 21.1353 53.833 21.3167C53.8783 21.5434 53.8783 21.7702 53.8783 21.9969V22.2237C53.8783 22.3144 53.9237 22.4051 53.969 22.4505C54.0597 22.4958 54.1504 22.4505 54.1958 22.4051C54.2865 22.3598 54.3772 22.2691 54.4225 22.1783C54.4679 22.0876 54.5132 21.9516 54.5132 21.8609V21.4981C54.5132 21.1806 54.4679 20.8178 54.3318 20.5003C54.3772 20.2282 54.1051 20.0922 53.833 20.1375ZM53.6515 19.6387C53.4248 19.9561 53.1073 20.2282 52.7445 20.4096L51.5654 21.0899V19.1852L52.7445 18.5049C53.0166 18.2781 53.3794 18.1874 53.7423 18.1874C53.9237 18.2328 54.0144 18.4142 54.0144 18.7316C53.969 19.0491 53.8783 19.3666 53.6515 19.6387Z" fill="white"/>
<path d="M59.5028 38.5498L52.4733 34.4229L46.759 37.7789L45.1264 38.7312L39.4575 42.0872L39.4121 43.6292L39.911 43.9013V48.6632L42.1332 49.9331L43.7205 50.8401L46.5323 52.5181L52.2466 49.1621L53.8339 48.2551L59.1853 45.0804L59.2307 40.2278L59.5028 40.0464V38.5498Z" fill="#E9E7FC"/>
<path d="M59.2297 38.7769L59.1843 45.0807L46.5312 52.5184L46.5766 46.1691L59.2297 38.7769Z" fill="#F3F1FC"/>
<path d="M46.5768 46.1693L46.5315 52.5185L39.9102 48.6637V42.3145L46.5768 46.1693Z" fill="#E9E7FC"/>
<path d="M59.5022 38.5503V40.0469L46.4863 47.7113V46.2147L59.5022 38.5503Z" fill="#E9E7FC"/>
<path d="M46.4869 46.2144V47.711L39.4121 43.6294L39.4575 42.0874L46.4869 46.2144Z" fill="#DEDFFB"/>
<path d="M59.5024 38.5498L46.4865 46.2142L39.457 42.0872L52.4729 34.4229L59.5024 38.5498Z" fill="#F3F1FC"/>
<path d="M40.7266 42.0873L52.4726 35.1938L58.2322 38.5499L46.4862 45.4433L40.7266 42.0873Z" fill="#E9E7FC"/>
<path d="M43.1305 44.6727H42.5863V44.5366H42.1328V49.9334L43.7201 50.8405V45.6251H43.1305V44.6727Z" fill="#E93565"/>
<path d="M43.7201 44.5818V46.1238L42.1328 45.1714V43.6748L43.7201 44.5818Z" fill="#DF3260"/>
<path d="M56.8267 36.9626L43.7201 44.5817L42.1328 43.6747L55.194 36.0103L56.8267 36.9626Z" fill="#F45170"/>
<path d="M52.7907 42.9036H53.3803V42.7676H53.7885L53.8338 48.2551L52.2465 49.1621L52.2012 43.856H52.7907V42.9036Z" fill="#E93565"/>
<path d="M52.2012 42.8133V44.3552L53.7885 43.4028V41.9062L52.2012 42.8133Z" fill="#DF3260"/>
<path d="M45.125 38.7317L52.1998 42.8133L53.7871 41.9063L46.7577 37.7793L45.125 38.7317Z" fill="#F45170"/>
<path d="M54.5133 36.0102L54.74 35.8742V34.6497L52.6085 33.4252L51.2933 32.6996L49.1164 31.4751L48.2548 32.0193C48.1641 32.0193 48.1187 32.0193 48.028 32.0193L47.9826 32.0647L47.5745 32.3368L47.6198 32.2914C47.5291 32.3368 47.4384 32.4275 47.4384 32.5635L46.9849 32.8356L46.7582 32.9717L43.6289 34.8765V36.1009L44.0371 36.3277L44.0824 40.6814L45.8511 41.6792L47.121 42.4048L49.3885 43.6746L51.4747 42.4048L52.6992 41.6338L54.5586 40.5L54.5133 36.0102Z" fill="#FEBC1F"/>
<path d="M54.5138 34.8311L54.6045 40.4546L49.3891 43.5385L49.3438 37.9603L54.5138 34.8311Z" fill="#FFD06C"/>
<path d="M49.3432 37.9605L49.3886 43.5388L44.0825 40.5909L44.0371 35.0127L49.3432 37.9605Z" fill="#FEBC1F"/>
<path d="M54.7395 34.6499V35.829L49.252 39.185V38.0059L54.7395 34.6499Z" fill="#FEBC1F"/>
<path d="M49.2525 38.0057V39.1848L43.6289 36.0102V34.8311L49.2525 38.0057Z" fill="#F9A83D"/>
<path d="M54.74 34.6497L49.2525 38.0057L43.6289 34.8311L49.1164 31.4751L54.74 34.6497Z" fill="#FFD06C"/>
<path d="M44.6719 34.8314L49.1163 32.1104L53.6968 34.65L49.2524 37.3711L44.6719 34.8314Z" fill="#FEBC1F"/>
<path d="M46.5776 36.8265H46.1241V36.7358H45.8066L45.852 41.5884L47.1218 42.3141L47.0765 37.5522H46.623L46.5776 36.8265Z" fill="#DF3260"/>
<path d="M47.0765 36.7359V37.9604L45.8066 37.2348V36.0557L47.0765 36.7359Z" fill="#E93565"/>
<path d="M52.6094 33.4253L47.0765 36.736L45.8066 36.0557L51.2942 32.6997L52.6094 33.4253Z" fill="#F45170"/>
<path d="M51.8383 36.7362H52.2918V36.6455H52.6093L52.7453 41.5435L51.4755 42.3144L51.3848 37.5072H51.8383V36.7362Z" fill="#E93565"/>
<path d="M51.3848 36.6905V37.915L52.6546 37.144L52.6093 35.9648L51.3848 36.6905Z" fill="#DF3260"/>
<path d="M45.7148 33.5615L51.3838 36.6908L52.6083 35.9651L46.9847 32.7905L45.7148 33.5615Z" fill="#E93565"/>
<path d="M51.0209 34.6044C50.9755 34.6044 50.9755 34.5591 50.9301 34.5591C50.8848 34.5591 50.8394 34.5591 50.8394 34.5137L50.8848 34.4684C51.0662 34.287 51.0209 33.8335 50.7487 33.4707C50.658 33.3346 50.522 33.1986 50.3859 33.1079C50.2499 33.0172 50.1138 33.0172 49.9778 33.0625C49.9324 32.6997 49.7057 32.3369 49.3882 32.1555C49.2521 32.0648 49.1161 32.0648 48.98 32.1101L48.7079 32.2462C48.6172 32.1101 48.5265 32.0194 48.3905 31.9741C48.2998 31.8834 48.1637 31.8834 48.0277 31.9287C48.0277 31.9287 47.9823 31.9287 47.9823 31.9741L47.6195 32.2008C47.4381 32.2462 47.3927 32.4729 47.3927 32.6997H47.3474L46.9392 32.9718C46.8485 33.0171 46.7578 33.1532 46.7578 33.2893C46.7578 33.6974 46.9392 34.1056 47.2567 34.3323C47.302 34.3323 47.302 34.3323 47.302 34.3777C47.8462 34.6044 48.3905 34.7405 48.9347 34.8312H48.98C49.4789 35.3301 50.0231 35.7836 50.6127 36.1918C50.6127 36.1918 50.658 36.1918 50.658 36.2371C50.7487 36.2825 50.9301 36.2825 51.0209 36.1918C51.0209 36.1918 51.0209 36.1918 51.0209 36.2371L51.429 35.965C51.5651 35.8743 51.6104 35.7382 51.5651 35.5115C51.5651 35.1487 51.3383 34.8312 51.0209 34.6044ZM47.8009 33.9695C47.5288 33.7881 47.3927 33.516 47.3927 33.2439L47.4381 33.2893C47.7102 33.5614 47.9823 33.8335 48.2544 34.1509C48.073 34.1056 47.937 34.0602 47.8009 33.9695ZM48.073 32.8357C48.0277 32.745 47.9823 32.609 47.9823 32.4729C48.1184 32.5636 48.2544 32.6997 48.3451 32.8357C48.4358 33.0172 48.4812 33.1986 48.5265 33.4253C48.3451 33.2893 48.2091 33.0625 48.073 32.8357ZM49.2975 33.8788C49.1614 33.4707 49.0707 33.0625 48.98 32.6543H49.0254C49.2975 32.8357 49.4335 33.1079 49.4789 33.38C49.3882 33.5614 49.3428 33.7428 49.2975 33.8788ZM49.9324 33.6067C50.0685 33.6521 50.1592 33.7428 50.2499 33.8788C50.3859 34.0602 50.4313 34.2416 50.3859 34.4684C50.1592 34.5137 49.8871 34.5591 49.615 34.5591C49.7057 34.2416 49.8417 33.9242 49.9324 33.6067ZM51.0662 35.7836C50.7034 35.5115 50.3859 35.2394 50.0685 34.9673C50.2499 34.9673 50.4313 34.9673 50.5673 35.0126L50.6127 35.058C50.8394 35.194 51.0209 35.4661 51.0662 35.7382V35.7836Z" fill="#E93565"/>
<path d="M49.0263 34.3327L48.6182 34.6048C48.21 34.5141 47.8018 34.378 47.3937 34.242L47.3483 34.1966C47.1216 34.0152 46.9402 33.7431 46.9855 33.4256C46.9855 33.3349 47.0309 33.2442 47.1216 33.1989L47.5297 32.9268C47.439 32.9721 47.3937 33.0628 47.3937 33.1535C47.3937 33.471 47.5297 33.7431 47.7565 33.9245L47.8018 33.9698C48.21 34.1512 48.6182 34.2873 49.0263 34.3327Z" fill="#CC104A"/>
<path d="M49.1639 34.2874L48.7557 34.5595C48.3476 34.106 47.9848 33.6525 47.6673 33.1536C47.5312 32.8815 47.5312 32.6094 47.7126 32.5187L48.1208 32.2466C47.9848 32.3373 47.9394 32.6094 48.0755 32.8815C48.3929 33.335 48.8011 33.8339 49.1639 34.2874Z" fill="#CC104A"/>
<path d="M47.5762 32.2918L47.9843 32.0197L48.0297 31.9744C48.1657 31.929 48.3018 31.9744 48.3925 32.0197C48.5739 32.1104 48.71 32.2465 48.8007 32.4279L48.3925 32.7C48.3018 32.5186 48.1657 32.3825 47.9843 32.2918C47.8936 32.2011 47.7576 32.2011 47.6215 32.2465L47.5762 32.2918Z" fill="#E93565"/>
<path d="M51.3407 35.8293L50.9326 36.1014C50.8419 36.1467 50.7512 36.1467 50.6605 36.1014H50.6151C50.1616 35.7839 49.7534 35.4665 49.3906 35.1037L49.7988 34.8315C50.2069 35.1944 50.6151 35.5118 51.0233 35.8293H51.0686C51.1593 35.8293 51.25 35.8293 51.3407 35.8293Z" fill="#F45170"/>
<path d="M48.6634 32.6544L49.0716 32.3823C48.9809 32.4277 48.9355 32.5637 48.9355 32.6544C49.0262 33.1987 49.2076 33.7429 49.389 34.2871L48.9809 34.5592C48.7995 34.015 48.618 33.4708 48.5273 32.9265C48.5273 32.7905 48.5727 32.6998 48.6634 32.6544Z" fill="#CC104A"/>
<path d="M50.0702 33.335C49.8435 33.7431 49.7074 34.1513 49.6621 34.5594L49.2539 34.8316C49.3446 34.4234 49.4807 34.0152 49.6621 33.6524L49.7074 33.6071L50.0702 33.335Z" fill="#CC104A"/>
<path d="M50.7501 34.3779L50.3419 34.65C49.9791 34.7407 49.6616 34.8314 49.2988 34.8314L49.707 34.5593C50.0245 34.514 50.3873 34.4686 50.7501 34.3779Z" fill="#F45170"/>
<path d="M48.5742 32.4279L48.9824 32.1558C49.1184 32.1104 49.2998 32.1104 49.3905 32.2011C49.708 32.3825 49.9348 32.7453 49.9801 33.1081L49.5719 33.3803C49.5266 33.0174 49.2998 32.6546 48.9824 32.4732C48.8917 32.3825 48.7103 32.3825 48.5742 32.4279Z" fill="#F45170"/>
<path d="M51.4767 36.0108L51.0685 36.2829C51.2046 36.1922 51.2499 36.0108 51.2046 35.8294C51.1592 35.4666 50.9325 35.1038 50.615 34.9224L50.5243 34.877L50.4336 34.8317L50.8418 34.5596L50.9325 34.6049L51.0232 34.6503C51.3406 34.8317 51.5674 35.1945 51.6127 35.5573C51.6581 35.7387 51.6127 35.8748 51.4767 36.0108Z" fill="#F45170"/>
<path d="M47.5305 33.063C47.5305 32.9723 47.5305 32.8816 47.5305 32.7909C47.5305 32.7455 47.5305 32.7455 47.5305 32.7002C47.4852 32.7002 47.4398 32.7002 47.3945 32.7455L46.9863 33.0177C47.1224 32.9723 47.2584 32.9723 47.3945 33.063L47.4852 33.1084L47.5759 33.1991L47.5305 33.063Z" fill="#F45170"/>
<path d="M51.2038 35.7837C51.2491 36.1918 51.0224 36.3733 50.7049 36.2372L50.6596 36.1918C50.07 35.7837 49.5258 35.3302 49.0269 34.8313C48.4827 34.7406 47.9385 34.5592 47.3943 34.3778L47.3489 34.3324C47.0314 34.1057 46.8047 33.6975 46.8047 33.2894C46.85 32.9719 47.0768 32.8812 47.3943 33.0172L47.485 33.0626L47.5757 33.1533L47.5303 33.1079C47.3489 32.6998 47.3489 32.2916 47.621 32.2009C47.7571 32.1556 47.8931 32.2009 47.9838 32.2463C48.1652 32.337 48.3013 32.473 48.392 32.6544C48.4373 32.337 48.6641 32.2463 48.9816 32.4277C49.299 32.6091 49.5258 32.9719 49.5711 33.3347C49.7072 33.2893 49.8432 33.2893 49.9793 33.3801C50.1153 33.4708 50.2514 33.5615 50.3421 33.7429C50.6142 34.1057 50.6596 34.5592 50.4782 34.7406H50.4328L50.5235 34.7859L50.6142 34.8313C50.9317 35.0581 51.1584 35.3755 51.2038 35.7837ZM47.6664 33.1079C47.9838 33.6068 48.3466 34.0603 48.7548 34.5138C48.6641 33.9696 48.528 33.4254 48.3466 32.8812C48.2559 32.7451 48.1652 32.6091 47.9838 32.5184C47.8931 32.473 47.8024 32.473 47.7117 32.473C47.5303 32.5184 47.485 32.7905 47.6664 33.1079ZM49.6618 33.6068C49.4804 33.9696 49.3444 34.3778 49.2537 34.7859C49.6165 34.7859 49.9793 34.6952 50.3421 34.6045C50.4782 34.4685 50.4328 34.151 50.2514 33.8789C50.1607 33.7882 50.07 33.6975 49.9793 33.6068C49.8886 33.5161 49.7525 33.5161 49.6618 33.6068ZM50.7049 36.0558C50.9317 36.1465 51.1131 36.0104 51.0677 35.693C51.0224 35.4209 50.841 35.1488 50.6142 35.0127L50.5689 34.9674C50.206 34.922 49.7979 34.922 49.3897 34.9674C49.7979 35.3302 50.206 35.6476 50.6142 35.9651L50.7049 36.0558ZM47.3943 34.2417C47.8024 34.4231 48.2106 34.5138 48.6187 34.6045C48.2559 34.151 47.8478 33.6975 47.4396 33.2894L47.3943 33.244C47.1675 33.1079 46.9861 33.1986 46.9861 33.4254C46.9407 33.7429 47.0768 34.0603 47.3943 34.2417ZM49.0269 34.6045C49.2083 34.2417 49.3444 33.8336 49.4351 33.4254C49.3897 33.1079 49.2537 32.8358 48.9816 32.6998C48.7548 32.5637 48.5734 32.6998 48.5734 32.9719C48.6641 33.5161 48.8002 34.0603 49.0269 34.6045Z" fill="#DF3260"/>
<path d="M49.5703 33.38L49.9785 33.1079C50.1145 33.0626 50.2506 33.0626 50.3866 33.1533C50.5227 33.244 50.6588 33.3347 50.7495 33.5161C51.0216 33.8789 51.0669 34.3324 50.8855 34.5138H50.8402L50.432 34.7859H50.4773C50.6587 34.6045 50.6134 34.151 50.3413 33.7882C50.2506 33.6521 50.1145 33.5161 49.9785 33.4254C49.8424 33.3347 49.7064 33.3347 49.5703 33.38Z" fill="#E93565"/>
</g>
<defs>
<linearGradient id="paint0_linear_3165_3782" x1="0.5" y1="57.952" x2="80.4909" y2="57.952" gradientUnits="userSpaceOnUse">
<stop stop-color="#00AAFF"/>
<stop offset="0.04" stop-color="#00A9FF"/>
<stop offset="0.35" stop-color="#00A6FF"/>
<stop offset="0.54" stop-color="#0086DD"/>
<stop offset="0.74" stop-color="#0066BA"/>
<stop offset="1" stop-color="#0041AD"/>
</linearGradient>
<clipPath id="clip0_3165_3782">
<rect width="80" height="72.8345" fill="white" transform="translate(0.5 0.5)"/>
</clipPath>
</defs>
</svg>
