<?xml version="1.0" encoding="utf-8"?>
<!-- Generator: Adobe Illustrator 21.0.0, SVG Export Plug-In . SVG Version: 6.00 Build 0)  -->
<svg version="1.1" id="Layer_1" xmlns="http://www.w3.org/2000/svg" xmlns:xlink="http://www.w3.org/1999/xlink" x="0px" y="0px"
	 viewBox="0 0 56 48" style="enable-background:new 0 0 56 48;" xml:space="preserve">
<path d="M37.3,27.6c0-1.2,0-12.2,0-11.9c0-0.8,0.3-1.4,0.8-2.1h-3.9H2.1V7.3h45.6v3.1c1,0,1.6,0.1,2.1,0.1V4.2
	c0-2.3-1.9-4.2-4.1-4.2H4.1C1.9,0,0,1.9,0,4.2v25c0,2.3,1.9,4.2,4.1,4.2h18.7v-1c0-3.8,6.3-5.2,10.4-5.2
	C34.6,27.1,36,27.3,37.3,27.6z M7.3,20.9h12.4c0.6,0,1,0.5,1,1c0,0.6-0.5,1-1,1H7.3c-0.6,0-1-0.5-1-1C6.2,21.3,6.7,20.9,7.3,20.9z"
	/>
<path d="M47.7,12.5C47.7,12.5,47.7,12.5,47.7,12.5c-3.1,0-8.3,1.1-8.3,3.1c0,1.3,3.2,3.1,8.3,3.1c2.3,0,8.3-0.9,8.3-3.1
	C56,13.5,50.3,12.5,47.7,12.5z"/>
<path d="M39.4,18.8v3.1c0,1.3,3.2,3.1,8.3,3.1c2.2,0,8.3-1,8.3-3.1v-3.1C51.9,21.6,43.4,21.5,39.4,18.8z"/>
<path d="M43.6,33c0,0.3,0,4.4,0,4.1c6.7,1.6,12.4-1,12.4-2.6v-3.1C52.8,33.5,47.3,33.8,43.6,33z"/>
<path d="M47.7,27.1c-3.5,0-6.4-0.8-8.3-2v3.1c1.8,0.6,3,1.5,3.6,2.6c6.5,1.9,13-0.7,13-2.5v-3.1C53.7,26.6,50.5,27.1,47.7,27.1z"/>
<path d="M33.2,29.2c-3.1,0-8.3,1.2-8.3,3.1c0,1.9,5,3.1,8.3,3.1c2.5,0,8.2-1.1,8.3-3.1c0,0,0,0,0,0C41.5,30.3,36,29.2,33.2,29.2z"/>
<path d="M33.2,37.6c-3.5,0-6.4-0.8-8.3-2v3.1c0,1.3,3.2,3.1,8.3,3.1c5,0,8.2-1.8,8.3-3.1c0,0,0,0,0,0c0-0.2,0-3.3,0-3.1
	C39.3,37,35.9,37.6,33.2,37.6z"/>
<path d="M24.9,41.8v3.1c0,1.3,3.2,3.1,8.3,3.1s8.3-1.9,8.3-3.1v-3.1c-1.9,1.3-4.8,2-8.3,2C29.7,43.8,26.7,43,24.9,41.8z"/>
</svg>
