<svg width="40" height="43" viewBox="0 0 40 43" fill="none" xmlns="http://www.w3.org/2000/svg">
<path d="M32.8882 7.82523C30.5901 5.90378 27.0963 7.54631 27.0963 10.5369C27.0963 11.4822 27.5155 12.3654 28.2453 12.9697C31.1491 15.356 33.0901 18.982 33.0901 23.0573C33.0901 30.2317 27.236 36.0425 20.0466 36.0425H20.0311H20C12.8106 36.0425 6.94099 30.2317 6.94099 23.0573C6.94099 18.982 8.8354 15.356 11.7391 12.9697C12.4689 12.3654 12.8261 11.4977 12.8261 10.5524C12.8261 7.5618 9.37888 5.91928 7.08075 7.84072C2.73292 11.4822 0 16.9676 0 23.0883C0 34.0126 8.89751 42.907 19.8292 43C19.8913 43 20.1398 43 20.2019 43C31.118 42.907 40 34.0126 40 23.0883C40 16.9676 37.236 11.4822 32.8882 7.82523Z" fill="#FF0404"/>
<path d="M20.5124 14.1009H20.1553C17.5621 14.1009 15.4503 11.9935 15.4503 9.40577V4.69514C15.4348 2.10739 17.5621 0 20.1553 0H20.5124C23.1056 0 25.2174 2.10739 25.2174 4.69514V9.40577C25.2174 11.9935 23.1056 14.1009 20.5124 14.1009Z" fill="#FF0404"/>
</svg>
