<?xml version="1.0" encoding="utf-8"?>
<!-- Generator: Adobe Illustrator 21.0.0, SVG Export Plug-In . SVG Version: 6.00 Build 0)  -->
<svg version="1.1" id="Layer_1" xmlns="http://www.w3.org/2000/svg" xmlns:xlink="http://www.w3.org/1999/xlink" x="0px" y="0px"
	 viewBox="0 0 41 41" style="enable-background:new 0 0 41 41;" xml:space="preserve">
<path d="M30.6,23.1c-0.5-0.3-1.1-0.2-1.5,0.1c-1,0.8-2,1.4-3.2,1.9c-1.7,0.7-3.5,1.1-5.4,1.1s-3.7-0.4-5.4-1.1
	c-1.1-0.5-2.2-1.1-3.2-1.9c-0.4-0.3-1-0.4-1.5-0.1c-6,3.4-10.1,9.7-10.4,17C0,40.6,0.4,41,0.8,41h39.3c0.5,0,0.9-0.4,0.8-0.9
	C40.7,32.8,36.6,26.5,30.6,23.1z"/>
<path d="M12.9,22c2.1,1.7,4.7,2.6,7.6,2.6s5.5-1,7.6-2.6c2.8-2.2,4.7-5.7,4.7-9.6c0-6.8-5.4-12.3-12.2-12.4
	C13.8-0.1,8.2,5.5,8.2,12.3C8.2,16.2,10,19.7,12.9,22z"/>
</svg>
