<?xml version="1.0" encoding="utf-8"?>
<!-- Generator: Adobe Illustrator 21.0.0, SVG Export Plug-In . SVG Version: 6.00 Build 0)  -->
<svg version="1.1" id="Layer_1" xmlns="http://www.w3.org/2000/svg" xmlns:xlink="http://www.w3.org/1999/xlink" x="0px" y="0px"
	 viewBox="0 0 60 39" style="enable-background:new 0 0 60 39;" xml:space="preserve">
<path d="M22.1,32.8h15.8c1.3,0,1.8-2.1,3.5-2.1h12.4c0-10.3,0-20.5,0-30.8H6.2c0,10.3,0,20.5,0,30.8h12.4
	C20.4,30.8,20.8,32.8,22.1,32.8z M25.9,26.7c0,0.6-0.5,1-1,1s-1-0.5-1-1V14.4c0-0.6,0.5-1,1-1s1,0.5,1,1V26.7z M34.2,26.7
	c0,0.6-0.5,1-1,1c-0.6,0-1-0.5-1-1v-6.2c0-0.6,0.5-1,1-1c0.6,0,1,0.5,1,1V26.7z M42.4,26.7c0,0.6-0.5,1-1,1s-1-0.5-1-1V14.4
	c0-0.6,0.5-1,1-1s1,0.5,1,1V26.7z M17.6,26.7c0,0.6-0.5,1-1,1s-1-0.5-1-1v-6.2c0-0.6,0.5-1,1-1s1,0.5,1,1V26.7z M16.6,16.4
	c-1.1,0-2.1-0.9-2.1-2.1c0-1.1,0.9-2.1,2.1-2.1c0.3,0,0.6,0.1,0.8,0.2l5.4-4.1c-0.2-1.3,0.9-2.3,2-2.3c1.1,0,2.2,1,2,2.3l5.4,4.1
	c0.5-0.2,1.1-0.2,1.6,0l5.4-4.1c-0.2-1.3,0.9-2.3,2-2.3c1.1,0,2.1,0.9,2.1,2.1c0,1.1-0.9,2.1-2.1,2.1c-0.3,0-0.6-0.1-0.8-0.2
	l-5.4,4.1c0.2,1.3-0.9,2.3-2,2.3c-1.1,0-2.2-1-2-2.3l-5.4-4.1c-0.5,0.2-1,0.2-1.6,0l-5.4,4.1C18.8,15.5,17.7,16.4,16.6,16.4z"/>
<path d="M41.4,32.8c-0.8,0.6-1.6,2.1-3.5,2.1H22.1c-2,0-2.7-1.4-3.5-2.1c-0.8,0-19.5,0-18.6,0L3,37.2C3.7,38.3,5,39,6.4,39h47.3
	c1.4,0,2.7-0.7,3.4-1.8l2.9-4.3C59.5,32.8,41.2,32.8,41.4,32.8z"/>
</svg>
