<?xml version="1.0" encoding="utf-8"?>
<!-- Generator: Adobe Illustrator 21.0.0, SVG Export Plug-In . SVG Version: 6.00 Build 0)  -->
<svg version="1.1" id="Layer_1" xmlns="http://www.w3.org/2000/svg" xmlns:xlink="http://www.w3.org/1999/xlink" x="0px" y="0px"
	 viewBox="0 0 45 46" style="enable-background:new 0 0 45 46;" xml:space="preserve">
<style type="text/css">
	.st0{clip-path:url(#SVGID_2_);}
</style>
<g>
	<defs>
		<rect id="SVGID_1_" width="45" height="46"/>
	</defs>
	<clipPath id="SVGID_2_">
		<use xlink:href="#SVGID_1_"  style="overflow:visible;"/>
	</clipPath>
	<g class="st0">
		<path d="M4.9,18.6L0,37l8.2,2.5L4.9,18.6z"/>
		<path d="M15.3,41.4l18-2.8c0,0-1.3,6.6,0,7.4L15.3,41.4z"/>
		<path d="M37.7,4.1l-8.6,1.4c0.4,0.9,0.6,1.9,0.6,3c0,3.7-2.8,6.8-6.3,6.8c-3.5,0-6.3-3-6.3-6.8c0-0.4,0-0.7,0.1-1.1L6.6,9l4.8,30
			L45,33.8C42.7,32.6,37.7,4.1,37.7,4.1z"/>
		<path d="M26.9,4.4c-0.1,2-1.6,3.7-3.3,3.7c-1.7,0-3.2-1.6-3.3-3.5c-0.8,0.8-1.3,2-1.3,3.3c0,2.6,2.1,4.7,4.7,4.7s4.7-2.1,4.7-4.7
			C28.3,6.5,27.7,5.3,26.9,4.4z"/>
		<path d="M23.6,6c1.6,0,2.9-1.3,2.9-3s-1.3-3-2.9-3s-2.9,1.3-2.9,3S22,6,23.6,6z"/>
	</g>
</g>
</svg>
