<?xml version="1.0" encoding="utf-8"?>
<!-- Generator: Adobe Illustrator 21.0.0, SVG Export Plug-In . SVG Version: 6.00 Build 0)  -->
<svg version="1.1" id="Layer_1" xmlns="http://www.w3.org/2000/svg" xmlns:xlink="http://www.w3.org/1999/xlink" x="0px" y="0px"
	 viewBox="0 0 60 51" style="enable-background:new 0 0 60 51;" xml:space="preserve">
<path d="M55.4,20.9h-7.9l-2.7-8.7c-0.1-0.2-0.2-0.3-0.3-0.5L32.9,0.3C32.7,0.1,32.4,0,32.1,0h-31C0.5,0,0,0.5,0,1.2
	c0,0.6,0.5,1.2,1.2,1.2h30.5l11,10.8l2.4,7.7h-5l-3.2-6.3c-0.2-0.3-0.4-0.5-0.8-0.6l-9.2-2.3c-1-0.3-1.8,0.8-1.3,1.7
	c0.3,0.5,5.7,9.4,5.5,9.2c0.1,0.2,0.3,0.3,0.5,0.4c3.7,1.9,6.6,2,7.5,4.2c0.3,0.8,0.3,1.7-0.2,2.6c-0.1,0.2-0.4,0.4-0.8,0.2
	c-0.2-0.1-5.6-1.7-6.4-2.2c-2.5-1.2-3.4-3.2-7.8-4.8c-4.7-1.7-7.5-0.2-10.4-2.7l-6.8-6.3c-0.2-0.2-0.5-0.3-0.8-0.3H1.2
	c-0.6,0-1.2,0.5-1.2,1.2s0.5,1.2,1.2,1.2h4.2l6.5,6c1.3,1.1,2.9,1.8,4.5,2.1c-0.1,0.4-0.2,0.8-0.2,1.2v20.9c0,2.5,2.1,4.6,4.6,4.6
	h34.6c2.5,0,4.6-2.1,4.6-4.6V25.5C60,23,57.9,20.9,55.4,20.9z M57.7,35.9H18.5v-7h5.8h4.7c0,0,0,0,0.1,0c1,0.7,1.9,1.2,2.4,1.3v0
	c1,0.4,5,1.7,6,2c1.9,0.6,3.8-0.6,4.1-3.3H45h12.7V35.9z M40.4,45.2v-4.6h9.2v4.6H40.4z M35,16.1l2.5,4.8h-4.6L29,14.6L35,16.1z"/>
</svg>
