<svg width="80" height="81" viewBox="0 0 80 81" fill="none" xmlns="http://www.w3.org/2000/svg">
<g clip-path="url(#clip0_3165_2689)">
<path d="M66.0314 42.6595C48.7137 32.6428 30.8172 32.6428 13.4994 42.6595C4.81831 47.6901 0.5 52.7652 0.5 57.8404C0.5 62.9155 4.81831 67.9906 13.4994 73.0212C30.8172 83.0379 48.7137 83.0379 66.0314 73.0212C74.7126 68.0351 79.0309 62.96 79.0309 57.8404C79.0309 52.7207 74.7126 47.6901 66.0314 42.6595Z" fill="#949494"/>
<path d="M66.0314 65.4528C48.7137 75.4695 30.8172 75.4695 13.4994 65.4528C4.81831 60.4222 0.5 55.3471 0.5 50.272V57.8401C0.5 62.9153 4.81831 67.9904 13.4994 73.021C30.8172 83.0377 48.7137 83.0377 66.0314 73.021C74.7126 68.0349 79.0309 62.9598 79.0309 57.8401V50.272C79.0309 55.3471 74.7126 60.4222 66.0314 65.4528Z" fill="url(#paint0_linear_3165_2689)"/>
<path d="M66.0314 35.0911C48.7137 25.0744 30.8172 25.0744 13.4994 35.0911C4.81831 40.1217 0.5 45.1969 0.5 50.272C0.5 55.3471 4.81831 60.4222 13.4994 65.4528C30.8172 75.4695 48.7137 75.4695 66.0314 65.4528C74.7126 60.4668 79.0309 55.3471 79.0309 50.272C79.0309 45.1969 74.7126 40.1217 66.0314 35.0911Z" fill="#008CFF"/>
<path d="M27.9674 54.991L24.8956 53.4773C23.7826 52.9431 23.0703 51.563 23.0703 49.6487V21.2903C23.0703 17.9515 25.2517 14.1674 27.8783 12.8318L51.6513 0.945328C52.8088 0.366585 53.8327 0.322067 54.6785 0.767253L58.062 2.45896C57.2161 2.01378 56.1477 2.01378 54.9457 2.59252L31.1727 14.479C28.5016 15.8146 26.3647 19.5986 26.3647 22.9375V51.2959C26.3202 53.0767 26.9434 54.3677 27.9674 54.991Z" fill="#F6A5A2"/>
<path d="M39.2756 50.8954L31.1732 54.9466C28.5021 56.2822 26.3652 54.635 26.3652 51.3406V22.9377C26.3652 19.5988 28.5466 15.8147 31.1732 14.4792L54.9462 2.59268C57.6173 1.25712 59.7987 2.90431 59.7987 6.19869V34.5571C59.7987 37.896 57.6173 41.6801 54.9907 43.0156L48.4465 46.2655L43.8611 57.7068L39.2756 50.8954Z" fill="#F0595F"/>
<path d="M50.9392 15.414C48.9358 14.0339 46.1311 13.9449 43.0593 15.4585C39.9876 16.9722 37.1829 19.8659 35.1795 23.2938C33.1762 26.7218 31.9297 30.6839 31.9297 34.3344C31.9297 37.985 33.1762 40.7006 35.1795 42.0807C37.1829 43.4608 39.9876 43.5498 43.0593 42.0362C46.1311 40.5225 48.9358 37.6288 50.9392 34.2009C52.9425 30.773 54.189 26.8553 54.189 23.1603C54.189 19.4652 52.987 16.7941 50.9392 15.414Z" fill="white"/>
<path d="M43.3716 33.9782C43.8614 33.7111 44.4401 33.5775 44.9743 33.533C45.4195 33.533 45.8647 33.6221 46.2208 33.8892C46.3989 34.0227 46.666 34.0672 46.8886 34.0227C47.3338 33.9337 47.69 33.6666 47.9125 33.2659C48.1351 32.9098 48.2242 32.4201 48.0906 32.0194C48.0461 31.7968 47.868 31.6187 47.69 31.4852C46.9777 31.04 46.1763 30.8174 45.3305 30.8174C44.4401 30.8619 43.5497 31.0845 42.7484 31.5297C41.8135 32.0194 41.0122 32.5981 40.2553 33.3549C39.454 34.1563 38.7417 35.0467 38.163 36.0261C37.9404 36.3822 37.8513 36.8274 37.9404 37.2726C37.9849 37.4952 38.1184 37.6733 38.2965 37.8068C38.4746 37.9404 38.7417 38.0294 38.9643 37.9849C39.4095 37.8958 39.8102 37.6287 40.0327 37.2281C40.4779 36.5158 40.9676 35.848 41.5464 35.2692C42.1251 34.735 42.7484 34.3344 43.3716 33.9782Z" fill="#F0595F"/>
<path d="M36.6941 30.6839L41.146 28.4579C41.6802 28.1463 42.0364 27.5676 42.0809 26.9443C42.0809 26.5881 41.9473 26.232 41.6357 26.0094C41.3241 25.7868 40.9234 25.7868 40.6118 25.9649L36.1599 28.1908C35.6257 28.5024 35.2695 29.0812 35.2695 29.7044C35.2695 30.0606 35.4031 30.4167 35.7147 30.6393C35.9818 30.8619 36.3825 30.8619 36.6941 30.6839Z" fill="#F0595F"/>
<path d="M45.5965 26.2317L50.0483 24.0058C50.5826 23.6941 50.9387 23.1154 50.9832 22.4921C50.9832 22.136 50.8497 21.7798 50.538 21.5573C50.2264 21.3347 49.8257 21.3347 49.5141 21.5127L45.0622 23.7387C44.528 24.0503 44.1719 24.629 44.1719 25.2523C44.1719 25.6084 44.3054 25.9646 44.6171 26.1872C44.8842 26.4098 45.2848 26.4098 45.5965 26.2317Z" fill="#F0595F"/>
<path d="M27.1221 23.338C27.1221 23.338 26.5433 44.3063 26.3652 51.2957V22.9373C26.3652 19.5984 28.5466 15.8143 31.1732 14.4788L54.9462 2.59229C49.4704 5.53052 31.9746 14.8794 31.9746 14.8794C29.3035 16.215 27.1221 19.9991 27.1221 23.338Z" fill="#FACDCF"/>
</g>
<defs>
<linearGradient id="paint0_linear_3165_2689" x1="0.5" y1="65.3866" x2="79.022" y2="65.3866" gradientUnits="userSpaceOnUse">
<stop stop-color="#00AAFF"/>
<stop offset="0.04" stop-color="#00A9FF"/>
<stop offset="0.35" stop-color="#00A6FF"/>
<stop offset="0.54" stop-color="#0086DD"/>
<stop offset="0.74" stop-color="#0066BA"/>
<stop offset="1" stop-color="#0041AD"/>
</linearGradient>
<clipPath id="clip0_3165_2689">
<rect width="78.5309" height="80" fill="white" transform="translate(0.5 0.5)"/>
</clipPath>
</defs>
</svg>
