<svg width="81" height="73" viewBox="0 0 81 73" fill="none" xmlns="http://www.w3.org/2000/svg">
<g clip-path="url(#clip0_3165_3963)">
<path d="M67.2952 34.4421C49.6435 24.2322 31.4019 24.2322 13.7501 34.4421C4.90159 39.5243 0.5 44.6973 0.5 49.8703C0.5 55.0433 4.90159 60.2163 13.7501 65.3439C31.4019 75.5538 49.6435 75.5538 67.2952 65.3439C76.1438 60.2617 80.5454 55.0433 80.5454 49.8703C80.5454 44.6973 76.1438 39.5243 67.2952 34.4421Z" fill="#949494"/>
<path d="M67.2952 57.6299C49.6435 67.8397 31.4019 67.8397 13.7501 57.6299C4.90159 52.5476 0.5 47.3293 0.5 42.1562V49.8704C0.5 55.0434 4.90159 60.2164 13.7501 65.344C31.4019 75.5539 49.6435 75.5539 67.2952 65.344C76.1438 60.2617 80.5454 55.0434 80.5454 49.8704V42.1562C80.5454 47.3293 76.1438 52.5476 67.2952 57.6299Z" fill="url(#paint0_linear_3165_3963)"/>
<path d="M67.2952 26.7282C49.6435 16.5183 31.4019 16.5183 13.7501 26.7282C4.90159 31.8104 0.5 36.9835 0.5 42.1565C0.5 47.3295 4.90159 52.5025 13.7501 57.6301C31.4019 67.8399 49.6435 67.8399 67.2952 57.6301C76.1438 52.5478 80.5454 47.3295 80.5454 42.1565C80.5454 36.9835 76.1438 31.8104 67.2952 26.7282Z" fill="#FFDB32"/>
<mask id="mask0_3165_3963" style="mask-type:luminance" maskUnits="userSpaceOnUse" x="0" y="19" width="81" height="47">
<path d="M67.2952 26.7282C49.6435 16.5183 31.4019 16.5183 13.7501 26.7282C4.90159 31.8104 0.5 36.9835 0.5 42.1565C0.5 47.3295 4.90159 52.5025 13.7501 57.6301C31.4019 67.8399 49.6435 67.8399 67.2952 57.6301C76.1438 52.5478 80.5454 47.3295 80.5454 42.1565C80.5454 36.9835 76.1438 31.8104 67.2952 26.7282Z" fill="white"/>
</mask>
<g mask="url(#mask0_3165_3963)">
<path opacity="0.03" d="M87.8048 23.9601L70.4254 13.9318C69.1094 9.03102 65.7062 4.13028 61.6676 1.81604C59.0811 0.318596 56.7668 0.182464 55.0425 1.18076L50.414 3.81264C48.7351 4.81094 47.6914 6.89829 47.6914 9.84781V14.9754L51.4123 17.1082L56.0408 14.4309V9.30328C56.0408 8.98564 56.0862 8.62262 56.1316 8.30498C56.4492 8.44111 56.7668 8.57725 57.0391 8.75876C59.308 10.0747 61.2138 12.7066 62.1214 15.4292L55.1786 19.4224C54.498 19.8308 54.0896 20.6476 54.0896 21.8728V34.8506C54.0896 37.2556 55.7685 40.2052 57.8559 41.385L76.5059 52.1847C77.5496 52.7746 78.5025 52.82 79.1832 52.457L90.4821 45.9227C91.1628 45.5143 91.5712 44.6975 91.5712 43.4723V32.4003V30.4491C91.5712 28.0894 89.8468 25.1399 87.8048 23.9601Z" fill="#FFFDF9"/>
<path opacity="0.06" d="M86.7619 23.9601L69.3824 13.9318C68.0665 9.03102 64.6632 4.13028 60.6246 1.81604C58.0381 0.318596 55.7239 0.182464 54.0449 1.18076L49.3711 3.85802C47.6921 4.85632 46.6484 6.94367 46.6484 9.89319V15.0208L50.3694 17.1535L54.9978 14.4763V9.30328C54.9978 8.98564 55.0432 8.62262 55.0886 8.30498C55.4062 8.44111 55.7239 8.57725 55.9961 8.75876C58.265 10.0747 60.1708 12.7066 61.0784 15.4292L54.1357 19.4224C53.455 19.8308 53.0466 20.6476 53.0466 21.8728V34.8506C53.0466 37.2556 54.7256 40.2052 56.8129 41.385L75.463 52.1847C76.5066 52.7746 77.4596 52.82 78.1402 52.457L89.3938 45.9227C90.0744 45.5143 90.4828 44.6975 90.4828 43.4723V32.4003V30.4491C90.5282 28.0894 88.8492 25.1399 86.7619 23.9601Z" fill="#FEFBF3"/>
<path opacity="0.09" d="M85.7619 23.9601L68.3824 13.9318C67.0665 9.03102 63.6632 4.13028 59.6246 1.81604C57.0381 0.318596 54.7239 0.182464 52.9995 1.18076L48.3711 3.85802C46.6921 4.85632 45.6484 6.94367 45.6484 9.89319V15.0208L49.3694 17.1535L53.9978 14.4763V9.30328C53.9978 8.98564 54.0432 8.62262 54.0886 8.30498C54.4062 8.44111 54.7239 8.57725 54.9961 8.75876C57.265 10.0747 59.1708 12.7066 60.0784 15.4292L53.1357 19.4224C52.455 19.8308 52.0466 20.6476 52.0466 21.8728V34.896C52.0466 37.301 53.7256 40.2505 55.8129 41.4303L74.463 52.1847C75.5066 52.7746 76.4596 52.82 77.1402 52.457L88.4391 45.9227C89.1198 45.5143 89.5282 44.6975 89.5282 43.4723V32.4003V30.4491C89.5282 28.0894 87.8492 25.1399 85.7619 23.9601Z" fill="#FEF9EE"/>
<path opacity="0.12" d="M84.7638 23.9601L67.3844 13.9317C66.0684 9.03099 62.6651 4.13025 58.6266 1.77063C56.0401 0.273186 53.7258 0.137054 52.0015 1.13535L47.373 3.81261C45.6941 4.81091 44.6504 6.89826 44.6504 9.84777V14.9754L48.3713 17.1081L52.9998 14.4309V9.30325C52.9998 8.98561 53.0452 8.62259 53.0905 8.30495C53.4082 8.44108 53.7258 8.57721 53.9981 8.75872C56.267 10.0747 58.1728 12.7065 59.0803 15.4292L52.1376 19.4224C51.457 19.8308 51.0486 20.6475 51.0486 21.8727V34.8506C51.0486 37.2556 52.7275 40.2051 54.8149 41.3849L73.4649 52.1847C74.5086 52.7746 75.4615 52.82 76.1422 52.457L87.4411 45.9226C88.1217 45.5143 88.5301 44.6975 88.5301 43.4723V32.4002V30.449C88.5301 28.0894 86.8512 25.1399 84.7638 23.9601Z" fill="#FDF6E8"/>
<path opacity="0.15" d="M83.7209 23.9601L66.3414 13.9318C65.0255 9.03102 61.6222 4.13028 57.5836 1.81604C54.9971 0.318596 52.6375 0.182464 51.0039 1.18076L46.3754 3.85802C44.6965 4.76556 43.6074 6.85291 43.6074 9.84781V14.9754L47.3284 17.1082L51.9568 14.4309V9.30328C51.9568 8.98564 52.0022 8.62262 52.0476 8.30498C52.3652 8.44111 52.6829 8.57725 52.9551 8.75876C55.224 10.0747 57.1298 12.7066 58.0374 15.4292L51.0947 19.4224C50.414 19.8308 50.0056 20.6476 50.0056 21.8728V34.8506C50.0056 37.2556 51.6846 40.2052 53.7719 41.385L72.4219 52.1847C73.4656 52.7746 74.4185 52.82 75.0992 52.457L86.3981 45.9227C87.0788 45.5143 87.4872 44.6975 87.4872 43.4723V32.4003V30.4491C87.5325 28.0894 85.8082 25.1399 83.7209 23.9601Z" fill="#FDF4E2"/>
<path opacity="0.18" d="M82.7224 23.9601L65.3429 13.9317C64.027 9.03099 60.6237 4.08487 56.5851 1.77063C54.044 0.273186 51.6844 0.137054 49.96 1.13535L45.3769 3.81261C43.698 4.81091 42.6543 6.89826 42.6543 9.84777V14.9754L46.3298 17.1081L50.9583 14.4309V9.30325C50.9583 8.98561 51.0037 8.62259 51.0491 8.30495C51.3667 8.44108 51.6844 8.57721 51.9566 8.75872C54.2255 10.0747 56.1313 12.7065 57.0389 15.4292L50.0962 19.4224C49.4155 19.8308 49.0071 20.6475 49.0071 21.8727V34.8506C49.0071 37.2556 50.6861 40.2051 52.7734 41.3849L71.4234 52.1847C72.4671 52.7746 73.42 52.82 74.1007 52.457L85.3996 45.9226C86.0803 45.5143 86.4887 44.6975 86.4887 43.4723V32.4002V30.449C86.534 28.0894 84.8097 25.1399 82.7224 23.9601Z" fill="#FDF2DC"/>
<path opacity="0.21" d="M81.7248 23.9601L64.3453 13.9318C63.0294 9.03102 59.6261 4.13028 55.5875 1.81604C53.001 0.318596 50.6868 0.182464 49.0078 1.18076L44.334 3.81264C42.655 4.81094 41.6113 6.89829 41.6113 9.84781V14.9754L45.3323 17.1082L49.9607 14.4309V9.30328C49.9607 8.98564 50.0061 8.62262 50.0515 8.30498C50.3691 8.44111 50.6868 8.57725 50.959 8.75876C53.2279 10.0747 55.1337 12.7066 56.0413 15.4292L49.0986 19.4224C48.4179 19.8308 48.0095 20.6476 48.0095 21.8728V34.8506C48.0095 37.2556 49.6885 40.2052 51.7758 41.385L70.4259 52.1847C71.4695 52.7746 72.4224 52.82 73.1031 52.457L84.402 45.9227C85.0827 45.5143 85.4911 44.6975 85.4911 43.4723V32.4003V30.4491C85.4911 28.0894 83.8121 25.1399 81.7248 23.9601Z" fill="#FCF0D7"/>
<path opacity="0.24" d="M80.7267 23.9601L63.3473 13.9317C62.0313 9.03099 58.628 4.13025 54.5895 1.77063C52.003 0.273186 49.6887 0.137054 47.9644 1.13535L43.3359 3.81261C41.657 4.81091 40.6133 6.89826 40.6133 9.84777V14.9754L44.3342 17.1081L48.9627 14.4309V9.30325C48.9627 8.98561 49.0081 8.62259 49.0534 8.30495C49.3711 8.44108 49.6887 8.57721 49.961 8.75872C52.2298 10.0747 54.1357 12.7065 55.0432 15.4292L48.1005 19.4224C47.4199 19.8308 47.0115 20.6475 47.0115 21.8727V34.8506C47.0115 37.2556 48.6904 40.2051 50.7778 41.3849L69.4278 52.1847C70.4715 52.7746 71.4244 52.82 72.1051 52.457L83.404 45.9226C84.0846 45.5143 84.493 44.6975 84.493 43.4723V32.4002V30.449C84.493 28.0894 82.8141 25.1399 80.7267 23.9601Z" fill="#FCEED1"/>
<path opacity="0.27" d="M79.7267 23.9601L62.3473 13.9317C61.0313 9.03099 57.5827 4.08487 53.5895 1.77063C51.003 0.273186 48.6887 0.137054 46.9644 1.13535L42.3359 3.81261C40.657 4.81091 39.6133 6.89826 39.6133 9.84777V14.9754L43.3342 17.1081L47.9627 14.4309V9.30325C47.9627 8.98561 48.0081 8.62259 48.0534 8.30495C48.3711 8.44108 48.6887 8.57721 48.961 8.75872C51.2298 10.0747 53.1357 12.7065 54.0432 15.4292L47.1005 19.4224C46.4199 19.8308 46.0115 20.6475 46.0115 21.8727V34.8506C46.0115 37.2556 47.6904 40.2051 49.7778 41.3849L68.4278 52.1847C69.4715 52.7746 70.4244 52.82 71.1051 52.457L82.404 45.9226C83.0846 45.5143 83.493 44.6975 83.493 43.4723V32.4002V30.449C83.493 28.0894 81.8141 25.1399 79.7267 23.9601Z" fill="#FBECCB"/>
<path opacity="0.3" d="M78.6833 23.9601L61.3038 13.9318C59.9879 9.03102 56.5846 4.13028 52.546 1.81604C49.9595 0.318596 47.6453 0.182464 45.9663 1.18076L41.3379 3.81264C39.6589 4.81094 38.6152 6.89829 38.6152 9.84781V14.9754L42.3362 17.1082L46.9646 14.4309V9.30328C46.9646 8.98564 47.01 8.62262 47.0554 8.30498C47.373 8.44111 47.6907 8.57725 47.9629 8.75876C50.2318 10.0747 52.1376 12.7066 53.0452 15.4292L46.1025 19.4224C45.4218 19.8308 45.0134 20.6476 45.0134 21.8728V34.8506C45.0134 37.2556 46.6924 40.2052 48.7797 41.385L67.4298 52.1847C68.4734 52.7746 69.4263 52.82 70.107 52.457L81.4059 45.9227C82.0866 45.5143 82.495 44.6975 82.495 43.4723V32.4003V30.4491C82.495 28.0894 80.7707 25.1399 78.6833 23.9601Z" fill="#FBE9C5"/>
<path opacity="0.33" d="M77.6853 23.9601L60.3058 13.9318C58.9898 9.03102 55.5866 4.13028 51.548 1.81604C48.9615 0.318596 46.6472 0.182464 44.9683 1.18076L40.3398 3.81264C38.6609 4.81094 37.6172 6.89829 37.6172 9.84781V14.9754L41.3381 17.1082L45.9666 14.4309V9.30328C45.9666 8.98564 46.012 8.62262 46.0573 8.30498C46.375 8.44111 46.6926 8.57725 46.9649 8.75876C49.2337 10.0747 51.1396 12.7066 52.0471 15.4292L45.1044 19.4224C44.4238 19.8308 44.0154 20.6476 44.0154 21.8728V34.896C44.0154 37.301 45.6943 40.2505 47.7817 41.4303L66.4317 52.2301C67.4754 52.82 68.4283 52.8654 69.109 52.5024L80.4079 45.9681C81.0885 45.5597 81.4969 44.7429 81.4969 43.5177V32.4003V30.4491C81.4516 28.0894 79.7726 25.1399 77.6853 23.9601Z" fill="#FBE7C0"/>
<path opacity="0.36" d="M76.6877 23.9601L59.3082 13.9317C57.9923 9.03099 54.589 4.13025 50.5504 1.77063C47.9639 0.273186 45.6497 0.137054 43.9253 1.13535L39.2969 3.81261C37.6179 4.81091 36.5742 6.89826 36.5742 9.84777V14.9754L40.2951 17.1081L44.9236 14.4309V9.30325C44.9236 8.98561 44.969 8.62259 45.0144 8.30495C45.332 8.44108 45.6497 8.57721 45.9219 8.75872C48.1908 10.0747 50.0966 12.7065 51.0042 15.4292L44.0615 19.4224C43.3808 19.8308 42.9724 20.6475 42.9724 21.8727V34.896C42.9724 37.301 44.6514 40.2505 46.7387 41.4303L65.3887 52.1847C66.4324 52.7746 67.3853 52.82 68.066 52.457L79.3649 45.9226C80.0456 45.5143 80.454 44.6975 80.454 43.4723V32.4002V30.449C80.454 28.0894 78.775 25.1399 76.6877 23.9601Z" fill="#FAE5BA"/>
<path opacity="0.39" d="M75.6896 23.9601L58.3101 13.9318C56.9942 9.03102 53.5909 4.13028 49.5523 1.81604C46.9658 0.318596 44.6516 0.182464 42.9727 1.18076L38.2988 3.81264C36.6198 4.81094 35.5762 6.89829 35.5762 9.84781V14.9754L39.2971 17.1082L43.9256 14.4309V9.30328C43.9256 8.98564 43.971 8.62262 44.0163 8.30498C44.334 8.44111 44.6516 8.57725 44.9239 8.75876C47.1927 10.0747 49.0986 12.7066 50.0061 15.4292L43.0634 19.4224C42.3828 19.8308 41.9744 20.6476 41.9744 21.8728V34.896C41.9744 37.301 43.6533 40.2505 45.7407 41.4303L64.3907 52.2301C65.4344 52.82 66.3873 52.8654 67.0679 52.5024L78.3669 45.9681C79.0475 45.5597 79.4559 44.7429 79.4559 43.5177V32.4003V30.4491C79.4559 28.0894 77.777 25.1399 75.6896 23.9601Z" fill="#FAE3B4"/>
<path opacity="0.42" d="M74.6447 23.9601L57.2652 13.9318C55.9493 9.03103 52.546 4.13029 48.5074 1.81605C45.9663 0.273228 43.6067 0.137097 41.9277 1.1354L37.2993 3.81265C35.5749 4.76557 34.5312 6.85292 34.5312 9.84782V14.9754L38.2522 17.1082L42.8807 14.4309V9.30329C42.8807 8.98565 42.926 8.62263 42.9714 8.30499C43.289 8.44113 43.6067 8.57726 43.879 8.75877C46.1478 10.0747 48.0537 12.7066 48.9612 15.4292L42.0639 19.4224C41.3832 19.8308 40.9748 20.6476 40.9748 21.8728V34.896C40.9748 37.301 42.6538 40.2505 44.7411 41.4303L63.3912 52.2301C64.4348 52.82 65.3877 52.8654 66.0684 52.5024L77.3673 45.9681C78.048 45.5597 78.4564 44.7429 78.4564 43.5177V32.4003V30.4491C78.4564 28.0895 76.732 25.1399 74.6447 23.9601Z" fill="#F9E1AE"/>
<path opacity="0.45" d="M73.6466 23.9601L56.2672 13.9317C54.9512 9.03099 51.5479 4.08487 47.5094 1.77063C44.9683 0.273186 42.6086 0.137054 40.9297 1.13535L36.2558 3.81261C34.5769 4.81091 33.5332 6.89826 33.5332 9.84777V14.9754L37.2541 17.1081L41.8826 14.4309V9.30325C41.8826 8.98561 41.928 8.62259 41.9734 8.30495C42.291 8.44108 42.6086 8.57721 42.8809 8.75872C45.1498 10.0747 47.0556 12.7065 47.9631 15.4292L41.0204 19.4224C40.3398 19.8308 39.9314 20.6475 39.9314 21.8727V34.896C39.9314 37.301 41.6103 40.2505 43.6977 41.4303L62.3477 52.2301C63.3914 52.82 64.3443 52.8654 65.025 52.5023L76.3239 45.968C77.0046 45.5596 77.4129 44.7428 77.4129 43.5177V32.4002V30.449C77.4583 28.0894 75.734 25.1399 73.6466 23.9601Z" fill="#F9DFA9"/>
<path opacity="0.48" d="M72.6486 23.9601L55.2691 13.9318C53.9532 9.03102 50.5499 4.13028 46.5113 1.81604C43.9248 0.318596 41.6106 0.182464 39.9316 1.18076L35.2578 3.81264C33.5788 4.81094 32.5352 6.89829 32.5352 9.84781V14.9754L36.2561 17.1082L40.8846 14.4309V9.30328C40.8846 8.98564 40.9299 8.62262 40.9753 8.30498C41.293 8.44111 41.6106 8.57725 41.8829 8.75876C44.1517 10.0747 46.0576 12.7066 46.9651 15.4292L40.0224 19.4224C39.3417 19.8308 38.9333 20.6476 38.9333 21.8728V34.896C38.9333 37.301 40.6123 40.2505 42.6996 41.4303L61.3497 52.2301C62.3934 52.82 63.3463 52.8654 64.0269 52.5024L75.3259 45.9681C76.0065 45.5597 76.4149 44.7429 76.4149 43.5177V32.4003V30.4491C76.4149 28.0894 74.736 25.1399 72.6486 23.9601Z" fill="#F9DDA3"/>
<path opacity="0.52" d="M71.6506 23.9601L54.2711 13.9317C52.9551 9.03099 49.5065 4.08487 45.5133 1.77063C42.9268 0.273186 40.6125 0.137054 38.9336 1.13535L34.2597 3.81261C32.5808 4.81091 31.5371 6.89826 31.5371 9.84777V14.9754L35.258 17.1081L39.8865 14.4309V9.30325C39.8865 8.98561 39.9319 8.62259 39.9773 8.30495C40.2949 8.44108 40.6125 8.57721 40.8848 8.75872C43.1537 10.0747 45.0595 12.7065 45.9671 15.4292L39.0243 19.4224C38.3437 19.8308 37.9353 20.6475 37.9353 21.8727V34.896C37.9353 37.301 39.6143 40.2505 41.7016 41.4303L60.3516 52.2301C61.3953 52.82 62.3482 52.8654 63.0289 52.5023L74.3278 45.968C75.0085 45.5596 75.4169 44.7428 75.4169 43.5177V32.4002V30.449C75.4169 28.0894 73.7379 25.1399 71.6506 23.9601Z" fill="#F8DA9D"/>
<path opacity="0.55" d="M70.6525 23.9601L53.273 13.9317C51.9571 9.03099 48.5084 4.08487 44.5152 1.77063C41.9287 0.273186 39.5691 0.137054 37.8902 1.13535L33.2617 3.81261C31.5827 4.81091 30.5391 6.89826 30.5391 9.84777V14.9754L34.26 17.1081L38.8885 14.4309V9.30325C38.8885 8.98561 38.9338 8.62259 38.9792 8.30495C39.2969 8.44108 39.6145 8.57721 39.8868 8.75872C42.1556 10.0747 44.0615 12.7065 44.969 15.4292L38.0263 19.4224C37.3456 19.8308 36.9373 20.6475 36.9373 21.8727V34.896C36.9373 37.301 38.6162 40.2505 40.7036 41.4303L59.3536 52.2301C60.3973 52.82 61.3502 52.8654 62.0308 52.5023L73.3298 45.968C74.0104 45.5596 74.4188 44.7428 74.4188 43.5177V32.4002V30.449C74.4188 28.0894 72.6945 25.1399 70.6525 23.9601Z" fill="#F8D897"/>
<path opacity="0.58" d="M69.6091 23.9601L52.2296 13.8863C50.9591 8.98557 47.5104 4.08484 43.4718 1.72522C40.8853 0.227776 38.5711 0.0916439 36.8921 1.08994L32.2636 3.81257C30.5847 4.81087 29.541 6.89822 29.541 9.84774V14.9754L33.2619 17.1081L37.8904 14.4308V9.30322C37.8904 8.98557 37.9358 8.62256 37.9812 8.30492C38.2988 8.44105 38.6165 8.57718 38.8887 8.75869C41.1576 10.0746 43.0634 12.7065 43.971 15.4291L37.0283 19.4223C36.3476 19.8307 35.9392 20.6475 35.9392 21.8727V34.896C35.9392 37.3009 37.6182 40.2505 39.7055 41.4303L58.3555 52.23C59.3992 52.82 60.3521 52.8653 61.0328 52.5023L72.3317 45.968C73.0124 45.5596 73.4208 44.7428 73.4208 43.5176V32.4002V30.449C73.4208 28.0894 71.6964 25.1399 69.6091 23.9601Z" fill="#F8D692"/>
<path opacity="0.61" d="M68.6095 23.9601L51.2301 13.9317C49.9141 9.03099 46.5108 4.13025 42.4723 1.77063C39.8858 0.273186 37.5715 0.137054 35.8926 1.13535L31.2187 3.81261C29.5398 4.81091 28.4961 6.85288 28.4961 9.84777V14.9754L32.217 17.1081L36.8455 14.4309V9.30325C36.8455 8.98561 36.8909 8.62259 36.9363 8.30495C37.2539 8.44108 37.5715 8.57721 37.8438 8.75872C40.1127 10.0747 42.0185 12.7065 42.926 15.4292L35.9833 19.4224C35.3027 19.8308 34.8943 20.6475 34.8943 21.8727V34.896C34.8943 37.301 36.5732 40.2505 38.6606 41.4303L57.3106 52.2301C58.3543 52.82 59.3072 52.8654 59.9879 52.5023L71.2868 45.968C71.9675 45.5596 72.3758 44.7428 72.3758 43.5177V32.4002V30.449C72.3758 28.0894 70.6969 25.1399 68.6095 23.9601Z" fill="#F7D48C"/>
<path opacity="0.64" d="M67.6115 23.9601L50.232 13.9317C48.9161 9.03099 45.5128 4.08487 41.4742 1.77063C38.8877 0.273186 36.5735 0.137054 34.8945 1.13535L30.2207 3.81261C28.5417 4.81091 27.498 6.89826 27.498 9.84777V14.9754L31.219 17.1081L35.8475 14.4309V9.30325C35.8475 8.98561 35.8928 8.62259 35.9382 8.30495C36.2558 8.44108 36.5735 8.57721 36.8457 8.75872C39.1146 10.0747 41.0205 12.7065 41.928 15.4292L34.9853 19.4224C34.3046 19.8308 33.8962 20.6475 33.8962 21.8727V34.896C33.8962 37.301 35.5752 40.2505 37.6625 41.4303L56.3126 52.1847C57.3562 52.7746 58.3092 52.82 58.9898 52.457L70.2887 45.9226C70.9694 45.5143 71.3778 44.6975 71.3778 43.4723V32.4002V30.449C71.3778 28.0894 69.6988 25.1399 67.6115 23.9601Z" fill="#F7D286"/>
<path opacity="0.67" d="M66.6134 23.9601L49.234 13.9317C47.918 9.03099 44.4694 4.08487 40.4762 1.77063C37.8897 0.273186 35.5754 0.137054 33.8511 1.13535L29.2226 3.81261C27.5437 4.81091 26.5 6.89826 26.5 9.84777V14.9754L30.2209 17.1081L34.8494 14.4309V9.30325C34.8494 8.98561 34.8948 8.62259 34.9402 8.30495C35.2578 8.44108 35.5754 8.57721 35.8477 8.75872C38.0712 10.0293 39.977 12.7065 40.8846 15.4292L33.9872 19.4224C33.3066 19.8308 32.8982 20.6475 32.8982 21.8727V34.896C32.8982 37.301 34.5771 40.2505 36.6645 41.4303L55.3145 52.2301C56.3582 52.82 57.3111 52.8654 57.9918 52.5023L69.2907 45.968C69.9714 45.5596 70.3797 44.7428 70.3797 43.5177V32.4002V30.449C70.3797 28.0894 68.7008 25.1399 66.6134 23.9601Z" fill="#F6D080"/>
<path opacity="0.7" d="M65.5705 23.9601L48.191 13.9317C46.9204 9.03099 43.4718 4.08487 39.4332 1.77063C36.8921 0.273186 34.5325 0.137054 32.8535 1.13535L28.225 3.81261C26.5007 4.76553 25.457 6.85288 25.457 9.84777V14.9754L29.178 17.1081L33.8064 14.4309V9.30325C33.8064 8.98561 33.8518 8.62259 33.8972 8.30495C34.2148 8.44108 34.5325 8.57721 34.8047 8.75872C37.0736 10.0747 38.9794 12.7065 39.887 15.4292L32.9896 19.4224C32.309 19.8308 31.9006 20.6475 31.9006 21.8727V34.896C31.9006 37.301 33.5795 40.2505 35.6669 41.4303L54.3169 52.2301C55.3606 52.82 56.3135 52.8654 56.9942 52.5023L68.2931 45.968C68.9738 45.5596 69.3822 44.7428 69.3822 43.5177V32.4002V30.449C69.3822 28.0894 67.6578 25.1399 65.5705 23.9601Z" fill="#F6CE7B"/>
<path opacity="0.73" d="M64.5724 23.9601L47.193 13.9317C45.877 9.03099 42.4737 4.08487 38.4352 1.77063C35.8487 0.273186 33.5344 0.137054 31.8555 1.13535L27.1816 3.81261C25.5027 4.81091 24.459 6.89826 24.459 9.84777V14.9754L28.1799 17.1081L32.8084 14.4309V9.30325C32.8084 8.98561 32.8538 8.62259 32.8991 8.30495C33.2168 8.44108 33.5344 8.57721 33.8067 8.75872C36.0755 10.0747 37.9814 12.7065 38.8889 15.4292L31.9462 19.4224C31.2656 19.8308 30.8572 20.6475 30.8572 21.8727V34.896C30.8572 37.301 32.5361 40.2505 34.6235 41.4303L53.2735 52.2301C54.3172 52.82 55.2701 52.8654 55.9508 52.5023L67.2497 45.968C67.9303 45.5596 68.3387 44.7428 68.3387 43.5177V32.4002V30.449C68.3841 28.0894 66.6598 25.1399 64.5724 23.9601Z" fill="#F6CB75"/>
<path opacity="0.76" d="M63.5724 23.9601L46.193 13.9317C44.877 9.03099 41.4737 4.08487 37.4352 1.77063C34.8487 0.273186 32.5344 0.137054 30.8101 1.13535L26.1816 3.81261C24.5027 4.81091 23.459 6.89826 23.459 9.84777V14.9754L27.1799 17.1081L31.8084 14.4309V9.30325C31.8084 8.98561 31.8538 8.62259 31.8991 8.30495C32.2168 8.44108 32.5344 8.57721 32.8067 8.75872C35.0755 10.0747 36.9814 12.7065 37.8889 15.4292L30.9462 19.4224C30.2656 19.8308 29.8572 20.6475 29.8572 21.8727V34.896C29.8572 37.301 31.5361 40.2505 33.6235 41.4303L52.2735 52.2301C53.3172 52.82 54.2701 52.8654 54.9508 52.5023L66.2497 45.968C66.9303 45.5596 67.3387 44.7428 67.3387 43.5177V32.4002V30.449C67.3387 28.0894 65.6598 25.1399 63.5724 23.9601Z" fill="#F5C96F"/>
<path opacity="0.79" d="M62.5744 23.9601L45.1949 13.8863C43.879 9.03099 40.4303 4.08487 36.4371 1.77063C33.8506 0.273186 31.5364 0.137054 29.812 1.13535L25.1836 3.81261C23.5046 4.81091 22.4609 6.89826 22.4609 9.84777V14.9754L26.1819 17.1081L30.8103 14.4309V9.30325C30.8103 8.98561 30.8557 8.62259 30.9011 8.30495C31.2187 8.44108 31.5364 8.57721 31.8086 8.75872C34.0775 10.0747 35.9833 12.7065 36.8909 15.4292L29.9482 19.4224C29.2675 19.8308 28.8591 20.6475 28.8591 21.8727V34.896C28.8591 37.301 30.5381 40.2505 32.6254 41.4303L51.2755 52.2301C52.3191 52.82 53.2721 52.8654 53.9527 52.5023L65.2516 45.968C65.9323 45.5596 66.3407 44.7428 66.3407 43.5177V32.4002V30.449C66.3407 28.0894 64.6617 25.1399 62.5744 23.9601Z" fill="#F5C769"/>
<path opacity="0.82" d="M61.5763 23.9601L44.1969 13.8863C42.8809 9.03099 39.4323 4.08487 35.4391 1.77063C32.8526 0.273186 30.493 0.137054 28.814 1.13535L24.1855 3.81261C22.5066 4.81091 21.4629 6.89826 21.4629 9.84777V14.9754L25.1838 17.1081L29.8123 14.4309V9.30325C29.8123 8.98561 29.8577 8.62259 29.9031 8.30495C30.2207 8.44108 30.5383 8.57721 30.8106 8.75872C33.0795 10.0747 34.9853 12.7065 35.8928 15.4292L28.9501 19.4224C28.2695 19.8308 27.8611 20.6475 27.8611 21.8727V34.896C27.8611 37.301 29.54 40.2505 31.6274 41.4303L50.2774 52.2301C51.3211 52.82 52.274 52.8654 52.9547 52.5023L64.2536 45.968C64.9342 45.5596 65.3426 44.7428 65.3426 43.5177V32.4002V30.449C65.3426 28.0894 63.6183 25.1399 61.5763 23.9601Z" fill="#F4C564"/>
<path opacity="0.85" d="M60.5329 23.9601L43.1534 13.8863C41.8375 9.03099 38.4342 4.08487 34.3956 1.77063C31.8091 0.273186 29.4949 0.137054 27.7706 1.13535L23.1875 3.81261C21.5085 4.81091 20.4648 6.89826 20.4648 9.84777V14.9754L24.1858 17.1081L28.8142 14.4309V9.30325C28.8142 8.98561 28.8596 8.62259 28.905 8.30495C29.2226 8.44108 29.5403 8.57721 29.8125 8.75872C32.0814 10.0747 33.9873 12.7065 34.8948 15.4292L27.9521 19.4224C27.2714 19.8308 26.863 20.6475 26.863 21.8727V34.896C26.863 37.301 28.542 40.2505 30.6293 41.4303L49.2794 52.2301C50.323 52.82 51.276 52.8654 51.9566 52.5023L63.2555 45.968C63.9362 45.5596 64.3446 44.7428 64.3446 43.5177V32.4002V30.449C64.2992 28.0894 62.6203 25.1399 60.5329 23.9601Z" fill="#F4C35E"/>
<path opacity="0.88" d="M59.5353 23.9601L42.1559 13.8863C40.8399 9.03099 37.4366 4.08487 33.3981 1.77063C30.8116 0.273186 28.4973 0.137054 26.8184 1.13535L22.1445 3.81261C20.4656 4.81091 19.4219 6.89826 19.4219 9.84777V14.9754L23.1428 17.1081L27.7713 14.4309V9.30325C27.7713 8.98561 27.8167 8.62259 27.862 8.30495C28.1797 8.44108 28.4973 8.57721 28.7696 8.75872C31.0384 10.0747 32.9443 12.7065 33.8518 15.4292L26.9091 19.4224C26.2285 19.8308 25.8201 20.6475 25.8201 21.8727V34.896C25.8201 37.301 27.499 40.2505 29.5864 41.4303L48.2364 52.2301C49.2801 52.82 50.233 52.8654 50.9136 52.5023L62.2126 45.968C62.8932 45.5596 63.3016 44.7428 63.3016 43.5177V32.4002V30.449C63.3016 28.0894 61.6227 25.1399 59.5353 23.9601Z" fill="#F4C158"/>
<path opacity="0.91" d="M58.5373 23.9601L41.1578 13.8863C39.8419 9.03099 36.4386 4.08487 32.4 1.77063C29.8135 0.273186 27.4993 0.137054 25.8203 1.13535L21.1465 3.81261C19.4675 4.81091 18.4238 6.89826 18.4238 9.84777V14.9754L22.1448 17.1081L26.7732 14.4309V9.30325C26.7732 8.98561 26.8186 8.62259 26.864 8.30495C27.1816 8.44108 27.4993 8.57721 27.7715 8.75872C30.0404 10.0747 31.9462 12.7065 32.8538 15.4292L25.9111 19.4224C25.2304 19.8308 24.822 20.6475 24.822 21.8727V34.896C24.822 37.301 26.501 40.2505 28.5883 41.4303L47.2383 52.1847C48.282 52.7746 49.2349 52.82 49.9156 52.457L61.2145 45.9226C61.8952 45.5143 62.3036 44.6975 62.3036 43.4723V32.4002V30.449C62.3036 28.0894 60.6246 25.1399 58.5373 23.9601Z" fill="#F3BE52"/>
<path opacity="0.94" d="M57.5373 23.9601L40.1578 13.8863C38.8419 9.03099 35.3932 4.08487 31.4 1.77063C28.8135 0.273186 26.4993 0.137054 24.8203 1.13535L20.1465 3.81261C18.4675 4.81091 17.4238 6.89826 17.4238 9.84777V14.9754L21.1448 17.1081L25.7732 14.4309V9.30325C25.7732 8.98561 25.8186 8.62259 25.864 8.30495C26.1816 8.44108 26.4993 8.57721 26.7715 8.75872C28.995 10.0293 30.9009 12.7065 31.8084 15.4292L24.9111 19.4224C24.2304 19.8308 23.822 20.6475 23.822 21.8727V34.896C23.822 37.301 25.501 40.2505 27.5883 41.4303L46.2384 52.2301C47.282 52.82 48.2349 52.8654 48.9156 52.5023L60.2145 45.968C60.8952 45.5596 61.3036 44.7428 61.3036 43.5177V32.4002V30.449C61.3036 28.0894 59.6246 25.1399 57.5373 23.9601Z" fill="#F3BC4D"/>
<path opacity="0.97" d="M56.4943 23.9601L39.1148 13.8863C37.8443 9.03099 34.3956 4.08487 30.357 1.77063C27.8159 0.273186 25.4563 0.137054 23.7773 1.13535L19.1489 3.81261C17.4245 4.76553 16.3809 6.85288 16.3809 9.84777V14.9754L20.1018 17.1081L24.7303 14.4309V9.30325C24.7303 8.98561 24.7756 8.62259 24.821 8.30495C25.1387 8.44108 25.4563 8.57721 25.7286 8.75872C27.9974 10.0747 29.9033 12.7065 30.8108 15.4292L23.8681 19.4224C23.1874 19.8308 22.779 20.6475 22.779 21.8727V34.896C22.779 37.301 24.458 40.2505 26.5454 41.4303L45.1954 52.2301C46.2391 52.82 47.192 52.8654 47.8726 52.5023L59.1716 45.968C59.8522 45.5596 60.2606 44.7428 60.2606 43.5177V32.4002V30.449C60.306 28.0894 58.5817 25.1399 56.4943 23.9601Z" fill="#F2BA47"/>
<path d="M55.4963 23.9601L38.1168 13.8863C36.8009 9.03099 33.3976 4.08487 29.359 1.77063C26.7725 0.273186 24.4583 0.137054 22.7793 1.13535L18.1054 3.81261C16.4265 4.81091 15.3828 6.89826 15.3828 9.84777V14.9754L19.1037 17.1081L23.7322 14.4309V9.30325C23.7322 8.98561 23.7776 8.62259 23.823 8.30495C24.1406 8.44108 24.4583 8.57721 24.7305 8.75872C26.9994 10.0747 28.9052 12.7065 29.8128 15.4292L22.8701 19.4224C22.1894 19.8308 21.781 20.6475 21.781 21.8727V34.896C21.781 37.301 23.46 40.2505 25.5473 41.4303L44.1973 52.2301C45.241 52.82 46.1939 52.8654 46.8746 52.5023L58.1735 45.968C58.8542 45.5596 59.2626 44.7428 59.2626 43.5177V32.4002V30.449C59.2626 28.0894 57.5836 25.1399 55.4963 23.9601Z" fill="#F2B841"/>
</g>
<path d="M46.0131 3.40413L21.2372 17.7433L21.0103 17.8795L20.7834 18.061L20.5565 18.2425L20.375 18.424L20.1935 18.6509L20.012 18.8777L19.8305 19.1046L19.649 19.3769L19.5128 19.6492L19.3767 19.9214L19.2859 20.1937L19.1952 20.466L19.1044 20.7382L19.0591 21.0105L19.0137 21.2827V21.555V22.4172V23.234V24.0508V24.8222V25.5482V26.2742V27.0003V27.7263V28.407V29.0876V29.7229V30.4036V31.0388V31.6741V32.3094V32.9447V33.58V34.2152V34.8505V35.5312V36.1665V36.8471V37.4824V38.1631V38.8891V39.6151V40.3412V41.0672V41.8386V42.6554V43.4722V44.3344L19.0591 44.8335L19.1952 45.2419L19.3767 45.5595L19.649 45.741L35.3041 54.8165L35.0772 54.5896L34.8503 54.272L34.7142 53.8636L34.6688 53.3644V52.5023V51.6855V50.9141V50.1426V49.3712V48.6452V47.9192V47.2385V46.5125V45.8772V45.1965V44.5612V43.8806V43.2453V42.61V41.9747V41.3395V40.7042V40.0689V39.4336V38.753V38.1177V37.437V36.7564V36.0303V35.3497V34.6236V33.8522V33.0808V32.264V31.4472V30.5851V30.3582L34.7142 30.0859L34.7596 29.7683L34.8503 29.496L34.9411 29.2238L35.0772 28.9515L35.168 28.6792L35.3041 28.407L35.4856 28.1801L35.6671 27.9078L35.8486 27.6809L36.0301 27.454L36.2116 27.2725L36.4385 27.091L36.6654 26.9095L36.8923 26.7734L61.6682 12.4796L62.7573 11.8443L63.2111 11.6174L63.6195 11.5266L64.0279 11.572L64.3455 11.6628L48.6904 2.63271L48.3727 2.49658H47.9643L47.5559 2.58734L47.1022 2.76885L46.0131 3.40413Z" fill="#34485C"/>
<path d="M36.8934 26.7732C35.5775 27.6353 34.7607 29.042 34.6699 30.5848V53.3642C34.6699 54.7709 35.6682 55.3608 36.8934 54.6348L53.2746 45.1963L63.2576 39.388C64.2559 38.5258 64.8911 37.2553 64.9819 35.894V13.1146C64.9819 11.7079 63.9836 11.118 62.7584 11.8441L61.6694 12.4793L36.8934 26.7732Z" fill="#3D566E"/>
<path d="M62.3951 17.4257L62.1682 17.2896H62.1228H62.0775H62.0321L60.0355 18.424L59.9901 18.4694L59.9447 18.5147L59.8993 18.5601L59.854 18.6055V18.6962L59.8086 18.7416V18.787V18.8778V21.0105V21.0559V21.1012L59.854 21.1466L60.0809 21.2827L60.0355 21.2374V21.192V21.1466V19.0139V18.9231V18.8778L60.0809 18.8324V18.7416L60.1262 18.6962L60.1716 18.6509L60.217 18.6055L60.2624 18.5601L62.259 17.4257H62.3043H62.3497H62.3951Z" fill="#CCCCCC"/>
<path d="M56.4952 27.454L56.2683 27.3179H56.2229H56.1775H56.1321H56.0868L54.1355 28.4977H54.0902L53.9994 28.5431V28.5884L53.954 28.6338L53.9087 28.7246V28.7699L53.8633 28.8153V28.9061V31.0388V31.0842L53.9087 31.1296V31.1749H53.954L54.1809 31.3111H54.1355V31.2657L54.0902 31.2203V31.1749V29.0422V28.9515L54.1355 28.9061V28.8607L54.1809 28.7699L54.2263 28.7246V28.6792L54.3171 28.6338L54.3624 28.5884L56.3137 27.454H56.359L56.4044 27.4086L56.4498 27.454H56.4952Z" fill="#CCCCCC"/>
<path d="M59.4444 25.7299L59.2175 25.5938H59.1721H59.0814L59.036 25.6391L57.0848 26.7736L57.0394 26.8189L56.994 26.8643L56.9486 26.9097L56.9033 26.9551L56.8579 27.0004V27.0458V27.1366L56.8125 27.182V29.3147L56.8579 29.4054V29.4508L56.9033 29.4962L57.1301 29.6323L57.0848 29.5869V29.5416V29.4962V29.4508V27.3181V27.2727V27.182V27.1366L57.1301 27.0912L57.1755 27.0458L57.2209 26.9551H57.2663L57.3116 26.9097L59.2629 25.7753L59.3082 25.7299H59.399H59.4444Z" fill="#CCCCCC"/>
<path d="M62.3951 24.0507L62.1682 23.9145V23.8691H62.1228L62.0775 23.9145H62.0321L60.0355 25.0489L59.9901 25.0943L59.9447 25.1397L59.8993 25.1851L59.854 25.2305V25.3212L59.8086 25.3666V25.412V25.4573V27.6354V27.6808V27.7262H59.854V27.7716L60.0809 27.9077V27.8623H60.0355V27.817V27.7262V25.5935V25.5481V25.5027L60.0809 25.412V25.3666L60.1262 25.3212L60.1716 25.2758L60.217 25.2305L60.2624 25.1851L62.259 24.0507L62.3043 24.0053H62.3497H62.3951V24.0507Z" fill="#CCCCCC"/>
<path d="M56.4952 24.1415L56.2683 24.0054H56.2229H56.1775H56.1321H56.0868L54.1355 25.1852H54.0902L53.9994 25.2306V25.2759L53.954 25.3667L53.9087 25.4121V25.4574L53.8633 25.5482V25.5936V27.7263V27.7717L53.9087 27.8171V27.8624H53.954L54.1809 27.9986H54.1355V27.9532L54.0902 27.9078V27.8624V25.7297V25.639L54.1355 25.5936V25.5482L54.1809 25.4574L54.2263 25.4121V25.3667L54.3171 25.3213H54.3624L56.3137 24.1415H56.359H56.4044H56.4498H56.4952Z" fill="#CCCCCC"/>
<path d="M59.4444 22.4174L59.2175 22.2812H59.1721H59.0814L59.036 22.3266L57.0848 23.4611L57.0394 23.5064L56.994 23.5518L56.9486 23.5972L56.9033 23.6426L56.8579 23.6879V23.7787V23.8241L56.8125 23.8695V26.0022L56.8579 26.0476V26.1383L56.9033 26.1837L57.1301 26.3198L57.0848 26.2744V26.2291V26.1837V26.1383V24.0056V23.9602V23.8695V23.8241L57.1301 23.7787L57.1755 23.7333L57.2209 23.6879L57.2663 23.6426L57.3116 23.5972L59.2629 22.4628L59.3082 22.4174H59.399H59.4444Z" fill="#CCCCCC"/>
<path d="M62.3951 20.7382L62.1682 20.6021H62.1228H62.0775H62.0321L60.0355 21.7365L59.9901 21.7819L59.9447 21.8272L59.8993 21.8726L59.854 21.918V22.0087L59.8086 22.0541V22.0995V22.1903V24.323V24.3684V24.4137L59.854 24.4591L60.0809 24.5952V24.5499H60.0355V24.5045V24.4591V22.281V22.2356V22.1903L60.0809 22.1449V22.0541L60.1262 22.0087L60.1716 21.9634L60.217 21.918L60.2624 21.8726L62.259 20.7382H62.3043L62.3497 20.6928H62.3951V20.7382Z" fill="#CCCCCC"/>
<path d="M56.4952 20.829L56.2683 20.6929H56.2229H56.1775H56.1321L56.0868 20.7382L54.1355 21.8727L54.0902 21.9181H53.9994V21.9634L53.954 22.0542L53.9087 22.0996V22.1449L53.8633 22.2357V22.2811V24.4138V24.4592L53.9087 24.5046V24.5499H53.954L54.1809 24.6861H54.1355V24.6407L54.0902 24.5953V24.5499V22.4172V22.3718L54.1355 22.2811V22.2357L54.1809 22.1903L54.2263 22.0996V22.0542L54.3171 22.0088H54.3624L56.3137 20.829H56.359H56.4044H56.4498H56.4952Z" fill="#CCCCCC"/>
<path d="M59.4444 19.1044L59.2175 19.0136L59.1721 18.9683H59.0814L59.036 19.0136L57.0848 20.1481L57.0394 20.1934L56.994 20.2388L56.9486 20.2842L56.9033 20.3296L56.8579 20.375V20.4657V20.5111L56.8125 20.5565V22.7346L56.8579 22.7799V22.8253L56.9033 22.8707L57.1301 23.0068L57.0848 22.9615V22.8707V22.8253V20.6926V20.6472V20.6018V20.5111L57.1301 20.4657L57.1755 20.4203L57.2209 20.375L57.2663 20.3296L57.3116 20.2842L59.2629 19.1498L59.3082 19.1044H59.399H59.4444Z" fill="#CCCCCC"/>
<path d="M59.2625 19.1499L57.2659 20.2843C57.1298 20.3751 57.0391 20.5112 57.0391 20.6927V22.8254C57.0391 22.9616 57.1298 23.0523 57.2659 22.9616L59.2625 21.8271C59.3987 21.7364 59.4894 21.6002 59.4894 21.4187V19.286C59.5348 19.1045 59.3987 19.0591 59.2625 19.1499Z" fill="#E6E6E6"/>
<path d="M56.3133 20.8289L54.3167 21.9633C54.1806 22.0541 54.0898 22.1902 54.0898 22.3717V24.5498C54.0898 24.6859 54.1806 24.7767 54.3167 24.6859L56.3133 23.5515C56.4495 23.4607 56.5402 23.3246 56.5402 23.1431V21.0104C56.5856 20.8289 56.4495 20.7835 56.3133 20.8289Z" fill="#E6E6E6"/>
<path d="M62.2586 20.7382L60.262 21.8726C60.1259 21.9634 60.0352 22.0995 60.0352 22.281V24.4137C60.0352 24.5499 60.1259 24.6406 60.262 24.5499L62.2586 23.4154C62.3948 23.3247 62.4855 23.1886 62.4855 23.0071V20.8743C62.4855 20.7382 62.3948 20.6474 62.2586 20.7382Z" fill="#E6E6E6"/>
<path d="M59.2625 22.4624L57.2659 23.5968C57.1298 23.6876 57.0391 23.8237 57.0391 24.0052V26.1379C57.0391 26.2741 57.1298 26.3648 57.2659 26.2741L59.2625 25.1396C59.3987 25.0489 59.4894 24.9127 59.4894 24.7312V22.5985C59.5348 22.417 59.3987 22.3716 59.2625 22.4624Z" fill="#E6E6E6"/>
<path d="M56.3133 24.1415L54.3167 25.276C54.1806 25.3667 54.0898 25.5028 54.0898 25.6844V27.8171C54.0898 27.9532 54.1806 28.044 54.3167 27.9532L56.3133 26.8188C56.4495 26.728 56.5402 26.5919 56.5402 26.4104V24.2777C56.5856 24.1415 56.4495 24.0962 56.3133 24.1415Z" fill="#E6E6E6"/>
<path d="M62.2586 24.0507L60.262 25.1851C60.1259 25.2759 60.0352 25.412 60.0352 25.5935V27.7262C60.0352 27.8624 60.1259 27.9531 60.262 27.8624L62.2586 26.7279C62.3948 26.6372 62.4855 26.5011 62.4855 26.3196V24.1868C62.4855 24.0507 62.3948 23.9599 62.2586 24.0507Z" fill="#E6E6E6"/>
<path d="M59.2625 25.7749L57.2659 26.9093C57.1298 27.0001 57.0391 27.1362 57.0391 27.3177V29.4504C57.0391 29.5866 57.1298 29.6773 57.2659 29.5866L59.2625 28.4521C59.3987 28.3614 59.4894 28.2252 59.4894 28.0437V25.911C59.5348 25.7295 59.3987 25.6841 59.2625 25.7749Z" fill="#E6E6E6"/>
<path d="M56.3133 27.454L54.3167 28.5885C54.1806 28.6792 54.0898 28.8153 54.0898 28.9969V31.1296C54.0898 31.2657 54.1806 31.3565 54.3167 31.2657L56.3133 30.1313C56.4495 30.0405 56.5402 29.9044 56.5402 29.7229V27.5902C56.5856 27.454 56.4495 27.4087 56.3133 27.454Z" fill="#E6E6E6"/>
<path d="M62.2586 17.4257L60.262 18.5601C60.1259 18.6509 60.0352 18.787 60.0352 18.9685V21.1013C60.0352 21.2374 60.1259 21.3281 60.262 21.2374L62.2586 20.103C62.3948 20.0122 62.4855 19.8761 62.4855 19.6946V17.5618C62.4855 17.4257 62.3948 17.3803 62.2586 17.4257Z" fill="#E6E6E6"/>
<path d="M37.3926 31.9008V46.4215C37.3926 46.6484 37.5287 46.7391 37.7556 46.603L50.9604 38.9796C51.1419 38.8435 51.278 38.6166 51.3234 38.3897V23.869C51.3234 23.6421 51.1872 23.5514 50.9604 23.6875L37.7556 31.3109C37.5287 31.447 37.438 31.6739 37.3926 31.9008Z" fill="#B4CCFA"/>
<path d="M53.8184 33.4891L62.2585 28.5884V29.9043L60.8064 30.7211V31.3564L55.4066 34.4874V33.8068L53.8184 34.7597V33.4891Z" fill="#1E1E24"/>
<path d="M37.8906 51.7762L57.2667 40.6134V39.479L37.8906 50.6418V51.7762Z" fill="#1E1E24"/>
<path d="M19.649 19.377L19.5128 19.6492L19.3767 19.9215L19.2859 20.1937L19.1952 20.466L19.1044 20.7383L19.0591 21.0105L19.0137 21.2828V21.5551V22.4172V23.234V24.0508V24.8222V25.5483V26.2743V27.0003V27.7264V28.407V29.0877V29.723V30.4036V31.0389V31.6742V32.3095V32.9447V33.58V34.2153V34.8506V35.5312V36.1665V36.8472V37.4825V38.1631V38.8891V39.6152V40.3412V41.0673V41.8387V42.6555V43.4722V44.3344L19.0591 44.8336L19.1952 45.242L19.3767 45.5596L19.649 45.7411L35.3041 54.8165L35.0772 54.5897L34.8503 54.272L34.7142 53.8636L34.6688 53.3645V52.5023V51.6855V50.9141V50.1427V49.3713V48.6452V47.9192V47.2386V46.5125V45.8772V45.1966V44.5613V43.8806V43.2454V42.6101V41.9748V41.3395V40.7042V40.069V39.4337V38.753V38.1177V37.4371V36.7564V36.0304V35.3497V34.6237V33.8523V33.0809V32.2641V31.4473V30.5851V30.3582L34.7142 30.086L34.7596 29.7683L34.8503 29.4961L34.9411 29.2238L35.0772 28.9515L35.168 28.6793L35.3041 28.407L19.649 19.377Z" fill="#2C3E50"/>
<path d="M37.3926 31.9009V46.104L50.3251 38.6167C50.5066 38.4806 50.6427 38.2537 50.6881 38.0268V23.8691L37.7556 31.311C37.5287 31.4471 37.438 31.674 37.3926 31.9009Z" fill="#90A8D4"/>
<path d="M19.649 19.377L19.5128 19.6492L19.3767 19.9215L19.2859 20.1937L19.1952 20.466L19.1044 20.7383L19.0591 21.0105L19.0137 21.2828V21.5551V22.4172V23.234V24.0508V24.8222V25.5483V26.2743V27.0003V27.7264V28.407V29.0877V29.723V30.4036V31.0389V31.6742V32.3095V32.9447V33.58V34.2153V34.8506V35.5312V36.1665V36.8472V37.4825V38.1631V38.8891V39.6152V40.3412V41.0673V41.8387V42.6555V43.4722V44.3344L19.0591 44.8336L19.1952 45.242L19.3767 45.5596L19.649 45.7411L35.3041 54.8165L35.0772 54.5897L34.8503 54.272L34.7142 53.8636L34.6688 53.3645V52.5023V51.6855V50.9141V50.1427V49.3713V48.6452V47.9192V47.2386V46.5125V45.8772V45.1966V44.5613V43.8806V43.2454V42.6101V41.9748V41.3395V40.7042V40.069V39.4337V38.753V38.1177V37.4371V36.7564V36.0304V35.3497V34.6237V33.8523V33.0809V32.2641V31.4473V30.5851V30.3582L34.7142 30.086L34.7596 29.7683L34.8503 29.4961L34.9411 29.2238L35.0772 28.9515L35.168 28.6793L35.3041 28.407L19.649 19.377Z" fill="#2C3E50"/>
<path d="M37.8906 51.7761L57.2667 40.6133L56.2684 40.0234L37.8906 50.6417V51.7761Z" fill="#3B3B45"/>
<path d="M67.8848 32.9448V33.2171V33.3078L67.794 33.444L67.7033 33.5801L67.5671 33.6709L62.3034 36.7111L62.1219 36.8019L61.9404 36.8473L61.7135 36.8926H61.4866H61.2597L61.0328 36.8473L60.8513 36.8019L60.6698 36.7111L54.4531 33.1263L54.68 32.9902L60.6698 36.4389L60.8513 36.5296L61.0328 36.575L61.2597 36.6204H61.4866H61.7135L61.9404 36.575L62.1219 36.5296L62.3034 36.4389L67.5671 33.3986L67.7033 33.3078L67.794 33.1717L67.8848 33.081V32.9448Z" fill="#626F70"/>
<path d="M60.6695 36.4389L54.6797 32.9903L61.577 28.9971L67.5668 32.4457C67.8391 32.5365 67.9752 32.8088 67.8845 33.081C67.8391 33.2172 67.7029 33.3533 67.5668 33.3987L62.3031 36.4389C61.8039 36.7112 61.1686 36.7112 60.6695 36.4389Z" fill="#7F8C8D"/>
<path d="M61.5771 28.9971L67.5669 32.4457C67.8392 32.5365 67.9753 32.8088 67.8845 33.081C67.8392 33.2172 67.703 33.3533 67.5669 33.3987L66.5686 33.9886C63.9821 32.9449 60.4427 32.1735 56.8125 31.7651L61.5771 28.9971Z" fill="#9C9C9C"/>
<path d="M61.5776 28.9971L67.5674 32.4457C67.9758 32.6726 68.0211 33.0356 67.6581 33.3079C65.0263 32.0373 62.3036 30.9483 59.4902 30.1315L61.5776 28.9971Z" fill="#BDC3C7"/>
<path d="M65.7528 32.8991L64.1192 31.9461C64.0284 31.9008 63.9377 31.9008 63.8469 31.9461L63.5747 32.0823C63.5293 32.0823 63.5293 32.1277 63.5293 32.173L63.5747 32.2184L65.2083 33.1713C65.299 33.2167 65.3898 33.2167 65.4805 33.1713L65.7528 33.0352C65.7982 32.9898 65.7982 32.9444 65.7528 32.8991Z" fill="#E6EAEB"/>
<path d="M63.4387 31.5831L61.8051 30.6302C61.7144 30.5848 61.6236 30.5848 61.5329 30.6302L61.2606 30.7664C61.2152 30.8117 61.2152 30.8571 61.2606 30.9025L62.8942 31.8554C62.9849 31.9008 63.0757 31.9008 63.1664 31.8554L63.4387 31.7193C63.5295 31.6739 63.5295 31.6285 63.4387 31.5831Z" fill="#E6EAEB"/>
<path d="M61.1684 30.2672L60.2609 29.7681L59.7617 30.0403L60.6693 30.5395C60.76 30.5849 60.8508 30.5849 60.9415 30.5395L61.2138 30.4033C61.2138 30.358 61.2138 30.3126 61.1684 30.2672Z" fill="#E6EAEB"/>
<path d="M62.486 34.8958C62.3499 34.9866 62.1684 34.9866 61.9869 34.8958L60.4894 34.0337C60.3987 33.9883 60.3533 33.9429 60.3987 33.8522C60.3987 33.8068 60.444 33.7614 60.4894 33.7614L61.6238 33.0808C61.76 32.99 61.9415 32.99 62.123 33.0808L63.6204 33.9429C63.7112 33.9883 63.7566 34.0337 63.7112 34.1244C63.7112 34.1698 63.6658 34.2152 63.6204 34.2152L62.486 34.8958Z" fill="#FFCB05"/>
<path d="M63.3472 44.4707L63.3019 44.8791V44.9699V45.0606L63.2565 45.1967L63.1657 45.2875L63.075 45.3782L62.9842 45.469L62.8935 45.5598L62.7573 45.6505L47.193 54.6352L47.1022 54.6806L47.0114 54.7259L46.9661 54.7713H46.8753L46.7846 54.8167L46.6938 54.8621H46.603L46.5123 54.9075H46.4215H46.3308L46.24 54.9528H46.1493H46.0585H45.9678L45.877 54.9982H45.7863H45.6955L45.6047 54.9528H45.514H45.4232H45.3325L45.2417 54.9075H45.151H45.0602L44.9695 54.8621H44.8787L44.788 54.8167L44.6972 54.7713H44.6518L44.5611 54.7259L44.4703 54.6806L44.3796 54.6352L37.8906 50.9143V50.642L38.0721 50.5512L44.4249 54.2722L44.5157 54.3176H44.6064L44.6518 54.3629L44.7426 54.4083L44.8333 54.4537H44.9241L45.0148 54.4991H45.1056L45.1964 54.5444H45.2871H45.3779L45.4686 54.5898H45.5594H45.6501H45.7409H45.8316H45.9224H46.0131H46.1039H46.1947L46.2854 54.5444H46.3762H46.4669L46.5577 54.4991H46.6484L46.7392 54.4537H46.8299L46.9207 54.4083L47.0114 54.3629L47.0568 54.3176H47.1476L47.2383 54.2722L62.8027 45.2875L62.9388 45.1967L63.0296 45.106L63.1203 45.0152L63.2111 44.8791L63.3019 44.7883V44.6976L63.3472 44.5615V44.4707Z" fill="#C8CFD4"/>
<path d="M56.4046 39.978L62.8028 43.699C63.5742 44.1527 63.5742 44.8788 62.8028 45.2872L47.2385 54.2718C46.3763 54.7256 45.3326 54.7256 44.4704 54.2718L38.0723 50.5509L56.4046 39.978Z" fill="#E6EAEB"/>
<path d="M55.2241 48.1917C55.5871 47.148 54.8611 45.8774 53.1821 44.9245C52.1385 44.3346 51.004 43.9716 49.8242 43.7901L55.5417 40.4775L61.8492 44.1077C62.1214 44.2438 62.1668 44.5161 61.8946 44.6522L55.5417 48.3278L55.2241 48.1917Z" fill="#27AE60"/>
<path d="M52.2745 49.8703C50.3233 50.0518 48.3267 49.6434 46.6023 48.6905C45.7402 48.2821 45.0595 47.6014 44.6511 46.7393L38.9336 50.0518L45.241 53.682C45.5587 53.8635 45.9217 53.8635 46.1939 53.7273L52.5468 50.0518L52.2745 49.8703Z" fill="#27AE60"/>
<path d="M43.9253 51.0958C43.4261 51.3227 42.8816 51.3227 42.3825 51.0958C41.9741 50.8689 41.9741 50.4605 42.3825 50.1882C42.8816 49.9613 43.4261 49.9613 43.9253 50.1882C44.3791 50.4605 44.3791 50.8689 43.9253 51.0958Z" fill="#E6EAEB"/>
<path d="M48.0562 45.3327L49.4629 46.1495C49.8259 45.9226 50.1889 45.7411 50.5973 45.605C50.915 45.4689 51.278 45.4235 51.641 45.4689C52.0494 45.5142 52.4578 45.605 52.7754 45.8319C53.0931 45.968 53.3653 46.1949 53.5469 46.5125C53.683 46.6941 53.6376 46.9663 53.5015 47.1478C53.2746 47.4201 53.0023 47.6924 52.6847 47.8739L52.5032 47.9646L53.0477 48.2823L52.5032 48.6453L51.9587 48.3276C51.6864 48.5091 51.4141 48.6453 51.1419 48.7814C50.8696 48.8722 50.5973 48.9629 50.3251 49.0083C50.0528 49.0537 49.7352 49.0537 49.4629 48.9629C49.1453 48.9175 48.8276 48.7814 48.5554 48.5999L48.3739 48.5091L49.236 47.9646C49.4175 48.0554 49.599 48.1461 49.8259 48.2369C49.9621 48.2823 50.1436 48.2823 50.2797 48.2823C50.4158 48.2823 50.552 48.2369 50.6427 48.1915C50.7788 48.1461 50.9604 48.0554 51.2326 47.8739L49.6898 46.9663C49.3268 47.1478 49.0545 47.3293 48.7822 47.4201C48.5554 47.5108 48.2831 47.6016 48.0562 47.647C47.7839 47.6924 47.5117 47.6924 47.2394 47.647C46.9218 47.5562 46.6041 47.4655 46.3319 47.284C45.9235 47.0571 45.6966 46.8302 45.6512 46.6033C45.6058 46.5125 45.6058 46.3764 45.6512 46.2857L49.0999 44.2891C49.1906 44.2891 49.2814 44.2891 49.3721 44.2891C49.7805 44.3798 50.1889 44.5159 50.552 44.7428L49.6898 45.2874L49.599 45.242C49.4175 45.1059 49.1453 45.0605 48.9184 45.0605C48.6915 45.1059 48.4646 45.1966 48.2377 45.3327H48.0562ZM50.1889 46.5579L51.7318 47.4655L51.9133 47.3747C52.1855 47.1932 52.367 47.0117 52.4124 46.8756C52.4578 46.7394 52.3217 46.5579 52.004 46.4218C51.8225 46.2857 51.5956 46.2403 51.3687 46.1949C51.1872 46.1949 51.0057 46.1949 50.8696 46.2857C50.7335 46.331 50.5066 46.4672 50.1889 46.5579ZM47.4663 45.6504L47.3302 45.7411C47.194 45.8319 47.0579 45.9226 46.9218 46.0588C46.831 46.1042 46.7856 46.2403 46.831 46.331C46.8764 46.4218 46.9672 46.5125 47.194 46.6487C47.4209 46.7848 47.7386 46.8756 48.0108 46.8302C48.3285 46.7848 48.6461 46.6487 48.873 46.4672L47.4663 45.6504Z" fill="#27AE60"/>
<path d="M44.5167 31.9463V34.1244C44.9704 33.8522 45.4242 33.6707 45.9233 33.4892C46.1956 33.3984 46.5586 33.4438 46.7855 33.6253C47.0124 33.8068 47.1032 34.2152 47.1032 34.8051C47.1032 35.3496 47.0124 35.8942 46.8763 36.4387C46.6948 36.8925 46.4679 37.3008 46.1049 37.6185C45.6965 38.0269 45.2427 38.3899 44.7435 38.7075L44.5167 38.8437V39.7058L43.7452 40.1596V39.2974C43.3822 39.479 43.0646 39.6605 42.6562 39.7966C42.3839 39.8873 42.1117 39.9327 41.8394 39.8873C41.6125 39.842 41.3856 39.7058 41.2949 39.479C41.1587 39.1613 41.068 38.7983 41.1134 38.4353V38.163L42.2932 37.4824C42.2932 37.7546 42.2932 37.9815 42.3839 38.2538C42.3839 38.3899 42.4747 38.4807 42.6108 38.526C42.7469 38.5714 42.8831 38.526 42.9738 38.4807C43.11 38.4353 43.3368 38.2991 43.6999 38.1176V35.758C43.2461 35.9849 42.8831 36.1664 42.6108 36.2572C42.3839 36.3479 42.1117 36.3933 41.8848 36.3933C41.6579 36.3479 41.4764 36.2118 41.3856 36.0303C41.2495 35.6673 41.2041 35.3043 41.2041 34.9412C41.2041 34.3967 41.2949 33.8522 41.5218 33.353C41.7033 32.8993 42.0209 32.5362 42.3839 32.1732C42.7923 31.8102 43.2461 31.4926 43.7452 31.2203V30.4489L44.4713 29.9951V30.7212C44.9251 30.4489 45.3788 30.2674 45.878 30.1313C46.1502 30.0405 46.4679 30.1313 46.6494 30.3581C46.8763 30.7665 46.967 31.2657 46.9216 31.7195L45.7418 32.4001C45.7418 32.3547 45.7418 32.3094 45.7418 32.264C45.7418 31.901 45.6511 31.6741 45.515 31.6287C45.3788 31.5833 45.1066 31.6287 44.7889 31.8556L44.5167 31.9463ZM44.5167 35.2589V37.6185L44.7435 37.4824C45.1066 37.3008 45.3788 37.0286 45.6057 36.7109C45.8326 36.3933 45.9233 36.0303 45.878 35.6219C45.9233 35.395 45.878 35.1227 45.7418 34.9412C45.6057 34.8505 45.4696 34.8051 45.3334 34.8505C45.0612 35.032 44.7889 35.1227 44.5167 35.2589ZM43.7452 32.4001L43.5637 32.4909C43.3368 32.627 43.11 32.7631 42.9285 32.8993C42.7923 33.0354 42.6562 33.2169 42.5654 33.3984C42.4747 33.6253 42.4293 33.8976 42.4293 34.1698C42.4293 34.6236 42.5654 34.8505 42.7469 34.8959C43.11 34.8959 43.473 34.7597 43.7452 34.5782V32.4001Z" fill="#3D566E"/>
</g>
<defs>
<linearGradient id="paint0_linear_3165_3963" x1="0.5" y1="57.5715" x2="80.5363" y2="57.5715" gradientUnits="userSpaceOnUse">
<stop stop-color="#FFED44"/>
<stop offset="0.07" stop-color="#FFF047"/>
<stop offset="0.3" stop-color="#FFF24A"/>
<stop offset="0.55" stop-color="#FFE23A"/>
<stop offset="0.74" stop-color="#FFDC34"/>
<stop offset="1" stop-color="#F9B519"/>
</linearGradient>
<clipPath id="clip0_3165_3963">
<rect width="80" height="72.4674" fill="white" transform="translate(0.5 0.5)"/>
</clipPath>
</defs>
</svg>
